%TF.GenerationSoftware,KiCad,Pcbnew,(6.0.1)*%
%TF.CreationDate,2022-03-01T16:38:42-05:00*%
%TF.ProjectId,Project_380,50726f6a-6563-4745-9f33-38302e6b6963,rev?*%
%TF.SameCoordinates,Original*%
%TF.FileFunction,Soldermask,Top*%
%TF.FilePolarity,Negative*%
%FSLAX46Y46*%
G04 Gerber Fmt 4.6, Leading zero omitted, Abs format (unit mm)*
G04 Created by KiCad (PCBNEW (6.0.1)) date 2022-03-01 16:38:42*
%MOMM*%
%LPD*%
G01*
G04 APERTURE LIST*
G04 Aperture macros list*
%AMRoundRect*
0 Rectangle with rounded corners*
0 $1 Rounding radius*
0 $2 $3 $4 $5 $6 $7 $8 $9 X,Y pos of 4 corners*
0 Add a 4 corners polygon primitive as box body*
4,1,4,$2,$3,$4,$5,$6,$7,$8,$9,$2,$3,0*
0 Add four circle primitives for the rounded corners*
1,1,$1+$1,$2,$3*
1,1,$1+$1,$4,$5*
1,1,$1+$1,$6,$7*
1,1,$1+$1,$8,$9*
0 Add four rect primitives between the rounded corners*
20,1,$1+$1,$2,$3,$4,$5,0*
20,1,$1+$1,$4,$5,$6,$7,0*
20,1,$1+$1,$6,$7,$8,$9,0*
20,1,$1+$1,$8,$9,$2,$3,0*%
G04 Aperture macros list end*
%ADD10RoundRect,0.250000X-0.350000X-0.450000X0.350000X-0.450000X0.350000X0.450000X-0.350000X0.450000X0*%
%ADD11RoundRect,0.250001X0.624999X-0.462499X0.624999X0.462499X-0.624999X0.462499X-0.624999X-0.462499X0*%
%ADD12O,1.700000X1.700000*%
%ADD13R,1.700000X1.700000*%
%ADD14C,2.200000*%
%ADD15R,6.000000X6.000000*%
%ADD16O,0.900000X2.500000*%
%ADD17O,2.500000X0.900000*%
%ADD18C,4.400000*%
%ADD19RoundRect,0.250000X0.600000X0.750000X-0.600000X0.750000X-0.600000X-0.750000X0.600000X-0.750000X0*%
%ADD20O,1.700000X2.000000*%
%ADD21RoundRect,0.250000X-0.600000X-0.750000X0.600000X-0.750000X0.600000X0.750000X-0.600000X0.750000X0*%
%ADD22RoundRect,0.020500X0.184500X-0.764500X0.184500X0.764500X-0.184500X0.764500X-0.184500X-0.764500X0*%
%ADD23RoundRect,0.250000X0.600000X0.725000X-0.600000X0.725000X-0.600000X-0.725000X0.600000X-0.725000X0*%
%ADD24O,1.700000X1.950000*%
%ADD25RoundRect,0.250000X-0.450000X0.350000X-0.450000X-0.350000X0.450000X-0.350000X0.450000X0.350000X0*%
%ADD26R,1.981200X0.533400*%
%ADD27R,2.387600X3.200400*%
%ADD28RoundRect,0.250000X-0.337500X-0.475000X0.337500X-0.475000X0.337500X0.475000X-0.337500X0.475000X0*%
%ADD29RoundRect,0.250000X0.350000X0.450000X-0.350000X0.450000X-0.350000X-0.450000X0.350000X-0.450000X0*%
%ADD30RoundRect,0.250000X0.750000X-0.600000X0.750000X0.600000X-0.750000X0.600000X-0.750000X-0.600000X0*%
%ADD31O,2.000000X1.700000*%
%ADD32C,2.000000*%
G04 APERTURE END LIST*
D10*
%TO.C,R9*%
X101750000Y-98500000D03*
X103750000Y-98500000D03*
%TD*%
%TO.C,R8*%
X107750000Y-98500000D03*
X109750000Y-98500000D03*
%TD*%
D11*
%TO.C,D2*%
X102750000Y-96237500D03*
X102750000Y-93262500D03*
%TD*%
%TO.C,D1*%
X108750000Y-96237500D03*
X108750000Y-93262500D03*
%TD*%
D12*
%TO.C,J13*%
X136800000Y-96435000D03*
X136800000Y-93895000D03*
X136800000Y-91355000D03*
X136800000Y-88815000D03*
X136800000Y-86275000D03*
X136800000Y-83735000D03*
X136800000Y-81195000D03*
X136800000Y-78655000D03*
X136800000Y-76115000D03*
D13*
X136800000Y-73575000D03*
%TD*%
D14*
%TO.C,REF\u002A\u002A*%
X136800000Y-101510000D03*
%TD*%
%TO.C,REF\u002A\u002A*%
X136800000Y-68490000D03*
%TD*%
D15*
%TO.C,U2*%
X118090000Y-81900000D03*
D16*
X110390000Y-72600000D03*
X111660000Y-72600000D03*
X112930000Y-72600000D03*
X114200000Y-72600000D03*
X115470000Y-72600000D03*
X116740000Y-72600000D03*
X118010000Y-72600000D03*
X119280000Y-72600000D03*
X120550000Y-72600000D03*
X121820000Y-72600000D03*
X123090000Y-72600000D03*
X124360000Y-72600000D03*
X125630000Y-72600000D03*
X126900000Y-72600000D03*
D17*
X128390000Y-75885000D03*
X128390000Y-77155000D03*
X128390000Y-78425000D03*
X128390000Y-79695000D03*
X128390000Y-80965000D03*
X128390000Y-82235000D03*
X128390000Y-83505000D03*
X128390000Y-84775000D03*
X128390000Y-86045000D03*
X128390000Y-87315000D03*
D16*
X126900000Y-90600000D03*
X125630000Y-90600000D03*
X124360000Y-90600000D03*
X123090000Y-90600000D03*
X121820000Y-90600000D03*
X120550000Y-90600000D03*
X119280000Y-90600000D03*
X118010000Y-90600000D03*
X116740000Y-90600000D03*
X115470000Y-90600000D03*
X114200000Y-90600000D03*
X112930000Y-90600000D03*
X111660000Y-90600000D03*
X110390000Y-90600000D03*
%TD*%
D18*
%TO.C,REF\u002A\u002A*%
X112000000Y-65000000D03*
%TD*%
%TO.C,REF\u002A\u002A*%
X167000000Y-72000000D03*
%TD*%
%TO.C,REF\u002A\u002A*%
X112000000Y-105000000D03*
%TD*%
%TO.C,REF\u002A\u002A*%
X167000000Y-98000000D03*
%TD*%
D19*
%TO.C,J3*%
X166750000Y-105500000D03*
D20*
X164250000Y-105500000D03*
%TD*%
D21*
%TO.C,J2*%
X103750000Y-64475000D03*
D20*
X106250000Y-64475000D03*
%TD*%
D19*
%TO.C,J4*%
X106250000Y-105525000D03*
D20*
X103750000Y-105525000D03*
%TD*%
D22*
%TO.C,U6*%
X142855000Y-91965000D03*
X143505000Y-91965000D03*
X144155000Y-91965000D03*
X144805000Y-91965000D03*
X145455000Y-91965000D03*
X146105000Y-91965000D03*
X146755000Y-91965000D03*
X147405000Y-91965000D03*
X147405000Y-86225000D03*
X146755000Y-86225000D03*
X146105000Y-86225000D03*
X145455000Y-86225000D03*
X144805000Y-86225000D03*
X144155000Y-86225000D03*
X143505000Y-86225000D03*
X142855000Y-86225000D03*
%TD*%
D23*
%TO.C,J12*%
X159000000Y-72770000D03*
D24*
X156500000Y-72770000D03*
X154000000Y-72770000D03*
X151500000Y-72770000D03*
%TD*%
D25*
%TO.C,R6*%
X131980000Y-98650000D03*
X131980000Y-100650000D03*
%TD*%
D23*
%TO.C,J10*%
X159000000Y-89480000D03*
D24*
X156500000Y-89480000D03*
X154000000Y-89480000D03*
X151500000Y-89480000D03*
%TD*%
D23*
%TO.C,J11*%
X159000000Y-81170000D03*
D24*
X156500000Y-81170000D03*
X154000000Y-81170000D03*
X151500000Y-81170000D03*
%TD*%
D10*
%TO.C,R1*%
X109100000Y-69900000D03*
X111100000Y-69900000D03*
%TD*%
D23*
%TO.C,J9*%
X159000000Y-97730000D03*
D24*
X156500000Y-97730000D03*
X154000000Y-97730000D03*
X151500000Y-97730000D03*
%TD*%
D10*
%TO.C,R5*%
X111660000Y-95016250D03*
X113660000Y-95016250D03*
%TD*%
%TO.C,R4*%
X128970000Y-107000000D03*
X130970000Y-107000000D03*
%TD*%
D25*
%TO.C,R7*%
X131960000Y-93330000D03*
X131960000Y-95330000D03*
%TD*%
D26*
%TO.C,U4*%
X127036200Y-64095000D03*
X127036200Y-65365000D03*
X127036200Y-66635000D03*
X127036200Y-67905000D03*
X131963800Y-67905000D03*
X131963800Y-66635000D03*
X131963800Y-65365000D03*
X131963800Y-64095000D03*
D27*
X129500000Y-66000000D03*
%TD*%
D28*
%TO.C,C1*%
X113702500Y-98500000D03*
X115777500Y-98500000D03*
%TD*%
D13*
%TO.C,U1*%
X176570000Y-88410000D03*
D12*
X176570000Y-85870000D03*
X176570000Y-83330000D03*
X176570000Y-80790000D03*
%TD*%
D23*
%TO.C,J15*%
X156700000Y-65565000D03*
D24*
X154200000Y-65565000D03*
X151700000Y-65565000D03*
%TD*%
D29*
%TO.C,R3*%
X144860000Y-61790000D03*
X142860000Y-61790000D03*
%TD*%
D25*
%TO.C,R2*%
X116780000Y-67690000D03*
X116780000Y-69690000D03*
%TD*%
D22*
%TO.C,U3*%
X142855000Y-78465000D03*
X143505000Y-78465000D03*
X144155000Y-78465000D03*
X144805000Y-78465000D03*
X145455000Y-78465000D03*
X146105000Y-78465000D03*
X146755000Y-78465000D03*
X147405000Y-78465000D03*
X147405000Y-72725000D03*
X146755000Y-72725000D03*
X146105000Y-72725000D03*
X145455000Y-72725000D03*
X144805000Y-72725000D03*
X144155000Y-72725000D03*
X143505000Y-72725000D03*
X142855000Y-72725000D03*
%TD*%
D21*
%TO.C,J1*%
X164500000Y-64475000D03*
D20*
X167000000Y-64475000D03*
%TD*%
D27*
%TO.C,U5*%
X146820000Y-105590000D03*
D26*
X144356200Y-107495000D03*
X144356200Y-106225000D03*
X144356200Y-104955000D03*
X144356200Y-103685000D03*
X149283800Y-103685000D03*
X149283800Y-104955000D03*
X149283800Y-106225000D03*
X149283800Y-107495000D03*
%TD*%
D30*
%TO.C,J7*%
X175700000Y-75000000D03*
D31*
X175700000Y-72500000D03*
%TD*%
D30*
%TO.C,J8*%
X175700000Y-66100000D03*
D31*
X175700000Y-63600000D03*
%TD*%
D13*
%TO.C,JP1*%
X121800000Y-68075000D03*
D12*
X121800000Y-65535000D03*
%TD*%
D30*
%TO.C,J5*%
X175700000Y-106300000D03*
D31*
X175700000Y-103800000D03*
%TD*%
D32*
%TO.C,SW1*%
X124220000Y-106980000D03*
X117720000Y-106980000D03*
X124220000Y-102480000D03*
X117720000Y-102480000D03*
%TD*%
D13*
%TO.C,J14*%
X168110000Y-91130000D03*
D12*
X168110000Y-88590000D03*
X168110000Y-86050000D03*
X168110000Y-83510000D03*
X168110000Y-80970000D03*
X168110000Y-78430000D03*
%TD*%
D21*
%TO.C,J16*%
X119990000Y-96815000D03*
D20*
X122490000Y-96815000D03*
%TD*%
D30*
%TO.C,J6*%
X175700000Y-97400000D03*
D31*
X175700000Y-94900000D03*
%TD*%
M02*
