%TF.GenerationSoftware,KiCad,Pcbnew,(6.0.1)*%
%TF.CreationDate,2022-03-01T16:38:42-05:00*%
%TF.ProjectId,Project_380,50726f6a-6563-4745-9f33-38302e6b6963,rev?*%
%TF.SameCoordinates,Original*%
%TF.FileFunction,Paste,Top*%
%TF.FilePolarity,Positive*%
%FSLAX46Y46*%
G04 Gerber Fmt 4.6, Leading zero omitted, Abs format (unit mm)*
G04 Created by KiCad (PCBNEW (6.0.1)) date 2022-03-01 16:38:42*
%MOMM*%
%LPD*%
G01*
G04 APERTURE LIST*
G04 Aperture macros list*
%AMRoundRect*
0 Rectangle with rounded corners*
0 $1 Rounding radius*
0 $2 $3 $4 $5 $6 $7 $8 $9 X,Y pos of 4 corners*
0 Add a 4 corners polygon primitive as box body*
4,1,4,$2,$3,$4,$5,$6,$7,$8,$9,$2,$3,0*
0 Add four circle primitives for the rounded corners*
1,1,$1+$1,$2,$3*
1,1,$1+$1,$4,$5*
1,1,$1+$1,$6,$7*
1,1,$1+$1,$8,$9*
0 Add four rect primitives between the rounded corners*
20,1,$1+$1,$2,$3,$4,$5,0*
20,1,$1+$1,$4,$5,$6,$7,0*
20,1,$1+$1,$6,$7,$8,$9,0*
20,1,$1+$1,$8,$9,$2,$3,0*%
G04 Aperture macros list end*
%ADD10C,0.100000*%
%ADD11RoundRect,0.250000X-0.350000X-0.450000X0.350000X-0.450000X0.350000X0.450000X-0.350000X0.450000X0*%
%ADD12RoundRect,0.250001X0.624999X-0.462499X0.624999X0.462499X-0.624999X0.462499X-0.624999X-0.462499X0*%
%ADD13R,6.000000X6.000000*%
%ADD14O,0.900000X2.500000*%
%ADD15O,2.500000X0.900000*%
%ADD16RoundRect,0.020500X0.184500X-0.764500X0.184500X0.764500X-0.184500X0.764500X-0.184500X-0.764500X0*%
%ADD17RoundRect,0.250000X-0.450000X0.350000X-0.450000X-0.350000X0.450000X-0.350000X0.450000X0.350000X0*%
%ADD18R,1.981200X0.533400*%
%ADD19RoundRect,0.250000X-0.337500X-0.475000X0.337500X-0.475000X0.337500X0.475000X-0.337500X0.475000X0*%
%ADD20RoundRect,0.250000X0.350000X0.450000X-0.350000X0.450000X-0.350000X-0.450000X0.350000X-0.450000X0*%
G04 APERTURE END LIST*
D10*
%TO.C,U4*%
X128406200Y-64499800D02*
X128406200Y-65900000D01*
X128406200Y-65900000D02*
X130593800Y-65900000D01*
X130593800Y-65900000D02*
X130593800Y-64499800D01*
X130593800Y-64499800D02*
X128406200Y-64499800D01*
G36*
X130593800Y-65900000D02*
G01*
X128406200Y-65900000D01*
X128406200Y-64499800D01*
X130593800Y-64499800D01*
X130593800Y-65900000D01*
G37*
X130593800Y-65900000D02*
X128406200Y-65900000D01*
X128406200Y-64499800D01*
X130593800Y-64499800D01*
X130593800Y-65900000D01*
X128406200Y-66100000D02*
X128406200Y-67500200D01*
X128406200Y-67500200D02*
X130593800Y-67500200D01*
X130593800Y-67500200D02*
X130593800Y-66100000D01*
X130593800Y-66100000D02*
X128406200Y-66100000D01*
G36*
X130593800Y-67500200D02*
G01*
X128406200Y-67500200D01*
X128406200Y-66100000D01*
X130593800Y-66100000D01*
X130593800Y-67500200D01*
G37*
X130593800Y-67500200D02*
X128406200Y-67500200D01*
X128406200Y-66100000D01*
X130593800Y-66100000D01*
X130593800Y-67500200D01*
%TO.C,U5*%
X147913800Y-107090200D02*
X147913800Y-105690000D01*
X147913800Y-105690000D02*
X145726200Y-105690000D01*
X145726200Y-105690000D02*
X145726200Y-107090200D01*
X145726200Y-107090200D02*
X147913800Y-107090200D01*
G36*
X147913800Y-107090200D02*
G01*
X145726200Y-107090200D01*
X145726200Y-105690000D01*
X147913800Y-105690000D01*
X147913800Y-107090200D01*
G37*
X147913800Y-107090200D02*
X145726200Y-107090200D01*
X145726200Y-105690000D01*
X147913800Y-105690000D01*
X147913800Y-107090200D01*
X147913800Y-105490000D02*
X147913800Y-104089800D01*
X147913800Y-104089800D02*
X145726200Y-104089800D01*
X145726200Y-104089800D02*
X145726200Y-105490000D01*
X145726200Y-105490000D02*
X147913800Y-105490000D01*
G36*
X147913800Y-105490000D02*
G01*
X145726200Y-105490000D01*
X145726200Y-104089800D01*
X147913800Y-104089800D01*
X147913800Y-105490000D01*
G37*
X147913800Y-105490000D02*
X145726200Y-105490000D01*
X145726200Y-104089800D01*
X147913800Y-104089800D01*
X147913800Y-105490000D01*
%TD*%
D11*
%TO.C,R9*%
X101750000Y-98500000D03*
X103750000Y-98500000D03*
%TD*%
%TO.C,R8*%
X107750000Y-98500000D03*
X109750000Y-98500000D03*
%TD*%
D12*
%TO.C,D2*%
X102750000Y-96237500D03*
X102750000Y-93262500D03*
%TD*%
%TO.C,D1*%
X108750000Y-96237500D03*
X108750000Y-93262500D03*
%TD*%
D13*
%TO.C,U2*%
X118090000Y-81900000D03*
D14*
X110390000Y-72600000D03*
X111660000Y-72600000D03*
X112930000Y-72600000D03*
X114200000Y-72600000D03*
X115470000Y-72600000D03*
X116740000Y-72600000D03*
X118010000Y-72600000D03*
X119280000Y-72600000D03*
X120550000Y-72600000D03*
X121820000Y-72600000D03*
X123090000Y-72600000D03*
X124360000Y-72600000D03*
X125630000Y-72600000D03*
X126900000Y-72600000D03*
D15*
X128390000Y-75885000D03*
X128390000Y-77155000D03*
X128390000Y-78425000D03*
X128390000Y-79695000D03*
X128390000Y-80965000D03*
X128390000Y-82235000D03*
X128390000Y-83505000D03*
X128390000Y-84775000D03*
X128390000Y-86045000D03*
X128390000Y-87315000D03*
D14*
X126900000Y-90600000D03*
X125630000Y-90600000D03*
X124360000Y-90600000D03*
X123090000Y-90600000D03*
X121820000Y-90600000D03*
X120550000Y-90600000D03*
X119280000Y-90600000D03*
X118010000Y-90600000D03*
X116740000Y-90600000D03*
X115470000Y-90600000D03*
X114200000Y-90600000D03*
X112930000Y-90600000D03*
X111660000Y-90600000D03*
X110390000Y-90600000D03*
%TD*%
D16*
%TO.C,U6*%
X142855000Y-91965000D03*
X143505000Y-91965000D03*
X144155000Y-91965000D03*
X144805000Y-91965000D03*
X145455000Y-91965000D03*
X146105000Y-91965000D03*
X146755000Y-91965000D03*
X147405000Y-91965000D03*
X147405000Y-86225000D03*
X146755000Y-86225000D03*
X146105000Y-86225000D03*
X145455000Y-86225000D03*
X144805000Y-86225000D03*
X144155000Y-86225000D03*
X143505000Y-86225000D03*
X142855000Y-86225000D03*
%TD*%
D17*
%TO.C,R6*%
X131980000Y-98650000D03*
X131980000Y-100650000D03*
%TD*%
D11*
%TO.C,R1*%
X109100000Y-69900000D03*
X111100000Y-69900000D03*
%TD*%
%TO.C,R5*%
X111660000Y-95016250D03*
X113660000Y-95016250D03*
%TD*%
%TO.C,R4*%
X128970000Y-107000000D03*
X130970000Y-107000000D03*
%TD*%
D17*
%TO.C,R7*%
X131960000Y-93330000D03*
X131960000Y-95330000D03*
%TD*%
D18*
%TO.C,U4*%
X127036200Y-64095000D03*
X127036200Y-65365000D03*
X127036200Y-66635000D03*
X127036200Y-67905000D03*
X131963800Y-67905000D03*
X131963800Y-66635000D03*
X131963800Y-65365000D03*
X131963800Y-64095000D03*
%TD*%
D19*
%TO.C,C1*%
X113702500Y-98500000D03*
X115777500Y-98500000D03*
%TD*%
D20*
%TO.C,R3*%
X144860000Y-61790000D03*
X142860000Y-61790000D03*
%TD*%
D17*
%TO.C,R2*%
X116780000Y-67690000D03*
X116780000Y-69690000D03*
%TD*%
D16*
%TO.C,U3*%
X142855000Y-78465000D03*
X143505000Y-78465000D03*
X144155000Y-78465000D03*
X144805000Y-78465000D03*
X145455000Y-78465000D03*
X146105000Y-78465000D03*
X146755000Y-78465000D03*
X147405000Y-78465000D03*
X147405000Y-72725000D03*
X146755000Y-72725000D03*
X146105000Y-72725000D03*
X145455000Y-72725000D03*
X144805000Y-72725000D03*
X144155000Y-72725000D03*
X143505000Y-72725000D03*
X142855000Y-72725000D03*
%TD*%
D18*
%TO.C,U5*%
X144356200Y-107495000D03*
X144356200Y-106225000D03*
X144356200Y-104955000D03*
X144356200Y-103685000D03*
X149283800Y-103685000D03*
X149283800Y-104955000D03*
X149283800Y-106225000D03*
X149283800Y-107495000D03*
%TD*%
M02*
