%TF.GenerationSoftware,KiCad,Pcbnew,(6.0.1)*%
%TF.CreationDate,2022-03-01T16:38:42-05:00*%
%TF.ProjectId,Project_380,50726f6a-6563-4745-9f33-38302e6b6963,rev?*%
%TF.SameCoordinates,Original*%
%TF.FileFunction,Legend,Bot*%
%TF.FilePolarity,Positive*%
%FSLAX46Y46*%
G04 Gerber Fmt 4.6, Leading zero omitted, Abs format (unit mm)*
G04 Created by KiCad (PCBNEW (6.0.1)) date 2022-03-01 16:38:42*
%MOMM*%
%LPD*%
G01*
G04 APERTURE LIST*
%ADD10C,0.200000*%
%ADD11C,0.400000*%
%ADD12C,0.150000*%
%ADD13C,0.250000*%
%ADD14C,0.120000*%
G04 APERTURE END LIST*
D10*
X128262857Y-75721071D02*
X128262857Y-74221071D01*
X127405714Y-75721071D02*
X128048571Y-74863928D01*
X127405714Y-74221071D02*
X128262857Y-75078214D01*
X126762857Y-75578214D02*
X126691428Y-75649642D01*
X126762857Y-75721071D01*
X126834285Y-75649642D01*
X126762857Y-75578214D01*
X126762857Y-75721071D01*
X124905714Y-75721071D02*
X124905714Y-74221071D01*
X124048571Y-75721071D02*
X124691428Y-74863928D01*
X124048571Y-74221071D02*
X124905714Y-75078214D01*
X123405714Y-75578214D02*
X123334285Y-75649642D01*
X123405714Y-75721071D01*
X123477142Y-75649642D01*
X123405714Y-75578214D01*
X123405714Y-75721071D01*
X120691428Y-75721071D02*
X121191428Y-75006785D01*
X121548571Y-75721071D02*
X121548571Y-74221071D01*
X120977142Y-74221071D01*
X120834285Y-74292500D01*
X120762857Y-74363928D01*
X120691428Y-74506785D01*
X120691428Y-74721071D01*
X120762857Y-74863928D01*
X120834285Y-74935357D01*
X120977142Y-75006785D01*
X121548571Y-75006785D01*
X119405714Y-75721071D02*
X119405714Y-74935357D01*
X119477142Y-74792500D01*
X119620000Y-74721071D01*
X119905714Y-74721071D01*
X120048571Y-74792500D01*
X119405714Y-75649642D02*
X119548571Y-75721071D01*
X119905714Y-75721071D01*
X120048571Y-75649642D01*
X120120000Y-75506785D01*
X120120000Y-75363928D01*
X120048571Y-75221071D01*
X119905714Y-75149642D01*
X119548571Y-75149642D01*
X119405714Y-75078214D01*
X118834285Y-74721071D02*
X118477142Y-75721071D01*
X118120000Y-74721071D02*
X118477142Y-75721071D01*
X118620000Y-76078214D01*
X118691428Y-76149642D01*
X118834285Y-76221071D01*
X115191428Y-75721071D02*
X115262857Y-75721071D01*
X115405714Y-75649642D01*
X115620000Y-75435357D01*
X115977142Y-75006785D01*
X116120000Y-74792500D01*
X116191428Y-74578214D01*
X116191428Y-74435357D01*
X116120000Y-74292500D01*
X115977142Y-74221071D01*
X115905714Y-74221071D01*
X115762857Y-74292500D01*
X115691428Y-74435357D01*
X115691428Y-74506785D01*
X115762857Y-74649642D01*
X115834285Y-74721071D01*
X116262857Y-75006785D01*
X116334285Y-75078214D01*
X116405714Y-75221071D01*
X116405714Y-75435357D01*
X116334285Y-75578214D01*
X116262857Y-75649642D01*
X116120000Y-75721071D01*
X115905714Y-75721071D01*
X115762857Y-75649642D01*
X115691428Y-75578214D01*
X115477142Y-75292500D01*
X115405714Y-75078214D01*
X115405714Y-74935357D01*
X113548571Y-74221071D02*
X112548571Y-74221071D01*
X113548571Y-75721071D01*
X112548571Y-75721071D01*
X111977142Y-75578214D02*
X111905714Y-75649642D01*
X111977142Y-75721071D01*
X112048571Y-75649642D01*
X111977142Y-75578214D01*
X111977142Y-75721071D01*
X110120000Y-75721071D02*
X110120000Y-74221071D01*
X109620000Y-75292500D01*
X109120000Y-74221071D01*
X109120000Y-75721071D01*
X107834285Y-75649642D02*
X107977142Y-75721071D01*
X108262857Y-75721071D01*
X108405714Y-75649642D01*
X108477142Y-75506785D01*
X108477142Y-74935357D01*
X108405714Y-74792500D01*
X108262857Y-74721071D01*
X107977142Y-74721071D01*
X107834285Y-74792500D01*
X107762857Y-74935357D01*
X107762857Y-75078214D01*
X108477142Y-75221071D01*
X106477142Y-75721071D02*
X106477142Y-74935357D01*
X106548571Y-74792500D01*
X106691428Y-74721071D01*
X106977142Y-74721071D01*
X107120000Y-74792500D01*
X106477142Y-75649642D02*
X106620000Y-75721071D01*
X106977142Y-75721071D01*
X107120000Y-75649642D01*
X107191428Y-75506785D01*
X107191428Y-75363928D01*
X107120000Y-75221071D01*
X106977142Y-75149642D01*
X106620000Y-75149642D01*
X106477142Y-75078214D01*
X105762857Y-75721071D02*
X105762857Y-74721071D01*
X105762857Y-75006785D02*
X105691428Y-74863928D01*
X105620000Y-74792500D01*
X105477142Y-74721071D01*
X105334285Y-74721071D01*
X104905714Y-75649642D02*
X104762857Y-75721071D01*
X104477142Y-75721071D01*
X104334285Y-75649642D01*
X104262857Y-75506785D01*
X104262857Y-75435357D01*
X104334285Y-75292500D01*
X104477142Y-75221071D01*
X104691428Y-75221071D01*
X104834285Y-75149642D01*
X104905714Y-75006785D01*
X104905714Y-74935357D01*
X104834285Y-74792500D01*
X104691428Y-74721071D01*
X104477142Y-74721071D01*
X104334285Y-74792500D01*
X128334285Y-76778928D02*
X128262857Y-76707500D01*
X128120000Y-76636071D01*
X127762857Y-76636071D01*
X127620000Y-76707500D01*
X127548571Y-76778928D01*
X127477142Y-76921785D01*
X127477142Y-77064642D01*
X127548571Y-77278928D01*
X128405714Y-78136071D01*
X127477142Y-78136071D01*
X126548571Y-76636071D02*
X126405714Y-76636071D01*
X126262857Y-76707500D01*
X126191428Y-76778928D01*
X126120000Y-76921785D01*
X126048571Y-77207500D01*
X126048571Y-77564642D01*
X126120000Y-77850357D01*
X126191428Y-77993214D01*
X126262857Y-78064642D01*
X126405714Y-78136071D01*
X126548571Y-78136071D01*
X126691428Y-78064642D01*
X126762857Y-77993214D01*
X126834285Y-77850357D01*
X126905714Y-77564642D01*
X126905714Y-77207500D01*
X126834285Y-76921785D01*
X126762857Y-76778928D01*
X126691428Y-76707500D01*
X126548571Y-76636071D01*
X125477142Y-76778928D02*
X125405714Y-76707500D01*
X125262857Y-76636071D01*
X124905714Y-76636071D01*
X124762857Y-76707500D01*
X124691428Y-76778928D01*
X124620000Y-76921785D01*
X124620000Y-77064642D01*
X124691428Y-77278928D01*
X125548571Y-78136071D01*
X124620000Y-78136071D01*
X124048571Y-76778928D02*
X123977142Y-76707500D01*
X123834285Y-76636071D01*
X123477142Y-76636071D01*
X123334285Y-76707500D01*
X123262857Y-76778928D01*
X123191428Y-76921785D01*
X123191428Y-77064642D01*
X123262857Y-77278928D01*
X124120000Y-78136071D01*
X123191428Y-78136071D01*
X122548571Y-77564642D02*
X121405714Y-77564642D01*
X120405714Y-76636071D02*
X120262857Y-76636071D01*
X120120000Y-76707500D01*
X120048571Y-76778928D01*
X119977142Y-76921785D01*
X119905714Y-77207500D01*
X119905714Y-77564642D01*
X119977142Y-77850357D01*
X120048571Y-77993214D01*
X120120000Y-78064642D01*
X120262857Y-78136071D01*
X120405714Y-78136071D01*
X120548571Y-78064642D01*
X120620000Y-77993214D01*
X120691428Y-77850357D01*
X120762857Y-77564642D01*
X120762857Y-77207500D01*
X120691428Y-76921785D01*
X120620000Y-76778928D01*
X120548571Y-76707500D01*
X120405714Y-76636071D01*
X119405714Y-76636071D02*
X118477142Y-76636071D01*
X118977142Y-77207500D01*
X118762857Y-77207500D01*
X118620000Y-77278928D01*
X118548571Y-77350357D01*
X118477142Y-77493214D01*
X118477142Y-77850357D01*
X118548571Y-77993214D01*
X118620000Y-78064642D01*
X118762857Y-78136071D01*
X119191428Y-78136071D01*
X119334285Y-78064642D01*
X119405714Y-77993214D01*
X117834285Y-77564642D02*
X116691428Y-77564642D01*
X115691428Y-76636071D02*
X115548571Y-76636071D01*
X115405714Y-76707500D01*
X115334285Y-76778928D01*
X115262857Y-76921785D01*
X115191428Y-77207500D01*
X115191428Y-77564642D01*
X115262857Y-77850357D01*
X115334285Y-77993214D01*
X115405714Y-78064642D01*
X115548571Y-78136071D01*
X115691428Y-78136071D01*
X115834285Y-78064642D01*
X115905714Y-77993214D01*
X115977142Y-77850357D01*
X116048571Y-77564642D01*
X116048571Y-77207500D01*
X115977142Y-76921785D01*
X115905714Y-76778928D01*
X115834285Y-76707500D01*
X115691428Y-76636071D01*
X113762857Y-78136071D02*
X114620000Y-78136071D01*
X114191428Y-78136071D02*
X114191428Y-76636071D01*
X114334285Y-76850357D01*
X114477142Y-76993214D01*
X114620000Y-77064642D01*
D11*
X128571428Y-72357142D02*
X127904761Y-72357142D01*
X127619047Y-73404761D02*
X128571428Y-73404761D01*
X128571428Y-71404761D01*
X127619047Y-71404761D01*
X126761904Y-73214285D02*
X126666666Y-73309523D01*
X126761904Y-73404761D01*
X126857142Y-73309523D01*
X126761904Y-73214285D01*
X126761904Y-73404761D01*
X125809523Y-73404761D02*
X125809523Y-71404761D01*
X125142857Y-72833333D01*
X124476190Y-71404761D01*
X124476190Y-73404761D01*
X123523809Y-73214285D02*
X123428571Y-73309523D01*
X123523809Y-73404761D01*
X123619047Y-73309523D01*
X123523809Y-73214285D01*
X123523809Y-73404761D01*
X122571428Y-71404761D02*
X122571428Y-73023809D01*
X122476190Y-73214285D01*
X122380952Y-73309523D01*
X122190476Y-73404761D01*
X121809523Y-73404761D01*
X121619047Y-73309523D01*
X121523809Y-73214285D01*
X121428571Y-73023809D01*
X121428571Y-71404761D01*
X120476190Y-73214285D02*
X120380952Y-73309523D01*
X120476190Y-73404761D01*
X120571428Y-73309523D01*
X120476190Y-73214285D01*
X120476190Y-73404761D01*
X118190476Y-71404761D02*
X117714285Y-73404761D01*
X117333333Y-71976190D01*
X116952380Y-73404761D01*
X116476190Y-71404761D01*
X114571428Y-73404761D02*
X115238095Y-72452380D01*
X115714285Y-73404761D02*
X115714285Y-71404761D01*
X114952380Y-71404761D01*
X114761904Y-71500000D01*
X114666666Y-71595238D01*
X114571428Y-71785714D01*
X114571428Y-72071428D01*
X114666666Y-72261904D01*
X114761904Y-72357142D01*
X114952380Y-72452380D01*
X115714285Y-72452380D01*
X113809523Y-72833333D02*
X112857142Y-72833333D01*
X114000000Y-73404761D02*
X113333333Y-71404761D01*
X112666666Y-73404761D01*
X112000000Y-73404761D02*
X112000000Y-71404761D01*
X110857142Y-73404761D01*
X110857142Y-71404761D01*
X108857142Y-71500000D02*
X109047619Y-71404761D01*
X109333333Y-71404761D01*
X109619047Y-71500000D01*
X109809523Y-71690476D01*
X109904761Y-71880952D01*
X110000000Y-72261904D01*
X110000000Y-72547619D01*
X109904761Y-72928571D01*
X109809523Y-73119047D01*
X109619047Y-73309523D01*
X109333333Y-73404761D01*
X109142857Y-73404761D01*
X108857142Y-73309523D01*
X108761904Y-73214285D01*
X108761904Y-72547619D01*
X109142857Y-72547619D01*
X106952380Y-73404761D02*
X107904761Y-73404761D01*
X107904761Y-71404761D01*
X106285714Y-72357142D02*
X105619047Y-72357142D01*
X105333333Y-73404761D02*
X106285714Y-73404761D01*
X106285714Y-71404761D01*
X105333333Y-71404761D01*
X103333333Y-73404761D02*
X104000000Y-72452380D01*
X104476190Y-73404761D02*
X104476190Y-71404761D01*
X103714285Y-71404761D01*
X103523809Y-71500000D01*
X103428571Y-71595238D01*
X103333333Y-71785714D01*
X103333333Y-72071428D01*
X103428571Y-72261904D01*
X103523809Y-72357142D01*
X103714285Y-72452380D01*
X104476190Y-72452380D01*
D10*
X171428571Y-77678571D02*
X169928571Y-77678571D01*
X169928571Y-78250000D01*
X170000000Y-78392857D01*
X170071428Y-78464285D01*
X170214285Y-78535714D01*
X170428571Y-78535714D01*
X170571428Y-78464285D01*
X170642857Y-78392857D01*
X170714285Y-78250000D01*
X170714285Y-77678571D01*
X171428571Y-79178571D02*
X170428571Y-79178571D01*
X170714285Y-79178571D02*
X170571428Y-79250000D01*
X170500000Y-79321428D01*
X170428571Y-79464285D01*
X170428571Y-79607142D01*
X171428571Y-80321428D02*
X171357142Y-80178571D01*
X171285714Y-80107142D01*
X171142857Y-80035714D01*
X170714285Y-80035714D01*
X170571428Y-80107142D01*
X170500000Y-80178571D01*
X170428571Y-80321428D01*
X170428571Y-80535714D01*
X170500000Y-80678571D01*
X170571428Y-80750000D01*
X170714285Y-80821428D01*
X171142857Y-80821428D01*
X171285714Y-80750000D01*
X171357142Y-80678571D01*
X171428571Y-80535714D01*
X171428571Y-80321428D01*
X170428571Y-82107142D02*
X171642857Y-82107142D01*
X171785714Y-82035714D01*
X171857142Y-81964285D01*
X171928571Y-81821428D01*
X171928571Y-81607142D01*
X171857142Y-81464285D01*
X171357142Y-82107142D02*
X171428571Y-81964285D01*
X171428571Y-81678571D01*
X171357142Y-81535714D01*
X171285714Y-81464285D01*
X171142857Y-81392857D01*
X170714285Y-81392857D01*
X170571428Y-81464285D01*
X170500000Y-81535714D01*
X170428571Y-81678571D01*
X170428571Y-81964285D01*
X170500000Y-82107142D01*
X171428571Y-82821428D02*
X170428571Y-82821428D01*
X170714285Y-82821428D02*
X170571428Y-82892857D01*
X170500000Y-82964285D01*
X170428571Y-83107142D01*
X170428571Y-83250000D01*
X171428571Y-84392857D02*
X170642857Y-84392857D01*
X170500000Y-84321428D01*
X170428571Y-84178571D01*
X170428571Y-83892857D01*
X170500000Y-83750000D01*
X171357142Y-84392857D02*
X171428571Y-84250000D01*
X171428571Y-83892857D01*
X171357142Y-83750000D01*
X171214285Y-83678571D01*
X171071428Y-83678571D01*
X170928571Y-83750000D01*
X170857142Y-83892857D01*
X170857142Y-84250000D01*
X170785714Y-84392857D01*
X171428571Y-85107142D02*
X170428571Y-85107142D01*
X170571428Y-85107142D02*
X170500000Y-85178571D01*
X170428571Y-85321428D01*
X170428571Y-85535714D01*
X170500000Y-85678571D01*
X170642857Y-85750000D01*
X171428571Y-85750000D01*
X170642857Y-85750000D02*
X170500000Y-85821428D01*
X170428571Y-85964285D01*
X170428571Y-86178571D01*
X170500000Y-86321428D01*
X170642857Y-86392857D01*
X171428571Y-86392857D01*
X171428571Y-87107142D02*
X170428571Y-87107142D01*
X170571428Y-87107142D02*
X170500000Y-87178571D01*
X170428571Y-87321428D01*
X170428571Y-87535714D01*
X170500000Y-87678571D01*
X170642857Y-87750000D01*
X171428571Y-87750000D01*
X170642857Y-87750000D02*
X170500000Y-87821428D01*
X170428571Y-87964285D01*
X170428571Y-88178571D01*
X170500000Y-88321428D01*
X170642857Y-88392857D01*
X171428571Y-88392857D01*
X171428571Y-89107142D02*
X170428571Y-89107142D01*
X169928571Y-89107142D02*
X170000000Y-89035714D01*
X170071428Y-89107142D01*
X170000000Y-89178571D01*
X169928571Y-89107142D01*
X170071428Y-89107142D01*
X170428571Y-89821428D02*
X171428571Y-89821428D01*
X170571428Y-89821428D02*
X170500000Y-89892857D01*
X170428571Y-90035714D01*
X170428571Y-90250000D01*
X170500000Y-90392857D01*
X170642857Y-90464285D01*
X171428571Y-90464285D01*
X170428571Y-91821428D02*
X171642857Y-91821428D01*
X171785714Y-91750000D01*
X171857142Y-91678571D01*
X171928571Y-91535714D01*
X171928571Y-91321428D01*
X171857142Y-91178571D01*
X171357142Y-91821428D02*
X171428571Y-91678571D01*
X171428571Y-91392857D01*
X171357142Y-91250000D01*
X171285714Y-91178571D01*
X171142857Y-91107142D01*
X170714285Y-91107142D01*
X170571428Y-91178571D01*
X170500000Y-91250000D01*
X170428571Y-91392857D01*
X170428571Y-91678571D01*
X170500000Y-91821428D01*
D12*
X166045357Y-79033809D02*
X166045357Y-77433809D01*
X165188214Y-79033809D01*
X165188214Y-77433809D01*
X163616785Y-78881428D02*
X163688214Y-78957619D01*
X163902500Y-79033809D01*
X164045357Y-79033809D01*
X164259642Y-78957619D01*
X164402500Y-78805238D01*
X164473928Y-78652857D01*
X164545357Y-78348095D01*
X164545357Y-78119523D01*
X164473928Y-77814761D01*
X164402500Y-77662380D01*
X164259642Y-77510000D01*
X164045357Y-77433809D01*
X163902500Y-77433809D01*
X163688214Y-77510000D01*
X163616785Y-77586190D01*
X162545357Y-79643333D02*
X162616785Y-79567142D01*
X162759642Y-79338571D01*
X162831071Y-79186190D01*
X162902500Y-78957619D01*
X162973928Y-78576666D01*
X162973928Y-78271904D01*
X162902500Y-77890952D01*
X162831071Y-77662380D01*
X162759642Y-77510000D01*
X162616785Y-77281428D01*
X162545357Y-77205238D01*
X161259642Y-77433809D02*
X161973928Y-77433809D01*
X162045357Y-78195714D01*
X161973928Y-78119523D01*
X161831071Y-78043333D01*
X161473928Y-78043333D01*
X161331071Y-78119523D01*
X161259642Y-78195714D01*
X161188214Y-78348095D01*
X161188214Y-78729047D01*
X161259642Y-78881428D01*
X161331071Y-78957619D01*
X161473928Y-79033809D01*
X161831071Y-79033809D01*
X161973928Y-78957619D01*
X162045357Y-78881428D01*
X160759642Y-77433809D02*
X160259642Y-79033809D01*
X159759642Y-77433809D01*
X159402500Y-79643333D02*
X159331071Y-79567142D01*
X159188214Y-79338571D01*
X159116785Y-79186190D01*
X159045357Y-78957619D01*
X158973928Y-78576666D01*
X158973928Y-78271904D01*
X159045357Y-77890952D01*
X159116785Y-77662380D01*
X159188214Y-77510000D01*
X159331071Y-77281428D01*
X159402500Y-77205238D01*
X165259642Y-80086000D02*
X165402500Y-80009809D01*
X165616785Y-80009809D01*
X165831071Y-80086000D01*
X165973928Y-80238380D01*
X166045357Y-80390761D01*
X166116785Y-80695523D01*
X166116785Y-80924095D01*
X166045357Y-81228857D01*
X165973928Y-81381238D01*
X165831071Y-81533619D01*
X165616785Y-81609809D01*
X165473928Y-81609809D01*
X165259642Y-81533619D01*
X165188214Y-81457428D01*
X165188214Y-80924095D01*
X165473928Y-80924095D01*
X164545357Y-81609809D02*
X164545357Y-80009809D01*
X163688214Y-81609809D01*
X163688214Y-80009809D01*
X162973928Y-81609809D02*
X162973928Y-80009809D01*
X162616785Y-80009809D01*
X162402500Y-80086000D01*
X162259642Y-80238380D01*
X162188214Y-80390761D01*
X162116785Y-80695523D01*
X162116785Y-80924095D01*
X162188214Y-81228857D01*
X162259642Y-81381238D01*
X162402500Y-81533619D01*
X162616785Y-81609809D01*
X162973928Y-81609809D01*
X165188214Y-84185809D02*
X165688214Y-83423904D01*
X166045357Y-84185809D02*
X166045357Y-82585809D01*
X165473928Y-82585809D01*
X165331071Y-82662000D01*
X165259642Y-82738190D01*
X165188214Y-82890571D01*
X165188214Y-83119142D01*
X165259642Y-83271523D01*
X165331071Y-83347714D01*
X165473928Y-83423904D01*
X166045357Y-83423904D01*
X164688214Y-82585809D02*
X163688214Y-84185809D01*
X163688214Y-82585809D02*
X164688214Y-84185809D01*
X163116785Y-84185809D02*
X163116785Y-82585809D01*
X162759642Y-82585809D01*
X162545357Y-82662000D01*
X162402500Y-82814380D01*
X162331071Y-82966761D01*
X162259642Y-83271523D01*
X162259642Y-83500095D01*
X162331071Y-83804857D01*
X162402500Y-83957238D01*
X162545357Y-84109619D01*
X162759642Y-84185809D01*
X163116785Y-84185809D01*
X166259642Y-85161809D02*
X165402500Y-85161809D01*
X165831071Y-86761809D02*
X165831071Y-85161809D01*
X165045357Y-85161809D02*
X164045357Y-86761809D01*
X164045357Y-85161809D02*
X165045357Y-86761809D01*
X163473928Y-86761809D02*
X163473928Y-85161809D01*
X163116785Y-85161809D01*
X162902500Y-85238000D01*
X162759642Y-85390380D01*
X162688214Y-85542761D01*
X162616785Y-85847523D01*
X162616785Y-86076095D01*
X162688214Y-86380857D01*
X162759642Y-86533238D01*
X162902500Y-86685619D01*
X163116785Y-86761809D01*
X163473928Y-86761809D01*
X166045357Y-89337809D02*
X166045357Y-87737809D01*
X165188214Y-89337809D01*
X165188214Y-87737809D01*
X163616785Y-89185428D02*
X163688214Y-89261619D01*
X163902500Y-89337809D01*
X164045357Y-89337809D01*
X164259642Y-89261619D01*
X164402500Y-89109238D01*
X164473928Y-88956857D01*
X164545357Y-88652095D01*
X164545357Y-88423523D01*
X164473928Y-88118761D01*
X164402500Y-87966380D01*
X164259642Y-87814000D01*
X164045357Y-87737809D01*
X163902500Y-87737809D01*
X163688214Y-87814000D01*
X163616785Y-87890190D01*
X166188214Y-90313809D02*
X165259642Y-90313809D01*
X165759642Y-90923333D01*
X165545357Y-90923333D01*
X165402500Y-90999523D01*
X165331071Y-91075714D01*
X165259642Y-91228095D01*
X165259642Y-91609047D01*
X165331071Y-91761428D01*
X165402500Y-91837619D01*
X165545357Y-91913809D01*
X165973928Y-91913809D01*
X166116785Y-91837619D01*
X166188214Y-91761428D01*
X164831071Y-90313809D02*
X164331071Y-91913809D01*
X163831071Y-90313809D01*
X163473928Y-90313809D02*
X162545357Y-90313809D01*
X163045357Y-90923333D01*
X162831071Y-90923333D01*
X162688214Y-90999523D01*
X162616785Y-91075714D01*
X162545357Y-91228095D01*
X162545357Y-91609047D01*
X162616785Y-91761428D01*
X162688214Y-91837619D01*
X162831071Y-91913809D01*
X163259642Y-91913809D01*
X163402500Y-91837619D01*
X163473928Y-91761428D01*
D10*
X170375000Y-64666666D02*
X170458333Y-64916666D01*
X170541666Y-65000000D01*
X170708333Y-65083333D01*
X170958333Y-65083333D01*
X171125000Y-65000000D01*
X171208333Y-64916666D01*
X171291666Y-64750000D01*
X171291666Y-64083333D01*
X169541666Y-64083333D01*
X169541666Y-64666666D01*
X169625000Y-64833333D01*
X169708333Y-64916666D01*
X169875000Y-65000000D01*
X170041666Y-65000000D01*
X170208333Y-64916666D01*
X170291666Y-64833333D01*
X170375000Y-64666666D01*
X170375000Y-64083333D01*
X171291666Y-66583333D02*
X170375000Y-66583333D01*
X170208333Y-66500000D01*
X170125000Y-66333333D01*
X170125000Y-66000000D01*
X170208333Y-65833333D01*
X171208333Y-66583333D02*
X171291666Y-66416666D01*
X171291666Y-66000000D01*
X171208333Y-65833333D01*
X171041666Y-65750000D01*
X170875000Y-65750000D01*
X170708333Y-65833333D01*
X170625000Y-66000000D01*
X170625000Y-66416666D01*
X170541666Y-66583333D01*
X170125000Y-67166666D02*
X170125000Y-67833333D01*
X169541666Y-67416666D02*
X171041666Y-67416666D01*
X171208333Y-67500000D01*
X171291666Y-67666666D01*
X171291666Y-67833333D01*
X170125000Y-68166666D02*
X170125000Y-68833333D01*
X169541666Y-68416666D02*
X171041666Y-68416666D01*
X171208333Y-68500000D01*
X171291666Y-68666666D01*
X171291666Y-68833333D01*
X171208333Y-70083333D02*
X171291666Y-69916666D01*
X171291666Y-69583333D01*
X171208333Y-69416666D01*
X171041666Y-69333333D01*
X170375000Y-69333333D01*
X170208333Y-69416666D01*
X170125000Y-69583333D01*
X170125000Y-69916666D01*
X170208333Y-70083333D01*
X170375000Y-70166666D01*
X170541666Y-70166666D01*
X170708333Y-69333333D01*
X171291666Y-70916666D02*
X170125000Y-70916666D01*
X170458333Y-70916666D02*
X170291666Y-71000000D01*
X170208333Y-71083333D01*
X170125000Y-71250000D01*
X170125000Y-71416666D01*
X171291666Y-72000000D02*
X170125000Y-72000000D01*
X169541666Y-72000000D02*
X169625000Y-71916666D01*
X169708333Y-72000000D01*
X169625000Y-72083333D01*
X169541666Y-72000000D01*
X169708333Y-72000000D01*
X171208333Y-73500000D02*
X171291666Y-73333333D01*
X171291666Y-73000000D01*
X171208333Y-72833333D01*
X171041666Y-72750000D01*
X170375000Y-72750000D01*
X170208333Y-72833333D01*
X170125000Y-73000000D01*
X170125000Y-73333333D01*
X170208333Y-73500000D01*
X170375000Y-73583333D01*
X170541666Y-73583333D01*
X170708333Y-72750000D01*
X171208333Y-74250000D02*
X171291666Y-74416666D01*
X171291666Y-74750000D01*
X171208333Y-74916666D01*
X171041666Y-75000000D01*
X170958333Y-75000000D01*
X170791666Y-74916666D01*
X170708333Y-74750000D01*
X170708333Y-74500000D01*
X170625000Y-74333333D01*
X170458333Y-74250000D01*
X170375000Y-74250000D01*
X170208333Y-74333333D01*
X170125000Y-74500000D01*
X170125000Y-74750000D01*
X170208333Y-74916666D01*
X170625000Y-95916666D02*
X170708333Y-96166666D01*
X170791666Y-96250000D01*
X170958333Y-96333333D01*
X171208333Y-96333333D01*
X171375000Y-96250000D01*
X171458333Y-96166666D01*
X171541666Y-96000000D01*
X171541666Y-95333333D01*
X169791666Y-95333333D01*
X169791666Y-95916666D01*
X169875000Y-96083333D01*
X169958333Y-96166666D01*
X170125000Y-96250000D01*
X170291666Y-96250000D01*
X170458333Y-96166666D01*
X170541666Y-96083333D01*
X170625000Y-95916666D01*
X170625000Y-95333333D01*
X171541666Y-97833333D02*
X170625000Y-97833333D01*
X170458333Y-97750000D01*
X170375000Y-97583333D01*
X170375000Y-97250000D01*
X170458333Y-97083333D01*
X171458333Y-97833333D02*
X171541666Y-97666666D01*
X171541666Y-97250000D01*
X171458333Y-97083333D01*
X171291666Y-97000000D01*
X171125000Y-97000000D01*
X170958333Y-97083333D01*
X170875000Y-97250000D01*
X170875000Y-97666666D01*
X170791666Y-97833333D01*
X170375000Y-98416666D02*
X170375000Y-99083333D01*
X169791666Y-98666666D02*
X171291666Y-98666666D01*
X171458333Y-98750000D01*
X171541666Y-98916666D01*
X171541666Y-99083333D01*
X170375000Y-99416666D02*
X170375000Y-100083333D01*
X169791666Y-99666666D02*
X171291666Y-99666666D01*
X171458333Y-99750000D01*
X171541666Y-99916666D01*
X171541666Y-100083333D01*
X171458333Y-101333333D02*
X171541666Y-101166666D01*
X171541666Y-100833333D01*
X171458333Y-100666666D01*
X171291666Y-100583333D01*
X170625000Y-100583333D01*
X170458333Y-100666666D01*
X170375000Y-100833333D01*
X170375000Y-101166666D01*
X170458333Y-101333333D01*
X170625000Y-101416666D01*
X170791666Y-101416666D01*
X170958333Y-100583333D01*
X171541666Y-102166666D02*
X170375000Y-102166666D01*
X170708333Y-102166666D02*
X170541666Y-102250000D01*
X170458333Y-102333333D01*
X170375000Y-102500000D01*
X170375000Y-102666666D01*
X171541666Y-103250000D02*
X170375000Y-103250000D01*
X169791666Y-103250000D02*
X169875000Y-103166666D01*
X169958333Y-103250000D01*
X169875000Y-103333333D01*
X169791666Y-103250000D01*
X169958333Y-103250000D01*
X171458333Y-104750000D02*
X171541666Y-104583333D01*
X171541666Y-104250000D01*
X171458333Y-104083333D01*
X171291666Y-104000000D01*
X170625000Y-104000000D01*
X170458333Y-104083333D01*
X170375000Y-104250000D01*
X170375000Y-104583333D01*
X170458333Y-104750000D01*
X170625000Y-104833333D01*
X170791666Y-104833333D01*
X170958333Y-104000000D01*
X171458333Y-105500000D02*
X171541666Y-105666666D01*
X171541666Y-106000000D01*
X171458333Y-106166666D01*
X171291666Y-106250000D01*
X171208333Y-106250000D01*
X171041666Y-106166666D01*
X170958333Y-106000000D01*
X170958333Y-105750000D01*
X170875000Y-105583333D01*
X170708333Y-105500000D01*
X170625000Y-105500000D01*
X170458333Y-105583333D01*
X170375000Y-105750000D01*
X170375000Y-106000000D01*
X170458333Y-106166666D01*
D13*
X180166666Y-103166071D02*
X178833333Y-103166071D01*
X180166666Y-107191071D02*
X178833333Y-107191071D01*
X179500000Y-108143452D02*
X179500000Y-106238690D01*
X180166666Y-94416071D02*
X178833333Y-94416071D01*
X180166666Y-98441071D02*
X178833333Y-98441071D01*
X179500000Y-99393452D02*
X179500000Y-97488690D01*
X180166666Y-71916071D02*
X178833333Y-71916071D01*
X180166666Y-75941071D02*
X178833333Y-75941071D01*
X179500000Y-76893452D02*
X179500000Y-74988690D01*
X180166666Y-63166071D02*
X178833333Y-63166071D01*
X180166666Y-67191071D02*
X178833333Y-67191071D01*
X179500000Y-68143452D02*
X179500000Y-66238690D01*
D12*
X131178571Y-105678571D02*
X131678571Y-104964285D01*
X132035714Y-105678571D02*
X132035714Y-104178571D01*
X131464285Y-104178571D01*
X131321428Y-104250000D01*
X131250000Y-104321428D01*
X131178571Y-104464285D01*
X131178571Y-104678571D01*
X131250000Y-104821428D01*
X131321428Y-104892857D01*
X131464285Y-104964285D01*
X132035714Y-104964285D01*
X130535714Y-104892857D02*
X130035714Y-104892857D01*
X129821428Y-105678571D02*
X130535714Y-105678571D01*
X130535714Y-104178571D01*
X129821428Y-104178571D01*
X129250000Y-105607142D02*
X129035714Y-105678571D01*
X128678571Y-105678571D01*
X128535714Y-105607142D01*
X128464285Y-105535714D01*
X128392857Y-105392857D01*
X128392857Y-105250000D01*
X128464285Y-105107142D01*
X128535714Y-105035714D01*
X128678571Y-104964285D01*
X128964285Y-104892857D01*
X129107142Y-104821428D01*
X129178571Y-104750000D01*
X129250000Y-104607142D01*
X129250000Y-104464285D01*
X129178571Y-104321428D01*
X129107142Y-104250000D01*
X128964285Y-104178571D01*
X128607142Y-104178571D01*
X128392857Y-104250000D01*
X127750000Y-104892857D02*
X127250000Y-104892857D01*
X127035714Y-105678571D02*
X127750000Y-105678571D01*
X127750000Y-104178571D01*
X127035714Y-104178571D01*
X126607142Y-104178571D02*
X125750000Y-104178571D01*
X126178571Y-105678571D02*
X126178571Y-104178571D01*
X127892857Y-64221071D02*
X127892857Y-65721071D01*
X127892857Y-64292500D02*
X127750000Y-64221071D01*
X127464285Y-64221071D01*
X127321428Y-64292500D01*
X127250000Y-64363928D01*
X127178571Y-64506785D01*
X127178571Y-64935357D01*
X127250000Y-65078214D01*
X127321428Y-65149642D01*
X127464285Y-65221071D01*
X127750000Y-65221071D01*
X127892857Y-65149642D01*
X126535714Y-65221071D02*
X126535714Y-64221071D01*
X126535714Y-64506785D02*
X126464285Y-64363928D01*
X126392857Y-64292500D01*
X126250000Y-64221071D01*
X126107142Y-64221071D01*
X125392857Y-65221071D02*
X125535714Y-65149642D01*
X125607142Y-65078214D01*
X125678571Y-64935357D01*
X125678571Y-64506785D01*
X125607142Y-64363928D01*
X125535714Y-64292500D01*
X125392857Y-64221071D01*
X125178571Y-64221071D01*
X125035714Y-64292500D01*
X124964285Y-64363928D01*
X124892857Y-64506785D01*
X124892857Y-64935357D01*
X124964285Y-65078214D01*
X125035714Y-65149642D01*
X125178571Y-65221071D01*
X125392857Y-65221071D01*
X123607142Y-64221071D02*
X123607142Y-65435357D01*
X123678571Y-65578214D01*
X123750000Y-65649642D01*
X123892857Y-65721071D01*
X124107142Y-65721071D01*
X124250000Y-65649642D01*
X123607142Y-65149642D02*
X123750000Y-65221071D01*
X124035714Y-65221071D01*
X124178571Y-65149642D01*
X124250000Y-65078214D01*
X124321428Y-64935357D01*
X124321428Y-64506785D01*
X124250000Y-64363928D01*
X124178571Y-64292500D01*
X124035714Y-64221071D01*
X123750000Y-64221071D01*
X123607142Y-64292500D01*
X127892857Y-66636071D02*
X127892857Y-67921785D01*
X127964285Y-68064642D01*
X128107142Y-68136071D01*
X128178571Y-68136071D01*
X127892857Y-66136071D02*
X127964285Y-66207500D01*
X127892857Y-66278928D01*
X127821428Y-66207500D01*
X127892857Y-66136071D01*
X127892857Y-66278928D01*
X127178571Y-67636071D02*
X127178571Y-66636071D01*
X127178571Y-66778928D02*
X127107142Y-66707500D01*
X126964285Y-66636071D01*
X126750000Y-66636071D01*
X126607142Y-66707500D01*
X126535714Y-66850357D01*
X126535714Y-67636071D01*
X126535714Y-66850357D02*
X126464285Y-66707500D01*
X126321428Y-66636071D01*
X126107142Y-66636071D01*
X125964285Y-66707500D01*
X125892857Y-66850357D01*
X125892857Y-67636071D01*
X125178571Y-66636071D02*
X125178571Y-68136071D01*
X125178571Y-66707500D02*
X125035714Y-66636071D01*
X124750000Y-66636071D01*
X124607142Y-66707500D01*
X124535714Y-66778928D01*
X124464285Y-66921785D01*
X124464285Y-67350357D01*
X124535714Y-67493214D01*
X124607142Y-67564642D01*
X124750000Y-67636071D01*
X125035714Y-67636071D01*
X125178571Y-67564642D01*
X123821428Y-67636071D02*
X123821428Y-66636071D01*
X123821428Y-66921785D02*
X123750000Y-66778928D01*
X123678571Y-66707500D01*
X123535714Y-66636071D01*
X123392857Y-66636071D01*
%TO.C,J7*%
X178702380Y-73416666D02*
X179416666Y-73416666D01*
X179559523Y-73369047D01*
X179654761Y-73273809D01*
X179702380Y-73130952D01*
X179702380Y-73035714D01*
X178702380Y-73797619D02*
X178702380Y-74464285D01*
X179702380Y-74035714D01*
%TO.C,J8*%
X178702380Y-64516666D02*
X179416666Y-64516666D01*
X179559523Y-64469047D01*
X179654761Y-64373809D01*
X179702380Y-64230952D01*
X179702380Y-64135714D01*
X179130952Y-65135714D02*
X179083333Y-65040476D01*
X179035714Y-64992857D01*
X178940476Y-64945238D01*
X178892857Y-64945238D01*
X178797619Y-64992857D01*
X178750000Y-65040476D01*
X178702380Y-65135714D01*
X178702380Y-65326190D01*
X178750000Y-65421428D01*
X178797619Y-65469047D01*
X178892857Y-65516666D01*
X178940476Y-65516666D01*
X179035714Y-65469047D01*
X179083333Y-65421428D01*
X179130952Y-65326190D01*
X179130952Y-65135714D01*
X179178571Y-65040476D01*
X179226190Y-64992857D01*
X179321428Y-64945238D01*
X179511904Y-64945238D01*
X179607142Y-64992857D01*
X179654761Y-65040476D01*
X179702380Y-65135714D01*
X179702380Y-65326190D01*
X179654761Y-65421428D01*
X179607142Y-65469047D01*
X179511904Y-65516666D01*
X179321428Y-65516666D01*
X179226190Y-65469047D01*
X179178571Y-65421428D01*
X179130952Y-65326190D01*
%TO.C,JP1*%
X122633333Y-69857380D02*
X122633333Y-70571666D01*
X122680952Y-70714523D01*
X122776190Y-70809761D01*
X122919047Y-70857380D01*
X123014285Y-70857380D01*
X122157142Y-70857380D02*
X122157142Y-69857380D01*
X121776190Y-69857380D01*
X121680952Y-69905000D01*
X121633333Y-69952619D01*
X121585714Y-70047857D01*
X121585714Y-70190714D01*
X121633333Y-70285952D01*
X121680952Y-70333571D01*
X121776190Y-70381190D01*
X122157142Y-70381190D01*
X120633333Y-70857380D02*
X121204761Y-70857380D01*
X120919047Y-70857380D02*
X120919047Y-69857380D01*
X121014285Y-70000238D01*
X121109523Y-70095476D01*
X121204761Y-70143095D01*
%TO.C,J5*%
X178702380Y-104716666D02*
X179416666Y-104716666D01*
X179559523Y-104669047D01*
X179654761Y-104573809D01*
X179702380Y-104430952D01*
X179702380Y-104335714D01*
X178702380Y-105669047D02*
X178702380Y-105192857D01*
X179178571Y-105145238D01*
X179130952Y-105192857D01*
X179083333Y-105288095D01*
X179083333Y-105526190D01*
X179130952Y-105621428D01*
X179178571Y-105669047D01*
X179273809Y-105716666D01*
X179511904Y-105716666D01*
X179607142Y-105669047D01*
X179654761Y-105621428D01*
X179702380Y-105526190D01*
X179702380Y-105288095D01*
X179654761Y-105192857D01*
X179607142Y-105145238D01*
%TO.C,SW1*%
X122333333Y-105154761D02*
X122190476Y-105202380D01*
X121952380Y-105202380D01*
X121857142Y-105154761D01*
X121809523Y-105107142D01*
X121761904Y-105011904D01*
X121761904Y-104916666D01*
X121809523Y-104821428D01*
X121857142Y-104773809D01*
X121952380Y-104726190D01*
X122142857Y-104678571D01*
X122238095Y-104630952D01*
X122285714Y-104583333D01*
X122333333Y-104488095D01*
X122333333Y-104392857D01*
X122285714Y-104297619D01*
X122238095Y-104250000D01*
X122142857Y-104202380D01*
X121904761Y-104202380D01*
X121761904Y-104250000D01*
X121428571Y-104202380D02*
X121190476Y-105202380D01*
X121000000Y-104488095D01*
X120809523Y-105202380D01*
X120571428Y-104202380D01*
X119666666Y-105202380D02*
X120238095Y-105202380D01*
X119952380Y-105202380D02*
X119952380Y-104202380D01*
X120047619Y-104345238D01*
X120142857Y-104440476D01*
X120238095Y-104488095D01*
%TO.C,J14*%
X168919523Y-92912380D02*
X168919523Y-93626666D01*
X168967142Y-93769523D01*
X169062380Y-93864761D01*
X169205238Y-93912380D01*
X169300476Y-93912380D01*
X167919523Y-93912380D02*
X168490952Y-93912380D01*
X168205238Y-93912380D02*
X168205238Y-92912380D01*
X168300476Y-93055238D01*
X168395714Y-93150476D01*
X168490952Y-93198095D01*
X167062380Y-93245714D02*
X167062380Y-93912380D01*
X167300476Y-92864761D02*
X167538571Y-93579047D01*
X166919523Y-93579047D01*
%TO.C,J6*%
X178702380Y-95816666D02*
X179416666Y-95816666D01*
X179559523Y-95769047D01*
X179654761Y-95673809D01*
X179702380Y-95530952D01*
X179702380Y-95435714D01*
X178702380Y-96721428D02*
X178702380Y-96530952D01*
X178750000Y-96435714D01*
X178797619Y-96388095D01*
X178940476Y-96292857D01*
X179130952Y-96245238D01*
X179511904Y-96245238D01*
X179607142Y-96292857D01*
X179654761Y-96340476D01*
X179702380Y-96435714D01*
X179702380Y-96626190D01*
X179654761Y-96721428D01*
X179607142Y-96769047D01*
X179511904Y-96816666D01*
X179273809Y-96816666D01*
X179178571Y-96769047D01*
X179130952Y-96721428D01*
X179083333Y-96626190D01*
X179083333Y-96435714D01*
X179130952Y-96340476D01*
X179178571Y-96292857D01*
X179273809Y-96245238D01*
%TO.C,G\u002A\u002A\u002A*%
G36*
X119205519Y-78614982D02*
G01*
X119616168Y-78623938D01*
X120020127Y-78640147D01*
X120396760Y-78663316D01*
X120725433Y-78693152D01*
X120985510Y-78729364D01*
X121055102Y-78742627D01*
X121486040Y-78850142D01*
X121985997Y-79009892D01*
X122532837Y-79212387D01*
X123104423Y-79448139D01*
X123678618Y-79707660D01*
X124233287Y-79981460D01*
X124746291Y-80260052D01*
X125195496Y-80533945D01*
X125416287Y-80681732D01*
X125731217Y-80899328D01*
X126057815Y-81130857D01*
X126352725Y-81345898D01*
X126460082Y-81423968D01*
X126818799Y-81664617D01*
X127178565Y-81879291D01*
X127496869Y-82042121D01*
X127670175Y-82121143D01*
X128035513Y-82294179D01*
X128322582Y-82443746D01*
X128551568Y-82582813D01*
X128742662Y-82724348D01*
X128916052Y-82881318D01*
X129091925Y-83066691D01*
X129298166Y-83299235D01*
X129448168Y-83477460D01*
X129526387Y-83583499D01*
X129530312Y-83613925D01*
X129457433Y-83565315D01*
X129407109Y-83528087D01*
X129381819Y-83523567D01*
X129408579Y-83579580D01*
X129492822Y-83706532D01*
X129639985Y-83914828D01*
X129809409Y-84182877D01*
X130032454Y-84653550D01*
X130230349Y-85226848D01*
X130312776Y-85473263D01*
X130424260Y-85757939D01*
X130533550Y-85996621D01*
X130619397Y-86175158D01*
X130679469Y-86323109D01*
X130698040Y-86402990D01*
X130698000Y-86414323D01*
X130741575Y-86503135D01*
X130837624Y-86617517D01*
X130905045Y-86688995D01*
X130949263Y-86757250D01*
X130904804Y-86754460D01*
X130774013Y-86678381D01*
X130729500Y-86650343D01*
X130687631Y-86635694D01*
X130688959Y-86674952D01*
X130736650Y-86783999D01*
X130833870Y-86978719D01*
X130866490Y-87045315D01*
X130948601Y-87232913D01*
X131016882Y-87414871D01*
X131065563Y-87571086D01*
X131088877Y-87681453D01*
X131081053Y-87725871D01*
X131036323Y-87684234D01*
X131004393Y-87649960D01*
X130972889Y-87667105D01*
X130968084Y-87764067D01*
X130986653Y-87921850D01*
X131025275Y-88121459D01*
X131080626Y-88343900D01*
X131149385Y-88570178D01*
X131228228Y-88781299D01*
X131234096Y-88796033D01*
X131233580Y-88853407D01*
X131148714Y-88845913D01*
X131126970Y-88840605D01*
X131056445Y-88844693D01*
X131063412Y-88921596D01*
X131071248Y-88958148D01*
X131041538Y-88957724D01*
X130949847Y-88868093D01*
X130857002Y-88781353D01*
X130812364Y-88780449D01*
X130821281Y-88875474D01*
X130882711Y-89069554D01*
X130900046Y-89118557D01*
X130931764Y-89225216D01*
X130917081Y-89253325D01*
X130851596Y-89224861D01*
X130779376Y-89195393D01*
X130752130Y-89220186D01*
X130786908Y-89318405D01*
X130884985Y-89500563D01*
X130931894Y-89587377D01*
X130981235Y-89699728D01*
X130982836Y-89743693D01*
X130928730Y-89729690D01*
X130798865Y-89640235D01*
X130651347Y-89488631D01*
X130511632Y-89298908D01*
X130403658Y-89147528D01*
X130296458Y-89058352D01*
X130171218Y-89026701D01*
X130052178Y-89025211D01*
X130014973Y-89069143D01*
X130033806Y-89191205D01*
X130054638Y-89303815D01*
X130038549Y-89332932D01*
X129971486Y-89285362D01*
X129917580Y-89243372D01*
X129889665Y-89246779D01*
X129914124Y-89343692D01*
X129923766Y-89381942D01*
X129910280Y-89405977D01*
X129844531Y-89352192D01*
X129717289Y-89214527D01*
X129597402Y-89086361D01*
X129486457Y-88982597D01*
X129423967Y-88942792D01*
X129410118Y-88951381D01*
X129381706Y-89037394D01*
X129369331Y-89185923D01*
X129367041Y-89429054D01*
X129277526Y-89257432D01*
X129236691Y-89181905D01*
X129122204Y-88991168D01*
X129007051Y-88822724D01*
X128909790Y-88702584D01*
X128848977Y-88656756D01*
X128848814Y-88656757D01*
X128814015Y-88706827D01*
X128799550Y-88826583D01*
X128798783Y-88864441D01*
X128776197Y-88958327D01*
X128713739Y-88963480D01*
X128668180Y-88956534D01*
X128627928Y-89006073D01*
X128627908Y-89006999D01*
X128591620Y-89006186D01*
X128499293Y-88935219D01*
X128370496Y-88809072D01*
X128239458Y-88681635D01*
X128147492Y-88614841D01*
X128113063Y-88622565D01*
X128096167Y-88716498D01*
X128045787Y-88856236D01*
X127978510Y-89003892D01*
X127905530Y-88830324D01*
X127873035Y-88765248D01*
X127800144Y-88676072D01*
X127738554Y-88656711D01*
X127712613Y-88720968D01*
X127697568Y-88751491D01*
X127624980Y-88712451D01*
X127579988Y-88678795D01*
X127562428Y-88692569D01*
X127596376Y-88794982D01*
X127630622Y-88892397D01*
X127652326Y-89000120D01*
X127620346Y-89010291D01*
X127535803Y-88920587D01*
X127526787Y-88909442D01*
X127422855Y-88814524D01*
X127335841Y-88784156D01*
X127319284Y-88784195D01*
X127224178Y-88734950D01*
X127114294Y-88628153D01*
X126973107Y-88456531D01*
X127028220Y-88656379D01*
X127043156Y-88711880D01*
X127082857Y-88898231D01*
X127075869Y-88984186D01*
X127019878Y-88974065D01*
X126912571Y-88872186D01*
X126802341Y-88762295D01*
X126734465Y-88730990D01*
X126686820Y-88769568D01*
X126679387Y-88780733D01*
X126632663Y-88820428D01*
X126593640Y-88754253D01*
X126558021Y-88702714D01*
X126463008Y-88670045D01*
X126435528Y-88669228D01*
X126359100Y-88601137D01*
X126283594Y-88427928D01*
X126266468Y-88378894D01*
X126183702Y-88193193D01*
X126110006Y-88116931D01*
X126047208Y-88152240D01*
X126028993Y-88172942D01*
X125956006Y-88180888D01*
X125904088Y-88185077D01*
X125824134Y-88257195D01*
X125748222Y-88328093D01*
X125670696Y-88304333D01*
X125640163Y-88284252D01*
X125605271Y-88306477D01*
X125595946Y-88425312D01*
X125595946Y-88608328D01*
X125445810Y-88429901D01*
X125409509Y-88388147D01*
X125319968Y-88298674D01*
X125273577Y-88273570D01*
X125270928Y-88291196D01*
X125290689Y-88389908D01*
X125337903Y-88540611D01*
X125358722Y-88603115D01*
X125405609Y-88777558D01*
X125424324Y-88904000D01*
X125422916Y-88939173D01*
X125402732Y-88972851D01*
X125343000Y-88938390D01*
X125224099Y-88828378D01*
X125126039Y-88734753D01*
X125055093Y-88679773D01*
X125028132Y-88694552D01*
X125023874Y-88773228D01*
X125022629Y-88818430D01*
X125006840Y-88855571D01*
X124960461Y-88813808D01*
X124868059Y-88684338D01*
X124857296Y-88668675D01*
X124766224Y-88548081D01*
X124715657Y-88516151D01*
X124691038Y-88562900D01*
X124671532Y-88612749D01*
X124630430Y-88592378D01*
X124554268Y-88479240D01*
X124438704Y-88289210D01*
X124342547Y-88475157D01*
X124287279Y-88567336D01*
X124221164Y-88617332D01*
X124179963Y-88556675D01*
X124165766Y-88386413D01*
X124165514Y-88366211D01*
X124147987Y-88251295D01*
X124108559Y-88227702D01*
X124094623Y-88240296D01*
X124059401Y-88345966D01*
X124055393Y-88509222D01*
X124080874Y-88688612D01*
X124134122Y-88842680D01*
X124142844Y-88859813D01*
X124179405Y-88967763D01*
X124146286Y-88993848D01*
X124051389Y-88939336D01*
X123902613Y-88805495D01*
X123835575Y-88739412D01*
X123751344Y-88667523D01*
X123715117Y-88668156D01*
X123706836Y-88733986D01*
X123706776Y-88739517D01*
X123700397Y-88813912D01*
X123668555Y-88806688D01*
X123588268Y-88713964D01*
X123470973Y-88570946D01*
X123508356Y-88796317D01*
X123515001Y-88837121D01*
X123528042Y-88953697D01*
X123508796Y-88982049D01*
X123449343Y-88941686D01*
X123376863Y-88859704D01*
X123298254Y-88717833D01*
X123269816Y-88649153D01*
X123238878Y-88624641D01*
X123196915Y-88680983D01*
X123125907Y-88829896D01*
X123105873Y-88873223D01*
X123042848Y-88995211D01*
X123002586Y-89019700D01*
X122971901Y-88941465D01*
X122937605Y-88755279D01*
X122929588Y-88713876D01*
X122889366Y-88600442D01*
X122843760Y-88574802D01*
X122813738Y-88650353D01*
X122825487Y-88789796D01*
X122844491Y-88891198D01*
X122833553Y-88932100D01*
X122776440Y-88895753D01*
X122747885Y-88873853D01*
X122688654Y-88864817D01*
X122645379Y-88954082D01*
X122641692Y-88965448D01*
X122611025Y-89040980D01*
X122580864Y-89026455D01*
X122528734Y-88914189D01*
X122484106Y-88817462D01*
X122459240Y-88797382D01*
X122452130Y-88871283D01*
X122434164Y-88951313D01*
X122357067Y-89000000D01*
X122298703Y-89020244D01*
X122294244Y-89113422D01*
X122301811Y-89145169D01*
X122293948Y-89197881D01*
X122215106Y-89168616D01*
X122147531Y-89142396D01*
X122106306Y-89156070D01*
X122122804Y-89207552D01*
X122195500Y-89334898D01*
X122305908Y-89496902D01*
X122431696Y-89663039D01*
X122550532Y-89802787D01*
X122640084Y-89885622D01*
X122680798Y-89918266D01*
X122795871Y-90049463D01*
X122903054Y-90215142D01*
X122940709Y-90280150D01*
X123061551Y-90453443D01*
X123177446Y-90580241D01*
X123241121Y-90655679D01*
X123342266Y-90868906D01*
X123435716Y-91185845D01*
X123519666Y-91599869D01*
X123592314Y-92104353D01*
X123602091Y-92182638D01*
X123627823Y-92364500D01*
X123659205Y-92545160D01*
X123699506Y-92735518D01*
X123751997Y-92946474D01*
X123819945Y-93188929D01*
X123906619Y-93473782D01*
X124015290Y-93811934D01*
X124149225Y-94214284D01*
X124311694Y-94691734D01*
X124505965Y-95255182D01*
X124735309Y-95915529D01*
X124843588Y-96229234D01*
X125047729Y-96837796D01*
X125219202Y-97374056D01*
X125356023Y-97831236D01*
X125456209Y-98202557D01*
X125517776Y-98481241D01*
X125538739Y-98660511D01*
X125502745Y-98885624D01*
X125384389Y-99061372D01*
X125188995Y-99155707D01*
X125134307Y-99172736D01*
X124967057Y-99258909D01*
X124802917Y-99380142D01*
X124740138Y-99434663D01*
X124592099Y-99554139D01*
X124480405Y-99632598D01*
X124449501Y-99644353D01*
X124312984Y-99665930D01*
X124110643Y-99679363D01*
X123872476Y-99684757D01*
X123628482Y-99682216D01*
X123408659Y-99671844D01*
X123243006Y-99653746D01*
X123161521Y-99628024D01*
X123159742Y-99557848D01*
X123213567Y-99444923D01*
X123306597Y-99302941D01*
X122820500Y-99337246D01*
X122700634Y-99344720D01*
X122453114Y-99348777D01*
X122270998Y-99328463D01*
X122120242Y-99281046D01*
X122104583Y-99274568D01*
X121894787Y-99203703D01*
X121687988Y-99154847D01*
X121579012Y-99127332D01*
X121492140Y-99057581D01*
X121515268Y-98958307D01*
X121648649Y-98831566D01*
X121669457Y-98817152D01*
X121751650Y-98777496D01*
X121869026Y-98748503D01*
X122041394Y-98727491D01*
X122288561Y-98711779D01*
X122630335Y-98698685D01*
X122926797Y-98688008D01*
X123184327Y-98673682D01*
X123373522Y-98653575D01*
X123519102Y-98623844D01*
X123645786Y-98580642D01*
X123778292Y-98520125D01*
X123894723Y-98460415D01*
X124028277Y-98370632D01*
X124106594Y-98267067D01*
X124162319Y-98115309D01*
X124187429Y-98017721D01*
X124205849Y-97892836D01*
X124207684Y-97751784D01*
X124190429Y-97581273D01*
X124151582Y-97368011D01*
X124088636Y-97098706D01*
X123999088Y-96760067D01*
X123880433Y-96338801D01*
X123730168Y-95821616D01*
X123650482Y-95549376D01*
X123514370Y-95083166D01*
X123378202Y-94615453D01*
X123250060Y-94174055D01*
X123138029Y-93786790D01*
X123050190Y-93481474D01*
X122801777Y-92614075D01*
X122006207Y-91813531D01*
X121701675Y-91500655D01*
X121394570Y-91164769D01*
X121175795Y-90896698D01*
X121044214Y-90695121D01*
X120968487Y-90561419D01*
X120879800Y-90445915D01*
X120822724Y-90432321D01*
X120792543Y-90458112D01*
X120711756Y-90484469D01*
X120676126Y-90433904D01*
X120657054Y-90350913D01*
X120608983Y-90219377D01*
X120541839Y-90058333D01*
X120508870Y-90253821D01*
X120503205Y-90287224D01*
X120480642Y-90392617D01*
X120456167Y-90397181D01*
X120412797Y-90311028D01*
X120395934Y-90271930D01*
X120333396Y-90107575D01*
X120269779Y-89919493D01*
X120255785Y-89878154D01*
X120189077Y-89734541D01*
X120121039Y-89648396D01*
X120068140Y-89635173D01*
X120046847Y-89710322D01*
X120032750Y-89771373D01*
X119974307Y-89796738D01*
X119913113Y-89729392D01*
X119894454Y-89705492D01*
X119879742Y-89761371D01*
X119866290Y-89815299D01*
X119811889Y-89825716D01*
X119775001Y-89828104D01*
X119795749Y-89922453D01*
X119808037Y-89960558D01*
X119831699Y-90085383D01*
X119825627Y-90222758D01*
X119784597Y-90390145D01*
X119703387Y-90605006D01*
X119576772Y-90884801D01*
X119399530Y-91246992D01*
X119379720Y-91286807D01*
X119242191Y-91572473D01*
X119113463Y-91859630D01*
X118986595Y-92166298D01*
X118854645Y-92510493D01*
X118710674Y-92910234D01*
X118547741Y-93383538D01*
X118358905Y-93948423D01*
X118172135Y-94516420D01*
X117942422Y-95225342D01*
X117726111Y-95904328D01*
X117528073Y-96537764D01*
X117353178Y-97110035D01*
X117206297Y-97605529D01*
X117092302Y-98008632D01*
X117015156Y-98230669D01*
X116898436Y-98397343D01*
X116724050Y-98496965D01*
X116464437Y-98553450D01*
X116327570Y-98576182D01*
X116090210Y-98629624D01*
X115899324Y-98688587D01*
X115870616Y-98699105D01*
X115649819Y-98755570D01*
X115433904Y-98779921D01*
X115401225Y-98781000D01*
X115201071Y-98810801D01*
X115033454Y-98867890D01*
X114993991Y-98887736D01*
X114838129Y-98945793D01*
X114752440Y-98939301D01*
X114749060Y-98868243D01*
X114764515Y-98830079D01*
X114815622Y-98704142D01*
X114818493Y-98693205D01*
X114799386Y-98665743D01*
X114725846Y-98648373D01*
X114582913Y-98639986D01*
X114355625Y-98639468D01*
X114029023Y-98645710D01*
X113935054Y-98648201D01*
X113633202Y-98659031D01*
X113368439Y-98672611D01*
X113166537Y-98687452D01*
X113053266Y-98702066D01*
X112978626Y-98714248D01*
X112907009Y-98691342D01*
X112910328Y-98601231D01*
X112985556Y-98431841D01*
X113034996Y-98354405D01*
X113168693Y-98236489D01*
X113369489Y-98148275D01*
X113652940Y-98083916D01*
X114034601Y-98037566D01*
X114145849Y-98026720D01*
X114420563Y-97993869D01*
X114666503Y-97956811D01*
X114840991Y-97921678D01*
X115163004Y-97838097D01*
X115470885Y-97756108D01*
X115692286Y-97693394D01*
X115840810Y-97645486D01*
X115930059Y-97607918D01*
X115973633Y-97576224D01*
X115985135Y-97545937D01*
X115998622Y-97497231D01*
X116056659Y-97360550D01*
X116149959Y-97166176D01*
X116267006Y-96938908D01*
X116425017Y-96628896D01*
X116609574Y-96232162D01*
X116795533Y-95792189D01*
X116987094Y-95297639D01*
X117188456Y-94737169D01*
X117403817Y-94099441D01*
X117637379Y-93373114D01*
X117893338Y-92546847D01*
X118251231Y-91374099D01*
X118217113Y-90659009D01*
X118202680Y-90378279D01*
X118185602Y-90158950D01*
X118160731Y-90000134D01*
X118121632Y-89873865D01*
X118061867Y-89752178D01*
X117975000Y-89607108D01*
X117880040Y-89434861D01*
X117756276Y-89160000D01*
X117668223Y-88905370D01*
X117658011Y-88867801D01*
X117606213Y-88691394D01*
X117566441Y-88605040D01*
X117525662Y-88590534D01*
X117470843Y-88629673D01*
X117430073Y-88664916D01*
X117372714Y-88686492D01*
X117334697Y-88621057D01*
X117293987Y-88559598D01*
X117230377Y-88589983D01*
X117151808Y-88648468D01*
X117094428Y-88634357D01*
X117098408Y-88528040D01*
X117117452Y-88446291D01*
X117100175Y-88447411D01*
X117030754Y-88539237D01*
X116941399Y-88657954D01*
X116830845Y-88796669D01*
X116765546Y-88869811D01*
X116736361Y-88863611D01*
X116730732Y-88753493D01*
X116718736Y-88655674D01*
X116682571Y-88626880D01*
X116635390Y-88691631D01*
X116590623Y-88841489D01*
X116564653Y-88948057D01*
X116535420Y-88980836D01*
X116492806Y-88925318D01*
X116430834Y-88857757D01*
X116354721Y-88887462D01*
X116331813Y-88904410D01*
X116277573Y-88903847D01*
X116238723Y-88804823D01*
X116225543Y-88761733D01*
X116172824Y-88673751D01*
X116122188Y-88663498D01*
X116099550Y-88742567D01*
X116099505Y-88748613D01*
X116078869Y-88828124D01*
X116031261Y-88816529D01*
X115972244Y-88727998D01*
X115917383Y-88576703D01*
X115903831Y-88529130D01*
X115840882Y-88384645D01*
X115774585Y-88353995D01*
X115722943Y-88347014D01*
X115694583Y-88248125D01*
X115683995Y-88176137D01*
X115661212Y-88184797D01*
X115638272Y-88229528D01*
X115585079Y-88251795D01*
X115535201Y-88169998D01*
X115494737Y-87991226D01*
X115454986Y-87726146D01*
X115363567Y-87876811D01*
X115292767Y-87978132D01*
X115218576Y-88023308D01*
X115155631Y-87970270D01*
X115102080Y-87918989D01*
X115023609Y-87942888D01*
X114949716Y-88070383D01*
X114909942Y-88163607D01*
X114870552Y-88187409D01*
X114813222Y-88123642D01*
X114776109Y-88075444D01*
X114733334Y-88056796D01*
X114697913Y-88142081D01*
X114658388Y-88212779D01*
X114580494Y-88234442D01*
X114559603Y-88232773D01*
X114503126Y-88290939D01*
X114461042Y-88414835D01*
X114442661Y-88568167D01*
X114457294Y-88714644D01*
X114462144Y-88753336D01*
X114421392Y-88820778D01*
X114329020Y-88824266D01*
X114220771Y-88757347D01*
X114158912Y-88715622D01*
X114104167Y-88760055D01*
X114053350Y-88800985D01*
X113985130Y-88745275D01*
X113935487Y-88695994D01*
X113860374Y-88656756D01*
X113859777Y-88656766D01*
X113835835Y-88703410D01*
X113847495Y-88812051D01*
X113885780Y-88939930D01*
X113941716Y-89044288D01*
X113975422Y-89126780D01*
X113932249Y-89158334D01*
X113839865Y-89114414D01*
X113780775Y-89079569D01*
X113709766Y-89082583D01*
X113709195Y-89083180D01*
X113719796Y-89144274D01*
X113800770Y-89231707D01*
X113933297Y-89339150D01*
X113784969Y-89376378D01*
X113752313Y-89382355D01*
X113584559Y-89382989D01*
X113396856Y-89352742D01*
X113332661Y-89337466D01*
X113198384Y-89313484D01*
X113134308Y-89314640D01*
X113133117Y-89316207D01*
X113136842Y-89385730D01*
X113172392Y-89511944D01*
X113184083Y-89546084D01*
X113210597Y-89655737D01*
X113175076Y-89677944D01*
X113063807Y-89627266D01*
X112993602Y-89599952D01*
X112960184Y-89636573D01*
X112953153Y-89764418D01*
X112953152Y-89768155D01*
X112943585Y-89898180D01*
X112893214Y-89948361D01*
X112769074Y-89952354D01*
X112677756Y-89953015D01*
X112593471Y-89991076D01*
X112554547Y-90099660D01*
X112545404Y-90140976D01*
X112505707Y-90216728D01*
X112438288Y-90200649D01*
X112351074Y-90156935D01*
X112245682Y-90168490D01*
X112162661Y-90287162D01*
X112133073Y-90339587D01*
X112063417Y-90414082D01*
X112004502Y-90435895D01*
X111987405Y-90387274D01*
X111989876Y-90351981D01*
X111987405Y-90240880D01*
X111980605Y-90203163D01*
X111939269Y-90169399D01*
X111890033Y-90210584D01*
X111866216Y-90308208D01*
X111850697Y-90388559D01*
X111786374Y-90517503D01*
X111764018Y-90547011D01*
X111717562Y-90582649D01*
X111675148Y-90540501D01*
X111614329Y-90406024D01*
X111522127Y-90185353D01*
X111343134Y-90432444D01*
X111164142Y-90679536D01*
X111056155Y-90469047D01*
X111029720Y-90418951D01*
X110961992Y-90304332D01*
X110922694Y-90258558D01*
X110893463Y-90294259D01*
X110827765Y-90408185D01*
X110743156Y-90573198D01*
X110667572Y-90717593D01*
X110591610Y-90840560D01*
X110545604Y-90887838D01*
X110538690Y-90885804D01*
X110490597Y-90820356D01*
X110437282Y-90691386D01*
X110406744Y-90621623D01*
X110294771Y-90451846D01*
X110150044Y-90294007D01*
X110120672Y-90267761D01*
X109980931Y-90159760D01*
X109865996Y-90117858D01*
X109733036Y-90124660D01*
X109626158Y-90132626D01*
X109400332Y-90078912D01*
X109183013Y-89922222D01*
X108965144Y-89657039D01*
X108930709Y-89607224D01*
X108822293Y-89460433D01*
X108741226Y-89385666D01*
X108659274Y-89363897D01*
X108548198Y-89376100D01*
X108445134Y-89397788D01*
X108238028Y-89452538D01*
X108020836Y-89519627D01*
X107871092Y-89563051D01*
X107696767Y-89595505D01*
X107483181Y-89615814D01*
X107205321Y-89626299D01*
X106838176Y-89629279D01*
X106663992Y-89629154D01*
X106381528Y-89627043D01*
X106182737Y-89620028D01*
X106046950Y-89605201D01*
X105953497Y-89579656D01*
X105881711Y-89540483D01*
X105810922Y-89484777D01*
X105799525Y-89475383D01*
X105626058Y-89359362D01*
X105448988Y-89275802D01*
X105274466Y-89201418D01*
X105106935Y-89105664D01*
X105102915Y-89102880D01*
X104981677Y-89030124D01*
X104899881Y-89000000D01*
X104839600Y-88972775D01*
X104715107Y-88890409D01*
X104558515Y-88772155D01*
X104321410Y-88545484D01*
X104178835Y-88308103D01*
X104150385Y-88075603D01*
X104146835Y-88014094D01*
X104099563Y-87857374D01*
X104014330Y-87682936D01*
X104005970Y-87668645D01*
X103919662Y-87498476D01*
X103853338Y-87311289D01*
X103803584Y-87087612D01*
X103766982Y-86807973D01*
X103740117Y-86452900D01*
X103719572Y-86002922D01*
X103713574Y-85852647D01*
X103690039Y-85483176D01*
X103649036Y-85206506D01*
X103579588Y-85006548D01*
X103470716Y-84867214D01*
X103311441Y-84772417D01*
X103090786Y-84706066D01*
X102797771Y-84652076D01*
X102595879Y-84614842D01*
X102414627Y-84571793D01*
X102306344Y-84534483D01*
X102247182Y-84516795D01*
X102151663Y-84515149D01*
X102005351Y-84532184D01*
X101793206Y-84570216D01*
X101500189Y-84631561D01*
X101111261Y-84718535D01*
X101049562Y-84702952D01*
X101008326Y-84590871D01*
X101008121Y-84548679D01*
X101037444Y-84458618D01*
X101115607Y-84340838D01*
X101254493Y-84178861D01*
X101465984Y-83956210D01*
X101624601Y-83789818D01*
X101846141Y-83547434D01*
X102045177Y-83319171D01*
X102192272Y-83138181D01*
X102390039Y-82915652D01*
X102693451Y-82693973D01*
X103054745Y-82555256D01*
X103492120Y-82490433D01*
X103781739Y-82487386D01*
X104053813Y-82535506D01*
X104282866Y-82652057D01*
X104494391Y-82850701D01*
X104713881Y-83145096D01*
X104852615Y-83371749D01*
X105020191Y-83729332D01*
X105142093Y-84123524D01*
X105222358Y-84572810D01*
X105265022Y-85095669D01*
X105274121Y-85710585D01*
X105284960Y-86103694D01*
X105332745Y-86413713D01*
X105425064Y-86635552D01*
X105569332Y-86780532D01*
X105772963Y-86859974D01*
X106043370Y-86885201D01*
X106160253Y-86891987D01*
X106419310Y-86932757D01*
X106660360Y-86997747D01*
X106909647Y-87074182D01*
X107128766Y-87105058D01*
X107292019Y-87072842D01*
X107421088Y-86976939D01*
X107486933Y-86917646D01*
X107650050Y-86802479D01*
X107838258Y-86694577D01*
X107893194Y-86665577D01*
X108201668Y-86443557D01*
X108458294Y-86140841D01*
X108676740Y-85741899D01*
X108711974Y-85663923D01*
X108881836Y-85295690D01*
X109027605Y-84999358D01*
X109165693Y-84746293D01*
X109312516Y-84507865D01*
X109484487Y-84255439D01*
X109698021Y-83960384D01*
X109707861Y-83947044D01*
X110053209Y-83510994D01*
X110470075Y-83035596D01*
X110935858Y-82544700D01*
X111427958Y-82062151D01*
X111923775Y-81611797D01*
X112053291Y-81505549D01*
X112274541Y-81336909D01*
X112543977Y-81140505D01*
X112841614Y-80930074D01*
X113147462Y-80719352D01*
X113441536Y-80522076D01*
X113703848Y-80351982D01*
X113914411Y-80222807D01*
X114053238Y-80148287D01*
X114079468Y-80138166D01*
X114233505Y-80097198D01*
X114452307Y-80054742D01*
X114697503Y-80018527D01*
X114787568Y-80006655D01*
X115058756Y-79956807D01*
X115267940Y-79887529D01*
X115456266Y-79786224D01*
X115610807Y-79700839D01*
X115859396Y-79589525D01*
X116106386Y-79501567D01*
X116166665Y-79482415D01*
X116488012Y-79344131D01*
X116764657Y-79168782D01*
X116891020Y-79077718D01*
X117108311Y-78946957D01*
X117300901Y-78857754D01*
X117355095Y-78838518D01*
X117581637Y-78757735D01*
X117787162Y-78683988D01*
X117908707Y-78657543D01*
X118139773Y-78634560D01*
X118446686Y-78620000D01*
X118808813Y-78613572D01*
X119205519Y-78614982D01*
G37*
G36*
X131145045Y-87827252D02*
G01*
X131116442Y-87855856D01*
X131087838Y-87827252D01*
X131116442Y-87798648D01*
X131145045Y-87827252D01*
G37*
D14*
%TO.C,J7*%
X172950000Y-70700000D02*
X172950000Y-73750000D01*
X175900000Y-76800000D02*
X172950000Y-76800000D01*
X178160000Y-69940000D02*
X178160000Y-77560000D01*
X178450000Y-76600000D02*
X178450000Y-77850000D01*
X175900000Y-70700000D02*
X172950000Y-70700000D01*
X175900000Y-69950000D02*
X175900000Y-70700000D01*
X177400000Y-71750000D02*
X177400000Y-69950000D01*
X178160000Y-77560000D02*
X172190000Y-77560000D01*
X178150000Y-73250000D02*
X178150000Y-74250000D01*
X172950000Y-76800000D02*
X172950000Y-73750000D01*
X177400000Y-73250000D02*
X178150000Y-73250000D01*
X178150000Y-71750000D02*
X177400000Y-71750000D01*
X177400000Y-74250000D02*
X177400000Y-73250000D01*
X172190000Y-77560000D02*
X172190000Y-69940000D01*
X178150000Y-77550000D02*
X177400000Y-77550000D01*
X178150000Y-69950000D02*
X178150000Y-71750000D01*
X177400000Y-77550000D02*
X177400000Y-75750000D01*
X178150000Y-74250000D02*
X177400000Y-74250000D01*
X178450000Y-77850000D02*
X177200000Y-77850000D01*
X177400000Y-75750000D02*
X178150000Y-75750000D01*
X175900000Y-77550000D02*
X175900000Y-76800000D01*
X177400000Y-69950000D02*
X178150000Y-69950000D01*
X172190000Y-69940000D02*
X178160000Y-69940000D01*
X178150000Y-75750000D02*
X178150000Y-77550000D01*
%TO.C,J8*%
X175900000Y-61050000D02*
X175900000Y-61800000D01*
X178150000Y-61050000D02*
X178150000Y-62850000D01*
X177400000Y-61050000D02*
X178150000Y-61050000D01*
X178450000Y-68950000D02*
X177200000Y-68950000D01*
X178150000Y-66850000D02*
X178150000Y-68650000D01*
X178150000Y-64350000D02*
X178150000Y-65350000D01*
X172950000Y-67900000D02*
X172950000Y-64850000D01*
X177400000Y-66850000D02*
X178150000Y-66850000D01*
X172190000Y-61040000D02*
X178160000Y-61040000D01*
X175900000Y-68650000D02*
X175900000Y-67900000D01*
X175900000Y-67900000D02*
X172950000Y-67900000D01*
X177400000Y-64350000D02*
X178150000Y-64350000D01*
X178450000Y-67700000D02*
X178450000Y-68950000D01*
X177400000Y-62850000D02*
X177400000Y-61050000D01*
X177400000Y-68650000D02*
X177400000Y-66850000D01*
X178150000Y-68650000D02*
X177400000Y-68650000D01*
X178150000Y-65350000D02*
X177400000Y-65350000D01*
X178160000Y-61040000D02*
X178160000Y-68660000D01*
X175900000Y-61800000D02*
X172950000Y-61800000D01*
X177400000Y-65350000D02*
X177400000Y-64350000D01*
X172950000Y-61800000D02*
X172950000Y-64850000D01*
X178150000Y-62850000D02*
X177400000Y-62850000D01*
X178160000Y-68660000D02*
X172190000Y-68660000D01*
X172190000Y-68660000D02*
X172190000Y-61040000D01*
%TO.C,JP1*%
X120470000Y-66805000D02*
X123130000Y-66805000D01*
X120470000Y-68075000D02*
X120470000Y-69405000D01*
X120470000Y-69405000D02*
X121800000Y-69405000D01*
X123130000Y-66805000D02*
X123130000Y-64205000D01*
X120470000Y-66805000D02*
X120470000Y-64205000D01*
X120470000Y-64205000D02*
X123130000Y-64205000D01*
%TO.C,J5*%
X172950000Y-108100000D02*
X172950000Y-105050000D01*
X172190000Y-108860000D02*
X172190000Y-101240000D01*
X172950000Y-102000000D02*
X172950000Y-105050000D01*
X178150000Y-103050000D02*
X177400000Y-103050000D01*
X178450000Y-109150000D02*
X177200000Y-109150000D01*
X178150000Y-107050000D02*
X178150000Y-108850000D01*
X177400000Y-103050000D02*
X177400000Y-101250000D01*
X177400000Y-108850000D02*
X177400000Y-107050000D01*
X172190000Y-101240000D02*
X178160000Y-101240000D01*
X175900000Y-102000000D02*
X172950000Y-102000000D01*
X177400000Y-105550000D02*
X177400000Y-104550000D01*
X178160000Y-108860000D02*
X172190000Y-108860000D01*
X178150000Y-105550000D02*
X177400000Y-105550000D01*
X177400000Y-101250000D02*
X178150000Y-101250000D01*
X177400000Y-107050000D02*
X178150000Y-107050000D01*
X175900000Y-108850000D02*
X175900000Y-108100000D01*
X178150000Y-108850000D02*
X177400000Y-108850000D01*
X178160000Y-101240000D02*
X178160000Y-108860000D01*
X175900000Y-108100000D02*
X172950000Y-108100000D01*
X178150000Y-104550000D02*
X178150000Y-105550000D01*
X177400000Y-104550000D02*
X178150000Y-104550000D01*
X178150000Y-101250000D02*
X178150000Y-103050000D01*
X175900000Y-101250000D02*
X175900000Y-102000000D01*
X178450000Y-107900000D02*
X178450000Y-109150000D01*
%TO.C,SW1*%
X118720000Y-101480000D02*
X123220000Y-101480000D01*
X117470000Y-105480000D02*
X117470000Y-103980000D01*
X123220000Y-107980000D02*
X118720000Y-107980000D01*
X124470000Y-103980000D02*
X124470000Y-105480000D01*
%TO.C,J14*%
X166780000Y-89860000D02*
X169440000Y-89860000D01*
X166780000Y-77100000D02*
X169440000Y-77100000D01*
X166780000Y-92460000D02*
X168110000Y-92460000D01*
X166780000Y-91130000D02*
X166780000Y-92460000D01*
X166780000Y-89860000D02*
X166780000Y-77100000D01*
X169440000Y-89860000D02*
X169440000Y-77100000D01*
%TO.C,J6*%
X172950000Y-93100000D02*
X172950000Y-96150000D01*
X172950000Y-99200000D02*
X172950000Y-96150000D01*
X177400000Y-99950000D02*
X177400000Y-98150000D01*
X178450000Y-100250000D02*
X177200000Y-100250000D01*
X178160000Y-99960000D02*
X172190000Y-99960000D01*
X177400000Y-96650000D02*
X177400000Y-95650000D01*
X178160000Y-92340000D02*
X178160000Y-99960000D01*
X177400000Y-94150000D02*
X177400000Y-92350000D01*
X175900000Y-99950000D02*
X175900000Y-99200000D01*
X175900000Y-99200000D02*
X172950000Y-99200000D01*
X178150000Y-92350000D02*
X178150000Y-94150000D01*
X172190000Y-99960000D02*
X172190000Y-92340000D01*
X178150000Y-99950000D02*
X177400000Y-99950000D01*
X172190000Y-92340000D02*
X178160000Y-92340000D01*
X178150000Y-96650000D02*
X177400000Y-96650000D01*
X178150000Y-98150000D02*
X178150000Y-99950000D01*
X175900000Y-93100000D02*
X172950000Y-93100000D01*
X177400000Y-95650000D02*
X178150000Y-95650000D01*
X178150000Y-94150000D02*
X177400000Y-94150000D01*
X178150000Y-95650000D02*
X178150000Y-96650000D01*
X178450000Y-99000000D02*
X178450000Y-100250000D01*
X177400000Y-98150000D02*
X178150000Y-98150000D01*
X175900000Y-92350000D02*
X175900000Y-93100000D01*
X177400000Y-92350000D02*
X178150000Y-92350000D01*
%TD*%
M02*
