M48
; DRILL file {KiCad (6.0.1)} date Tue Mar  1 16:38:52 2022
; FORMAT={-:-/ absolute / inch / decimal}
; #@! TF.CreationDate,2022-03-01T16:38:52-05:00
; #@! TF.GenerationSoftware,Kicad,Pcbnew,(6.0.1)
; #@! TF.FileFunction,Plated,1,2,PTH
FMAT,2
INCH
; #@! TA.AperFunction,Plated,PTH,ViaDrill
T1C0.0157
; #@! TA.AperFunction,Plated,PTH,ComponentDrill
T2C0.0374
; #@! TA.AperFunction,Plated,PTH,ViaDrill
T3C0.0394
; #@! TA.AperFunction,Plated,PTH,ComponentDrill
T4C0.0394
; #@! TA.AperFunction,Plated,PTH,ComponentDrill
T5C0.0433
; #@! TA.AperFunction,Plated,PTH,ComponentDrill
T6C0.0866
%
G90
G05
T1
X4.2953Y-2.8228
X4.3504Y-3.8091
X4.3961Y-3.6693
X4.5276Y-2.6654
X4.5571Y-3.7894
X4.6583Y-2.7709
X4.7134Y-2.6646
X4.9016Y-2.6801
X4.9528Y-3.0376
X4.9764Y-2.7756
X5.0827Y-2.7008
X5.1142Y-3.5433
X5.1512Y-2.9876
X5.2425Y-3.5449
X5.2441Y-3.5039
X5.5217Y-3.1791
X5.5512Y-3.6614
X5.5748Y-2.9016
X5.6024Y-3.2441
X5.6307Y-2.9289
X5.672Y-2.9289
X5.6901Y-3.7587
X5.7134Y-2.9289
X5.7283Y-3.0343
X5.7291Y-3.3156
X5.748Y-2.9528
X5.7778Y-3.2874
X5.811Y-3.1575
X5.9594Y-4.1957
X5.9606Y-4.1098
X6.0079Y-4.0354
X6.0335Y-3.002
T2
X5.9646Y-2.865
X5.9646Y-3.1957
X5.9646Y-3.5228
X5.9646Y-3.8476
X5.9724Y-2.5813
X6.063Y-2.865
X6.063Y-3.1957
X6.063Y-3.5228
X6.063Y-3.8476
X6.0709Y-2.5813
X6.1614Y-2.865
X6.1614Y-3.1957
X6.1614Y-3.5228
X6.1614Y-3.8476
X6.1693Y-2.5813
X6.2598Y-2.865
X6.2598Y-3.1957
X6.2598Y-3.5228
X6.2598Y-3.8476
T3
X5.1185Y-2.828
X5.1969Y-2.4705
X5.5854Y-4.1311
X5.6712Y-4.0113
X5.7098Y-2.5437
X6.3031Y-4.1402
T4
X4.0846Y-2.5384
X4.0846Y-4.1545
X4.1831Y-2.5384
X4.1831Y-4.1545
X4.724Y-3.8116
X4.7953Y-2.5801
X4.7953Y-2.6801
X4.8224Y-3.8116
X5.3858Y-2.8967
X5.3858Y-2.9967
X5.3858Y-3.0967
X5.3858Y-3.1967
X5.3858Y-3.2967
X5.3858Y-3.3967
X5.3858Y-3.4967
X5.3858Y-3.5967
X5.3858Y-3.6967
X5.3858Y-3.7967
X6.4665Y-4.1535
X6.4764Y-2.5384
X6.565Y-4.1535
X6.5748Y-2.5384
X6.6185Y-3.0878
X6.6185Y-3.1878
X6.6185Y-3.2878
X6.6185Y-3.3878
X6.6185Y-3.4878
X6.6185Y-3.5878
X6.9173Y-2.5039
X6.9173Y-2.6024
X6.9173Y-2.8543
X6.9173Y-2.9528
X6.9173Y-3.7362
X6.9173Y-3.8346
X6.9173Y-4.0866
X6.9173Y-4.185
X6.9516Y-3.1807
X6.9516Y-3.2807
X6.9516Y-3.3807
X6.9516Y-3.4807
T5
X4.6346Y-4.0346
X4.6346Y-4.2118
X4.8906Y-4.0346
X4.8906Y-4.2118
T6
X4.4094Y-2.5591
X4.4094Y-4.1339
X6.5748Y-2.8346
X6.5748Y-3.8583
T0
M30
