%TF.GenerationSoftware,KiCad,Pcbnew,(6.0.1)*%
%TF.CreationDate,2022-03-01T16:38:42-05:00*%
%TF.ProjectId,Project_380,50726f6a-6563-4745-9f33-38302e6b6963,rev?*%
%TF.SameCoordinates,Original*%
%TF.FileFunction,Copper,L2,Bot*%
%TF.FilePolarity,Positive*%
%FSLAX46Y46*%
G04 Gerber Fmt 4.6, Leading zero omitted, Abs format (unit mm)*
G04 Created by KiCad (PCBNEW (6.0.1)) date 2022-03-01 16:38:42*
%MOMM*%
%LPD*%
G01*
G04 APERTURE LIST*
G04 Aperture macros list*
%AMRoundRect*
0 Rectangle with rounded corners*
0 $1 Rounding radius*
0 $2 $3 $4 $5 $6 $7 $8 $9 X,Y pos of 4 corners*
0 Add a 4 corners polygon primitive as box body*
4,1,4,$2,$3,$4,$5,$6,$7,$8,$9,$2,$3,0*
0 Add four circle primitives for the rounded corners*
1,1,$1+$1,$2,$3*
1,1,$1+$1,$4,$5*
1,1,$1+$1,$6,$7*
1,1,$1+$1,$8,$9*
0 Add four rect primitives between the rounded corners*
20,1,$1+$1,$2,$3,$4,$5,0*
20,1,$1+$1,$4,$5,$6,$7,0*
20,1,$1+$1,$6,$7,$8,$9,0*
20,1,$1+$1,$8,$9,$2,$3,0*%
G04 Aperture macros list end*
%TA.AperFunction,ComponentPad*%
%ADD10O,1.700000X1.700000*%
%TD*%
%TA.AperFunction,ComponentPad*%
%ADD11R,1.700000X1.700000*%
%TD*%
%TA.AperFunction,ComponentPad*%
%ADD12C,4.400000*%
%TD*%
%TA.AperFunction,ComponentPad*%
%ADD13RoundRect,0.250000X0.600000X0.750000X-0.600000X0.750000X-0.600000X-0.750000X0.600000X-0.750000X0*%
%TD*%
%TA.AperFunction,ComponentPad*%
%ADD14O,1.700000X2.000000*%
%TD*%
%TA.AperFunction,ComponentPad*%
%ADD15RoundRect,0.250000X-0.600000X-0.750000X0.600000X-0.750000X0.600000X0.750000X-0.600000X0.750000X0*%
%TD*%
%TA.AperFunction,ComponentPad*%
%ADD16RoundRect,0.250000X0.600000X0.725000X-0.600000X0.725000X-0.600000X-0.725000X0.600000X-0.725000X0*%
%TD*%
%TA.AperFunction,ComponentPad*%
%ADD17O,1.700000X1.950000*%
%TD*%
%TA.AperFunction,ComponentPad*%
%ADD18RoundRect,0.250000X0.750000X-0.600000X0.750000X0.600000X-0.750000X0.600000X-0.750000X-0.600000X0*%
%TD*%
%TA.AperFunction,ComponentPad*%
%ADD19O,2.000000X1.700000*%
%TD*%
%TA.AperFunction,ComponentPad*%
%ADD20C,2.000000*%
%TD*%
%TA.AperFunction,ViaPad*%
%ADD21C,0.800000*%
%TD*%
%TA.AperFunction,ViaPad*%
%ADD22C,1.500000*%
%TD*%
%TA.AperFunction,Conductor*%
%ADD23C,0.250000*%
%TD*%
%TA.AperFunction,Conductor*%
%ADD24C,2.286000*%
%TD*%
%TA.AperFunction,Conductor*%
%ADD25C,1.143000*%
%TD*%
%TA.AperFunction,Conductor*%
%ADD26C,1.270000*%
%TD*%
%TA.AperFunction,Conductor*%
%ADD27C,1.905000*%
%TD*%
G04 APERTURE END LIST*
D10*
%TO.P,J13,10*%
%TO.N,N/C*%
X136800000Y-96435000D03*
%TO.P,J13,9*%
X136800000Y-93895000D03*
%TO.P,J13,8*%
X136800000Y-91355000D03*
%TO.P,J13,7*%
X136800000Y-88815000D03*
%TO.P,J13,6*%
X136800000Y-86275000D03*
%TO.P,J13,5,Pin_5*%
%TO.N,/Sensors/SDA*%
X136800000Y-83735000D03*
%TO.P,J13,4,Pin_4*%
%TO.N,/Sensors/SCL*%
X136800000Y-81195000D03*
%TO.P,J13,3,Pin_3*%
%TO.N,GND*%
X136800000Y-78655000D03*
%TO.P,J13,2,Pin_2*%
%TO.N,+3V3*%
X136800000Y-76115000D03*
D11*
%TO.P,J13,1,Pin_1*%
%TO.N,unconnected-(J13-Pad1)*%
X136800000Y-73575000D03*
%TD*%
D12*
%TO.P,REF\u002A\u002A,1*%
%TO.N,N/C*%
X112000000Y-65000000D03*
%TD*%
%TO.P,REF\u002A\u002A,1*%
%TO.N,N/C*%
X167000000Y-72000000D03*
%TD*%
%TO.P,REF\u002A\u002A,1*%
%TO.N,N/C*%
X112000000Y-105000000D03*
%TD*%
%TO.P,REF\u002A\u002A,1*%
%TO.N,N/C*%
X167000000Y-98000000D03*
%TD*%
D13*
%TO.P,J3,1,Pin_1*%
%TO.N,Net-(J3-Pad1)*%
X166750000Y-105500000D03*
D14*
%TO.P,J3,2,Pin_2*%
%TO.N,Net-(J3-Pad2)*%
X164250000Y-105500000D03*
%TD*%
D15*
%TO.P,J2,1,Pin_1*%
%TO.N,Net-(J1-Pad1)*%
X103750000Y-64475000D03*
D14*
%TO.P,J2,2,Pin_2*%
%TO.N,Net-(J1-Pad2)*%
X106250000Y-64475000D03*
%TD*%
D13*
%TO.P,J4,1,Pin_1*%
%TO.N,Net-(J3-Pad1)*%
X106250000Y-105525000D03*
D14*
%TO.P,J4,2,Pin_2*%
%TO.N,Net-(J3-Pad2)*%
X103750000Y-105525000D03*
%TD*%
D16*
%TO.P,J12,1,Pin_1*%
%TO.N,+3V3*%
X159000000Y-72770000D03*
D17*
%TO.P,J12,2,Pin_2*%
%TO.N,/Sensors/J12_SCL*%
X156500000Y-72770000D03*
%TO.P,J12,3,Pin_3*%
%TO.N,/Sensors/J12_SDA*%
X154000000Y-72770000D03*
%TO.P,J12,4,Pin_4*%
%TO.N,GND*%
X151500000Y-72770000D03*
%TD*%
D16*
%TO.P,J10,1,Pin_1*%
%TO.N,+3V3*%
X159000000Y-89480000D03*
D17*
%TO.P,J10,2,Pin_2*%
%TO.N,/Sensors/J10_SCL*%
X156500000Y-89480000D03*
%TO.P,J10,3,Pin_3*%
%TO.N,/Sensors/J10_SDA*%
X154000000Y-89480000D03*
%TO.P,J10,4,Pin_4*%
%TO.N,GND*%
X151500000Y-89480000D03*
%TD*%
D16*
%TO.P,J11,1,Pin_1*%
%TO.N,+3V3*%
X159000000Y-81170000D03*
D17*
%TO.P,J11,2,Pin_2*%
%TO.N,/Sensors/J11_SCL*%
X156500000Y-81170000D03*
%TO.P,J11,3,Pin_3*%
%TO.N,/Sensors/J11_SDA*%
X154000000Y-81170000D03*
%TO.P,J11,4,Pin_4*%
%TO.N,GND*%
X151500000Y-81170000D03*
%TD*%
D16*
%TO.P,J9,1,Pin_1*%
%TO.N,+3V3*%
X159000000Y-97730000D03*
D17*
%TO.P,J9,2,Pin_2*%
%TO.N,/Sensors/J9_SCL*%
X156500000Y-97730000D03*
%TO.P,J9,3,Pin_3*%
%TO.N,/Sensors/J9_SDA*%
X154000000Y-97730000D03*
%TO.P,J9,4,Pin_4*%
%TO.N,GND*%
X151500000Y-97730000D03*
%TD*%
D11*
%TO.P,U1,1,Pin_1*%
%TO.N,+3V3*%
X176570000Y-88410000D03*
D10*
%TO.P,U1,2,Pin_2*%
%TO.N,GND*%
X176570000Y-85870000D03*
%TO.P,U1,3,Pin_3*%
%TO.N,+BATT*%
X176570000Y-83330000D03*
%TO.P,U1,4,Pin_4*%
%TO.N,unconnected-(U1-Pad4)*%
X176570000Y-80790000D03*
%TD*%
D16*
%TO.P,J15,1,Pin_1*%
%TO.N,+BATT*%
X156700000Y-65565000D03*
D17*
%TO.P,J15,2,Pin_2*%
%TO.N,/Motor Control/DWN_MTR_CTL*%
X154200000Y-65565000D03*
%TO.P,J15,3,Pin_3*%
%TO.N,GND*%
X151700000Y-65565000D03*
%TD*%
D15*
%TO.P,J1,1,Pin_1*%
%TO.N,Net-(J1-Pad1)*%
X164500000Y-64475000D03*
D14*
%TO.P,J1,2,Pin_2*%
%TO.N,Net-(J1-Pad2)*%
X167000000Y-64475000D03*
%TD*%
D18*
%TO.P,J7,1,Pin_1*%
%TO.N,Net-(J6-Pad2)*%
X175700000Y-75000000D03*
D19*
%TO.P,J7,2,Pin_2*%
%TO.N,Net-(J7-Pad2)*%
X175700000Y-72500000D03*
%TD*%
D18*
%TO.P,J8,1,Pin_1*%
%TO.N,Net-(J7-Pad2)*%
X175700000Y-66100000D03*
D19*
%TO.P,J8,2,Pin_2*%
%TO.N,GND*%
X175700000Y-63600000D03*
%TD*%
D11*
%TO.P,JP1,1,A*%
%TO.N,Net-(JP1-Pad1)*%
X121800000Y-68075000D03*
D10*
%TO.P,JP1,2,B*%
%TO.N,GND*%
X121800000Y-65535000D03*
%TD*%
D18*
%TO.P,J5,1,Pin_1*%
%TO.N,Net-(J16-Pad2)*%
X175700000Y-106300000D03*
D19*
%TO.P,J5,2,Pin_2*%
%TO.N,Net-(J5-Pad2)*%
X175700000Y-103800000D03*
%TD*%
D20*
%TO.P,SW1,1,A*%
%TO.N,GND*%
X124220000Y-106980000D03*
X117720000Y-106980000D03*
%TO.P,SW1,2,B*%
%TO.N,Net-(C1-Pad1)*%
X124220000Y-102480000D03*
X117720000Y-102480000D03*
%TD*%
D11*
%TO.P,J14,1,Pin_1*%
%TO.N,+3V3*%
X168110000Y-91130000D03*
D10*
%TO.P,J14,2,Pin_2*%
%TO.N,unconnected-(J14-Pad2)*%
X168110000Y-88590000D03*
%TO.P,J14,3,Pin_3*%
%TO.N,Net-(J14-Pad3)*%
X168110000Y-86050000D03*
%TO.P,J14,4,Pin_4*%
%TO.N,Net-(J14-Pad4)*%
X168110000Y-83510000D03*
%TO.P,J14,5,Pin_5*%
%TO.N,GND*%
X168110000Y-80970000D03*
%TO.P,J14,6,Pin_6*%
%TO.N,unconnected-(J14-Pad6)*%
X168110000Y-78430000D03*
%TD*%
D15*
%TO.P,J16,1,Pin_1*%
%TO.N,+BATT*%
X119990000Y-96815000D03*
D14*
%TO.P,J16,2,Pin_2*%
%TO.N,Net-(J16-Pad2)*%
X122490000Y-96815000D03*
%TD*%
D18*
%TO.P,J6,1,Pin_1*%
%TO.N,Net-(J5-Pad2)*%
X175700000Y-97400000D03*
D19*
%TO.P,J6,2,Pin_2*%
%TO.N,Net-(J6-Pad2)*%
X175700000Y-94900000D03*
%TD*%
D21*
%TO.N,GND*%
X140250000Y-80750000D03*
D22*
%TO.N,Net-(J3-Pad2)*%
X144047500Y-101887989D03*
D21*
%TO.N,GND*%
X110500000Y-96750000D03*
X115750000Y-96250000D03*
X144529607Y-95470393D03*
X141000000Y-93000000D03*
X147600000Y-80200000D03*
D22*
%TO.N,Net-(J1-Pad1)*%
X132000000Y-62750000D03*
%TO.N,Net-(J1-Pad2)*%
X145030000Y-64610000D03*
%TO.N,Net-(J3-Pad1)*%
X160100000Y-105160000D03*
%TO.N,Net-(J3-Pad2)*%
X141870000Y-104930000D03*
D21*
%TO.N,+3V3*%
X109100000Y-71700000D03*
X152600000Y-102500000D03*
X115000000Y-67700000D03*
X111660000Y-93200000D03*
X141600000Y-73700000D03*
X142300000Y-82400000D03*
X129100000Y-68600000D03*
%TO.N,/Sensors/SDA*%
X118320000Y-70380000D03*
%TO.N,Net-(J14-Pad3)*%
X145500000Y-77070000D03*
%TO.N,Net-(J14-Pad4)*%
X153250000Y-76250000D03*
D22*
%TO.N,+BATT*%
X130010000Y-71830000D03*
D21*
%TO.N,/Motor Control/DWN_MTR_CTL*%
X119720000Y-67680000D03*
%TO.N,Net-(JP1-Pad1)*%
X124500000Y-68075000D03*
%TO.N,/Power Supply/V_SENSE*%
X129900000Y-90000000D03*
X125800000Y-77155000D03*
%TO.N,/Motor Control/M_CTL_R2*%
X151370000Y-106570000D03*
X126400000Y-70500000D03*
%TO.N,/Motor Control/M_CTL_R1*%
X130840000Y-75885000D03*
X151400000Y-104390000D03*
%TO.N,/SEL_1*%
X145520000Y-84215000D03*
X133160489Y-90040489D03*
%TO.N,/SEL_2*%
X133200000Y-89000000D03*
X146755000Y-83500000D03*
%TO.N,/Sensors/J9_SCL*%
X143020000Y-74395000D03*
%TO.N,/Sensors/J10_SCL*%
X144070000Y-74395000D03*
%TO.N,/Sensors/J11_SCL*%
X145120000Y-74395000D03*
%TO.N,/Sensors/J12_SCL*%
X146000000Y-75000000D03*
%TD*%
D23*
%TO.N,GND*%
X138155000Y-78655000D02*
X140250000Y-80750000D01*
X136800000Y-78655000D02*
X138155000Y-78655000D01*
%TO.N,/Sensors/SDA*%
X132607859Y-79542859D02*
X136800000Y-83735000D01*
X132607859Y-77002859D02*
X132607859Y-79542859D01*
%TO.N,/Motor Control/DWN_MTR_CTL*%
X120690489Y-66709511D02*
X119720000Y-67680000D01*
X133290489Y-66709511D02*
X120690489Y-66709511D01*
X134250000Y-65750000D02*
X133290489Y-66709511D01*
X139392836Y-65750000D02*
X134250000Y-65750000D01*
X140669867Y-67027031D02*
X139392836Y-65750000D01*
X146031167Y-67027031D02*
X140669867Y-67027031D01*
X149219659Y-63838540D02*
X146031167Y-67027031D01*
X152473540Y-63838540D02*
X149219659Y-63838540D01*
X154200000Y-65565000D02*
X152473540Y-63838540D01*
D24*
%TO.N,Net-(J16-Pad2)*%
X130925000Y-105250000D02*
X122490000Y-96815000D01*
X137978656Y-105250000D02*
X130925000Y-105250000D01*
X140739328Y-102489328D02*
X137978656Y-105250000D01*
X145118988Y-99795478D02*
X143180752Y-99795478D01*
X143180752Y-99795478D02*
X140739328Y-102236902D01*
X146140000Y-100816490D02*
X145118988Y-99795478D01*
X140739328Y-102236902D02*
X140739328Y-102489328D01*
X150595622Y-108439511D02*
X146140000Y-103983889D01*
X146140000Y-103983889D02*
X146140000Y-100816490D01*
X173560489Y-108439511D02*
X150595622Y-108439511D01*
X175700000Y-106300000D02*
X173560489Y-108439511D01*
D25*
%TO.N,Net-(J3-Pad2)*%
X141870000Y-104065489D02*
X144047500Y-101887989D01*
X141870000Y-104930000D02*
X141870000Y-104065489D01*
D23*
%TO.N,GND*%
X111000000Y-96250000D02*
X110500000Y-96750000D01*
X115750000Y-96250000D02*
X111000000Y-96250000D01*
%TO.N,/Sensors/J12_SCL*%
X146000000Y-75000000D02*
X146385000Y-75085000D01*
X146385000Y-75085000D02*
X154185000Y-75085000D01*
X154185000Y-75085000D02*
X156500000Y-72770000D01*
%TO.N,/SEL_2*%
X133200000Y-88213990D02*
X133200000Y-89000000D01*
X140160000Y-84910000D02*
X136503990Y-84910000D01*
X141579511Y-83490489D02*
X140160000Y-84910000D01*
X146745489Y-83490489D02*
X141579511Y-83490489D01*
X136503990Y-84910000D02*
X133200000Y-88213990D01*
X146755000Y-83500000D02*
X146745489Y-83490489D01*
%TO.N,Net-(JP1-Pad1)*%
X121800000Y-68075000D02*
X124500000Y-68075000D01*
%TO.N,Net-(J14-Pad3)*%
X145500000Y-77070000D02*
X159130000Y-77070000D01*
X159130000Y-77070000D02*
X168110000Y-86050000D01*
%TO.N,Net-(J14-Pad4)*%
X161000000Y-76400000D02*
X168110000Y-83510000D01*
X153250000Y-76250000D02*
X161000000Y-76400000D01*
%TO.N,/Motor Control/M_CTL_R1*%
X130840000Y-92771727D02*
X130840000Y-75885000D01*
X136127303Y-98059031D02*
X130840000Y-92771727D01*
X137901759Y-97629969D02*
X137472697Y-98059031D01*
X145028865Y-97629969D02*
X137901759Y-97629969D01*
X137472697Y-98059031D02*
X136127303Y-98059031D01*
X151400000Y-104001104D02*
X145028865Y-97629969D01*
%TO.N,/Motor Control/M_CTL_R2*%
X130630000Y-70500000D02*
X126400000Y-70500000D01*
X131845000Y-71715000D02*
X130630000Y-70500000D01*
X137715561Y-97180449D02*
X137286499Y-97609511D01*
X145215062Y-97180449D02*
X137715561Y-97180449D01*
X137286499Y-97609511D02*
X136313501Y-97609511D01*
X136313501Y-97609511D02*
X131845000Y-93141010D01*
X152560000Y-104525386D02*
X145215062Y-97180449D01*
X152560000Y-105380000D02*
X152560000Y-104525386D01*
X151370000Y-106570000D02*
X152560000Y-105380000D01*
X131845000Y-93141010D02*
X131845000Y-71715000D01*
D25*
%TO.N,Net-(J1-Pad1)*%
X159895000Y-64475000D02*
X164500000Y-64475000D01*
X158362520Y-62942520D02*
X159895000Y-64475000D01*
X148848515Y-62942520D02*
X158362520Y-62942520D01*
X145660024Y-66131011D02*
X148848515Y-62942520D01*
X141041011Y-66131011D02*
X145660024Y-66131011D01*
X137300000Y-62390000D02*
X141041011Y-66131011D01*
X137290000Y-62400000D02*
X137300000Y-62390000D01*
X132350000Y-62400000D02*
X137290000Y-62400000D01*
X132000000Y-62750000D02*
X132350000Y-62400000D01*
%TO.N,Net-(J1-Pad2)*%
X148040000Y-61600000D02*
X145030000Y-64610000D01*
X164418940Y-61600000D02*
X148040000Y-61600000D01*
X167000000Y-64181060D02*
X164418940Y-61600000D01*
X167000000Y-64475000D02*
X167000000Y-64181060D01*
D23*
%TO.N,GND*%
X142059214Y-93000000D02*
X144529607Y-95470393D01*
X141000000Y-93000000D02*
X142059214Y-93000000D01*
D25*
%TO.N,+BATT*%
X172250000Y-80350000D02*
X175230000Y-83330000D01*
X175230000Y-83330000D02*
X176570000Y-83330000D01*
X167101645Y-67900000D02*
X172250000Y-73048355D01*
X161000000Y-67900000D02*
X167101645Y-67900000D01*
X172250000Y-73048355D02*
X172250000Y-80350000D01*
X158665000Y-65565000D02*
X161000000Y-67900000D01*
X156700000Y-65565000D02*
X158665000Y-65565000D01*
D23*
%TO.N,GND*%
X147600000Y-80200000D02*
X148570000Y-81170000D01*
X148570000Y-81170000D02*
X151500000Y-81170000D01*
D25*
%TO.N,Net-(J1-Pad2)*%
X145030000Y-64610000D02*
X141820000Y-64610000D01*
X141820000Y-64610000D02*
X138170000Y-60960000D01*
X106250000Y-64475000D02*
X106250000Y-62960000D01*
X108250000Y-60960000D02*
X138170000Y-60960000D01*
X106250000Y-62960000D02*
X108250000Y-60960000D01*
%TO.N,Net-(J3-Pad1)*%
X160100000Y-105160000D02*
X161594520Y-103665480D01*
D26*
X166750000Y-105467729D02*
X166750000Y-105500000D01*
D25*
X164947751Y-103665480D02*
X166750000Y-105467729D01*
X161594520Y-103665480D02*
X164947751Y-103665480D01*
%TO.N,Net-(J3-Pad2)*%
X103750000Y-105525000D02*
X103750000Y-105908742D01*
X103750000Y-105908742D02*
X106655769Y-108814511D01*
X106655769Y-108814511D02*
X137985489Y-108814511D01*
X137985489Y-108814511D02*
X141870000Y-104930000D01*
D24*
%TO.N,Net-(J5-Pad2)*%
X175700000Y-97400000D02*
X175700000Y-103800000D01*
%TO.N,Net-(J6-Pad2)*%
X175700000Y-94900000D02*
X179300000Y-91300000D01*
X179300000Y-78600000D02*
X175700000Y-75000000D01*
X179300000Y-91300000D02*
X179300000Y-78600000D01*
%TO.N,Net-(J7-Pad2)*%
X175700000Y-72500000D02*
X175700000Y-66100000D01*
D23*
%TO.N,/Sensors/SDA*%
X119590000Y-72180000D02*
X123200000Y-72180000D01*
X130541207Y-69775489D02*
X132607859Y-71842141D01*
X125604511Y-69775489D02*
X130541207Y-69775489D01*
X118320000Y-70910000D02*
X119590000Y-72180000D01*
X132607859Y-71992141D02*
X132607859Y-77002859D01*
X118320000Y-70380000D02*
X118320000Y-70910000D01*
X123200000Y-72180000D02*
X125604511Y-69775489D01*
X132607859Y-71842141D02*
X132607859Y-71992141D01*
D27*
%TO.N,+BATT*%
X119990000Y-96815000D02*
X119990000Y-79260000D01*
X127420000Y-71830000D02*
X130010000Y-71830000D01*
X119990000Y-79260000D02*
X127420000Y-71830000D01*
D23*
%TO.N,/Power Supply/V_SENSE*%
X125800000Y-77155000D02*
X125800000Y-85900000D01*
X125800000Y-85900000D02*
X129900000Y-90000000D01*
%TO.N,/SEL_1*%
X145520000Y-84215000D02*
X139694511Y-90040489D01*
X139694511Y-90040489D02*
X133160489Y-90040489D01*
%TO.N,/Sensors/J9_SCL*%
X147500000Y-83190718D02*
X147500000Y-98829668D01*
X143020000Y-74395000D02*
X143020000Y-78710718D01*
X147500000Y-98829668D02*
X149570332Y-100900000D01*
X149570332Y-100900000D02*
X153330000Y-100900000D01*
X143020000Y-78710718D02*
X147500000Y-83190718D01*
X153330000Y-100900000D02*
X156500000Y-97730000D01*
%TO.N,/Sensors/J10_SCL*%
X149400000Y-92200000D02*
X153780000Y-92200000D01*
X144070000Y-79125000D02*
X147949520Y-83004521D01*
X153780000Y-92200000D02*
X156500000Y-89480000D01*
X144070000Y-74395000D02*
X144070000Y-79125000D01*
X147949520Y-83004521D02*
X147949520Y-90749520D01*
X147949520Y-90749520D02*
X149400000Y-92200000D01*
%TO.N,/Sensors/J11_SCL*%
X154570000Y-83100000D02*
X156500000Y-81170000D01*
X144519520Y-78819520D02*
X148800000Y-83100000D01*
X144519520Y-74995480D02*
X144519520Y-78819520D01*
X145120000Y-74395000D02*
X144519520Y-74995480D01*
X148800000Y-83100000D02*
X154570000Y-83100000D01*
%TD*%
%TA.AperFunction,Conductor*%
%TO.N,+3V3*%
G36*
X106938580Y-60528002D02*
G01*
X106985073Y-60581658D01*
X106995177Y-60651932D01*
X106965683Y-60716512D01*
X106959554Y-60723095D01*
X105558350Y-62124299D01*
X105550313Y-62131085D01*
X105550529Y-62131335D01*
X105545986Y-62135256D01*
X105541095Y-62138726D01*
X105536946Y-62143060D01*
X105536945Y-62143061D01*
X105478659Y-62203948D01*
X105476736Y-62205913D01*
X105449912Y-62232737D01*
X105448003Y-62235049D01*
X105447991Y-62235062D01*
X105445395Y-62238206D01*
X105439260Y-62245104D01*
X105402735Y-62283259D01*
X105402731Y-62283264D01*
X105398586Y-62287594D01*
X105380988Y-62314848D01*
X105372296Y-62326724D01*
X105355444Y-62347130D01*
X105355438Y-62347139D01*
X105351626Y-62351755D01*
X105323413Y-62403394D01*
X105318706Y-62411306D01*
X105286798Y-62460723D01*
X105284558Y-62466281D01*
X105284554Y-62466289D01*
X105274669Y-62490819D01*
X105268379Y-62504126D01*
X105252818Y-62532608D01*
X105250990Y-62538320D01*
X105250987Y-62538326D01*
X105238439Y-62577528D01*
X105235329Y-62587245D01*
X105234885Y-62588631D01*
X105231757Y-62597297D01*
X105209764Y-62651868D01*
X105208616Y-62657749D01*
X105203546Y-62683709D01*
X105199884Y-62697972D01*
X105193824Y-62716905D01*
X105189990Y-62728881D01*
X105189276Y-62734826D01*
X105182973Y-62787292D01*
X105181536Y-62796412D01*
X105180593Y-62801243D01*
X105170265Y-62854131D01*
X105170000Y-62859549D01*
X105170000Y-62887747D01*
X105169101Y-62902775D01*
X105165411Y-62933493D01*
X105165834Y-62939469D01*
X105165834Y-62939472D01*
X105169685Y-62993858D01*
X105170000Y-63002757D01*
X105170000Y-63169685D01*
X105149998Y-63237806D01*
X105096342Y-63284299D01*
X105026068Y-63294403D01*
X104961488Y-63264909D01*
X104949642Y-63252534D01*
X104948478Y-63250652D01*
X104823303Y-63125695D01*
X104752897Y-63082296D01*
X104678968Y-63036725D01*
X104678966Y-63036724D01*
X104672738Y-63032885D01*
X104581904Y-63002757D01*
X104511389Y-62979368D01*
X104511387Y-62979368D01*
X104504861Y-62977203D01*
X104498025Y-62976503D01*
X104498022Y-62976502D01*
X104451064Y-62971691D01*
X104400400Y-62966500D01*
X103099600Y-62966500D01*
X103096354Y-62966837D01*
X103096350Y-62966837D01*
X103000692Y-62976762D01*
X103000688Y-62976763D01*
X102993834Y-62977474D01*
X102987298Y-62979655D01*
X102987296Y-62979655D01*
X102882797Y-63014519D01*
X102826054Y-63033450D01*
X102675652Y-63126522D01*
X102670479Y-63131704D01*
X102620589Y-63181681D01*
X102550695Y-63251697D01*
X102546855Y-63257927D01*
X102546854Y-63257928D01*
X102469999Y-63382610D01*
X102457885Y-63402262D01*
X102446435Y-63436783D01*
X102420179Y-63515944D01*
X102402203Y-63570139D01*
X102391500Y-63674600D01*
X102391500Y-65275400D01*
X102391837Y-65278646D01*
X102391837Y-65278650D01*
X102399446Y-65351979D01*
X102402474Y-65381166D01*
X102404655Y-65387702D01*
X102404655Y-65387704D01*
X102440033Y-65493744D01*
X102458450Y-65548946D01*
X102551522Y-65699348D01*
X102676697Y-65824305D01*
X102682927Y-65828145D01*
X102682928Y-65828146D01*
X102820090Y-65912694D01*
X102827262Y-65917115D01*
X102873659Y-65932504D01*
X102988611Y-65970632D01*
X102988613Y-65970632D01*
X102995139Y-65972797D01*
X103001975Y-65973497D01*
X103001978Y-65973498D01*
X103037663Y-65977154D01*
X103099600Y-65983500D01*
X104400400Y-65983500D01*
X104403646Y-65983163D01*
X104403650Y-65983163D01*
X104499308Y-65973238D01*
X104499312Y-65973237D01*
X104506166Y-65972526D01*
X104512702Y-65970345D01*
X104512704Y-65970345D01*
X104664444Y-65919720D01*
X104673946Y-65916550D01*
X104824348Y-65823478D01*
X104949305Y-65698303D01*
X105039081Y-65552660D01*
X105091852Y-65505168D01*
X105161924Y-65493744D01*
X105227048Y-65522018D01*
X105237510Y-65531805D01*
X105278718Y-65575002D01*
X105346576Y-65646135D01*
X105531542Y-65783754D01*
X105536293Y-65786170D01*
X105536297Y-65786172D01*
X105598779Y-65817939D01*
X105737051Y-65888240D01*
X105742145Y-65889822D01*
X105742148Y-65889823D01*
X105879603Y-65932504D01*
X105957227Y-65956607D01*
X105962516Y-65957308D01*
X106180489Y-65986198D01*
X106180494Y-65986198D01*
X106185774Y-65986898D01*
X106191103Y-65986698D01*
X106191105Y-65986698D01*
X106300966Y-65982573D01*
X106416158Y-65978249D01*
X106438802Y-65973498D01*
X106617608Y-65935981D01*
X106641791Y-65930907D01*
X106646750Y-65928949D01*
X106646752Y-65928948D01*
X106851256Y-65848185D01*
X106851258Y-65848184D01*
X106856221Y-65846224D01*
X106865078Y-65840850D01*
X107048757Y-65729390D01*
X107048756Y-65729390D01*
X107053317Y-65726623D01*
X107084749Y-65699348D01*
X107223412Y-65579023D01*
X107223414Y-65579021D01*
X107227445Y-65575523D01*
X107294500Y-65493744D01*
X107370240Y-65401373D01*
X107370244Y-65401367D01*
X107373624Y-65397245D01*
X107403285Y-65345139D01*
X107485032Y-65201529D01*
X107487675Y-65196886D01*
X107566337Y-64980175D01*
X107567287Y-64974923D01*
X107567891Y-64971585D01*
X109286698Y-64971585D01*
X109288003Y-64997790D01*
X109301985Y-65278650D01*
X109302936Y-65297759D01*
X109303577Y-65301490D01*
X109303578Y-65301498D01*
X109353649Y-65592892D01*
X109358241Y-65619619D01*
X109359329Y-65623258D01*
X109359330Y-65623261D01*
X109447991Y-65919720D01*
X109451814Y-65932504D01*
X109453327Y-65935975D01*
X109453329Y-65935981D01*
X109498276Y-66039106D01*
X109582297Y-66231881D01*
X109584220Y-66235152D01*
X109584222Y-66235156D01*
X109626584Y-66307215D01*
X109747802Y-66513414D01*
X109750103Y-66516429D01*
X109943631Y-66770012D01*
X109943636Y-66770017D01*
X109945931Y-66773025D01*
X110007931Y-66836670D01*
X110168625Y-67001626D01*
X110173814Y-67006953D01*
X110291869Y-67102041D01*
X110425196Y-67209431D01*
X110425201Y-67209435D01*
X110428149Y-67211809D01*
X110705253Y-67384627D01*
X111001112Y-67522903D01*
X111088478Y-67551543D01*
X111299519Y-67620726D01*
X111311440Y-67624634D01*
X111315154Y-67625373D01*
X111315155Y-67625373D01*
X111317121Y-67625764D01*
X111631742Y-67688346D01*
X111635514Y-67688633D01*
X111635522Y-67688634D01*
X111953602Y-67712829D01*
X111953607Y-67712829D01*
X111957379Y-67713116D01*
X112283633Y-67698586D01*
X112343425Y-67688634D01*
X112602037Y-67645590D01*
X112602042Y-67645589D01*
X112605778Y-67644967D01*
X112919149Y-67553034D01*
X112922616Y-67551544D01*
X112922620Y-67551543D01*
X113215721Y-67425616D01*
X113215723Y-67425615D01*
X113219205Y-67424119D01*
X113501601Y-67260091D01*
X113762245Y-67063324D01*
X113922896Y-66908456D01*
X113994632Y-66839303D01*
X113994635Y-66839300D01*
X113997363Y-66836670D01*
X114104654Y-66704884D01*
X114201155Y-66586351D01*
X114201158Y-66586347D01*
X114203549Y-66583410D01*
X114277394Y-66466373D01*
X114375788Y-66310428D01*
X114375790Y-66310425D01*
X114377815Y-66307215D01*
X114391605Y-66278109D01*
X114453368Y-66147741D01*
X114517638Y-66012084D01*
X114526041Y-65986898D01*
X114619790Y-65705897D01*
X114619792Y-65705891D01*
X114620992Y-65702293D01*
X114686381Y-65382329D01*
X114687034Y-65374308D01*
X114707885Y-65117939D01*
X114712856Y-65056826D01*
X114713451Y-65000000D01*
X114711510Y-64967796D01*
X114694026Y-64677793D01*
X114694026Y-64677789D01*
X114693798Y-64674015D01*
X114692957Y-64669405D01*
X114635805Y-64356473D01*
X114635804Y-64356469D01*
X114635125Y-64352751D01*
X114627722Y-64328907D01*
X114562407Y-64118559D01*
X114538282Y-64040863D01*
X114404670Y-63742869D01*
X114236226Y-63463084D01*
X114233899Y-63460100D01*
X114233894Y-63460093D01*
X114037726Y-63208558D01*
X114037724Y-63208556D01*
X114035390Y-63205563D01*
X113829216Y-62998307D01*
X113807742Y-62976720D01*
X113805070Y-62974034D01*
X113548603Y-62771852D01*
X113269705Y-62601945D01*
X113266261Y-62600379D01*
X113266257Y-62600377D01*
X113127836Y-62537441D01*
X112972414Y-62466775D01*
X112661037Y-62368300D01*
X112421394Y-62323235D01*
X112343809Y-62308645D01*
X112343807Y-62308645D01*
X112340086Y-62307945D01*
X112102382Y-62292365D01*
X112092691Y-62291730D01*
X112026025Y-62267316D01*
X112009160Y-62245065D01*
X112007586Y-62248512D01*
X111947860Y-62286896D01*
X111919286Y-62291810D01*
X111688124Y-62304532D01*
X111684397Y-62305193D01*
X111684393Y-62305193D01*
X111612559Y-62317924D01*
X111366557Y-62361522D01*
X111362941Y-62362624D01*
X111362933Y-62362626D01*
X111057789Y-62455627D01*
X111054167Y-62456731D01*
X110755477Y-62588781D01*
X110730041Y-62603914D01*
X110478074Y-62753817D01*
X110478068Y-62753821D01*
X110474814Y-62755757D01*
X110471812Y-62758073D01*
X110234229Y-62941368D01*
X110216244Y-62955243D01*
X110139713Y-63030581D01*
X110001901Y-63166246D01*
X109983513Y-63184347D01*
X109981149Y-63187314D01*
X109981146Y-63187317D01*
X109805809Y-63407351D01*
X109779991Y-63439751D01*
X109608626Y-63717757D01*
X109471902Y-64014336D01*
X109470741Y-64017940D01*
X109470741Y-64017941D01*
X109462825Y-64042522D01*
X109371797Y-64325192D01*
X109371079Y-64328903D01*
X109371078Y-64328907D01*
X109310482Y-64642105D01*
X109310481Y-64642114D01*
X109309763Y-64645824D01*
X109309496Y-64649600D01*
X109309495Y-64649605D01*
X109291351Y-64905866D01*
X109286698Y-64971585D01*
X107567891Y-64971585D01*
X107606623Y-64757392D01*
X107606624Y-64757385D01*
X107607361Y-64753308D01*
X107608500Y-64729156D01*
X107608500Y-64267110D01*
X107597989Y-64143234D01*
X107594371Y-64100591D01*
X107594370Y-64100587D01*
X107593920Y-64095280D01*
X107592582Y-64090125D01*
X107592581Y-64090119D01*
X107537343Y-63877297D01*
X107537342Y-63877293D01*
X107536001Y-63872128D01*
X107521934Y-63840899D01*
X107443507Y-63666798D01*
X107441312Y-63661925D01*
X107398344Y-63598102D01*
X107352050Y-63529338D01*
X107330599Y-63461659D01*
X107349143Y-63393127D01*
X107367475Y-63369876D01*
X108660446Y-62076905D01*
X108722758Y-62042879D01*
X108749541Y-62040000D01*
X111912362Y-62040000D01*
X111980483Y-62060002D01*
X112005285Y-62088625D01*
X112011308Y-62077436D01*
X112073417Y-62043041D01*
X112100932Y-62040000D01*
X130744697Y-62040000D01*
X130812818Y-62060002D01*
X130859311Y-62113658D01*
X130869415Y-62183932D01*
X130858892Y-62219249D01*
X130815206Y-62312934D01*
X130815203Y-62312942D01*
X130812880Y-62317924D01*
X130755885Y-62530629D01*
X130736693Y-62750000D01*
X130755885Y-62969371D01*
X130812880Y-63182076D01*
X130845345Y-63251697D01*
X130903618Y-63376666D01*
X130903621Y-63376671D01*
X130905944Y-63381653D01*
X130909100Y-63386160D01*
X130909101Y-63386162D01*
X131029089Y-63557522D01*
X131032251Y-63562038D01*
X131187962Y-63717749D01*
X131368346Y-63844056D01*
X131567924Y-63937120D01*
X131780629Y-63994115D01*
X132000000Y-64013307D01*
X132219371Y-63994115D01*
X132432076Y-63937120D01*
X132631654Y-63844056D01*
X132812038Y-63717749D01*
X132967749Y-63562038D01*
X132970908Y-63557527D01*
X132970912Y-63557522D01*
X132987571Y-63533730D01*
X133043028Y-63489401D01*
X133090784Y-63480000D01*
X136810459Y-63480000D01*
X136878580Y-63500002D01*
X136899554Y-63516905D01*
X137676787Y-64294137D01*
X138284055Y-64901405D01*
X138318080Y-64963717D01*
X138313016Y-65034532D01*
X138270469Y-65091368D01*
X138203949Y-65116179D01*
X138194960Y-65116500D01*
X134328763Y-65116500D01*
X134317579Y-65115973D01*
X134310091Y-65114299D01*
X134302168Y-65114548D01*
X134242033Y-65116438D01*
X134238075Y-65116500D01*
X134210144Y-65116500D01*
X134206229Y-65116995D01*
X134206225Y-65116995D01*
X134206167Y-65117003D01*
X134206138Y-65117006D01*
X134194296Y-65117939D01*
X134150110Y-65119327D01*
X134132744Y-65124372D01*
X134130658Y-65124978D01*
X134111306Y-65128986D01*
X134099068Y-65130532D01*
X134099066Y-65130533D01*
X134091203Y-65131526D01*
X134050086Y-65147806D01*
X134038885Y-65151641D01*
X133996406Y-65163982D01*
X133989587Y-65168015D01*
X133989582Y-65168017D01*
X133978971Y-65174293D01*
X133961221Y-65182990D01*
X133942383Y-65190448D01*
X133935967Y-65195109D01*
X133935966Y-65195110D01*
X133906625Y-65216428D01*
X133896701Y-65222947D01*
X133865460Y-65241422D01*
X133865455Y-65241426D01*
X133858637Y-65245458D01*
X133844313Y-65259782D01*
X133829281Y-65272621D01*
X133812893Y-65284528D01*
X133794020Y-65307342D01*
X133784712Y-65318593D01*
X133776722Y-65327373D01*
X133064989Y-66039106D01*
X133002677Y-66073132D01*
X132975894Y-66076011D01*
X123225489Y-66076011D01*
X123157368Y-66056009D01*
X123110875Y-66002353D01*
X123100771Y-65932079D01*
X123104930Y-65913383D01*
X123105140Y-65912694D01*
X123132370Y-65823069D01*
X123161529Y-65601590D01*
X123162053Y-65580132D01*
X123163074Y-65538365D01*
X123163074Y-65538361D01*
X123163156Y-65535000D01*
X123144852Y-65312361D01*
X123090431Y-65095702D01*
X123001354Y-64890840D01*
X122949651Y-64810920D01*
X122882822Y-64707617D01*
X122882820Y-64707614D01*
X122880014Y-64703277D01*
X122729670Y-64538051D01*
X122725619Y-64534852D01*
X122725615Y-64534848D01*
X122558414Y-64402800D01*
X122558410Y-64402798D01*
X122554359Y-64399598D01*
X122358789Y-64291638D01*
X122353920Y-64289914D01*
X122353916Y-64289912D01*
X122153087Y-64218795D01*
X122153083Y-64218794D01*
X122148212Y-64217069D01*
X122143119Y-64216162D01*
X122143116Y-64216161D01*
X121933373Y-64178800D01*
X121933367Y-64178799D01*
X121928284Y-64177894D01*
X121854452Y-64176992D01*
X121710081Y-64175228D01*
X121710079Y-64175228D01*
X121704911Y-64175165D01*
X121484091Y-64208955D01*
X121271756Y-64278357D01*
X121241443Y-64294137D01*
X121174651Y-64328907D01*
X121073607Y-64381507D01*
X121069474Y-64384610D01*
X121069471Y-64384612D01*
X120899100Y-64512530D01*
X120894965Y-64515635D01*
X120891393Y-64519373D01*
X120749596Y-64667755D01*
X120740629Y-64677138D01*
X120737715Y-64681410D01*
X120737714Y-64681411D01*
X120667228Y-64784740D01*
X120614743Y-64861680D01*
X120596249Y-64901522D01*
X120524160Y-65056826D01*
X120520688Y-65064305D01*
X120460989Y-65279570D01*
X120437251Y-65501695D01*
X120437548Y-65506848D01*
X120437548Y-65506851D01*
X120443834Y-65615874D01*
X120450110Y-65724715D01*
X120451247Y-65729761D01*
X120451248Y-65729767D01*
X120475198Y-65836037D01*
X120499222Y-65942639D01*
X120501164Y-65947422D01*
X120501167Y-65947431D01*
X120506401Y-65960320D01*
X120513498Y-66030961D01*
X120481276Y-66094225D01*
X120441367Y-66122194D01*
X120436896Y-66123493D01*
X120430072Y-66127529D01*
X120419461Y-66133804D01*
X120401713Y-66142499D01*
X120382872Y-66149959D01*
X120376456Y-66154621D01*
X120376455Y-66154621D01*
X120347102Y-66175947D01*
X120337182Y-66182463D01*
X120305954Y-66200931D01*
X120305951Y-66200933D01*
X120299127Y-66204969D01*
X120284806Y-66219290D01*
X120269773Y-66232130D01*
X120253382Y-66244039D01*
X120248332Y-66250143D01*
X120248327Y-66250148D01*
X120225196Y-66278109D01*
X120217206Y-66286890D01*
X119769499Y-66734596D01*
X119707187Y-66768621D01*
X119680404Y-66771500D01*
X119624513Y-66771500D01*
X119618061Y-66772872D01*
X119618056Y-66772872D01*
X119546294Y-66788126D01*
X119437712Y-66811206D01*
X119431682Y-66813891D01*
X119431681Y-66813891D01*
X119269278Y-66886197D01*
X119269276Y-66886198D01*
X119263248Y-66888882D01*
X119108747Y-67001134D01*
X119104326Y-67006044D01*
X119104325Y-67006045D01*
X118990801Y-67132127D01*
X118980960Y-67143056D01*
X118926976Y-67236559D01*
X118898883Y-67285218D01*
X118885473Y-67308444D01*
X118826458Y-67490072D01*
X118825768Y-67496633D01*
X118825768Y-67496635D01*
X118808693Y-67659094D01*
X118806496Y-67680000D01*
X118826458Y-67869928D01*
X118885473Y-68051556D01*
X118980960Y-68216944D01*
X118985378Y-68221851D01*
X118985379Y-68221852D01*
X119024165Y-68264928D01*
X119108747Y-68358866D01*
X119263248Y-68471118D01*
X119269276Y-68473802D01*
X119269278Y-68473803D01*
X119386641Y-68526056D01*
X119437712Y-68548794D01*
X119531113Y-68568647D01*
X119618056Y-68587128D01*
X119618061Y-68587128D01*
X119624513Y-68588500D01*
X119815487Y-68588500D01*
X119821939Y-68587128D01*
X119821944Y-68587128D01*
X119908887Y-68568647D01*
X120002288Y-68548794D01*
X120053359Y-68526056D01*
X120170722Y-68473803D01*
X120170724Y-68473802D01*
X120176752Y-68471118D01*
X120241439Y-68424120D01*
X120308307Y-68400262D01*
X120377458Y-68416342D01*
X120426938Y-68467256D01*
X120441500Y-68526056D01*
X120441500Y-68973134D01*
X120448255Y-69035316D01*
X120499385Y-69171705D01*
X120586739Y-69288261D01*
X120703295Y-69375615D01*
X120839684Y-69426745D01*
X120901866Y-69433500D01*
X122698134Y-69433500D01*
X122760316Y-69426745D01*
X122896705Y-69375615D01*
X123013261Y-69288261D01*
X123100615Y-69171705D01*
X123151745Y-69035316D01*
X123158500Y-68973134D01*
X123158500Y-68834500D01*
X123178502Y-68766379D01*
X123232158Y-68719886D01*
X123284500Y-68708500D01*
X123791800Y-68708500D01*
X123859921Y-68728502D01*
X123879147Y-68744843D01*
X123879420Y-68744540D01*
X123884332Y-68748963D01*
X123888747Y-68753866D01*
X123905970Y-68766379D01*
X124034759Y-68859950D01*
X124043248Y-68866118D01*
X124049276Y-68868802D01*
X124049278Y-68868803D01*
X124211681Y-68941109D01*
X124217712Y-68943794D01*
X124294002Y-68960010D01*
X124398056Y-68982128D01*
X124398061Y-68982128D01*
X124404513Y-68983500D01*
X124595487Y-68983500D01*
X124601939Y-68982128D01*
X124601944Y-68982128D01*
X124705998Y-68960010D01*
X124782288Y-68943794D01*
X124788319Y-68941109D01*
X124950722Y-68868803D01*
X124950724Y-68868802D01*
X124956752Y-68866118D01*
X124965242Y-68859950D01*
X125078443Y-68777704D01*
X125111253Y-68753866D01*
X125183827Y-68673264D01*
X125234621Y-68616852D01*
X125234622Y-68616851D01*
X125239040Y-68611944D01*
X125309445Y-68490000D01*
X135186526Y-68490000D01*
X135206391Y-68742403D01*
X135207545Y-68747210D01*
X135207546Y-68747216D01*
X135239815Y-68881626D01*
X135265495Y-68988591D01*
X135267388Y-68993162D01*
X135267389Y-68993164D01*
X135359665Y-69215937D01*
X135362384Y-69222502D01*
X135494672Y-69438376D01*
X135659102Y-69630898D01*
X135851624Y-69795328D01*
X136067498Y-69927616D01*
X136072068Y-69929509D01*
X136072072Y-69929511D01*
X136296836Y-70022611D01*
X136301409Y-70024505D01*
X136386032Y-70044821D01*
X136542784Y-70082454D01*
X136542790Y-70082455D01*
X136547597Y-70083609D01*
X136647416Y-70091465D01*
X136734345Y-70098307D01*
X136734352Y-70098307D01*
X136736801Y-70098500D01*
X136863199Y-70098500D01*
X136865648Y-70098307D01*
X136865655Y-70098307D01*
X136952584Y-70091465D01*
X137052403Y-70083609D01*
X137057210Y-70082455D01*
X137057216Y-70082454D01*
X137213968Y-70044821D01*
X137298591Y-70024505D01*
X137303164Y-70022611D01*
X137527928Y-69929511D01*
X137527932Y-69929509D01*
X137532502Y-69927616D01*
X137748376Y-69795328D01*
X137940898Y-69630898D01*
X138105328Y-69438376D01*
X138237616Y-69222502D01*
X138240336Y-69215937D01*
X138332611Y-68993164D01*
X138332612Y-68993162D01*
X138334505Y-68988591D01*
X138360185Y-68881626D01*
X138392454Y-68747216D01*
X138392455Y-68747210D01*
X138393609Y-68742403D01*
X138413474Y-68490000D01*
X138393609Y-68237597D01*
X138334505Y-67991409D01*
X138332611Y-67986836D01*
X138239511Y-67762072D01*
X138239509Y-67762068D01*
X138237616Y-67757498D01*
X138105328Y-67541624D01*
X137940898Y-67349102D01*
X137933185Y-67342514D01*
X137912756Y-67325066D01*
X137748376Y-67184672D01*
X137532502Y-67052384D01*
X137527932Y-67050491D01*
X137527928Y-67050489D01*
X137303164Y-66957389D01*
X137303162Y-66957388D01*
X137298591Y-66955495D01*
X137211365Y-66934554D01*
X137057216Y-66897546D01*
X137057210Y-66897545D01*
X137052403Y-66896391D01*
X136951861Y-66888478D01*
X136865655Y-66881693D01*
X136865648Y-66881693D01*
X136863199Y-66881500D01*
X136736801Y-66881500D01*
X136734352Y-66881693D01*
X136734345Y-66881693D01*
X136648139Y-66888478D01*
X136547597Y-66896391D01*
X136542790Y-66897545D01*
X136542784Y-66897546D01*
X136388635Y-66934554D01*
X136301409Y-66955495D01*
X136296838Y-66957388D01*
X136296836Y-66957389D01*
X136072072Y-67050489D01*
X136072068Y-67050491D01*
X136067498Y-67052384D01*
X135851624Y-67184672D01*
X135687244Y-67325066D01*
X135666816Y-67342514D01*
X135659102Y-67349102D01*
X135494672Y-67541624D01*
X135362384Y-67757498D01*
X135360491Y-67762068D01*
X135360489Y-67762072D01*
X135267389Y-67986836D01*
X135265495Y-67991409D01*
X135206391Y-68237597D01*
X135186526Y-68490000D01*
X125309445Y-68490000D01*
X125334527Y-68446556D01*
X125393542Y-68264928D01*
X125396921Y-68232784D01*
X125412814Y-68081565D01*
X125413504Y-68075000D01*
X125393542Y-67885072D01*
X125334527Y-67703444D01*
X125325977Y-67688634D01*
X125289678Y-67625764D01*
X125239040Y-67538056D01*
X125239870Y-67537577D01*
X125217973Y-67476205D01*
X125234053Y-67407053D01*
X125284966Y-67357573D01*
X125343767Y-67343011D01*
X133211722Y-67343011D01*
X133222905Y-67343538D01*
X133230398Y-67345213D01*
X133238324Y-67344964D01*
X133238325Y-67344964D01*
X133298475Y-67343073D01*
X133302434Y-67343011D01*
X133330345Y-67343011D01*
X133334280Y-67342514D01*
X133334345Y-67342506D01*
X133346182Y-67341573D01*
X133378440Y-67340559D01*
X133382459Y-67340433D01*
X133390378Y-67340184D01*
X133409832Y-67334532D01*
X133429189Y-67330524D01*
X133441419Y-67328979D01*
X133441420Y-67328979D01*
X133449286Y-67327985D01*
X133456657Y-67325066D01*
X133456659Y-67325066D01*
X133490401Y-67311707D01*
X133501631Y-67307862D01*
X133536472Y-67297740D01*
X133536473Y-67297740D01*
X133544082Y-67295529D01*
X133550901Y-67291496D01*
X133550906Y-67291494D01*
X133561517Y-67285218D01*
X133579265Y-67276523D01*
X133598106Y-67269063D01*
X133633876Y-67243075D01*
X133643796Y-67236559D01*
X133675024Y-67218091D01*
X133675027Y-67218089D01*
X133681851Y-67214053D01*
X133696172Y-67199732D01*
X133711206Y-67186891D01*
X133721183Y-67179642D01*
X133727596Y-67174983D01*
X133755787Y-67140906D01*
X133763777Y-67132127D01*
X134475499Y-66420405D01*
X134537811Y-66386379D01*
X134564594Y-66383500D01*
X139078242Y-66383500D01*
X139146363Y-66403502D01*
X139167337Y-66420405D01*
X140166210Y-67419278D01*
X140173754Y-67427568D01*
X140177867Y-67434049D01*
X140183644Y-67439474D01*
X140227534Y-67480689D01*
X140230376Y-67483444D01*
X140250098Y-67503166D01*
X140253222Y-67505589D01*
X140253226Y-67505593D01*
X140253291Y-67505643D01*
X140262312Y-67513348D01*
X140294546Y-67543617D01*
X140301494Y-67547436D01*
X140301496Y-67547438D01*
X140312299Y-67553377D01*
X140328826Y-67564233D01*
X140338565Y-67571788D01*
X140338567Y-67571789D01*
X140344827Y-67576645D01*
X140385407Y-67594205D01*
X140396055Y-67599422D01*
X140420843Y-67613049D01*
X140434807Y-67620726D01*
X140442483Y-67622697D01*
X140442486Y-67622698D01*
X140454429Y-67625764D01*
X140473134Y-67632168D01*
X140491722Y-67640212D01*
X140499545Y-67641451D01*
X140499555Y-67641454D01*
X140535391Y-67647130D01*
X140547011Y-67649536D01*
X140582156Y-67658559D01*
X140589837Y-67660531D01*
X140610091Y-67660531D01*
X140629801Y-67662082D01*
X140649810Y-67665251D01*
X140657702Y-67664505D01*
X140676447Y-67662733D01*
X140693829Y-67661090D01*
X140705686Y-67660531D01*
X145952400Y-67660531D01*
X145963583Y-67661058D01*
X145971076Y-67662733D01*
X145979002Y-67662484D01*
X145979003Y-67662484D01*
X146039166Y-67660593D01*
X146043124Y-67660531D01*
X146071023Y-67660531D01*
X146075014Y-67660027D01*
X146086847Y-67659095D01*
X146131056Y-67657705D01*
X146138670Y-67655493D01*
X146138675Y-67655492D01*
X146150508Y-67652054D01*
X146169871Y-67648043D01*
X146189964Y-67645505D01*
X146197331Y-67642588D01*
X146197336Y-67642587D01*
X146231075Y-67629229D01*
X146242302Y-67625385D01*
X146258337Y-67620726D01*
X146284760Y-67613049D01*
X146302195Y-67602738D01*
X146319943Y-67594043D01*
X146338784Y-67586583D01*
X146374554Y-67560595D01*
X146384474Y-67554079D01*
X146415702Y-67535611D01*
X146415705Y-67535609D01*
X146422529Y-67531573D01*
X146436850Y-67517252D01*
X146451884Y-67504411D01*
X146453598Y-67503166D01*
X146468274Y-67492503D01*
X146496465Y-67458426D01*
X146504455Y-67449647D01*
X149445159Y-64508945D01*
X149507471Y-64474919D01*
X149534254Y-64472040D01*
X150471948Y-64472040D01*
X150540069Y-64492042D01*
X150586562Y-64545698D01*
X150596666Y-64615972D01*
X150576486Y-64667621D01*
X150576376Y-64667755D01*
X150462325Y-64868114D01*
X150383663Y-65084825D01*
X150382714Y-65090074D01*
X150382713Y-65090077D01*
X150343377Y-65307608D01*
X150343376Y-65307615D01*
X150342639Y-65311692D01*
X150341500Y-65335844D01*
X150341500Y-65747890D01*
X150341725Y-65750539D01*
X150355484Y-65912694D01*
X150356080Y-65919720D01*
X150357418Y-65924875D01*
X150357419Y-65924881D01*
X150411645Y-66133804D01*
X150413999Y-66142872D01*
X150416191Y-66147738D01*
X150416192Y-66147741D01*
X150451033Y-66225085D01*
X150508688Y-66353075D01*
X150637441Y-66544319D01*
X150641120Y-66548176D01*
X150641122Y-66548178D01*
X150674732Y-66583410D01*
X150796576Y-66711135D01*
X150981542Y-66848754D01*
X150986293Y-66851170D01*
X150986297Y-66851172D01*
X151055187Y-66886197D01*
X151187051Y-66953240D01*
X151192145Y-66954822D01*
X151192148Y-66954823D01*
X151360034Y-67006953D01*
X151407227Y-67021607D01*
X151412516Y-67022308D01*
X151630489Y-67051198D01*
X151630494Y-67051198D01*
X151635774Y-67051898D01*
X151641103Y-67051698D01*
X151641105Y-67051698D01*
X151750966Y-67047574D01*
X151866158Y-67043249D01*
X151888802Y-67038498D01*
X152027793Y-67009335D01*
X152091791Y-66995907D01*
X152096750Y-66993949D01*
X152096752Y-66993948D01*
X152301256Y-66913185D01*
X152301258Y-66913184D01*
X152306221Y-66911224D01*
X152315333Y-66905695D01*
X152498757Y-66794390D01*
X152498756Y-66794390D01*
X152503317Y-66791623D01*
X152569035Y-66734596D01*
X152673412Y-66644023D01*
X152673414Y-66644021D01*
X152677445Y-66640523D01*
X152741048Y-66562954D01*
X152820240Y-66466373D01*
X152820244Y-66466367D01*
X152823624Y-66462245D01*
X152841552Y-66430750D01*
X152892632Y-66381445D01*
X152962262Y-66367583D01*
X153028333Y-66393566D01*
X153055573Y-66422716D01*
X153137441Y-66544319D01*
X153141120Y-66548176D01*
X153141122Y-66548178D01*
X153174732Y-66583410D01*
X153296576Y-66711135D01*
X153481542Y-66848754D01*
X153486293Y-66851170D01*
X153486297Y-66851172D01*
X153555187Y-66886197D01*
X153687051Y-66953240D01*
X153692145Y-66954822D01*
X153692148Y-66954823D01*
X153860034Y-67006953D01*
X153907227Y-67021607D01*
X153912516Y-67022308D01*
X154130489Y-67051198D01*
X154130494Y-67051198D01*
X154135774Y-67051898D01*
X154141103Y-67051698D01*
X154141105Y-67051698D01*
X154250966Y-67047574D01*
X154366158Y-67043249D01*
X154388802Y-67038498D01*
X154527793Y-67009335D01*
X154591791Y-66995907D01*
X154596750Y-66993949D01*
X154596752Y-66993948D01*
X154801256Y-66913185D01*
X154801258Y-66913184D01*
X154806221Y-66911224D01*
X154815333Y-66905695D01*
X154998757Y-66794390D01*
X154998756Y-66794390D01*
X155003317Y-66791623D01*
X155069035Y-66734596D01*
X155173412Y-66644023D01*
X155173414Y-66644021D01*
X155177445Y-66640523D01*
X155206670Y-66604880D01*
X155265329Y-66564886D01*
X155336299Y-66562954D01*
X155397048Y-66599698D01*
X155411248Y-66618468D01*
X155450504Y-66681905D01*
X155501522Y-66764348D01*
X155626697Y-66889305D01*
X155632927Y-66893145D01*
X155632928Y-66893146D01*
X155770090Y-66977694D01*
X155777262Y-66982115D01*
X155834603Y-67001134D01*
X155938611Y-67035632D01*
X155938613Y-67035632D01*
X155945139Y-67037797D01*
X155951975Y-67038497D01*
X155951978Y-67038498D01*
X155987663Y-67042154D01*
X156049600Y-67048500D01*
X157350400Y-67048500D01*
X157353646Y-67048163D01*
X157353650Y-67048163D01*
X157449308Y-67038238D01*
X157449312Y-67038237D01*
X157456166Y-67037526D01*
X157462702Y-67035345D01*
X157462704Y-67035345D01*
X157594806Y-66991272D01*
X157623946Y-66981550D01*
X157774348Y-66888478D01*
X157899305Y-66763303D01*
X157935315Y-66704884D01*
X157988087Y-66657391D01*
X158042575Y-66645000D01*
X158165459Y-66645000D01*
X158233580Y-66665002D01*
X158254554Y-66681905D01*
X160164299Y-68591650D01*
X160171085Y-68599687D01*
X160171335Y-68599471D01*
X160175256Y-68604014D01*
X160178726Y-68608905D01*
X160183060Y-68613054D01*
X160183061Y-68613055D01*
X160243948Y-68671341D01*
X160245913Y-68673264D01*
X160272737Y-68700088D01*
X160275049Y-68701997D01*
X160275062Y-68702009D01*
X160278206Y-68704605D01*
X160285104Y-68710740D01*
X160323259Y-68747265D01*
X160323264Y-68747269D01*
X160327594Y-68751414D01*
X160354848Y-68769012D01*
X160366724Y-68777704D01*
X160387130Y-68794556D01*
X160387139Y-68794562D01*
X160391755Y-68798374D01*
X160443394Y-68826587D01*
X160451306Y-68831294D01*
X160500723Y-68863202D01*
X160506281Y-68865442D01*
X160506289Y-68865446D01*
X160530819Y-68875331D01*
X160544126Y-68881621D01*
X160572608Y-68897182D01*
X160578320Y-68899010D01*
X160578326Y-68899013D01*
X160617528Y-68911561D01*
X160628635Y-68915117D01*
X160637297Y-68918243D01*
X160691868Y-68940236D01*
X160717114Y-68945166D01*
X160723709Y-68946454D01*
X160737972Y-68950116D01*
X160763176Y-68958184D01*
X160763178Y-68958184D01*
X160768881Y-68960010D01*
X160817198Y-68965814D01*
X160827293Y-68967027D01*
X160836415Y-68968464D01*
X160894131Y-68979735D01*
X160899549Y-68980000D01*
X160927748Y-68980000D01*
X160942776Y-68980899D01*
X160967547Y-68983875D01*
X160967551Y-68983875D01*
X160973494Y-68984589D01*
X160979470Y-68984166D01*
X160979473Y-68984166D01*
X161033863Y-68980315D01*
X161042761Y-68980000D01*
X166602104Y-68980000D01*
X166670225Y-69000002D01*
X166691199Y-69016905D01*
X166764582Y-69090288D01*
X166798608Y-69152600D01*
X166793543Y-69223415D01*
X166750996Y-69280251D01*
X166690313Y-69304412D01*
X166688124Y-69304532D01*
X166684399Y-69305192D01*
X166684392Y-69305193D01*
X166483636Y-69340773D01*
X166366557Y-69361522D01*
X166362941Y-69362624D01*
X166362933Y-69362626D01*
X166057789Y-69455627D01*
X166054167Y-69456731D01*
X165755477Y-69588781D01*
X165748784Y-69592763D01*
X165478074Y-69753817D01*
X165478068Y-69753821D01*
X165474814Y-69755757D01*
X165471812Y-69758073D01*
X165252054Y-69927616D01*
X165216244Y-69955243D01*
X164983513Y-70184347D01*
X164779991Y-70439751D01*
X164608626Y-70717757D01*
X164471902Y-71014336D01*
X164470741Y-71017940D01*
X164470741Y-71017941D01*
X164463041Y-71041852D01*
X164371797Y-71325192D01*
X164371079Y-71328903D01*
X164371078Y-71328907D01*
X164310482Y-71642105D01*
X164310481Y-71642114D01*
X164309763Y-71645824D01*
X164309496Y-71649600D01*
X164309495Y-71649605D01*
X164286993Y-71967417D01*
X164286698Y-71971585D01*
X164286887Y-71975377D01*
X164301082Y-72260510D01*
X164302936Y-72297759D01*
X164303577Y-72301490D01*
X164303578Y-72301498D01*
X164356828Y-72611395D01*
X164358241Y-72619619D01*
X164359329Y-72623258D01*
X164359330Y-72623261D01*
X164436498Y-72881290D01*
X164451814Y-72932504D01*
X164453327Y-72935975D01*
X164453329Y-72935981D01*
X164496402Y-73034805D01*
X164582297Y-73231881D01*
X164584220Y-73235152D01*
X164584222Y-73235156D01*
X164626584Y-73307215D01*
X164747802Y-73513414D01*
X164750103Y-73516429D01*
X164943631Y-73770012D01*
X164943636Y-73770017D01*
X164945931Y-73773025D01*
X165007931Y-73836670D01*
X165089575Y-73920479D01*
X165173814Y-74006953D01*
X165304186Y-74111962D01*
X165425196Y-74209431D01*
X165425201Y-74209435D01*
X165428149Y-74211809D01*
X165705253Y-74384627D01*
X166001112Y-74522903D01*
X166004721Y-74524086D01*
X166209469Y-74591206D01*
X166311440Y-74624634D01*
X166631742Y-74688346D01*
X166635514Y-74688633D01*
X166635522Y-74688634D01*
X166953602Y-74712829D01*
X166953607Y-74712829D01*
X166957379Y-74713116D01*
X167283633Y-74698586D01*
X167343425Y-74688634D01*
X167602037Y-74645590D01*
X167602042Y-74645589D01*
X167605778Y-74644967D01*
X167919149Y-74553034D01*
X167922616Y-74551544D01*
X167922620Y-74551543D01*
X168215721Y-74425616D01*
X168215723Y-74425615D01*
X168219205Y-74424119D01*
X168501601Y-74260091D01*
X168723105Y-74092872D01*
X168759221Y-74065607D01*
X168759222Y-74065606D01*
X168762245Y-74063324D01*
X168969247Y-73863774D01*
X168994632Y-73839303D01*
X168994635Y-73839300D01*
X168997363Y-73836670D01*
X169139070Y-73662610D01*
X169201155Y-73586351D01*
X169201158Y-73586347D01*
X169203549Y-73583410D01*
X169222609Y-73553202D01*
X169375788Y-73310428D01*
X169375790Y-73310425D01*
X169377815Y-73307215D01*
X169393049Y-73275061D01*
X169506222Y-73036180D01*
X169517638Y-73012084D01*
X169523568Y-72994310D01*
X169619790Y-72705897D01*
X169619792Y-72705891D01*
X169620992Y-72702293D01*
X169686381Y-72382329D01*
X169688220Y-72359727D01*
X169692149Y-72311415D01*
X169717608Y-72245140D01*
X169774856Y-72203150D01*
X169845718Y-72198777D01*
X169906829Y-72232535D01*
X171133095Y-73458800D01*
X171167120Y-73521112D01*
X171170000Y-73547895D01*
X171170000Y-80248145D01*
X171169115Y-80258625D01*
X171169445Y-80258649D01*
X171169006Y-80264626D01*
X171168000Y-80270543D01*
X171168673Y-80301375D01*
X171169970Y-80360801D01*
X171170000Y-80363550D01*
X171170000Y-80401495D01*
X171170284Y-80404466D01*
X171170674Y-80408553D01*
X171171214Y-80417772D01*
X171172497Y-80476578D01*
X171179328Y-80508308D01*
X171181578Y-80522847D01*
X171184660Y-80555152D01*
X171186348Y-80560905D01*
X171186349Y-80560911D01*
X171201218Y-80611591D01*
X171203492Y-80620544D01*
X171215871Y-80678045D01*
X171218221Y-80683568D01*
X171218222Y-80683571D01*
X171228578Y-80707909D01*
X171233537Y-80721758D01*
X171242674Y-80752902D01*
X171245421Y-80758236D01*
X171245422Y-80758238D01*
X171269606Y-80805194D01*
X171273529Y-80813551D01*
X171294211Y-80862157D01*
X171294214Y-80862162D01*
X171296560Y-80867676D01*
X171299909Y-80872651D01*
X171299911Y-80872654D01*
X171314685Y-80894599D01*
X171322178Y-80907269D01*
X171337034Y-80936114D01*
X171361564Y-80967342D01*
X171373369Y-80982370D01*
X171378803Y-80989836D01*
X171392030Y-81009482D01*
X171411651Y-81038627D01*
X171415295Y-81042646D01*
X171435236Y-81062587D01*
X171445227Y-81073849D01*
X171464337Y-81098177D01*
X171468867Y-81102108D01*
X171468868Y-81102109D01*
X171510050Y-81137845D01*
X171516564Y-81143915D01*
X172955547Y-82582897D01*
X174394299Y-84021649D01*
X174401088Y-84029688D01*
X174401337Y-84029473D01*
X174405256Y-84034013D01*
X174408726Y-84038905D01*
X174413059Y-84043052D01*
X174413059Y-84043053D01*
X174473971Y-84101363D01*
X174475936Y-84103286D01*
X174502737Y-84130087D01*
X174505049Y-84131996D01*
X174505053Y-84132000D01*
X174508214Y-84134611D01*
X174515103Y-84140739D01*
X174522088Y-84147425D01*
X174557594Y-84181414D01*
X174562632Y-84184667D01*
X174562637Y-84184671D01*
X174584851Y-84199014D01*
X174596734Y-84207711D01*
X174621755Y-84228373D01*
X174627019Y-84231249D01*
X174673373Y-84256575D01*
X174681308Y-84261296D01*
X174725681Y-84289947D01*
X174725686Y-84289949D01*
X174730723Y-84293202D01*
X174736281Y-84295442D01*
X174736283Y-84295443D01*
X174760826Y-84305334D01*
X174774136Y-84311626D01*
X174802607Y-84327181D01*
X174858629Y-84345114D01*
X174867302Y-84348245D01*
X174921868Y-84370236D01*
X174952609Y-84376239D01*
X174953720Y-84376456D01*
X174967976Y-84380116D01*
X174998880Y-84390009D01*
X175004823Y-84390723D01*
X175004828Y-84390724D01*
X175057283Y-84397025D01*
X175066400Y-84398461D01*
X175124131Y-84409735D01*
X175129549Y-84410000D01*
X175157755Y-84410000D01*
X175172783Y-84410899D01*
X175197546Y-84413874D01*
X175197550Y-84413874D01*
X175203493Y-84414588D01*
X175209469Y-84414165D01*
X175209472Y-84414165D01*
X175263848Y-84410315D01*
X175272746Y-84410000D01*
X175698515Y-84410000D01*
X175766636Y-84430002D01*
X175778997Y-84439054D01*
X175784144Y-84443327D01*
X175784151Y-84443332D01*
X175788126Y-84446632D01*
X175792589Y-84449240D01*
X175861445Y-84489476D01*
X175910169Y-84541114D01*
X175923240Y-84610897D01*
X175896509Y-84676669D01*
X175856055Y-84710027D01*
X175843607Y-84716507D01*
X175839474Y-84719610D01*
X175839471Y-84719612D01*
X175672285Y-84845139D01*
X175664965Y-84850635D01*
X175619942Y-84897749D01*
X175520091Y-85002237D01*
X175510629Y-85012138D01*
X175384743Y-85196680D01*
X175337716Y-85297992D01*
X175293519Y-85393207D01*
X175290688Y-85399305D01*
X175230989Y-85614570D01*
X175207251Y-85836695D01*
X175207548Y-85841848D01*
X175207548Y-85841851D01*
X175217782Y-86019339D01*
X175220110Y-86059715D01*
X175221247Y-86064761D01*
X175221248Y-86064767D01*
X175245196Y-86171028D01*
X175269222Y-86277639D01*
X175353266Y-86484616D01*
X175355965Y-86489020D01*
X175466269Y-86669020D01*
X175469987Y-86675088D01*
X175616250Y-86843938D01*
X175620225Y-86847238D01*
X175620231Y-86847244D01*
X175625425Y-86851556D01*
X175665059Y-86910460D01*
X175666555Y-86981441D01*
X175629439Y-87041962D01*
X175589168Y-87066480D01*
X175481946Y-87106676D01*
X175466351Y-87115214D01*
X175364276Y-87191715D01*
X175351715Y-87204276D01*
X175275214Y-87306351D01*
X175266676Y-87321946D01*
X175221522Y-87442394D01*
X175217895Y-87457649D01*
X175212369Y-87508514D01*
X175212000Y-87515328D01*
X175212000Y-88137885D01*
X175216475Y-88153124D01*
X175217865Y-88154329D01*
X175225548Y-88156000D01*
X176698000Y-88156000D01*
X176766121Y-88176002D01*
X176812614Y-88229658D01*
X176824000Y-88282000D01*
X176824000Y-89749884D01*
X176828475Y-89765123D01*
X176829865Y-89766328D01*
X176837548Y-89767999D01*
X177464669Y-89767999D01*
X177471491Y-89767629D01*
X177508895Y-89763567D01*
X177578777Y-89776096D01*
X177630792Y-89824418D01*
X177648500Y-89888830D01*
X177648500Y-90563737D01*
X177628498Y-90631858D01*
X177611595Y-90652832D01*
X174486330Y-93778097D01*
X174359777Y-93926271D01*
X174223952Y-94147916D01*
X174222059Y-94152486D01*
X174222058Y-94152488D01*
X174159864Y-94302639D01*
X174124473Y-94388080D01*
X174103715Y-94474543D01*
X174072568Y-94604284D01*
X174063789Y-94640850D01*
X174043393Y-94900000D01*
X174063789Y-95159150D01*
X174064943Y-95163957D01*
X174064944Y-95163963D01*
X174096908Y-95297104D01*
X174124473Y-95411920D01*
X174126366Y-95416491D01*
X174126367Y-95416493D01*
X174215437Y-95631526D01*
X174223952Y-95652084D01*
X174359777Y-95873729D01*
X174468238Y-96000720D01*
X174489166Y-96025224D01*
X174518197Y-96090013D01*
X174507592Y-96160213D01*
X174475285Y-96201155D01*
X174475652Y-96201522D01*
X174350695Y-96326697D01*
X174346855Y-96332927D01*
X174346854Y-96332928D01*
X174277004Y-96446246D01*
X174257885Y-96477262D01*
X174241405Y-96526947D01*
X174207992Y-96627687D01*
X174202203Y-96645139D01*
X174201502Y-96651977D01*
X174201502Y-96651979D01*
X174196556Y-96700251D01*
X174187621Y-96735626D01*
X174131016Y-96872284D01*
X174124473Y-96888080D01*
X174115860Y-96923955D01*
X174068755Y-97120166D01*
X174063789Y-97140850D01*
X174062508Y-97157128D01*
X174048841Y-97330781D01*
X174048500Y-97335111D01*
X174048500Y-103864889D01*
X174063789Y-104059150D01*
X174064943Y-104063957D01*
X174064944Y-104063963D01*
X174100923Y-104213828D01*
X174124473Y-104311920D01*
X174126366Y-104316491D01*
X174126367Y-104316493D01*
X174216186Y-104533334D01*
X174223952Y-104552084D01*
X174359777Y-104773729D01*
X174458580Y-104889412D01*
X174489166Y-104925224D01*
X174518197Y-104990013D01*
X174507592Y-105060213D01*
X174475285Y-105101155D01*
X174475652Y-105101522D01*
X174350695Y-105226697D01*
X174346855Y-105232927D01*
X174346854Y-105232928D01*
X174270520Y-105356765D01*
X174257885Y-105377262D01*
X174255580Y-105384212D01*
X174252749Y-105392746D01*
X174222251Y-105442175D01*
X173561555Y-106102872D01*
X172913321Y-106751106D01*
X172851009Y-106785131D01*
X172824226Y-106788011D01*
X168135101Y-106788011D01*
X168066980Y-106768009D01*
X168020487Y-106714353D01*
X168010383Y-106644079D01*
X168027841Y-106595896D01*
X168038273Y-106578972D01*
X168038275Y-106578967D01*
X168042115Y-106572738D01*
X168097797Y-106404861D01*
X168108500Y-106300400D01*
X168108500Y-104699600D01*
X168108163Y-104696350D01*
X168098238Y-104600692D01*
X168098237Y-104600688D01*
X168097526Y-104593834D01*
X168074174Y-104523838D01*
X168043868Y-104433002D01*
X168041550Y-104426054D01*
X167948478Y-104275652D01*
X167910866Y-104238105D01*
X167828483Y-104155866D01*
X167823303Y-104150695D01*
X167781803Y-104125114D01*
X167678968Y-104061725D01*
X167678966Y-104061724D01*
X167672738Y-104057885D01*
X167552310Y-104017941D01*
X167511389Y-104004368D01*
X167511387Y-104004368D01*
X167504861Y-104002203D01*
X167498025Y-104001503D01*
X167498022Y-104001502D01*
X167454890Y-103997083D01*
X167400400Y-103991500D01*
X166853312Y-103991500D01*
X166785191Y-103971498D01*
X166764217Y-103954595D01*
X165783452Y-102973830D01*
X165776666Y-102965793D01*
X165776416Y-102966009D01*
X165772495Y-102961466D01*
X165769025Y-102956575D01*
X165743400Y-102932044D01*
X165703803Y-102894139D01*
X165701838Y-102892216D01*
X165675014Y-102865392D01*
X165672702Y-102863483D01*
X165672689Y-102863471D01*
X165669545Y-102860875D01*
X165662647Y-102854740D01*
X165624492Y-102818215D01*
X165624487Y-102818211D01*
X165620157Y-102814066D01*
X165592903Y-102796468D01*
X165581027Y-102787776D01*
X165560621Y-102770924D01*
X165560612Y-102770918D01*
X165555996Y-102767106D01*
X165504357Y-102738893D01*
X165496443Y-102734185D01*
X165490217Y-102730165D01*
X165447028Y-102702278D01*
X165441470Y-102700038D01*
X165441462Y-102700034D01*
X165416932Y-102690149D01*
X165403625Y-102683859D01*
X165375143Y-102668298D01*
X165369431Y-102666470D01*
X165369425Y-102666467D01*
X165330223Y-102653919D01*
X165319116Y-102650363D01*
X165310454Y-102647237D01*
X165255883Y-102625244D01*
X165224043Y-102619026D01*
X165209779Y-102615364D01*
X165184575Y-102607296D01*
X165184573Y-102607296D01*
X165178870Y-102605470D01*
X165149526Y-102601945D01*
X165120459Y-102598453D01*
X165111339Y-102597016D01*
X165070324Y-102589007D01*
X165053620Y-102585745D01*
X165048202Y-102585480D01*
X165020004Y-102585480D01*
X165004976Y-102584581D01*
X164980205Y-102581605D01*
X164980201Y-102581605D01*
X164974258Y-102580891D01*
X164968282Y-102581314D01*
X164968279Y-102581314D01*
X164913893Y-102585165D01*
X164904994Y-102585480D01*
X161696375Y-102585480D01*
X161685895Y-102584595D01*
X161685871Y-102584925D01*
X161679894Y-102584486D01*
X161673977Y-102583480D01*
X161607773Y-102584925D01*
X161583719Y-102585450D01*
X161580970Y-102585480D01*
X161543025Y-102585480D01*
X161535955Y-102586155D01*
X161526748Y-102586694D01*
X161496586Y-102587352D01*
X161473938Y-102587846D01*
X161473936Y-102587846D01*
X161467942Y-102587977D01*
X161462083Y-102589238D01*
X161462078Y-102589239D01*
X161436221Y-102594806D01*
X161421670Y-102597058D01*
X161395342Y-102599570D01*
X161389368Y-102600140D01*
X161377654Y-102603576D01*
X161332901Y-102616705D01*
X161323953Y-102618977D01*
X161317352Y-102620398D01*
X161266475Y-102631352D01*
X161236610Y-102644059D01*
X161222770Y-102649015D01*
X161191618Y-102658154D01*
X161186289Y-102660899D01*
X161186283Y-102660901D01*
X161139325Y-102685086D01*
X161130970Y-102689009D01*
X161076844Y-102712040D01*
X161071869Y-102715389D01*
X161071866Y-102715391D01*
X161049921Y-102730165D01*
X161037251Y-102737658D01*
X161008406Y-102752514D01*
X161003688Y-102756220D01*
X161003685Y-102756222D01*
X160962152Y-102788847D01*
X160954689Y-102794279D01*
X160905892Y-102827132D01*
X160901874Y-102830775D01*
X160881933Y-102850716D01*
X160870671Y-102860707D01*
X160846343Y-102879817D01*
X160842412Y-102884347D01*
X160842411Y-102884348D01*
X160806675Y-102925530D01*
X160800605Y-102932044D01*
X159817261Y-103915388D01*
X159760777Y-103948000D01*
X159673234Y-103971457D01*
X159673232Y-103971458D01*
X159667924Y-103972880D01*
X159662943Y-103975203D01*
X159662942Y-103975203D01*
X159473334Y-104063618D01*
X159473329Y-104063621D01*
X159468347Y-104065944D01*
X159463840Y-104069100D01*
X159463838Y-104069101D01*
X159292473Y-104189092D01*
X159292470Y-104189094D01*
X159287962Y-104192251D01*
X159132251Y-104347962D01*
X159129094Y-104352470D01*
X159129092Y-104352473D01*
X159027246Y-104497924D01*
X159005944Y-104528347D01*
X159003621Y-104533329D01*
X159003618Y-104533334D01*
X158975407Y-104593834D01*
X158912880Y-104727924D01*
X158855885Y-104940629D01*
X158836693Y-105160000D01*
X158855885Y-105379371D01*
X158912880Y-105592076D01*
X158943910Y-105658621D01*
X159003618Y-105786666D01*
X159003621Y-105786671D01*
X159005944Y-105791653D01*
X159009100Y-105796160D01*
X159009101Y-105796162D01*
X159107004Y-105935981D01*
X159132251Y-105972038D01*
X159287962Y-106127749D01*
X159468346Y-106254056D01*
X159667924Y-106347120D01*
X159880629Y-106404115D01*
X160100000Y-106423307D01*
X160319371Y-106404115D01*
X160532076Y-106347120D01*
X160731654Y-106254056D01*
X160912038Y-106127749D01*
X161067749Y-105972038D01*
X161092997Y-105935981D01*
X161190899Y-105796162D01*
X161190900Y-105796160D01*
X161194056Y-105791653D01*
X161196379Y-105786671D01*
X161196382Y-105786666D01*
X161284797Y-105597058D01*
X161284797Y-105597057D01*
X161287120Y-105592076D01*
X161312000Y-105499221D01*
X161344612Y-105442738D01*
X162004965Y-104782385D01*
X162067277Y-104748359D01*
X162094060Y-104745480D01*
X162844391Y-104745480D01*
X162912512Y-104765482D01*
X162959005Y-104819138D01*
X162969109Y-104889412D01*
X162962830Y-104914471D01*
X162933663Y-104994825D01*
X162932714Y-105000074D01*
X162932713Y-105000077D01*
X162893377Y-105217608D01*
X162893376Y-105217615D01*
X162892639Y-105221692D01*
X162892444Y-105225837D01*
X162891653Y-105242608D01*
X162891500Y-105245844D01*
X162891500Y-105707890D01*
X162891725Y-105710539D01*
X162904935Y-105866223D01*
X162906080Y-105879720D01*
X162907418Y-105884875D01*
X162907419Y-105884881D01*
X162961903Y-106094798D01*
X162963999Y-106102872D01*
X162966191Y-106107738D01*
X162966192Y-106107741D01*
X162976628Y-106130908D01*
X163058688Y-106313075D01*
X163187441Y-106504319D01*
X163191121Y-106508177D01*
X163191127Y-106508184D01*
X163254904Y-106575039D01*
X163287452Y-106638135D01*
X163280721Y-106708812D01*
X163236847Y-106764630D01*
X163163735Y-106788011D01*
X152400528Y-106788011D01*
X152332407Y-106768009D01*
X152285914Y-106714353D01*
X152275218Y-106648842D01*
X152280907Y-106594708D01*
X152307919Y-106529051D01*
X152317122Y-106518782D01*
X152952247Y-105883657D01*
X152960537Y-105876113D01*
X152967018Y-105872000D01*
X153013659Y-105822332D01*
X153016413Y-105819491D01*
X153036134Y-105799770D01*
X153038612Y-105796575D01*
X153046318Y-105787553D01*
X153071158Y-105761101D01*
X153076586Y-105755321D01*
X153086346Y-105737568D01*
X153097199Y-105721045D01*
X153104753Y-105711306D01*
X153109613Y-105705041D01*
X153127176Y-105664457D01*
X153132383Y-105653827D01*
X153153695Y-105615060D01*
X153155666Y-105607383D01*
X153155668Y-105607378D01*
X153158732Y-105595442D01*
X153165138Y-105576730D01*
X153169712Y-105566162D01*
X153173181Y-105558145D01*
X153174421Y-105550317D01*
X153174423Y-105550310D01*
X153180099Y-105514476D01*
X153182505Y-105502856D01*
X153191528Y-105467711D01*
X153191528Y-105467710D01*
X153193500Y-105460030D01*
X153193500Y-105439776D01*
X153195051Y-105420065D01*
X153196980Y-105407886D01*
X153198220Y-105400057D01*
X153194059Y-105356038D01*
X153193500Y-105344181D01*
X153193500Y-104604153D01*
X153194027Y-104592970D01*
X153195702Y-104585477D01*
X153193562Y-104517400D01*
X153193500Y-104513441D01*
X153193500Y-104485530D01*
X153192995Y-104481530D01*
X153192062Y-104469687D01*
X153190922Y-104433415D01*
X153190673Y-104425496D01*
X153185022Y-104406044D01*
X153181014Y-104386692D01*
X153179467Y-104374449D01*
X153178474Y-104366589D01*
X153175556Y-104359218D01*
X153162200Y-104325483D01*
X153158355Y-104314256D01*
X153154706Y-104301697D01*
X153146018Y-104271793D01*
X153141984Y-104264971D01*
X153141981Y-104264965D01*
X153135706Y-104254354D01*
X153127010Y-104236604D01*
X153122472Y-104225142D01*
X153122469Y-104225137D01*
X153119552Y-104217769D01*
X153093573Y-104182011D01*
X153087057Y-104172093D01*
X153068575Y-104140843D01*
X153064542Y-104134023D01*
X153050218Y-104119699D01*
X153037376Y-104104664D01*
X153025472Y-104088279D01*
X152991406Y-104060097D01*
X152982627Y-104052108D01*
X150679114Y-101748595D01*
X150645088Y-101686283D01*
X150650153Y-101615468D01*
X150692700Y-101558632D01*
X150759220Y-101533821D01*
X150768209Y-101533500D01*
X153251233Y-101533500D01*
X153262416Y-101534027D01*
X153269909Y-101535702D01*
X153277835Y-101535453D01*
X153277836Y-101535453D01*
X153337986Y-101533562D01*
X153341945Y-101533500D01*
X153369856Y-101533500D01*
X153373791Y-101533003D01*
X153373856Y-101532995D01*
X153385693Y-101532062D01*
X153417951Y-101531048D01*
X153421970Y-101530922D01*
X153429889Y-101530673D01*
X153449343Y-101525021D01*
X153468700Y-101521013D01*
X153480930Y-101519468D01*
X153480931Y-101519468D01*
X153488797Y-101518474D01*
X153496168Y-101515555D01*
X153496170Y-101515555D01*
X153529912Y-101502196D01*
X153541142Y-101498351D01*
X153575983Y-101488229D01*
X153575984Y-101488229D01*
X153583593Y-101486018D01*
X153590412Y-101481985D01*
X153590417Y-101481983D01*
X153601028Y-101475707D01*
X153618776Y-101467012D01*
X153637617Y-101459552D01*
X153673387Y-101433564D01*
X153683307Y-101427048D01*
X153714535Y-101408580D01*
X153714538Y-101408578D01*
X153721362Y-101404542D01*
X153735683Y-101390221D01*
X153750717Y-101377380D01*
X153760694Y-101370131D01*
X153767107Y-101365472D01*
X153795298Y-101331395D01*
X153803288Y-101322616D01*
X155948982Y-99176923D01*
X156011294Y-99142897D01*
X156075441Y-99145686D01*
X156207227Y-99186607D01*
X156212516Y-99187308D01*
X156430489Y-99216198D01*
X156430494Y-99216198D01*
X156435774Y-99216898D01*
X156441103Y-99216698D01*
X156441105Y-99216698D01*
X156550966Y-99212574D01*
X156666158Y-99208249D01*
X156671468Y-99207135D01*
X156886572Y-99162002D01*
X156891791Y-99160907D01*
X156896750Y-99158949D01*
X156896752Y-99158948D01*
X157101256Y-99078185D01*
X157101258Y-99078184D01*
X157106221Y-99076224D01*
X157205184Y-99016172D01*
X157298757Y-98959390D01*
X157298756Y-98959390D01*
X157303317Y-98956623D01*
X157343493Y-98921760D01*
X157473412Y-98809023D01*
X157473414Y-98809021D01*
X157477445Y-98805523D01*
X157507006Y-98769471D01*
X157565666Y-98729476D01*
X157636636Y-98727545D01*
X157697384Y-98764290D01*
X157711584Y-98783059D01*
X157798063Y-98922807D01*
X157807099Y-98934208D01*
X157921829Y-99048739D01*
X157933240Y-99057751D01*
X158071243Y-99142816D01*
X158084424Y-99148963D01*
X158238710Y-99200138D01*
X158252086Y-99203005D01*
X158346438Y-99212672D01*
X158352854Y-99213000D01*
X158727885Y-99213000D01*
X158743124Y-99208525D01*
X158744329Y-99207135D01*
X158746000Y-99199452D01*
X158746000Y-99194884D01*
X159254000Y-99194884D01*
X159258475Y-99210123D01*
X159259865Y-99211328D01*
X159267548Y-99212999D01*
X159647095Y-99212999D01*
X159653614Y-99212662D01*
X159749206Y-99202743D01*
X159762600Y-99199851D01*
X159916784Y-99148412D01*
X159929962Y-99142239D01*
X160067807Y-99056937D01*
X160079208Y-99047901D01*
X160193739Y-98933171D01*
X160202751Y-98921760D01*
X160287816Y-98783757D01*
X160293963Y-98770576D01*
X160345138Y-98616290D01*
X160348005Y-98602914D01*
X160357672Y-98508562D01*
X160358000Y-98502146D01*
X160358000Y-98002115D01*
X160353525Y-97986876D01*
X160352135Y-97985671D01*
X160344452Y-97984000D01*
X159272115Y-97984000D01*
X159256876Y-97988475D01*
X159255671Y-97989865D01*
X159254000Y-97997548D01*
X159254000Y-99194884D01*
X158746000Y-99194884D01*
X158746000Y-97971585D01*
X164286698Y-97971585D01*
X164290329Y-98044521D01*
X164302225Y-98283471D01*
X164302936Y-98297759D01*
X164303577Y-98301490D01*
X164303578Y-98301498D01*
X164357262Y-98613921D01*
X164358241Y-98619619D01*
X164359329Y-98623258D01*
X164359330Y-98623261D01*
X164433803Y-98872278D01*
X164451814Y-98932504D01*
X164453327Y-98935975D01*
X164453329Y-98935981D01*
X164502475Y-99048739D01*
X164582297Y-99231881D01*
X164584220Y-99235152D01*
X164584222Y-99235156D01*
X164626584Y-99307215D01*
X164747802Y-99513414D01*
X164750103Y-99516429D01*
X164943631Y-99770012D01*
X164943636Y-99770017D01*
X164945931Y-99773025D01*
X165173814Y-100006953D01*
X165246635Y-100065607D01*
X165425196Y-100209431D01*
X165425201Y-100209435D01*
X165428149Y-100211809D01*
X165705253Y-100384627D01*
X166001112Y-100522903D01*
X166311440Y-100624634D01*
X166631742Y-100688346D01*
X166635514Y-100688633D01*
X166635522Y-100688634D01*
X166953602Y-100712829D01*
X166953607Y-100712829D01*
X166957379Y-100713116D01*
X167283633Y-100698586D01*
X167343425Y-100688634D01*
X167602037Y-100645590D01*
X167602042Y-100645589D01*
X167605778Y-100644967D01*
X167919149Y-100553034D01*
X167922616Y-100551544D01*
X167922620Y-100551543D01*
X168215721Y-100425616D01*
X168215723Y-100425615D01*
X168219205Y-100424119D01*
X168501601Y-100260091D01*
X168762245Y-100063324D01*
X168914665Y-99916391D01*
X168994632Y-99839303D01*
X168994635Y-99839300D01*
X168997363Y-99836670D01*
X169203549Y-99583410D01*
X169307537Y-99418599D01*
X169375788Y-99310428D01*
X169375790Y-99310425D01*
X169377815Y-99307215D01*
X169425221Y-99207154D01*
X169468490Y-99115822D01*
X169517638Y-99012084D01*
X169543028Y-98935981D01*
X169619790Y-98705897D01*
X169619792Y-98705891D01*
X169620992Y-98702293D01*
X169686381Y-98382329D01*
X169691194Y-98323163D01*
X169712674Y-98059061D01*
X169712856Y-98056826D01*
X169713231Y-98021059D01*
X169713428Y-98002221D01*
X169713428Y-98002214D01*
X169713451Y-98000000D01*
X169712487Y-97984000D01*
X169694026Y-97677793D01*
X169694026Y-97677789D01*
X169693798Y-97674015D01*
X169690965Y-97658500D01*
X169635805Y-97356473D01*
X169635804Y-97356469D01*
X169635125Y-97352751D01*
X169627722Y-97328907D01*
X169570861Y-97145784D01*
X169538282Y-97040863D01*
X169404670Y-96742869D01*
X169236226Y-96463084D01*
X169233899Y-96460100D01*
X169233894Y-96460093D01*
X169037726Y-96208558D01*
X169037724Y-96208556D01*
X169035390Y-96205563D01*
X168805070Y-95974034D01*
X168548603Y-95771852D01*
X168269705Y-95601945D01*
X168266261Y-95600379D01*
X168266257Y-95600377D01*
X168155667Y-95550095D01*
X167972414Y-95466775D01*
X167661037Y-95368300D01*
X167443492Y-95327390D01*
X167343809Y-95308645D01*
X167343807Y-95308645D01*
X167340086Y-95307945D01*
X167014208Y-95286586D01*
X167010428Y-95286794D01*
X167010427Y-95286794D01*
X166912897Y-95292162D01*
X166688124Y-95304532D01*
X166684397Y-95305193D01*
X166684393Y-95305193D01*
X166527341Y-95333027D01*
X166366557Y-95361522D01*
X166362941Y-95362624D01*
X166362933Y-95362626D01*
X166102927Y-95441870D01*
X166054167Y-95456731D01*
X165755477Y-95588781D01*
X165694637Y-95624977D01*
X165478074Y-95753817D01*
X165478068Y-95753821D01*
X165474814Y-95755757D01*
X165471812Y-95758073D01*
X165243017Y-95934588D01*
X165216244Y-95955243D01*
X164983513Y-96184347D01*
X164981149Y-96187314D01*
X164981146Y-96187317D01*
X164850058Y-96351822D01*
X164779991Y-96439751D01*
X164608626Y-96717757D01*
X164605192Y-96725207D01*
X164492082Y-96970563D01*
X164471902Y-97014336D01*
X164470741Y-97017940D01*
X164470741Y-97017941D01*
X164463277Y-97041118D01*
X164371797Y-97325192D01*
X164371079Y-97328903D01*
X164371078Y-97328907D01*
X164310482Y-97642105D01*
X164310481Y-97642114D01*
X164309763Y-97645824D01*
X164309496Y-97649600D01*
X164309495Y-97649605D01*
X164287578Y-97959156D01*
X164286698Y-97971585D01*
X158746000Y-97971585D01*
X158746000Y-97457885D01*
X159254000Y-97457885D01*
X159258475Y-97473124D01*
X159259865Y-97474329D01*
X159267548Y-97476000D01*
X160339884Y-97476000D01*
X160355123Y-97471525D01*
X160356328Y-97470135D01*
X160357999Y-97462452D01*
X160357999Y-96957905D01*
X160357662Y-96951386D01*
X160347743Y-96855794D01*
X160344851Y-96842400D01*
X160293412Y-96688216D01*
X160287239Y-96675038D01*
X160201937Y-96537193D01*
X160192901Y-96525792D01*
X160078171Y-96411261D01*
X160066760Y-96402249D01*
X159928757Y-96317184D01*
X159915576Y-96311037D01*
X159761290Y-96259862D01*
X159747914Y-96256995D01*
X159653562Y-96247328D01*
X159647145Y-96247000D01*
X159272115Y-96247000D01*
X159256876Y-96251475D01*
X159255671Y-96252865D01*
X159254000Y-96260548D01*
X159254000Y-97457885D01*
X158746000Y-97457885D01*
X158746000Y-96265116D01*
X158741525Y-96249877D01*
X158740135Y-96248672D01*
X158732452Y-96247001D01*
X158352905Y-96247001D01*
X158346386Y-96247338D01*
X158250794Y-96257257D01*
X158237400Y-96260149D01*
X158083216Y-96311588D01*
X158070038Y-96317761D01*
X157932193Y-96403063D01*
X157920792Y-96412099D01*
X157806261Y-96526829D01*
X157797247Y-96538243D01*
X157711277Y-96677713D01*
X157658505Y-96725207D01*
X157588434Y-96736631D01*
X157523310Y-96708357D01*
X157512847Y-96698570D01*
X157512489Y-96698194D01*
X157403424Y-96583865D01*
X157218458Y-96446246D01*
X157213707Y-96443830D01*
X157213703Y-96443828D01*
X157085101Y-96378444D01*
X157012949Y-96341760D01*
X157007855Y-96340178D01*
X157007852Y-96340177D01*
X156797871Y-96274976D01*
X156792773Y-96273393D01*
X156787484Y-96272692D01*
X156569511Y-96243802D01*
X156569506Y-96243802D01*
X156564226Y-96243102D01*
X156558897Y-96243302D01*
X156558895Y-96243302D01*
X156460368Y-96247001D01*
X156333842Y-96251751D01*
X156328623Y-96252846D01*
X156295185Y-96259862D01*
X156108209Y-96299093D01*
X156103250Y-96301051D01*
X156103248Y-96301052D01*
X155898744Y-96381815D01*
X155898742Y-96381816D01*
X155893779Y-96383776D01*
X155889220Y-96386543D01*
X155889217Y-96386544D01*
X155790898Y-96446206D01*
X155696683Y-96503377D01*
X155692653Y-96506874D01*
X155528489Y-96649328D01*
X155522555Y-96654477D01*
X155519168Y-96658608D01*
X155379760Y-96828627D01*
X155379756Y-96828633D01*
X155376376Y-96832755D01*
X155358448Y-96864250D01*
X155307368Y-96913555D01*
X155237738Y-96927417D01*
X155171667Y-96901434D01*
X155144427Y-96872284D01*
X155090277Y-96791852D01*
X155062559Y-96750681D01*
X155039784Y-96726806D01*
X154984916Y-96669290D01*
X154903424Y-96583865D01*
X154718458Y-96446246D01*
X154713707Y-96443830D01*
X154713703Y-96443828D01*
X154585101Y-96378444D01*
X154512949Y-96341760D01*
X154507855Y-96340178D01*
X154507852Y-96340177D01*
X154297871Y-96274976D01*
X154292773Y-96273393D01*
X154287484Y-96272692D01*
X154069511Y-96243802D01*
X154069506Y-96243802D01*
X154064226Y-96243102D01*
X154058897Y-96243302D01*
X154058895Y-96243302D01*
X153960368Y-96247001D01*
X153833842Y-96251751D01*
X153828623Y-96252846D01*
X153795185Y-96259862D01*
X153608209Y-96299093D01*
X153603250Y-96301051D01*
X153603248Y-96301052D01*
X153398744Y-96381815D01*
X153398742Y-96381816D01*
X153393779Y-96383776D01*
X153389220Y-96386543D01*
X153389217Y-96386544D01*
X153290898Y-96446206D01*
X153196683Y-96503377D01*
X153192653Y-96506874D01*
X153028489Y-96649328D01*
X153022555Y-96654477D01*
X153019168Y-96658608D01*
X152879760Y-96828627D01*
X152879756Y-96828633D01*
X152876376Y-96832755D01*
X152858448Y-96864250D01*
X152807368Y-96913555D01*
X152737738Y-96927417D01*
X152671667Y-96901434D01*
X152644427Y-96872284D01*
X152590277Y-96791852D01*
X152562559Y-96750681D01*
X152539784Y-96726806D01*
X152484916Y-96669290D01*
X152403424Y-96583865D01*
X152218458Y-96446246D01*
X152213707Y-96443830D01*
X152213703Y-96443828D01*
X152085101Y-96378444D01*
X152012949Y-96341760D01*
X152007855Y-96340178D01*
X152007852Y-96340177D01*
X151797871Y-96274976D01*
X151792773Y-96273393D01*
X151787484Y-96272692D01*
X151569511Y-96243802D01*
X151569506Y-96243802D01*
X151564226Y-96243102D01*
X151558897Y-96243302D01*
X151558895Y-96243302D01*
X151460368Y-96247001D01*
X151333842Y-96251751D01*
X151328623Y-96252846D01*
X151295185Y-96259862D01*
X151108209Y-96299093D01*
X151103250Y-96301051D01*
X151103248Y-96301052D01*
X150898744Y-96381815D01*
X150898742Y-96381816D01*
X150893779Y-96383776D01*
X150889220Y-96386543D01*
X150889217Y-96386544D01*
X150790898Y-96446206D01*
X150696683Y-96503377D01*
X150692653Y-96506874D01*
X150528489Y-96649328D01*
X150522555Y-96654477D01*
X150519168Y-96658608D01*
X150379760Y-96828627D01*
X150379756Y-96828633D01*
X150376376Y-96832755D01*
X150373738Y-96837390D01*
X150373735Y-96837394D01*
X150314233Y-96941925D01*
X150262325Y-97033114D01*
X150183663Y-97249825D01*
X150182714Y-97255074D01*
X150182713Y-97255077D01*
X150143377Y-97472608D01*
X150143376Y-97472615D01*
X150142639Y-97476692D01*
X150141500Y-97500844D01*
X150141500Y-97912890D01*
X150143538Y-97936903D01*
X150151702Y-98033120D01*
X150156080Y-98084720D01*
X150157418Y-98089875D01*
X150157419Y-98089881D01*
X150212657Y-98302703D01*
X150213999Y-98307872D01*
X150216191Y-98312738D01*
X150216192Y-98312741D01*
X150247539Y-98382329D01*
X150308688Y-98518075D01*
X150437441Y-98709319D01*
X150596576Y-98876135D01*
X150781542Y-99013754D01*
X150786293Y-99016170D01*
X150786297Y-99016172D01*
X150848704Y-99047901D01*
X150987051Y-99118240D01*
X150992145Y-99119822D01*
X150992148Y-99119823D01*
X151176040Y-99176923D01*
X151207227Y-99186607D01*
X151212516Y-99187308D01*
X151430489Y-99216198D01*
X151430494Y-99216198D01*
X151435774Y-99216898D01*
X151441103Y-99216698D01*
X151441105Y-99216698D01*
X151550966Y-99212574D01*
X151666158Y-99208249D01*
X151671468Y-99207135D01*
X151886572Y-99162002D01*
X151891791Y-99160907D01*
X151896750Y-99158949D01*
X151896752Y-99158948D01*
X152101256Y-99078185D01*
X152101258Y-99078184D01*
X152106221Y-99076224D01*
X152205184Y-99016172D01*
X152298757Y-98959390D01*
X152298756Y-98959390D01*
X152303317Y-98956623D01*
X152343493Y-98921760D01*
X152473412Y-98809023D01*
X152473414Y-98809021D01*
X152477445Y-98805523D01*
X152541383Y-98727545D01*
X152620240Y-98631373D01*
X152620244Y-98631367D01*
X152623624Y-98627245D01*
X152641552Y-98595750D01*
X152692632Y-98546445D01*
X152762262Y-98532583D01*
X152828333Y-98558566D01*
X152855573Y-98587716D01*
X152857214Y-98590154D01*
X152937441Y-98709319D01*
X153096576Y-98876135D01*
X153281542Y-99013754D01*
X153286293Y-99016170D01*
X153286297Y-99016172D01*
X153348704Y-99047901D01*
X153487051Y-99118240D01*
X153492145Y-99119822D01*
X153492148Y-99119823D01*
X153676040Y-99176923D01*
X153707227Y-99186607D01*
X153712513Y-99187308D01*
X153712515Y-99187308D01*
X153769677Y-99194884D01*
X153842956Y-99204596D01*
X153907858Y-99233375D01*
X153946898Y-99292674D01*
X153947681Y-99363667D01*
X153915496Y-99418599D01*
X153104500Y-100229595D01*
X153042188Y-100263621D01*
X153015405Y-100266500D01*
X149884926Y-100266500D01*
X149816805Y-100246498D01*
X149795831Y-100229595D01*
X148170405Y-98604168D01*
X148136379Y-98541856D01*
X148133500Y-98515073D01*
X148133500Y-92133594D01*
X148153502Y-92065473D01*
X148207158Y-92018980D01*
X148277432Y-92008876D01*
X148342012Y-92038370D01*
X148348595Y-92044499D01*
X148896343Y-92592247D01*
X148903887Y-92600537D01*
X148908000Y-92607018D01*
X148913777Y-92612443D01*
X148957667Y-92653658D01*
X148960509Y-92656413D01*
X148980230Y-92676134D01*
X148983425Y-92678612D01*
X148992447Y-92686318D01*
X149024679Y-92716586D01*
X149031628Y-92720406D01*
X149042432Y-92726346D01*
X149058956Y-92737199D01*
X149074959Y-92749613D01*
X149115543Y-92767176D01*
X149126173Y-92772383D01*
X149164940Y-92793695D01*
X149172617Y-92795666D01*
X149172622Y-92795668D01*
X149184558Y-92798732D01*
X149203266Y-92805137D01*
X149221855Y-92813181D01*
X149229680Y-92814420D01*
X149229682Y-92814421D01*
X149265519Y-92820097D01*
X149277140Y-92822504D01*
X149308959Y-92830673D01*
X149319970Y-92833500D01*
X149340231Y-92833500D01*
X149359940Y-92835051D01*
X149379943Y-92838219D01*
X149387835Y-92837473D01*
X149393062Y-92836979D01*
X149423954Y-92834059D01*
X149435811Y-92833500D01*
X153701233Y-92833500D01*
X153712416Y-92834027D01*
X153719909Y-92835702D01*
X153727835Y-92835453D01*
X153727836Y-92835453D01*
X153787986Y-92833562D01*
X153791945Y-92833500D01*
X153819856Y-92833500D01*
X153823791Y-92833003D01*
X153823856Y-92832995D01*
X153835693Y-92832062D01*
X153867951Y-92831048D01*
X153871970Y-92830922D01*
X153879889Y-92830673D01*
X153899343Y-92825021D01*
X153918700Y-92821013D01*
X153930930Y-92819468D01*
X153930931Y-92819468D01*
X153938797Y-92818474D01*
X153946168Y-92815555D01*
X153946170Y-92815555D01*
X153979912Y-92802196D01*
X153991142Y-92798351D01*
X154025983Y-92788229D01*
X154025984Y-92788229D01*
X154033593Y-92786018D01*
X154040412Y-92781985D01*
X154040417Y-92781983D01*
X154051028Y-92775707D01*
X154068776Y-92767012D01*
X154087617Y-92759552D01*
X154107987Y-92744753D01*
X154123387Y-92733564D01*
X154133307Y-92727048D01*
X154164535Y-92708580D01*
X154164538Y-92708578D01*
X154171362Y-92704542D01*
X154185683Y-92690221D01*
X154200717Y-92677380D01*
X154202432Y-92676134D01*
X154217107Y-92665472D01*
X154245298Y-92631395D01*
X154253288Y-92622616D01*
X154851235Y-92024669D01*
X166752001Y-92024669D01*
X166752371Y-92031490D01*
X166757895Y-92082352D01*
X166761521Y-92097604D01*
X166806676Y-92218054D01*
X166815214Y-92233649D01*
X166891715Y-92335724D01*
X166904276Y-92348285D01*
X167006351Y-92424786D01*
X167021946Y-92433324D01*
X167142394Y-92478478D01*
X167157649Y-92482105D01*
X167208514Y-92487631D01*
X167215328Y-92488000D01*
X167837885Y-92488000D01*
X167853124Y-92483525D01*
X167854329Y-92482135D01*
X167856000Y-92474452D01*
X167856000Y-92469884D01*
X168364000Y-92469884D01*
X168368475Y-92485123D01*
X168369865Y-92486328D01*
X168377548Y-92487999D01*
X169004669Y-92487999D01*
X169011490Y-92487629D01*
X169062352Y-92482105D01*
X169077604Y-92478479D01*
X169198054Y-92433324D01*
X169213649Y-92424786D01*
X169315724Y-92348285D01*
X169328285Y-92335724D01*
X169404786Y-92233649D01*
X169413324Y-92218054D01*
X169458478Y-92097606D01*
X169462105Y-92082351D01*
X169467631Y-92031486D01*
X169468000Y-92024672D01*
X169468000Y-91402115D01*
X169463525Y-91386876D01*
X169462135Y-91385671D01*
X169454452Y-91384000D01*
X168382115Y-91384000D01*
X168366876Y-91388475D01*
X168365671Y-91389865D01*
X168364000Y-91397548D01*
X168364000Y-92469884D01*
X167856000Y-92469884D01*
X167856000Y-91402115D01*
X167851525Y-91386876D01*
X167850135Y-91385671D01*
X167842452Y-91384000D01*
X166770116Y-91384000D01*
X166754877Y-91388475D01*
X166753672Y-91389865D01*
X166752001Y-91397548D01*
X166752001Y-92024669D01*
X154851235Y-92024669D01*
X155948981Y-90926923D01*
X156011293Y-90892897D01*
X156075441Y-90895686D01*
X156207227Y-90936607D01*
X156212516Y-90937308D01*
X156430489Y-90966198D01*
X156430494Y-90966198D01*
X156435774Y-90966898D01*
X156441103Y-90966698D01*
X156441105Y-90966698D01*
X156550966Y-90962573D01*
X156666158Y-90958249D01*
X156671468Y-90957135D01*
X156886572Y-90912002D01*
X156891791Y-90910907D01*
X156896750Y-90908949D01*
X156896752Y-90908948D01*
X157101256Y-90828185D01*
X157101258Y-90828184D01*
X157106221Y-90826224D01*
X157170470Y-90787237D01*
X157295646Y-90711278D01*
X157303317Y-90706623D01*
X157330343Y-90683171D01*
X157473412Y-90559023D01*
X157473414Y-90559021D01*
X157477445Y-90555523D01*
X157507006Y-90519471D01*
X157565666Y-90479476D01*
X157636636Y-90477545D01*
X157697384Y-90514290D01*
X157711584Y-90533059D01*
X157798063Y-90672807D01*
X157807099Y-90684208D01*
X157921829Y-90798739D01*
X157933240Y-90807751D01*
X158071243Y-90892816D01*
X158084424Y-90898963D01*
X158238710Y-90950138D01*
X158252086Y-90953005D01*
X158346438Y-90962672D01*
X158352854Y-90963000D01*
X158727885Y-90963000D01*
X158743124Y-90958525D01*
X158744329Y-90957135D01*
X158746000Y-90949452D01*
X158746000Y-90944884D01*
X159254000Y-90944884D01*
X159258475Y-90960123D01*
X159259865Y-90961328D01*
X159267548Y-90962999D01*
X159647095Y-90962999D01*
X159653614Y-90962662D01*
X159749206Y-90952743D01*
X159762600Y-90949851D01*
X159916784Y-90898412D01*
X159929962Y-90892239D01*
X160067807Y-90806937D01*
X160079208Y-90797901D01*
X160193739Y-90683171D01*
X160202751Y-90671760D01*
X160287816Y-90533757D01*
X160293963Y-90520576D01*
X160345138Y-90366290D01*
X160348005Y-90352914D01*
X160357672Y-90258562D01*
X160358000Y-90252146D01*
X160358000Y-89752115D01*
X160353525Y-89736876D01*
X160352135Y-89735671D01*
X160344452Y-89734000D01*
X159272115Y-89734000D01*
X159256876Y-89738475D01*
X159255671Y-89739865D01*
X159254000Y-89747548D01*
X159254000Y-90944884D01*
X158746000Y-90944884D01*
X158746000Y-89207885D01*
X159254000Y-89207885D01*
X159258475Y-89223124D01*
X159259865Y-89224329D01*
X159267548Y-89226000D01*
X160339884Y-89226000D01*
X160355123Y-89221525D01*
X160356328Y-89220135D01*
X160357999Y-89212452D01*
X160357999Y-88707905D01*
X160357662Y-88701386D01*
X160347743Y-88605794D01*
X160344851Y-88592400D01*
X160293412Y-88438216D01*
X160287239Y-88425038D01*
X160201937Y-88287193D01*
X160192901Y-88275792D01*
X160078171Y-88161261D01*
X160066760Y-88152249D01*
X159928757Y-88067184D01*
X159915576Y-88061037D01*
X159761290Y-88009862D01*
X159747914Y-88006995D01*
X159653562Y-87997328D01*
X159647145Y-87997000D01*
X159272115Y-87997000D01*
X159256876Y-88001475D01*
X159255671Y-88002865D01*
X159254000Y-88010548D01*
X159254000Y-89207885D01*
X158746000Y-89207885D01*
X158746000Y-88015116D01*
X158741525Y-87999877D01*
X158740135Y-87998672D01*
X158732452Y-87997001D01*
X158352905Y-87997001D01*
X158346386Y-87997338D01*
X158250794Y-88007257D01*
X158237400Y-88010149D01*
X158083216Y-88061588D01*
X158070038Y-88067761D01*
X157932193Y-88153063D01*
X157920792Y-88162099D01*
X157806261Y-88276829D01*
X157797247Y-88288243D01*
X157711277Y-88427713D01*
X157658505Y-88475207D01*
X157588434Y-88486631D01*
X157523310Y-88458357D01*
X157512847Y-88448570D01*
X157492951Y-88427713D01*
X157403424Y-88333865D01*
X157218458Y-88196246D01*
X157213707Y-88193830D01*
X157213703Y-88193828D01*
X157091731Y-88131815D01*
X157012949Y-88091760D01*
X157007855Y-88090178D01*
X157007852Y-88090177D01*
X156797871Y-88024976D01*
X156792773Y-88023393D01*
X156787484Y-88022692D01*
X156569511Y-87993802D01*
X156569506Y-87993802D01*
X156564226Y-87993102D01*
X156558897Y-87993302D01*
X156558895Y-87993302D01*
X156460368Y-87997001D01*
X156333842Y-88001751D01*
X156328623Y-88002846D01*
X156295185Y-88009862D01*
X156108209Y-88049093D01*
X156103250Y-88051051D01*
X156103248Y-88051052D01*
X155898744Y-88131815D01*
X155898742Y-88131816D01*
X155893779Y-88133776D01*
X155889220Y-88136543D01*
X155889217Y-88136544D01*
X155790832Y-88196246D01*
X155696683Y-88253377D01*
X155692653Y-88256874D01*
X155549933Y-88380720D01*
X155522555Y-88404477D01*
X155519168Y-88408608D01*
X155379760Y-88578627D01*
X155379756Y-88578633D01*
X155376376Y-88582755D01*
X155358448Y-88614250D01*
X155307368Y-88663555D01*
X155237738Y-88677417D01*
X155171667Y-88651434D01*
X155144427Y-88622284D01*
X155127756Y-88597522D01*
X155062559Y-88500681D01*
X155026667Y-88463056D01*
X154967446Y-88400977D01*
X154903424Y-88333865D01*
X154718458Y-88196246D01*
X154713707Y-88193830D01*
X154713703Y-88193828D01*
X154591731Y-88131815D01*
X154512949Y-88091760D01*
X154507855Y-88090178D01*
X154507852Y-88090177D01*
X154297871Y-88024976D01*
X154292773Y-88023393D01*
X154287484Y-88022692D01*
X154069511Y-87993802D01*
X154069506Y-87993802D01*
X154064226Y-87993102D01*
X154058897Y-87993302D01*
X154058895Y-87993302D01*
X153960368Y-87997001D01*
X153833842Y-88001751D01*
X153828623Y-88002846D01*
X153795185Y-88009862D01*
X153608209Y-88049093D01*
X153603250Y-88051051D01*
X153603248Y-88051052D01*
X153398744Y-88131815D01*
X153398742Y-88131816D01*
X153393779Y-88133776D01*
X153389220Y-88136543D01*
X153389217Y-88136544D01*
X153290832Y-88196246D01*
X153196683Y-88253377D01*
X153192653Y-88256874D01*
X153049933Y-88380720D01*
X153022555Y-88404477D01*
X153019168Y-88408608D01*
X152879760Y-88578627D01*
X152879756Y-88578633D01*
X152876376Y-88582755D01*
X152858448Y-88614250D01*
X152807368Y-88663555D01*
X152737738Y-88677417D01*
X152671667Y-88651434D01*
X152644427Y-88622284D01*
X152627756Y-88597522D01*
X152562559Y-88500681D01*
X152526667Y-88463056D01*
X152467446Y-88400977D01*
X152403424Y-88333865D01*
X152218458Y-88196246D01*
X152213707Y-88193830D01*
X152213703Y-88193828D01*
X152091731Y-88131815D01*
X152012949Y-88091760D01*
X152007855Y-88090178D01*
X152007852Y-88090177D01*
X151797871Y-88024976D01*
X151792773Y-88023393D01*
X151787484Y-88022692D01*
X151569511Y-87993802D01*
X151569506Y-87993802D01*
X151564226Y-87993102D01*
X151558897Y-87993302D01*
X151558895Y-87993302D01*
X151460368Y-87997001D01*
X151333842Y-88001751D01*
X151328623Y-88002846D01*
X151295185Y-88009862D01*
X151108209Y-88049093D01*
X151103250Y-88051051D01*
X151103248Y-88051052D01*
X150898744Y-88131815D01*
X150898742Y-88131816D01*
X150893779Y-88133776D01*
X150889220Y-88136543D01*
X150889217Y-88136544D01*
X150790832Y-88196246D01*
X150696683Y-88253377D01*
X150692653Y-88256874D01*
X150549933Y-88380720D01*
X150522555Y-88404477D01*
X150519168Y-88408608D01*
X150379760Y-88578627D01*
X150379756Y-88578633D01*
X150376376Y-88582755D01*
X150373738Y-88587390D01*
X150373735Y-88587394D01*
X150327581Y-88668475D01*
X150262325Y-88783114D01*
X150183663Y-88999825D01*
X150182714Y-89005074D01*
X150182713Y-89005077D01*
X150143377Y-89222608D01*
X150143376Y-89222615D01*
X150142639Y-89226692D01*
X150141500Y-89250844D01*
X150141500Y-89662890D01*
X150141725Y-89665539D01*
X150154775Y-89819338D01*
X150156080Y-89834720D01*
X150157418Y-89839875D01*
X150157419Y-89839881D01*
X150209865Y-90041946D01*
X150213999Y-90057872D01*
X150308688Y-90268075D01*
X150437441Y-90459319D01*
X150441120Y-90463176D01*
X150441122Y-90463178D01*
X150481935Y-90505961D01*
X150596576Y-90626135D01*
X150781542Y-90763754D01*
X150786293Y-90766170D01*
X150786297Y-90766172D01*
X150866477Y-90806937D01*
X150987051Y-90868240D01*
X150992145Y-90869822D01*
X150992148Y-90869823D01*
X151138450Y-90915251D01*
X151207227Y-90936607D01*
X151212516Y-90937308D01*
X151430489Y-90966198D01*
X151430494Y-90966198D01*
X151435774Y-90966898D01*
X151441103Y-90966698D01*
X151441105Y-90966698D01*
X151550966Y-90962573D01*
X151666158Y-90958249D01*
X151671468Y-90957135D01*
X151886572Y-90912002D01*
X151891791Y-90910907D01*
X151896750Y-90908949D01*
X151896752Y-90908948D01*
X152101256Y-90828185D01*
X152101258Y-90828184D01*
X152106221Y-90826224D01*
X152170470Y-90787237D01*
X152295646Y-90711278D01*
X152303317Y-90706623D01*
X152330343Y-90683171D01*
X152473412Y-90559023D01*
X152473414Y-90559021D01*
X152477445Y-90555523D01*
X152546025Y-90471884D01*
X152620240Y-90381373D01*
X152620244Y-90381367D01*
X152623624Y-90377245D01*
X152641552Y-90345750D01*
X152692632Y-90296445D01*
X152762262Y-90282583D01*
X152828333Y-90308566D01*
X152855573Y-90337716D01*
X152937441Y-90459319D01*
X152941120Y-90463176D01*
X152941122Y-90463178D01*
X152981935Y-90505961D01*
X153096576Y-90626135D01*
X153281542Y-90763754D01*
X153286293Y-90766170D01*
X153286297Y-90766172D01*
X153366477Y-90806937D01*
X153487051Y-90868240D01*
X153492145Y-90869822D01*
X153492148Y-90869823D01*
X153638450Y-90915251D01*
X153707227Y-90936607D01*
X153712513Y-90937308D01*
X153712515Y-90937308D01*
X153764645Y-90944217D01*
X153842956Y-90954596D01*
X153907858Y-90983375D01*
X153946898Y-91042674D01*
X153947681Y-91113667D01*
X153915496Y-91168599D01*
X153554500Y-91529595D01*
X153492188Y-91563621D01*
X153465405Y-91566500D01*
X149714595Y-91566500D01*
X149646474Y-91546498D01*
X149625500Y-91529595D01*
X148619925Y-90524020D01*
X148585899Y-90461708D01*
X148583020Y-90434925D01*
X148583020Y-83858117D01*
X148603022Y-83789996D01*
X148656678Y-83743503D01*
X148719970Y-83733848D01*
X148719970Y-83733500D01*
X148740224Y-83733500D01*
X148759934Y-83735051D01*
X148779943Y-83738220D01*
X148787835Y-83737474D01*
X148806580Y-83735702D01*
X148823962Y-83734059D01*
X148835819Y-83733500D01*
X154491233Y-83733500D01*
X154502416Y-83734027D01*
X154509909Y-83735702D01*
X154517835Y-83735453D01*
X154517836Y-83735453D01*
X154577986Y-83733562D01*
X154581945Y-83733500D01*
X154609856Y-83733500D01*
X154613791Y-83733003D01*
X154613856Y-83732995D01*
X154625693Y-83732062D01*
X154657951Y-83731048D01*
X154661970Y-83730922D01*
X154669889Y-83730673D01*
X154689343Y-83725021D01*
X154708700Y-83721013D01*
X154720930Y-83719468D01*
X154720931Y-83719468D01*
X154728797Y-83718474D01*
X154736168Y-83715555D01*
X154736170Y-83715555D01*
X154769912Y-83702196D01*
X154781142Y-83698351D01*
X154815983Y-83688229D01*
X154815984Y-83688229D01*
X154823593Y-83686018D01*
X154830412Y-83681985D01*
X154830417Y-83681983D01*
X154841028Y-83675707D01*
X154858776Y-83667012D01*
X154877617Y-83659552D01*
X154913387Y-83633564D01*
X154923307Y-83627048D01*
X154954535Y-83608580D01*
X154954538Y-83608578D01*
X154961362Y-83604542D01*
X154975683Y-83590221D01*
X154990717Y-83577380D01*
X155000694Y-83570131D01*
X155007107Y-83565472D01*
X155035298Y-83531395D01*
X155043288Y-83522616D01*
X155948981Y-82616923D01*
X156011293Y-82582897D01*
X156075441Y-82585686D01*
X156207227Y-82626607D01*
X156212516Y-82627308D01*
X156430489Y-82656198D01*
X156430494Y-82656198D01*
X156435774Y-82656898D01*
X156441103Y-82656698D01*
X156441105Y-82656698D01*
X156550966Y-82652574D01*
X156666158Y-82648249D01*
X156671468Y-82647135D01*
X156886572Y-82602002D01*
X156891791Y-82600907D01*
X156896750Y-82598949D01*
X156896752Y-82598948D01*
X157101256Y-82518185D01*
X157101258Y-82518184D01*
X157106221Y-82516224D01*
X157116729Y-82509848D01*
X157298757Y-82399390D01*
X157298756Y-82399390D01*
X157303317Y-82396623D01*
X157397100Y-82315243D01*
X157473412Y-82249023D01*
X157473414Y-82249021D01*
X157477445Y-82245523D01*
X157495864Y-82223059D01*
X157507006Y-82209471D01*
X157565666Y-82169476D01*
X157636636Y-82167545D01*
X157697384Y-82204290D01*
X157711584Y-82223059D01*
X157798063Y-82362807D01*
X157807099Y-82374208D01*
X157921829Y-82488739D01*
X157933240Y-82497751D01*
X158071243Y-82582816D01*
X158084424Y-82588963D01*
X158238710Y-82640138D01*
X158252086Y-82643005D01*
X158346438Y-82652672D01*
X158352854Y-82653000D01*
X158727885Y-82653000D01*
X158743124Y-82648525D01*
X158744329Y-82647135D01*
X158746000Y-82639452D01*
X158746000Y-82634884D01*
X159254000Y-82634884D01*
X159258475Y-82650123D01*
X159259865Y-82651328D01*
X159267548Y-82652999D01*
X159647095Y-82652999D01*
X159653614Y-82652662D01*
X159749206Y-82642743D01*
X159762600Y-82639851D01*
X159916784Y-82588412D01*
X159929962Y-82582239D01*
X160067807Y-82496937D01*
X160079208Y-82487901D01*
X160193739Y-82373171D01*
X160202751Y-82361760D01*
X160287816Y-82223757D01*
X160293963Y-82210576D01*
X160345138Y-82056290D01*
X160348005Y-82042914D01*
X160357672Y-81948562D01*
X160358000Y-81942146D01*
X160358000Y-81442115D01*
X160353525Y-81426876D01*
X160352135Y-81425671D01*
X160344452Y-81424000D01*
X159272115Y-81424000D01*
X159256876Y-81428475D01*
X159255671Y-81429865D01*
X159254000Y-81437548D01*
X159254000Y-82634884D01*
X158746000Y-82634884D01*
X158746000Y-80897885D01*
X159254000Y-80897885D01*
X159258475Y-80913124D01*
X159259865Y-80914329D01*
X159267548Y-80916000D01*
X160339884Y-80916000D01*
X160355123Y-80911525D01*
X160356328Y-80910135D01*
X160357999Y-80902452D01*
X160357999Y-80397905D01*
X160357662Y-80391386D01*
X160347743Y-80295794D01*
X160344851Y-80282400D01*
X160293412Y-80128216D01*
X160287239Y-80115038D01*
X160201937Y-79977193D01*
X160192901Y-79965792D01*
X160078171Y-79851261D01*
X160066760Y-79842249D01*
X159928757Y-79757184D01*
X159915576Y-79751037D01*
X159761290Y-79699862D01*
X159747914Y-79696995D01*
X159653562Y-79687328D01*
X159647145Y-79687000D01*
X159272115Y-79687000D01*
X159256876Y-79691475D01*
X159255671Y-79692865D01*
X159254000Y-79700548D01*
X159254000Y-80897885D01*
X158746000Y-80897885D01*
X158746000Y-79705116D01*
X158741525Y-79689877D01*
X158740135Y-79688672D01*
X158732452Y-79687001D01*
X158352905Y-79687001D01*
X158346386Y-79687338D01*
X158250794Y-79697257D01*
X158237400Y-79700149D01*
X158083216Y-79751588D01*
X158070038Y-79757761D01*
X157932193Y-79843063D01*
X157920792Y-79852099D01*
X157806261Y-79966829D01*
X157797247Y-79978243D01*
X157711277Y-80117713D01*
X157658505Y-80165207D01*
X157588434Y-80176631D01*
X157523310Y-80148357D01*
X157512847Y-80138570D01*
X157512568Y-80138277D01*
X157403424Y-80023865D01*
X157218458Y-79886246D01*
X157213707Y-79883830D01*
X157213703Y-79883828D01*
X157081291Y-79816507D01*
X157012949Y-79781760D01*
X157007855Y-79780178D01*
X157007852Y-79780177D01*
X156797871Y-79714976D01*
X156792773Y-79713393D01*
X156773941Y-79710897D01*
X156569511Y-79683802D01*
X156569506Y-79683802D01*
X156564226Y-79683102D01*
X156558897Y-79683302D01*
X156558895Y-79683302D01*
X156460368Y-79687001D01*
X156333842Y-79691751D01*
X156328623Y-79692846D01*
X156270144Y-79705116D01*
X156108209Y-79739093D01*
X156103250Y-79741051D01*
X156103248Y-79741052D01*
X155898744Y-79821815D01*
X155898742Y-79821816D01*
X155893779Y-79823776D01*
X155889220Y-79826543D01*
X155889217Y-79826544D01*
X155741724Y-79916045D01*
X155696683Y-79943377D01*
X155692653Y-79946874D01*
X155549456Y-80071134D01*
X155522555Y-80094477D01*
X155519168Y-80098608D01*
X155379760Y-80268627D01*
X155379756Y-80268633D01*
X155376376Y-80272755D01*
X155358448Y-80304250D01*
X155307368Y-80353555D01*
X155237738Y-80367417D01*
X155171667Y-80341434D01*
X155144427Y-80312284D01*
X155115035Y-80268627D01*
X155062559Y-80190681D01*
X155012848Y-80138570D01*
X154953201Y-80076045D01*
X154903424Y-80023865D01*
X154718458Y-79886246D01*
X154713707Y-79883830D01*
X154713703Y-79883828D01*
X154581291Y-79816507D01*
X154512949Y-79781760D01*
X154507855Y-79780178D01*
X154507852Y-79780177D01*
X154297871Y-79714976D01*
X154292773Y-79713393D01*
X154273941Y-79710897D01*
X154069511Y-79683802D01*
X154069506Y-79683802D01*
X154064226Y-79683102D01*
X154058897Y-79683302D01*
X154058895Y-79683302D01*
X153960368Y-79687001D01*
X153833842Y-79691751D01*
X153828623Y-79692846D01*
X153770144Y-79705116D01*
X153608209Y-79739093D01*
X153603250Y-79741051D01*
X153603248Y-79741052D01*
X153398744Y-79821815D01*
X153398742Y-79821816D01*
X153393779Y-79823776D01*
X153389220Y-79826543D01*
X153389217Y-79826544D01*
X153241724Y-79916045D01*
X153196683Y-79943377D01*
X153192653Y-79946874D01*
X153049456Y-80071134D01*
X153022555Y-80094477D01*
X153019168Y-80098608D01*
X152879760Y-80268627D01*
X152879756Y-80268633D01*
X152876376Y-80272755D01*
X152858448Y-80304250D01*
X152807368Y-80353555D01*
X152737738Y-80367417D01*
X152671667Y-80341434D01*
X152644427Y-80312284D01*
X152615035Y-80268627D01*
X152562559Y-80190681D01*
X152512848Y-80138570D01*
X152453201Y-80076045D01*
X152403424Y-80023865D01*
X152218458Y-79886246D01*
X152213707Y-79883830D01*
X152213703Y-79883828D01*
X152081291Y-79816507D01*
X152012949Y-79781760D01*
X152007855Y-79780178D01*
X152007852Y-79780177D01*
X151797871Y-79714976D01*
X151792773Y-79713393D01*
X151773941Y-79710897D01*
X151569511Y-79683802D01*
X151569506Y-79683802D01*
X151564226Y-79683102D01*
X151558897Y-79683302D01*
X151558895Y-79683302D01*
X151460368Y-79687001D01*
X151333842Y-79691751D01*
X151328623Y-79692846D01*
X151270144Y-79705116D01*
X151108209Y-79739093D01*
X151103250Y-79741051D01*
X151103248Y-79741052D01*
X150898744Y-79821815D01*
X150898742Y-79821816D01*
X150893779Y-79823776D01*
X150889220Y-79826543D01*
X150889217Y-79826544D01*
X150741724Y-79916045D01*
X150696683Y-79943377D01*
X150692653Y-79946874D01*
X150549456Y-80071134D01*
X150522555Y-80094477D01*
X150519168Y-80098608D01*
X150379760Y-80268627D01*
X150379756Y-80268633D01*
X150376376Y-80272755D01*
X150262486Y-80472832D01*
X150211404Y-80522138D01*
X150152984Y-80536500D01*
X148884595Y-80536500D01*
X148816474Y-80516498D01*
X148795500Y-80499595D01*
X148547122Y-80251217D01*
X148513096Y-80188905D01*
X148510907Y-80175292D01*
X148507048Y-80138570D01*
X148503877Y-80108401D01*
X148494232Y-80016635D01*
X148494232Y-80016633D01*
X148493542Y-80010072D01*
X148434527Y-79828444D01*
X148339040Y-79663056D01*
X148334308Y-79657800D01*
X148215675Y-79526045D01*
X148215674Y-79526044D01*
X148211253Y-79521134D01*
X148089715Y-79432831D01*
X148062094Y-79412763D01*
X148062093Y-79412762D01*
X148056752Y-79408882D01*
X148050724Y-79406198D01*
X148050722Y-79406197D01*
X147888319Y-79333891D01*
X147888318Y-79333891D01*
X147882288Y-79331206D01*
X147780076Y-79309480D01*
X147701944Y-79292872D01*
X147701939Y-79292872D01*
X147695487Y-79291500D01*
X147504513Y-79291500D01*
X147498061Y-79292872D01*
X147498056Y-79292872D01*
X147419924Y-79309480D01*
X147317712Y-79331206D01*
X147311682Y-79333891D01*
X147311681Y-79333891D01*
X147149278Y-79406197D01*
X147149276Y-79406198D01*
X147143248Y-79408882D01*
X147137907Y-79412762D01*
X147137906Y-79412763D01*
X147110285Y-79432831D01*
X146988747Y-79521134D01*
X146984326Y-79526044D01*
X146984325Y-79526045D01*
X146865693Y-79657800D01*
X146860960Y-79663056D01*
X146765473Y-79828444D01*
X146757787Y-79852099D01*
X146745354Y-79890363D01*
X146705280Y-79948969D01*
X146639883Y-79976605D01*
X146569926Y-79964498D01*
X146536426Y-79940521D01*
X145189925Y-78594020D01*
X145155899Y-78531708D01*
X145153020Y-78504925D01*
X145153020Y-78080641D01*
X145173022Y-78012520D01*
X145226678Y-77966027D01*
X145296952Y-77955923D01*
X145305217Y-77957394D01*
X145398056Y-77977128D01*
X145398061Y-77977128D01*
X145404513Y-77978500D01*
X145595487Y-77978500D01*
X145601939Y-77977128D01*
X145601944Y-77977128D01*
X145701703Y-77955923D01*
X145782288Y-77938794D01*
X145846981Y-77909991D01*
X145950722Y-77863803D01*
X145950724Y-77863802D01*
X145956752Y-77861118D01*
X146008836Y-77823277D01*
X146105914Y-77752745D01*
X146111253Y-77748866D01*
X146115668Y-77743963D01*
X146120580Y-77739540D01*
X146121705Y-77740789D01*
X146175014Y-77707949D01*
X146208200Y-77703500D01*
X158815406Y-77703500D01*
X158883527Y-77723502D01*
X158904501Y-77740405D01*
X166759777Y-85595682D01*
X166793803Y-85657994D01*
X166792100Y-85718446D01*
X166770989Y-85794570D01*
X166747251Y-86016695D01*
X166747548Y-86021848D01*
X166747548Y-86021851D01*
X166757834Y-86200246D01*
X166760110Y-86239715D01*
X166761247Y-86244761D01*
X166761248Y-86244767D01*
X166782275Y-86338069D01*
X166809222Y-86457639D01*
X166893266Y-86664616D01*
X166913271Y-86697261D01*
X166964864Y-86781453D01*
X167009987Y-86855088D01*
X167156250Y-87023938D01*
X167328126Y-87166632D01*
X167349343Y-87179030D01*
X167401445Y-87209476D01*
X167450169Y-87261114D01*
X167463240Y-87330897D01*
X167436509Y-87396669D01*
X167396055Y-87430027D01*
X167383607Y-87436507D01*
X167379474Y-87439610D01*
X167379471Y-87439612D01*
X167209100Y-87567530D01*
X167204965Y-87570635D01*
X167201393Y-87574373D01*
X167071462Y-87710338D01*
X167050629Y-87732138D01*
X167047715Y-87736410D01*
X167047714Y-87736411D01*
X167007314Y-87795635D01*
X166924743Y-87916680D01*
X166909003Y-87950590D01*
X166842352Y-88094178D01*
X166830688Y-88119305D01*
X166770989Y-88334570D01*
X166747251Y-88556695D01*
X166747548Y-88561848D01*
X166747548Y-88561851D01*
X166759812Y-88774547D01*
X166760110Y-88779715D01*
X166761247Y-88784761D01*
X166761248Y-88784767D01*
X166781119Y-88872939D01*
X166809222Y-88997639D01*
X166893266Y-89204616D01*
X166922506Y-89252331D01*
X167005023Y-89386987D01*
X167009987Y-89395088D01*
X167156250Y-89563938D01*
X167160225Y-89567238D01*
X167160231Y-89567244D01*
X167165425Y-89571556D01*
X167205059Y-89630460D01*
X167206555Y-89701441D01*
X167169439Y-89761962D01*
X167129168Y-89786480D01*
X167021946Y-89826676D01*
X167006351Y-89835214D01*
X166904276Y-89911715D01*
X166891715Y-89924276D01*
X166815214Y-90026351D01*
X166806676Y-90041946D01*
X166761522Y-90162394D01*
X166757895Y-90177649D01*
X166752369Y-90228514D01*
X166752000Y-90235328D01*
X166752000Y-90857885D01*
X166756475Y-90873124D01*
X166757865Y-90874329D01*
X166765548Y-90876000D01*
X169449884Y-90876000D01*
X169465123Y-90871525D01*
X169466328Y-90870135D01*
X169467999Y-90862452D01*
X169467999Y-90235331D01*
X169467629Y-90228510D01*
X169462105Y-90177648D01*
X169458479Y-90162396D01*
X169413324Y-90041946D01*
X169404786Y-90026351D01*
X169328285Y-89924276D01*
X169315724Y-89911715D01*
X169213649Y-89835214D01*
X169198054Y-89826676D01*
X169087813Y-89785348D01*
X169031049Y-89742706D01*
X169006349Y-89676145D01*
X169021557Y-89606796D01*
X169043104Y-89578115D01*
X169144430Y-89477144D01*
X169144440Y-89477132D01*
X169148096Y-89473489D01*
X169207594Y-89390689D01*
X169269405Y-89304669D01*
X175212001Y-89304669D01*
X175212371Y-89311490D01*
X175217895Y-89362352D01*
X175221521Y-89377604D01*
X175266676Y-89498054D01*
X175275214Y-89513649D01*
X175351715Y-89615724D01*
X175364276Y-89628285D01*
X175466351Y-89704786D01*
X175481946Y-89713324D01*
X175602394Y-89758478D01*
X175617649Y-89762105D01*
X175668514Y-89767631D01*
X175675328Y-89768000D01*
X176297885Y-89768000D01*
X176313124Y-89763525D01*
X176314329Y-89762135D01*
X176316000Y-89754452D01*
X176316000Y-88682115D01*
X176311525Y-88666876D01*
X176310135Y-88665671D01*
X176302452Y-88664000D01*
X175230116Y-88664000D01*
X175214877Y-88668475D01*
X175213672Y-88669865D01*
X175212001Y-88677548D01*
X175212001Y-89304669D01*
X169269405Y-89304669D01*
X169275435Y-89296277D01*
X169278453Y-89292077D01*
X169292796Y-89263057D01*
X169375136Y-89096453D01*
X169375137Y-89096451D01*
X169377430Y-89091811D01*
X169442370Y-88878069D01*
X169471529Y-88656590D01*
X169473156Y-88590000D01*
X169454852Y-88367361D01*
X169400431Y-88150702D01*
X169311354Y-87945840D01*
X169271906Y-87884862D01*
X169192822Y-87762617D01*
X169192820Y-87762614D01*
X169190014Y-87758277D01*
X169039670Y-87593051D01*
X169035619Y-87589852D01*
X169035615Y-87589848D01*
X168868414Y-87457800D01*
X168868410Y-87457798D01*
X168864359Y-87454598D01*
X168823053Y-87431796D01*
X168773084Y-87381364D01*
X168758312Y-87311921D01*
X168783428Y-87245516D01*
X168810780Y-87218909D01*
X168866688Y-87179030D01*
X168989860Y-87091173D01*
X169014640Y-87066480D01*
X169144435Y-86937137D01*
X169148096Y-86933489D01*
X169154315Y-86924835D01*
X169275435Y-86756277D01*
X169278453Y-86752077D01*
X169374402Y-86557939D01*
X169375136Y-86556453D01*
X169375137Y-86556451D01*
X169377430Y-86551811D01*
X169442370Y-86338069D01*
X169471529Y-86116590D01*
X169471802Y-86105431D01*
X169473074Y-86053365D01*
X169473074Y-86053361D01*
X169473156Y-86050000D01*
X169454852Y-85827361D01*
X169400431Y-85610702D01*
X169311354Y-85405840D01*
X169190014Y-85218277D01*
X169039670Y-85053051D01*
X169035619Y-85049852D01*
X169035615Y-85049848D01*
X168868414Y-84917800D01*
X168868410Y-84917798D01*
X168864359Y-84914598D01*
X168823053Y-84891796D01*
X168773084Y-84841364D01*
X168758312Y-84771921D01*
X168783428Y-84705516D01*
X168810780Y-84678909D01*
X168884061Y-84626638D01*
X168989860Y-84551173D01*
X169006592Y-84534500D01*
X169094767Y-84446632D01*
X169148096Y-84393489D01*
X169151910Y-84388182D01*
X169275435Y-84216277D01*
X169278453Y-84212077D01*
X169318030Y-84132000D01*
X169375136Y-84016453D01*
X169375137Y-84016451D01*
X169377430Y-84011811D01*
X169424126Y-83858117D01*
X169440865Y-83803023D01*
X169440865Y-83803021D01*
X169442370Y-83798069D01*
X169471529Y-83576590D01*
X169473156Y-83510000D01*
X169454852Y-83287361D01*
X169400431Y-83070702D01*
X169311354Y-82865840D01*
X169228684Y-82738051D01*
X169192822Y-82682617D01*
X169192820Y-82682614D01*
X169190014Y-82678277D01*
X169039670Y-82513051D01*
X169035619Y-82509852D01*
X169035615Y-82509848D01*
X168868414Y-82377800D01*
X168868410Y-82377798D01*
X168864359Y-82374598D01*
X168823053Y-82351796D01*
X168773084Y-82301364D01*
X168758312Y-82231921D01*
X168783428Y-82165516D01*
X168810780Y-82138909D01*
X168884061Y-82086638D01*
X168989860Y-82011173D01*
X169148096Y-81853489D01*
X169164914Y-81830085D01*
X169275435Y-81676277D01*
X169278453Y-81672077D01*
X169374402Y-81477939D01*
X169375136Y-81476453D01*
X169375137Y-81476451D01*
X169377430Y-81471811D01*
X169442370Y-81258069D01*
X169471529Y-81036590D01*
X169471611Y-81033240D01*
X169473074Y-80973365D01*
X169473074Y-80973361D01*
X169473156Y-80970000D01*
X169454852Y-80747361D01*
X169400431Y-80530702D01*
X169311354Y-80325840D01*
X169231154Y-80201870D01*
X169192822Y-80142617D01*
X169192820Y-80142614D01*
X169190014Y-80138277D01*
X169039670Y-79973051D01*
X169035619Y-79969852D01*
X169035615Y-79969848D01*
X168868414Y-79837800D01*
X168868410Y-79837798D01*
X168864359Y-79834598D01*
X168823053Y-79811796D01*
X168773084Y-79761364D01*
X168758312Y-79691921D01*
X168783428Y-79625516D01*
X168810780Y-79598909D01*
X168854603Y-79567650D01*
X168989860Y-79471173D01*
X168994865Y-79466186D01*
X169071209Y-79390107D01*
X169148096Y-79313489D01*
X169169234Y-79284073D01*
X169275435Y-79136277D01*
X169278453Y-79132077D01*
X169290506Y-79107691D01*
X169375136Y-78936453D01*
X169375137Y-78936451D01*
X169377430Y-78931811D01*
X169442370Y-78718069D01*
X169471529Y-78496590D01*
X169473156Y-78430000D01*
X169454852Y-78207361D01*
X169400431Y-77990702D01*
X169311354Y-77785840D01*
X169228684Y-77658051D01*
X169192822Y-77602617D01*
X169192820Y-77602614D01*
X169190014Y-77598277D01*
X169039670Y-77433051D01*
X169035619Y-77429852D01*
X169035615Y-77429848D01*
X168868414Y-77297800D01*
X168868410Y-77297798D01*
X168864359Y-77294598D01*
X168844511Y-77283641D01*
X168743564Y-77227916D01*
X168668789Y-77186638D01*
X168663920Y-77184914D01*
X168663916Y-77184912D01*
X168463087Y-77113795D01*
X168463083Y-77113794D01*
X168458212Y-77112069D01*
X168453119Y-77111162D01*
X168453116Y-77111161D01*
X168243373Y-77073800D01*
X168243367Y-77073799D01*
X168238284Y-77072894D01*
X168164452Y-77071992D01*
X168020081Y-77070228D01*
X168020079Y-77070228D01*
X168014911Y-77070165D01*
X167794091Y-77103955D01*
X167581756Y-77173357D01*
X167383607Y-77276507D01*
X167379474Y-77279610D01*
X167379471Y-77279612D01*
X167209100Y-77407530D01*
X167204965Y-77410635D01*
X167201393Y-77414373D01*
X167097778Y-77522800D01*
X167050629Y-77572138D01*
X166924743Y-77756680D01*
X166830688Y-77959305D01*
X166770989Y-78174570D01*
X166747251Y-78396695D01*
X166747548Y-78401848D01*
X166747548Y-78401851D01*
X166757208Y-78569387D01*
X166760110Y-78619715D01*
X166761247Y-78624761D01*
X166761248Y-78624767D01*
X166764856Y-78640776D01*
X166809222Y-78837639D01*
X166893266Y-79044616D01*
X166912714Y-79076352D01*
X167004966Y-79226894D01*
X167009987Y-79235088D01*
X167156250Y-79403938D01*
X167240846Y-79474171D01*
X167310201Y-79531750D01*
X167328126Y-79546632D01*
X167398595Y-79587811D01*
X167401445Y-79589476D01*
X167450169Y-79641114D01*
X167463240Y-79710897D01*
X167436509Y-79776669D01*
X167396055Y-79810027D01*
X167383607Y-79816507D01*
X167379474Y-79819610D01*
X167379471Y-79819612D01*
X167209974Y-79946874D01*
X167204965Y-79950635D01*
X167179894Y-79976870D01*
X167061276Y-80100997D01*
X167050629Y-80112138D01*
X166924743Y-80296680D01*
X166909003Y-80330590D01*
X166844022Y-80470580D01*
X166830688Y-80499305D01*
X166770989Y-80714570D01*
X166747251Y-80936695D01*
X166747548Y-80941853D01*
X166747422Y-80947024D01*
X166745914Y-80946987D01*
X166731411Y-81009482D01*
X166680520Y-81058986D01*
X166610944Y-81073117D01*
X166544773Y-81047389D01*
X166532574Y-81036669D01*
X161503704Y-76007799D01*
X161501361Y-76005174D01*
X161499784Y-76002579D01*
X161445785Y-75949868D01*
X161444704Y-75948799D01*
X161419770Y-75923865D01*
X161417427Y-75922047D01*
X161414553Y-75919381D01*
X161403406Y-75908500D01*
X161385247Y-75890774D01*
X161361289Y-75876992D01*
X161346892Y-75867334D01*
X161331309Y-75855247D01*
X161331305Y-75855244D01*
X161325041Y-75850386D01*
X161291225Y-75835753D01*
X161278435Y-75829333D01*
X161253377Y-75814918D01*
X161253373Y-75814916D01*
X161246504Y-75810965D01*
X161238869Y-75808846D01*
X161238866Y-75808845D01*
X161225459Y-75805125D01*
X161219864Y-75803572D01*
X161203519Y-75797799D01*
X161185418Y-75789966D01*
X161185417Y-75789966D01*
X161178145Y-75786819D01*
X161141752Y-75781055D01*
X161127774Y-75778018D01*
X161099918Y-75770288D01*
X161099917Y-75770288D01*
X161092274Y-75768167D01*
X161084346Y-75768014D01*
X161084342Y-75768013D01*
X161064636Y-75767632D01*
X161047364Y-75766105D01*
X161027886Y-75763020D01*
X161020057Y-75761780D01*
X161012164Y-75762526D01*
X160983374Y-75765247D01*
X160969080Y-75765782D01*
X156478380Y-75678866D01*
X154820847Y-75646785D01*
X154753126Y-75625469D01*
X154707680Y-75570924D01*
X154698938Y-75500467D01*
X154734190Y-75431714D01*
X155948981Y-74216923D01*
X156011293Y-74182897D01*
X156075441Y-74185686D01*
X156207227Y-74226607D01*
X156212516Y-74227308D01*
X156430489Y-74256198D01*
X156430494Y-74256198D01*
X156435774Y-74256898D01*
X156441103Y-74256698D01*
X156441105Y-74256698D01*
X156550966Y-74252573D01*
X156666158Y-74248249D01*
X156671468Y-74247135D01*
X156871483Y-74205168D01*
X156891791Y-74200907D01*
X156896750Y-74198949D01*
X156896752Y-74198948D01*
X157101256Y-74118185D01*
X157101258Y-74118184D01*
X157106221Y-74116224D01*
X157170429Y-74077262D01*
X157298757Y-73999390D01*
X157298756Y-73999390D01*
X157303317Y-73996623D01*
X157385104Y-73925652D01*
X157473412Y-73849023D01*
X157473414Y-73849021D01*
X157477445Y-73845523D01*
X157507006Y-73809471D01*
X157565666Y-73769476D01*
X157636636Y-73767545D01*
X157697384Y-73804290D01*
X157711584Y-73823059D01*
X157798063Y-73962807D01*
X157807099Y-73974208D01*
X157921829Y-74088739D01*
X157933240Y-74097751D01*
X158071243Y-74182816D01*
X158084424Y-74188963D01*
X158238710Y-74240138D01*
X158252086Y-74243005D01*
X158346438Y-74252672D01*
X158352854Y-74253000D01*
X158727885Y-74253000D01*
X158743124Y-74248525D01*
X158744329Y-74247135D01*
X158746000Y-74239452D01*
X158746000Y-74234884D01*
X159254000Y-74234884D01*
X159258475Y-74250123D01*
X159259865Y-74251328D01*
X159267548Y-74252999D01*
X159647095Y-74252999D01*
X159653614Y-74252662D01*
X159749206Y-74242743D01*
X159762600Y-74239851D01*
X159916784Y-74188412D01*
X159929962Y-74182239D01*
X160067807Y-74096937D01*
X160079208Y-74087901D01*
X160193739Y-73973171D01*
X160202751Y-73961760D01*
X160287816Y-73823757D01*
X160293963Y-73810576D01*
X160345138Y-73656290D01*
X160348005Y-73642914D01*
X160357672Y-73548562D01*
X160358000Y-73542146D01*
X160358000Y-73042115D01*
X160353525Y-73026876D01*
X160352135Y-73025671D01*
X160344452Y-73024000D01*
X159272115Y-73024000D01*
X159256876Y-73028475D01*
X159255671Y-73029865D01*
X159254000Y-73037548D01*
X159254000Y-74234884D01*
X158746000Y-74234884D01*
X158746000Y-72497885D01*
X159254000Y-72497885D01*
X159258475Y-72513124D01*
X159259865Y-72514329D01*
X159267548Y-72516000D01*
X160339884Y-72516000D01*
X160355123Y-72511525D01*
X160356328Y-72510135D01*
X160357999Y-72502452D01*
X160357999Y-71997905D01*
X160357662Y-71991386D01*
X160347743Y-71895794D01*
X160344851Y-71882400D01*
X160293412Y-71728216D01*
X160287239Y-71715038D01*
X160201937Y-71577193D01*
X160192901Y-71565792D01*
X160078171Y-71451261D01*
X160066760Y-71442249D01*
X159928757Y-71357184D01*
X159915576Y-71351037D01*
X159761290Y-71299862D01*
X159747914Y-71296995D01*
X159653562Y-71287328D01*
X159647145Y-71287000D01*
X159272115Y-71287000D01*
X159256876Y-71291475D01*
X159255671Y-71292865D01*
X159254000Y-71300548D01*
X159254000Y-72497885D01*
X158746000Y-72497885D01*
X158746000Y-71305116D01*
X158741525Y-71289877D01*
X158740135Y-71288672D01*
X158732452Y-71287001D01*
X158352905Y-71287001D01*
X158346386Y-71287338D01*
X158250794Y-71297257D01*
X158237400Y-71300149D01*
X158083216Y-71351588D01*
X158070038Y-71357761D01*
X157932193Y-71443063D01*
X157920792Y-71452099D01*
X157806261Y-71566829D01*
X157797247Y-71578243D01*
X157711277Y-71717713D01*
X157658505Y-71765207D01*
X157588434Y-71776631D01*
X157523310Y-71748357D01*
X157512847Y-71738570D01*
X157497803Y-71722799D01*
X157403424Y-71623865D01*
X157218458Y-71486246D01*
X157213707Y-71483830D01*
X157213703Y-71483828D01*
X157091731Y-71421815D01*
X157012949Y-71381760D01*
X157007855Y-71380178D01*
X157007852Y-71380177D01*
X156797871Y-71314976D01*
X156792773Y-71313393D01*
X156767965Y-71310105D01*
X156569511Y-71283802D01*
X156569506Y-71283802D01*
X156564226Y-71283102D01*
X156558897Y-71283302D01*
X156558895Y-71283302D01*
X156460368Y-71287001D01*
X156333842Y-71291751D01*
X156328623Y-71292846D01*
X156320573Y-71294535D01*
X156108209Y-71339093D01*
X156103250Y-71341051D01*
X156103248Y-71341052D01*
X155898744Y-71421815D01*
X155898742Y-71421816D01*
X155893779Y-71423776D01*
X155889220Y-71426543D01*
X155889217Y-71426544D01*
X155752354Y-71509595D01*
X155696683Y-71543377D01*
X155692653Y-71546874D01*
X155535385Y-71683344D01*
X155522555Y-71694477D01*
X155519168Y-71698608D01*
X155379760Y-71868627D01*
X155379756Y-71868633D01*
X155376376Y-71872755D01*
X155358448Y-71904250D01*
X155307368Y-71953555D01*
X155237738Y-71967417D01*
X155171667Y-71941434D01*
X155144427Y-71912284D01*
X155065539Y-71795108D01*
X155062559Y-71790681D01*
X155012848Y-71738570D01*
X154920824Y-71642105D01*
X154903424Y-71623865D01*
X154718458Y-71486246D01*
X154713707Y-71483830D01*
X154713703Y-71483828D01*
X154591731Y-71421815D01*
X154512949Y-71381760D01*
X154507855Y-71380178D01*
X154507852Y-71380177D01*
X154297871Y-71314976D01*
X154292773Y-71313393D01*
X154267965Y-71310105D01*
X154069511Y-71283802D01*
X154069506Y-71283802D01*
X154064226Y-71283102D01*
X154058897Y-71283302D01*
X154058895Y-71283302D01*
X153960368Y-71287001D01*
X153833842Y-71291751D01*
X153828623Y-71292846D01*
X153820573Y-71294535D01*
X153608209Y-71339093D01*
X153603250Y-71341051D01*
X153603248Y-71341052D01*
X153398744Y-71421815D01*
X153398742Y-71421816D01*
X153393779Y-71423776D01*
X153389220Y-71426543D01*
X153389217Y-71426544D01*
X153252354Y-71509595D01*
X153196683Y-71543377D01*
X153192653Y-71546874D01*
X153035385Y-71683344D01*
X153022555Y-71694477D01*
X153019168Y-71698608D01*
X152879760Y-71868627D01*
X152879756Y-71868633D01*
X152876376Y-71872755D01*
X152858448Y-71904250D01*
X152807368Y-71953555D01*
X152737738Y-71967417D01*
X152671667Y-71941434D01*
X152644427Y-71912284D01*
X152565539Y-71795108D01*
X152562559Y-71790681D01*
X152512848Y-71738570D01*
X152420824Y-71642105D01*
X152403424Y-71623865D01*
X152218458Y-71486246D01*
X152213707Y-71483830D01*
X152213703Y-71483828D01*
X152091731Y-71421815D01*
X152012949Y-71381760D01*
X152007855Y-71380178D01*
X152007852Y-71380177D01*
X151797871Y-71314976D01*
X151792773Y-71313393D01*
X151767965Y-71310105D01*
X151569511Y-71283802D01*
X151569506Y-71283802D01*
X151564226Y-71283102D01*
X151558897Y-71283302D01*
X151558895Y-71283302D01*
X151460368Y-71287001D01*
X151333842Y-71291751D01*
X151328623Y-71292846D01*
X151320573Y-71294535D01*
X151108209Y-71339093D01*
X151103250Y-71341051D01*
X151103248Y-71341052D01*
X150898744Y-71421815D01*
X150898742Y-71421816D01*
X150893779Y-71423776D01*
X150889220Y-71426543D01*
X150889217Y-71426544D01*
X150752354Y-71509595D01*
X150696683Y-71543377D01*
X150692653Y-71546874D01*
X150535385Y-71683344D01*
X150522555Y-71694477D01*
X150519168Y-71698608D01*
X150379760Y-71868627D01*
X150379756Y-71868633D01*
X150376376Y-71872755D01*
X150373738Y-71877390D01*
X150373735Y-71877394D01*
X150320119Y-71971585D01*
X150262325Y-72073114D01*
X150183663Y-72289825D01*
X150182714Y-72295074D01*
X150182713Y-72295077D01*
X150143377Y-72512608D01*
X150143376Y-72512615D01*
X150142639Y-72516692D01*
X150141500Y-72540844D01*
X150141500Y-72952890D01*
X150146217Y-73008482D01*
X150155611Y-73119190D01*
X150156080Y-73124720D01*
X150157418Y-73129875D01*
X150157419Y-73129881D01*
X150212657Y-73342703D01*
X150213999Y-73347872D01*
X150308688Y-73558075D01*
X150437441Y-73749319D01*
X150596576Y-73916135D01*
X150600854Y-73919318D01*
X150657898Y-73961760D01*
X150781542Y-74053754D01*
X150786293Y-74056170D01*
X150786297Y-74056172D01*
X150866477Y-74096937D01*
X150987051Y-74158240D01*
X150992151Y-74159824D01*
X150992152Y-74159824D01*
X151138182Y-74205168D01*
X151197308Y-74244471D01*
X151225798Y-74309500D01*
X151214608Y-74379609D01*
X151167291Y-74432539D01*
X151100818Y-74451500D01*
X146784733Y-74451500D01*
X146716612Y-74431498D01*
X146691097Y-74409810D01*
X146615675Y-74326045D01*
X146615674Y-74326044D01*
X146611253Y-74321134D01*
X146503695Y-74242988D01*
X146462094Y-74212763D01*
X146462093Y-74212762D01*
X146456752Y-74208882D01*
X146450724Y-74206198D01*
X146450722Y-74206197D01*
X146288319Y-74133891D01*
X146288318Y-74133891D01*
X146282288Y-74131206D01*
X146188888Y-74111353D01*
X146101944Y-74092872D01*
X146101939Y-74092872D01*
X146095487Y-74091500D01*
X146065897Y-74091500D01*
X145997776Y-74071498D01*
X145955871Y-74022668D01*
X145954527Y-74023444D01*
X145937023Y-73993126D01*
X145859040Y-73858056D01*
X145837131Y-73833723D01*
X145735675Y-73721045D01*
X145735674Y-73721044D01*
X145731253Y-73716134D01*
X145576752Y-73603882D01*
X145570724Y-73601198D01*
X145570722Y-73601197D01*
X145408319Y-73528891D01*
X145408318Y-73528891D01*
X145402288Y-73526206D01*
X145308887Y-73506353D01*
X145221944Y-73487872D01*
X145221939Y-73487872D01*
X145215487Y-73486500D01*
X145024513Y-73486500D01*
X145018061Y-73487872D01*
X145018056Y-73487872D01*
X144931113Y-73506353D01*
X144837712Y-73526206D01*
X144831682Y-73528891D01*
X144831681Y-73528891D01*
X144669279Y-73601197D01*
X144663248Y-73603882D01*
X144657973Y-73607714D01*
X144589008Y-73624447D01*
X144532030Y-73607717D01*
X144526752Y-73603882D01*
X144520722Y-73601197D01*
X144358319Y-73528891D01*
X144358318Y-73528891D01*
X144352288Y-73526206D01*
X144258887Y-73506353D01*
X144171944Y-73487872D01*
X144171939Y-73487872D01*
X144165487Y-73486500D01*
X143974513Y-73486500D01*
X143968061Y-73487872D01*
X143968056Y-73487872D01*
X143881113Y-73506353D01*
X143787712Y-73526206D01*
X143781682Y-73528891D01*
X143781681Y-73528891D01*
X143619279Y-73601197D01*
X143613248Y-73603882D01*
X143607973Y-73607714D01*
X143539008Y-73624447D01*
X143482030Y-73607717D01*
X143476752Y-73603882D01*
X143470722Y-73601197D01*
X143308319Y-73528891D01*
X143308318Y-73528891D01*
X143302288Y-73526206D01*
X143208887Y-73506353D01*
X143121944Y-73487872D01*
X143121939Y-73487872D01*
X143115487Y-73486500D01*
X142924513Y-73486500D01*
X142918061Y-73487872D01*
X142918056Y-73487872D01*
X142831113Y-73506353D01*
X142737712Y-73526206D01*
X142731682Y-73528891D01*
X142731681Y-73528891D01*
X142569278Y-73601197D01*
X142569276Y-73601198D01*
X142563248Y-73603882D01*
X142408747Y-73716134D01*
X142404326Y-73721044D01*
X142404325Y-73721045D01*
X142302870Y-73833723D01*
X142280960Y-73858056D01*
X142277659Y-73863774D01*
X142199361Y-73999390D01*
X142185473Y-74023444D01*
X142126458Y-74205072D01*
X142125768Y-74211633D01*
X142125768Y-74211635D01*
X142113743Y-74326045D01*
X142106496Y-74395000D01*
X142107186Y-74401565D01*
X142123218Y-74554097D01*
X142126458Y-74584928D01*
X142185473Y-74766556D01*
X142280960Y-74931944D01*
X142354137Y-75013215D01*
X142384853Y-75077221D01*
X142386500Y-75097524D01*
X142386500Y-78631951D01*
X142385973Y-78643134D01*
X142384298Y-78650627D01*
X142384547Y-78658553D01*
X142384547Y-78658554D01*
X142386438Y-78718704D01*
X142386500Y-78722663D01*
X142386500Y-78750574D01*
X142386997Y-78754508D01*
X142386997Y-78754509D01*
X142387005Y-78754574D01*
X142387938Y-78766411D01*
X142389327Y-78810607D01*
X142394978Y-78830057D01*
X142398987Y-78849418D01*
X142401526Y-78869515D01*
X142404445Y-78876886D01*
X142404445Y-78876888D01*
X142417804Y-78910630D01*
X142421649Y-78921860D01*
X142433982Y-78964311D01*
X142438015Y-78971130D01*
X142438017Y-78971135D01*
X142444293Y-78981746D01*
X142452988Y-78999494D01*
X142460448Y-79018335D01*
X142465110Y-79024751D01*
X142465110Y-79024752D01*
X142486436Y-79054105D01*
X142492952Y-79064025D01*
X142497187Y-79071185D01*
X142515458Y-79102080D01*
X142529779Y-79116401D01*
X142542619Y-79131434D01*
X142554528Y-79147825D01*
X142560634Y-79152876D01*
X142588605Y-79176016D01*
X142597384Y-79184006D01*
X146055271Y-82641894D01*
X146089297Y-82704206D01*
X146084232Y-82775022D01*
X146041685Y-82831857D01*
X145975165Y-82856668D01*
X145966176Y-82856989D01*
X141658279Y-82856989D01*
X141647096Y-82856462D01*
X141639603Y-82854787D01*
X141631677Y-82855036D01*
X141631676Y-82855036D01*
X141571513Y-82856927D01*
X141567555Y-82856989D01*
X141539655Y-82856989D01*
X141535665Y-82857493D01*
X141523831Y-82858425D01*
X141479622Y-82859815D01*
X141472008Y-82862027D01*
X141472003Y-82862028D01*
X141460170Y-82865466D01*
X141440807Y-82869477D01*
X141420714Y-82872015D01*
X141413347Y-82874932D01*
X141413342Y-82874933D01*
X141379603Y-82888291D01*
X141368376Y-82892135D01*
X141325918Y-82904471D01*
X141319092Y-82908508D01*
X141308483Y-82914782D01*
X141290735Y-82923477D01*
X141271894Y-82930937D01*
X141265478Y-82935599D01*
X141265477Y-82935599D01*
X141236124Y-82956925D01*
X141226204Y-82963441D01*
X141194976Y-82981909D01*
X141194973Y-82981911D01*
X141188149Y-82985947D01*
X141173828Y-83000268D01*
X141158795Y-83013108D01*
X141142404Y-83025017D01*
X141137353Y-83031123D01*
X141114213Y-83059094D01*
X141106223Y-83067873D01*
X139934500Y-84239595D01*
X139872188Y-84273621D01*
X139845405Y-84276500D01*
X138225340Y-84276500D01*
X138157219Y-84256498D01*
X138110726Y-84202842D01*
X138100622Y-84132568D01*
X138104782Y-84113871D01*
X138126298Y-84043053D01*
X138132370Y-84023069D01*
X138161529Y-83801590D01*
X138161615Y-83798069D01*
X138163074Y-83738365D01*
X138163074Y-83738361D01*
X138163156Y-83735000D01*
X138144852Y-83512361D01*
X138090431Y-83295702D01*
X138001354Y-83090840D01*
X137916979Y-82960416D01*
X137882822Y-82907617D01*
X137882820Y-82907614D01*
X137880014Y-82903277D01*
X137729670Y-82738051D01*
X137725619Y-82734852D01*
X137725615Y-82734848D01*
X137558414Y-82602800D01*
X137558410Y-82602798D01*
X137554359Y-82599598D01*
X137513053Y-82576796D01*
X137463084Y-82526364D01*
X137448312Y-82456921D01*
X137473428Y-82390516D01*
X137500780Y-82363909D01*
X137569007Y-82315243D01*
X137679860Y-82236173D01*
X137692320Y-82223757D01*
X137771461Y-82144892D01*
X137838096Y-82078489D01*
X137843552Y-82070897D01*
X137965435Y-81901277D01*
X137968453Y-81897077D01*
X137988193Y-81857137D01*
X138065136Y-81701453D01*
X138065137Y-81701451D01*
X138067430Y-81696811D01*
X138114733Y-81541118D01*
X138130865Y-81488023D01*
X138130865Y-81488021D01*
X138132370Y-81483069D01*
X138161529Y-81261590D01*
X138161615Y-81258069D01*
X138163074Y-81198365D01*
X138163074Y-81198361D01*
X138163156Y-81195000D01*
X138144852Y-80972361D01*
X138090431Y-80755702D01*
X138001354Y-80550840D01*
X137950888Y-80472832D01*
X137882822Y-80367617D01*
X137882820Y-80367614D01*
X137880014Y-80363277D01*
X137729670Y-80198051D01*
X137725619Y-80194852D01*
X137725615Y-80194848D01*
X137558414Y-80062800D01*
X137558410Y-80062798D01*
X137554359Y-80059598D01*
X137513053Y-80036796D01*
X137463084Y-79986364D01*
X137448312Y-79916921D01*
X137473428Y-79850516D01*
X137500780Y-79823909D01*
X137570227Y-79774373D01*
X137679860Y-79696173D01*
X137684298Y-79691751D01*
X137761209Y-79615107D01*
X137838096Y-79538489D01*
X137853357Y-79517251D01*
X137878865Y-79481754D01*
X137934860Y-79438107D01*
X138005563Y-79431661D01*
X138070282Y-79466186D01*
X139302878Y-80698782D01*
X139336904Y-80761094D01*
X139339092Y-80774703D01*
X139356458Y-80939928D01*
X139415473Y-81121556D01*
X139510960Y-81286944D01*
X139515378Y-81291851D01*
X139515379Y-81291852D01*
X139634325Y-81423955D01*
X139638747Y-81428866D01*
X139793248Y-81541118D01*
X139799276Y-81543802D01*
X139799278Y-81543803D01*
X139914467Y-81595088D01*
X139967712Y-81618794D01*
X140061113Y-81638647D01*
X140148056Y-81657128D01*
X140148061Y-81657128D01*
X140154513Y-81658500D01*
X140345487Y-81658500D01*
X140351939Y-81657128D01*
X140351944Y-81657128D01*
X140438887Y-81638647D01*
X140532288Y-81618794D01*
X140585533Y-81595088D01*
X140700722Y-81543803D01*
X140700724Y-81543802D01*
X140706752Y-81541118D01*
X140861253Y-81428866D01*
X140865675Y-81423955D01*
X140984621Y-81291852D01*
X140984622Y-81291851D01*
X140989040Y-81286944D01*
X141084527Y-81121556D01*
X141143542Y-80939928D01*
X141146674Y-80910135D01*
X141162814Y-80756565D01*
X141163504Y-80750000D01*
X141143542Y-80560072D01*
X141084527Y-80378444D01*
X140989040Y-80213056D01*
X140977285Y-80200000D01*
X140865675Y-80076045D01*
X140865674Y-80076044D01*
X140861253Y-80071134D01*
X140726254Y-79973051D01*
X140712094Y-79962763D01*
X140712093Y-79962762D01*
X140706752Y-79958882D01*
X140700724Y-79956198D01*
X140700722Y-79956197D01*
X140538319Y-79883891D01*
X140538318Y-79883891D01*
X140532288Y-79881206D01*
X140438887Y-79861353D01*
X140351944Y-79842872D01*
X140351939Y-79842872D01*
X140345487Y-79841500D01*
X140289595Y-79841500D01*
X140221474Y-79821498D01*
X140200500Y-79804595D01*
X138658652Y-78262747D01*
X138651112Y-78254461D01*
X138647000Y-78247982D01*
X138597348Y-78201356D01*
X138594507Y-78198602D01*
X138574770Y-78178865D01*
X138571573Y-78176385D01*
X138562551Y-78168680D01*
X138551965Y-78158739D01*
X138530321Y-78138414D01*
X138523375Y-78134595D01*
X138523372Y-78134593D01*
X138512566Y-78128652D01*
X138496047Y-78117801D01*
X138495583Y-78117441D01*
X138480041Y-78105386D01*
X138472772Y-78102241D01*
X138472768Y-78102238D01*
X138439463Y-78087826D01*
X138428813Y-78082609D01*
X138390060Y-78061305D01*
X138370437Y-78056267D01*
X138351734Y-78049863D01*
X138340420Y-78044967D01*
X138340419Y-78044967D01*
X138333145Y-78041819D01*
X138325322Y-78040580D01*
X138325312Y-78040577D01*
X138289476Y-78034901D01*
X138277856Y-78032495D01*
X138242711Y-78023472D01*
X138242710Y-78023472D01*
X138235030Y-78021500D01*
X138214776Y-78021500D01*
X138195065Y-78019949D01*
X138182886Y-78018020D01*
X138175057Y-78016780D01*
X138167165Y-78017526D01*
X138131039Y-78020941D01*
X138119181Y-78021500D01*
X138076805Y-78021500D01*
X138008684Y-78001498D01*
X137971013Y-77963940D01*
X137882822Y-77827617D01*
X137882820Y-77827614D01*
X137880014Y-77823277D01*
X137729670Y-77658051D01*
X137725619Y-77654852D01*
X137725615Y-77654848D01*
X137558414Y-77522800D01*
X137558410Y-77522798D01*
X137554359Y-77519598D01*
X137512569Y-77496529D01*
X137462598Y-77446097D01*
X137447826Y-77376654D01*
X137472942Y-77310248D01*
X137500294Y-77283641D01*
X137675328Y-77158792D01*
X137683200Y-77152139D01*
X137834052Y-77001812D01*
X137840730Y-76993965D01*
X137965003Y-76821020D01*
X137970313Y-76812183D01*
X138064670Y-76621267D01*
X138068469Y-76611672D01*
X138130377Y-76407910D01*
X138132555Y-76397837D01*
X138133986Y-76386962D01*
X138131775Y-76372778D01*
X138118617Y-76369000D01*
X135483225Y-76369000D01*
X135469694Y-76372973D01*
X135468257Y-76382966D01*
X135498565Y-76517446D01*
X135501645Y-76527275D01*
X135581770Y-76724603D01*
X135586413Y-76733794D01*
X135697694Y-76915388D01*
X135703777Y-76923699D01*
X135843213Y-77084667D01*
X135850580Y-77091883D01*
X136014434Y-77227916D01*
X136022881Y-77233831D01*
X136091969Y-77274203D01*
X136140693Y-77325842D01*
X136153764Y-77395625D01*
X136127033Y-77461396D01*
X136086584Y-77494752D01*
X136073607Y-77501507D01*
X136069474Y-77504610D01*
X136069471Y-77504612D01*
X135899100Y-77632530D01*
X135894965Y-77635635D01*
X135891393Y-77639373D01*
X135751426Y-77785840D01*
X135740629Y-77797138D01*
X135737715Y-77801410D01*
X135737714Y-77801411D01*
X135725404Y-77819457D01*
X135614743Y-77981680D01*
X135576011Y-78065121D01*
X135525207Y-78174570D01*
X135520688Y-78184305D01*
X135460989Y-78399570D01*
X135437251Y-78621695D01*
X135437548Y-78626848D01*
X135437548Y-78626851D01*
X135445155Y-78758774D01*
X135450110Y-78844715D01*
X135451247Y-78849761D01*
X135451248Y-78849767D01*
X135468622Y-78926857D01*
X135499222Y-79062639D01*
X135546794Y-79179795D01*
X135567460Y-79230689D01*
X135583266Y-79269616D01*
X135607695Y-79309480D01*
X135683323Y-79432894D01*
X135699987Y-79460088D01*
X135846250Y-79628938D01*
X136018126Y-79771632D01*
X136074536Y-79804595D01*
X136091445Y-79814476D01*
X136140169Y-79866114D01*
X136153240Y-79935897D01*
X136126509Y-80001669D01*
X136086055Y-80035027D01*
X136073607Y-80041507D01*
X136069474Y-80044610D01*
X136069471Y-80044612D01*
X135899100Y-80172530D01*
X135894965Y-80175635D01*
X135882284Y-80188905D01*
X135751426Y-80325840D01*
X135740629Y-80337138D01*
X135737715Y-80341410D01*
X135737714Y-80341411D01*
X135698767Y-80398505D01*
X135614743Y-80521680D01*
X135599836Y-80553794D01*
X135525151Y-80714691D01*
X135520688Y-80724305D01*
X135460989Y-80939570D01*
X135437251Y-81161695D01*
X135437548Y-81166853D01*
X135437422Y-81172024D01*
X135435914Y-81171987D01*
X135421410Y-81234485D01*
X135370518Y-81283988D01*
X135300942Y-81298118D01*
X135234771Y-81272389D01*
X135222574Y-81261670D01*
X134359410Y-80398505D01*
X133278264Y-79317359D01*
X133244238Y-79255047D01*
X133241359Y-79228264D01*
X133241359Y-74473134D01*
X135441500Y-74473134D01*
X135448255Y-74535316D01*
X135499385Y-74671705D01*
X135586739Y-74788261D01*
X135703295Y-74875615D01*
X135711704Y-74878767D01*
X135711705Y-74878768D01*
X135820960Y-74919726D01*
X135877725Y-74962367D01*
X135902425Y-75028929D01*
X135887218Y-75098278D01*
X135867825Y-75124759D01*
X135744590Y-75253717D01*
X135738104Y-75261727D01*
X135618098Y-75437649D01*
X135613000Y-75446623D01*
X135523338Y-75639783D01*
X135519775Y-75649470D01*
X135464389Y-75849183D01*
X135465912Y-75857607D01*
X135478292Y-75861000D01*
X138118344Y-75861000D01*
X138131875Y-75857027D01*
X138133180Y-75847947D01*
X138091214Y-75680875D01*
X138087894Y-75671124D01*
X138002972Y-75475814D01*
X137998105Y-75466739D01*
X137882426Y-75287926D01*
X137876136Y-75279757D01*
X137732293Y-75121677D01*
X137701241Y-75057831D01*
X137709635Y-74987333D01*
X137754812Y-74932564D01*
X137781256Y-74918895D01*
X137888297Y-74878767D01*
X137896705Y-74875615D01*
X138013261Y-74788261D01*
X138100615Y-74671705D01*
X138151745Y-74535316D01*
X138158500Y-74473134D01*
X138158500Y-72676866D01*
X138151745Y-72614684D01*
X138100615Y-72478295D01*
X138013261Y-72361739D01*
X137896705Y-72274385D01*
X137760316Y-72223255D01*
X137698134Y-72216500D01*
X135901866Y-72216500D01*
X135839684Y-72223255D01*
X135703295Y-72274385D01*
X135586739Y-72361739D01*
X135499385Y-72478295D01*
X135448255Y-72614684D01*
X135441500Y-72676866D01*
X135441500Y-74473134D01*
X133241359Y-74473134D01*
X133241359Y-71920908D01*
X133241886Y-71909725D01*
X133243561Y-71902232D01*
X133242635Y-71872755D01*
X133241421Y-71834155D01*
X133241359Y-71830196D01*
X133241359Y-71802285D01*
X133240854Y-71798285D01*
X133239921Y-71786442D01*
X133238781Y-71750170D01*
X133238532Y-71742251D01*
X133232881Y-71722799D01*
X133228873Y-71703447D01*
X133227326Y-71691204D01*
X133226333Y-71683344D01*
X133223415Y-71675973D01*
X133210059Y-71642238D01*
X133206214Y-71631011D01*
X133203213Y-71620682D01*
X133193877Y-71588548D01*
X133189843Y-71581726D01*
X133189840Y-71581720D01*
X133183565Y-71571109D01*
X133174869Y-71553359D01*
X133170331Y-71541897D01*
X133170328Y-71541892D01*
X133167411Y-71534524D01*
X133141432Y-71498766D01*
X133134916Y-71488848D01*
X133116434Y-71457598D01*
X133112401Y-71450778D01*
X133098077Y-71436454D01*
X133085235Y-71421419D01*
X133073331Y-71405034D01*
X133039265Y-71376852D01*
X133030486Y-71368863D01*
X131044859Y-69383236D01*
X131037319Y-69374950D01*
X131033207Y-69368471D01*
X130983555Y-69321845D01*
X130980714Y-69319091D01*
X130960977Y-69299354D01*
X130957780Y-69296874D01*
X130948758Y-69289169D01*
X130935329Y-69276558D01*
X130916528Y-69258903D01*
X130909582Y-69255084D01*
X130909579Y-69255082D01*
X130898773Y-69249141D01*
X130882254Y-69238290D01*
X130881790Y-69237930D01*
X130866248Y-69225875D01*
X130858979Y-69222730D01*
X130858975Y-69222727D01*
X130825670Y-69208315D01*
X130815020Y-69203098D01*
X130776267Y-69181794D01*
X130756644Y-69176756D01*
X130737941Y-69170352D01*
X130726627Y-69165456D01*
X130726626Y-69165456D01*
X130719352Y-69162308D01*
X130711529Y-69161069D01*
X130711519Y-69161066D01*
X130675683Y-69155390D01*
X130664063Y-69152984D01*
X130628918Y-69143961D01*
X130628917Y-69143961D01*
X130621237Y-69141989D01*
X130600983Y-69141989D01*
X130581272Y-69140438D01*
X130569093Y-69138509D01*
X130561264Y-69137269D01*
X130531993Y-69140036D01*
X130517246Y-69141430D01*
X130505388Y-69141989D01*
X125683278Y-69141989D01*
X125672095Y-69141462D01*
X125664602Y-69139787D01*
X125656676Y-69140036D01*
X125656675Y-69140036D01*
X125596525Y-69141927D01*
X125592566Y-69141989D01*
X125564655Y-69141989D01*
X125560721Y-69142486D01*
X125560720Y-69142486D01*
X125560655Y-69142494D01*
X125548818Y-69143427D01*
X125516560Y-69144441D01*
X125512541Y-69144567D01*
X125504622Y-69144816D01*
X125485168Y-69150468D01*
X125465811Y-69154476D01*
X125453581Y-69156021D01*
X125453580Y-69156021D01*
X125445714Y-69157015D01*
X125438343Y-69159934D01*
X125438341Y-69159934D01*
X125404599Y-69173293D01*
X125393369Y-69177138D01*
X125358528Y-69187260D01*
X125358527Y-69187260D01*
X125350918Y-69189471D01*
X125344099Y-69193504D01*
X125344094Y-69193506D01*
X125333483Y-69199782D01*
X125315735Y-69208477D01*
X125296894Y-69215937D01*
X125290478Y-69220599D01*
X125290477Y-69220599D01*
X125261124Y-69241925D01*
X125251204Y-69248441D01*
X125219976Y-69266909D01*
X125219973Y-69266911D01*
X125213149Y-69270947D01*
X125198828Y-69285268D01*
X125183795Y-69298108D01*
X125167404Y-69310017D01*
X125158728Y-69320505D01*
X125139213Y-69344094D01*
X125131223Y-69352873D01*
X122974500Y-71509595D01*
X122912188Y-71543621D01*
X122885405Y-71546500D01*
X119904595Y-71546500D01*
X119836474Y-71526498D01*
X119815500Y-71509595D01*
X119185321Y-70879416D01*
X119151295Y-70817104D01*
X119154583Y-70751385D01*
X119211502Y-70576206D01*
X119213542Y-70569928D01*
X119233504Y-70380000D01*
X119213542Y-70190072D01*
X119154527Y-70008444D01*
X119059040Y-69843056D01*
X119018391Y-69797910D01*
X118935675Y-69706045D01*
X118935674Y-69706044D01*
X118931253Y-69701134D01*
X118776752Y-69588882D01*
X118770724Y-69586198D01*
X118770722Y-69586197D01*
X118608319Y-69513891D01*
X118608318Y-69513891D01*
X118602288Y-69511206D01*
X118508888Y-69491353D01*
X118421944Y-69472872D01*
X118421939Y-69472872D01*
X118415487Y-69471500D01*
X118224513Y-69471500D01*
X118218061Y-69472872D01*
X118218056Y-69472872D01*
X118131112Y-69491353D01*
X118037712Y-69511206D01*
X118031682Y-69513891D01*
X118031681Y-69513891D01*
X117869278Y-69586197D01*
X117869276Y-69586198D01*
X117863248Y-69588882D01*
X117708747Y-69701134D01*
X117704326Y-69706044D01*
X117704325Y-69706045D01*
X117621610Y-69797910D01*
X117580960Y-69843056D01*
X117485473Y-70008444D01*
X117426458Y-70190072D01*
X117406496Y-70380000D01*
X117426458Y-70569928D01*
X117485473Y-70751556D01*
X117580960Y-70916944D01*
X117675806Y-71022281D01*
X117700885Y-71069052D01*
X117701526Y-71068798D01*
X117704445Y-71076168D01*
X117704445Y-71076170D01*
X117717804Y-71109912D01*
X117721649Y-71121142D01*
X117733982Y-71163593D01*
X117738015Y-71170412D01*
X117738017Y-71170417D01*
X117744293Y-71181028D01*
X117752988Y-71198776D01*
X117760448Y-71217617D01*
X117765110Y-71224033D01*
X117765110Y-71224034D01*
X117786436Y-71253387D01*
X117792952Y-71263307D01*
X117810433Y-71292865D01*
X117815458Y-71301362D01*
X117829779Y-71315683D01*
X117842619Y-71330716D01*
X117854528Y-71347107D01*
X117885911Y-71373069D01*
X117888605Y-71375298D01*
X117897384Y-71383288D01*
X119086343Y-72572247D01*
X119093887Y-72580537D01*
X119098000Y-72587018D01*
X119103777Y-72592443D01*
X119147667Y-72633658D01*
X119150509Y-72636413D01*
X119170230Y-72656134D01*
X119173425Y-72658612D01*
X119182447Y-72666318D01*
X119214679Y-72696586D01*
X119221628Y-72700406D01*
X119232432Y-72706346D01*
X119248956Y-72717199D01*
X119264959Y-72729613D01*
X119305543Y-72747176D01*
X119316173Y-72752383D01*
X119354940Y-72773695D01*
X119362617Y-72775666D01*
X119362622Y-72775668D01*
X119374558Y-72778732D01*
X119393266Y-72785137D01*
X119411855Y-72793181D01*
X119419683Y-72794421D01*
X119419690Y-72794423D01*
X119455524Y-72800099D01*
X119467144Y-72802505D01*
X119498959Y-72810673D01*
X119509970Y-72813500D01*
X119530224Y-72813500D01*
X119549934Y-72815051D01*
X119569943Y-72818220D01*
X119577835Y-72817474D01*
X119596580Y-72815702D01*
X119613962Y-72814059D01*
X119625819Y-72813500D01*
X123121233Y-72813500D01*
X123132416Y-72814027D01*
X123139909Y-72815702D01*
X123147835Y-72815453D01*
X123147836Y-72815453D01*
X123207986Y-72813562D01*
X123211945Y-72813500D01*
X123239856Y-72813500D01*
X123243791Y-72813003D01*
X123243856Y-72812995D01*
X123255693Y-72812062D01*
X123287951Y-72811048D01*
X123291970Y-72810922D01*
X123299889Y-72810673D01*
X123319343Y-72805021D01*
X123338700Y-72801013D01*
X123350930Y-72799468D01*
X123350931Y-72799468D01*
X123358797Y-72798474D01*
X123366168Y-72795555D01*
X123366170Y-72795555D01*
X123399912Y-72782196D01*
X123411142Y-72778351D01*
X123445983Y-72768229D01*
X123445984Y-72768229D01*
X123453593Y-72766018D01*
X123460412Y-72761985D01*
X123460417Y-72761983D01*
X123471028Y-72755707D01*
X123488776Y-72747012D01*
X123507617Y-72739552D01*
X123527987Y-72724753D01*
X123543387Y-72713564D01*
X123553307Y-72707048D01*
X123584535Y-72688580D01*
X123584538Y-72688578D01*
X123591362Y-72684542D01*
X123605683Y-72670221D01*
X123620717Y-72657380D01*
X123622432Y-72656134D01*
X123637107Y-72645472D01*
X123665298Y-72611395D01*
X123673288Y-72602616D01*
X125390386Y-70885519D01*
X125452698Y-70851493D01*
X125523514Y-70856558D01*
X125580349Y-70899105D01*
X125588600Y-70911614D01*
X125657658Y-71031226D01*
X125657661Y-71031231D01*
X125660960Y-71036944D01*
X125665378Y-71041851D01*
X125665379Y-71041852D01*
X125731630Y-71115431D01*
X125788747Y-71178866D01*
X125794092Y-71182749D01*
X125794096Y-71182753D01*
X125794634Y-71183144D01*
X125794870Y-71183450D01*
X125798998Y-71187167D01*
X125798318Y-71187922D01*
X125837985Y-71239368D01*
X125844057Y-71310105D01*
X125809663Y-71374171D01*
X119036760Y-78147074D01*
X119023318Y-78158739D01*
X119016680Y-78163723D01*
X118997011Y-78184305D01*
X118943767Y-78240022D01*
X118941768Y-78242066D01*
X118913853Y-78269981D01*
X118912174Y-78271961D01*
X118906142Y-78279073D01*
X118901143Y-78284625D01*
X118850699Y-78337412D01*
X118829876Y-78367938D01*
X118821901Y-78378407D01*
X118797988Y-78406603D01*
X118760475Y-78469282D01*
X118756469Y-78475547D01*
X118742114Y-78496590D01*
X118718231Y-78531601D01*
X118718228Y-78531606D01*
X118715314Y-78535878D01*
X118699754Y-78569400D01*
X118693587Y-78581047D01*
X118677266Y-78608316D01*
X118677263Y-78608323D01*
X118674613Y-78612750D01*
X118672721Y-78617552D01*
X118672719Y-78617557D01*
X118647850Y-78680692D01*
X118644906Y-78687560D01*
X118614163Y-78753790D01*
X118604285Y-78789407D01*
X118600105Y-78801899D01*
X118588457Y-78831467D01*
X118588453Y-78831479D01*
X118586563Y-78836278D01*
X118585482Y-78841320D01*
X118585480Y-78841327D01*
X118571254Y-78907687D01*
X118569470Y-78914947D01*
X118549960Y-78985298D01*
X118549411Y-78990439D01*
X118549409Y-78990447D01*
X118546032Y-79022040D01*
X118543947Y-79035059D01*
X118537287Y-79066125D01*
X118537286Y-79066134D01*
X118536203Y-79071185D01*
X118532892Y-79141412D01*
X118532764Y-79144119D01*
X118532190Y-79151575D01*
X118529357Y-79178080D01*
X118529356Y-79178095D01*
X118529000Y-79181428D01*
X118529000Y-79220959D01*
X118528860Y-79226893D01*
X118524886Y-79311163D01*
X118527241Y-79331206D01*
X118528139Y-79338854D01*
X118529000Y-79353555D01*
X118529000Y-96875902D01*
X118529212Y-96878475D01*
X118529212Y-96878486D01*
X118533724Y-96933365D01*
X118543678Y-97054437D01*
X118602206Y-97287444D01*
X118604268Y-97292187D01*
X118604269Y-97292189D01*
X118621049Y-97330781D01*
X118631500Y-97381024D01*
X118631500Y-97615400D01*
X118631837Y-97618646D01*
X118631837Y-97618650D01*
X118640269Y-97699913D01*
X118642474Y-97721166D01*
X118698450Y-97888946D01*
X118791522Y-98039348D01*
X118916697Y-98164305D01*
X118922927Y-98168145D01*
X118922928Y-98168146D01*
X119060090Y-98252694D01*
X119067262Y-98257115D01*
X119086419Y-98263469D01*
X119228611Y-98310632D01*
X119228613Y-98310632D01*
X119235139Y-98312797D01*
X119241975Y-98313497D01*
X119241978Y-98313498D01*
X119285031Y-98317909D01*
X119339600Y-98323500D01*
X120640400Y-98323500D01*
X120643646Y-98323163D01*
X120643650Y-98323163D01*
X120739308Y-98313238D01*
X120739312Y-98313237D01*
X120746166Y-98312526D01*
X120752702Y-98310345D01*
X120752704Y-98310345D01*
X120893207Y-98263469D01*
X120913946Y-98256550D01*
X121064348Y-98163478D01*
X121189305Y-98038303D01*
X121190221Y-98039217D01*
X121241963Y-98002534D01*
X121312886Y-97999303D01*
X121372021Y-98032594D01*
X124106706Y-100767279D01*
X124140732Y-100829591D01*
X124135667Y-100900406D01*
X124093120Y-100957242D01*
X124027497Y-100981986D01*
X123983289Y-100985465D01*
X123978482Y-100986619D01*
X123978476Y-100986620D01*
X123832609Y-101021640D01*
X123752406Y-101040895D01*
X123747835Y-101042788D01*
X123747833Y-101042789D01*
X123537611Y-101129865D01*
X123537607Y-101129867D01*
X123533037Y-101131760D01*
X123528817Y-101134346D01*
X123334798Y-101253241D01*
X123334792Y-101253245D01*
X123330584Y-101255824D01*
X123242102Y-101331395D01*
X123173226Y-101390221D01*
X123150031Y-101410031D01*
X122995824Y-101590584D01*
X122993245Y-101594792D01*
X122993241Y-101594798D01*
X122913464Y-101724982D01*
X122871760Y-101793037D01*
X122780895Y-102012406D01*
X122725465Y-102243289D01*
X122706835Y-102480000D01*
X122725465Y-102716711D01*
X122726619Y-102721518D01*
X122726620Y-102721524D01*
X122744088Y-102794281D01*
X122780895Y-102947594D01*
X122782788Y-102952165D01*
X122782789Y-102952167D01*
X122845679Y-103103997D01*
X122871760Y-103166963D01*
X122874346Y-103171183D01*
X122993241Y-103365202D01*
X122993245Y-103365208D01*
X122995824Y-103369416D01*
X123150031Y-103549969D01*
X123330584Y-103704176D01*
X123334792Y-103706755D01*
X123334798Y-103706759D01*
X123528817Y-103825654D01*
X123533037Y-103828240D01*
X123537607Y-103830133D01*
X123537611Y-103830135D01*
X123743432Y-103915388D01*
X123752406Y-103919105D01*
X123772504Y-103923930D01*
X123978476Y-103973380D01*
X123978482Y-103973381D01*
X123983289Y-103974535D01*
X124220000Y-103993165D01*
X124456711Y-103974535D01*
X124461518Y-103973381D01*
X124461524Y-103973380D01*
X124667496Y-103923930D01*
X124687594Y-103919105D01*
X124696568Y-103915388D01*
X124902389Y-103830135D01*
X124902393Y-103830133D01*
X124906963Y-103828240D01*
X124911183Y-103825654D01*
X125105202Y-103706759D01*
X125105208Y-103706755D01*
X125109416Y-103704176D01*
X125289969Y-103549969D01*
X125444176Y-103369416D01*
X125446755Y-103365208D01*
X125446759Y-103365202D01*
X125565654Y-103171183D01*
X125568240Y-103166963D01*
X125594322Y-103103997D01*
X125657211Y-102952167D01*
X125657212Y-102952165D01*
X125659105Y-102947594D01*
X125695912Y-102794281D01*
X125713380Y-102721524D01*
X125713381Y-102721518D01*
X125714535Y-102716711D01*
X125718014Y-102672503D01*
X125743299Y-102606162D01*
X125800437Y-102564022D01*
X125871287Y-102559463D01*
X125932721Y-102593294D01*
X127820956Y-104481530D01*
X129707828Y-106368402D01*
X129714544Y-106375667D01*
X129753602Y-106421398D01*
X129757364Y-106424611D01*
X129947506Y-106587008D01*
X129947511Y-106587011D01*
X129951271Y-106590223D01*
X130083307Y-106671135D01*
X130172916Y-106726048D01*
X130177486Y-106727941D01*
X130177490Y-106727943D01*
X130408507Y-106823633D01*
X130413080Y-106825527D01*
X130470262Y-106839255D01*
X130661036Y-106885056D01*
X130661042Y-106885057D01*
X130665849Y-106886211D01*
X130925000Y-106906607D01*
X130984959Y-106901888D01*
X130994845Y-106901500D01*
X137908811Y-106901500D01*
X137918697Y-106901888D01*
X137978656Y-106906607D01*
X138043545Y-106901500D01*
X138043545Y-106901501D01*
X138058648Y-106900312D01*
X138128129Y-106914906D01*
X138178689Y-106964748D01*
X138194276Y-107034012D01*
X138169942Y-107100708D01*
X138157631Y-107115018D01*
X137575043Y-107697606D01*
X137512731Y-107731632D01*
X137485948Y-107734511D01*
X125728833Y-107734511D01*
X125660712Y-107714509D01*
X125614219Y-107660853D01*
X125604115Y-107590579D01*
X125612424Y-107560293D01*
X125657211Y-107452168D01*
X125657213Y-107452161D01*
X125659105Y-107447594D01*
X125703663Y-107261997D01*
X125713380Y-107221524D01*
X125713381Y-107221518D01*
X125714535Y-107216711D01*
X125733165Y-106980000D01*
X125714535Y-106743289D01*
X125711808Y-106731927D01*
X125676858Y-106586351D01*
X125659105Y-106512406D01*
X125624914Y-106429861D01*
X125570135Y-106297611D01*
X125570133Y-106297607D01*
X125568240Y-106293037D01*
X125532770Y-106235156D01*
X125446759Y-106094798D01*
X125446755Y-106094792D01*
X125444176Y-106090584D01*
X125309163Y-105932504D01*
X125293177Y-105913787D01*
X125289969Y-105910031D01*
X125109416Y-105755824D01*
X125105208Y-105753245D01*
X125105202Y-105753241D01*
X124911183Y-105634346D01*
X124906963Y-105631760D01*
X124902393Y-105629867D01*
X124902389Y-105629865D01*
X124692167Y-105542789D01*
X124692165Y-105542788D01*
X124687594Y-105540895D01*
X124577551Y-105514476D01*
X124461524Y-105486620D01*
X124461518Y-105486619D01*
X124456711Y-105485465D01*
X124220000Y-105466835D01*
X123983289Y-105485465D01*
X123978482Y-105486619D01*
X123978476Y-105486620D01*
X123862449Y-105514476D01*
X123752406Y-105540895D01*
X123747835Y-105542788D01*
X123747833Y-105542789D01*
X123537611Y-105629865D01*
X123537607Y-105629867D01*
X123533037Y-105631760D01*
X123528817Y-105634346D01*
X123334798Y-105753241D01*
X123334792Y-105753245D01*
X123330584Y-105755824D01*
X123150031Y-105910031D01*
X123146823Y-105913787D01*
X123130837Y-105932504D01*
X122995824Y-106090584D01*
X122993245Y-106094792D01*
X122993241Y-106094798D01*
X122907230Y-106235156D01*
X122871760Y-106293037D01*
X122869867Y-106297607D01*
X122869865Y-106297611D01*
X122815086Y-106429861D01*
X122780895Y-106512406D01*
X122763142Y-106586351D01*
X122728193Y-106731927D01*
X122725465Y-106743289D01*
X122706835Y-106980000D01*
X122725465Y-107216711D01*
X122726619Y-107221518D01*
X122726620Y-107221524D01*
X122736337Y-107261997D01*
X122780895Y-107447594D01*
X122782787Y-107452161D01*
X122782789Y-107452168D01*
X122827576Y-107560293D01*
X122835165Y-107630883D01*
X122803385Y-107694370D01*
X122742327Y-107730597D01*
X122711167Y-107734511D01*
X119228833Y-107734511D01*
X119160712Y-107714509D01*
X119114219Y-107660853D01*
X119104115Y-107590579D01*
X119112424Y-107560293D01*
X119157211Y-107452168D01*
X119157213Y-107452161D01*
X119159105Y-107447594D01*
X119203663Y-107261997D01*
X119213380Y-107221524D01*
X119213381Y-107221518D01*
X119214535Y-107216711D01*
X119233165Y-106980000D01*
X119214535Y-106743289D01*
X119211808Y-106731927D01*
X119176858Y-106586351D01*
X119159105Y-106512406D01*
X119124914Y-106429861D01*
X119070135Y-106297611D01*
X119070133Y-106297607D01*
X119068240Y-106293037D01*
X119032770Y-106235156D01*
X118946759Y-106094798D01*
X118946755Y-106094792D01*
X118944176Y-106090584D01*
X118809163Y-105932504D01*
X118793177Y-105913787D01*
X118789969Y-105910031D01*
X118609416Y-105755824D01*
X118605208Y-105753245D01*
X118605202Y-105753241D01*
X118411183Y-105634346D01*
X118406963Y-105631760D01*
X118402393Y-105629867D01*
X118402389Y-105629865D01*
X118192167Y-105542789D01*
X118192165Y-105542788D01*
X118187594Y-105540895D01*
X118077551Y-105514476D01*
X117961524Y-105486620D01*
X117961518Y-105486619D01*
X117956711Y-105485465D01*
X117720000Y-105466835D01*
X117483289Y-105485465D01*
X117478482Y-105486619D01*
X117478476Y-105486620D01*
X117362449Y-105514476D01*
X117252406Y-105540895D01*
X117247835Y-105542788D01*
X117247833Y-105542789D01*
X117037611Y-105629865D01*
X117037607Y-105629867D01*
X117033037Y-105631760D01*
X117028817Y-105634346D01*
X116834798Y-105753241D01*
X116834792Y-105753245D01*
X116830584Y-105755824D01*
X116650031Y-105910031D01*
X116646823Y-105913787D01*
X116630837Y-105932504D01*
X116495824Y-106090584D01*
X116493245Y-106094792D01*
X116493241Y-106094798D01*
X116407230Y-106235156D01*
X116371760Y-106293037D01*
X116369867Y-106297607D01*
X116369865Y-106297611D01*
X116315086Y-106429861D01*
X116280895Y-106512406D01*
X116263142Y-106586351D01*
X116228193Y-106731927D01*
X116225465Y-106743289D01*
X116206835Y-106980000D01*
X116225465Y-107216711D01*
X116226619Y-107221518D01*
X116226620Y-107221524D01*
X116236337Y-107261997D01*
X116280895Y-107447594D01*
X116282787Y-107452161D01*
X116282789Y-107452168D01*
X116327576Y-107560293D01*
X116335165Y-107630883D01*
X116303385Y-107694370D01*
X116242327Y-107730597D01*
X116211167Y-107734511D01*
X113109217Y-107734511D01*
X113041096Y-107714509D01*
X112994603Y-107660853D01*
X112984499Y-107590579D01*
X113013993Y-107525999D01*
X113059479Y-107492743D01*
X113215721Y-107425616D01*
X113215723Y-107425615D01*
X113219205Y-107424119D01*
X113501601Y-107260091D01*
X113762245Y-107063324D01*
X113894506Y-106935824D01*
X113994632Y-106839303D01*
X113994635Y-106839300D01*
X113997363Y-106836670D01*
X114109185Y-106699318D01*
X114201155Y-106586351D01*
X114201158Y-106586347D01*
X114203549Y-106583410D01*
X114303744Y-106424611D01*
X114375788Y-106310428D01*
X114375790Y-106310425D01*
X114377815Y-106307215D01*
X114386532Y-106288817D01*
X114467201Y-106118543D01*
X114517638Y-106012084D01*
X114524913Y-105990278D01*
X114619790Y-105705897D01*
X114619792Y-105705891D01*
X114620992Y-105702293D01*
X114686381Y-105382329D01*
X114686794Y-105377262D01*
X114709288Y-105100695D01*
X114712856Y-105056826D01*
X114713451Y-105000000D01*
X114711510Y-104967796D01*
X114694026Y-104677793D01*
X114694026Y-104677789D01*
X114693798Y-104674015D01*
X114688650Y-104645824D01*
X114635805Y-104356473D01*
X114635804Y-104356469D01*
X114635125Y-104352751D01*
X114627722Y-104328907D01*
X114559804Y-104110177D01*
X114538282Y-104040863D01*
X114404670Y-103742869D01*
X114236226Y-103463084D01*
X114233899Y-103460100D01*
X114233894Y-103460093D01*
X114037726Y-103208558D01*
X114037724Y-103208556D01*
X114035390Y-103205563D01*
X113805070Y-102974034D01*
X113548603Y-102771852D01*
X113269705Y-102601945D01*
X113266261Y-102600379D01*
X113266257Y-102600377D01*
X113139398Y-102542698D01*
X113001501Y-102480000D01*
X116206835Y-102480000D01*
X116225465Y-102716711D01*
X116226619Y-102721518D01*
X116226620Y-102721524D01*
X116244088Y-102794281D01*
X116280895Y-102947594D01*
X116282788Y-102952165D01*
X116282789Y-102952167D01*
X116345679Y-103103997D01*
X116371760Y-103166963D01*
X116374346Y-103171183D01*
X116493241Y-103365202D01*
X116493245Y-103365208D01*
X116495824Y-103369416D01*
X116650031Y-103549969D01*
X116830584Y-103704176D01*
X116834792Y-103706755D01*
X116834798Y-103706759D01*
X117028817Y-103825654D01*
X117033037Y-103828240D01*
X117037607Y-103830133D01*
X117037611Y-103830135D01*
X117243432Y-103915388D01*
X117252406Y-103919105D01*
X117272504Y-103923930D01*
X117478476Y-103973380D01*
X117478482Y-103973381D01*
X117483289Y-103974535D01*
X117720000Y-103993165D01*
X117956711Y-103974535D01*
X117961518Y-103973381D01*
X117961524Y-103973380D01*
X118167496Y-103923930D01*
X118187594Y-103919105D01*
X118196568Y-103915388D01*
X118402389Y-103830135D01*
X118402393Y-103830133D01*
X118406963Y-103828240D01*
X118411183Y-103825654D01*
X118605202Y-103706759D01*
X118605208Y-103706755D01*
X118609416Y-103704176D01*
X118789969Y-103549969D01*
X118944176Y-103369416D01*
X118946755Y-103365208D01*
X118946759Y-103365202D01*
X119065654Y-103171183D01*
X119068240Y-103166963D01*
X119094322Y-103103997D01*
X119157211Y-102952167D01*
X119157212Y-102952165D01*
X119159105Y-102947594D01*
X119195912Y-102794281D01*
X119213380Y-102721524D01*
X119213381Y-102721518D01*
X119214535Y-102716711D01*
X119233165Y-102480000D01*
X119214535Y-102243289D01*
X119159105Y-102012406D01*
X119068240Y-101793037D01*
X119026536Y-101724982D01*
X118946759Y-101594798D01*
X118946755Y-101594792D01*
X118944176Y-101590584D01*
X118789969Y-101410031D01*
X118766775Y-101390221D01*
X118697898Y-101331395D01*
X118609416Y-101255824D01*
X118605208Y-101253245D01*
X118605202Y-101253241D01*
X118411183Y-101134346D01*
X118406963Y-101131760D01*
X118402393Y-101129867D01*
X118402389Y-101129865D01*
X118192167Y-101042789D01*
X118192165Y-101042788D01*
X118187594Y-101040895D01*
X118107391Y-101021640D01*
X117961524Y-100986620D01*
X117961518Y-100986619D01*
X117956711Y-100985465D01*
X117720000Y-100966835D01*
X117483289Y-100985465D01*
X117478482Y-100986619D01*
X117478476Y-100986620D01*
X117332609Y-101021640D01*
X117252406Y-101040895D01*
X117247835Y-101042788D01*
X117247833Y-101042789D01*
X117037611Y-101129865D01*
X117037607Y-101129867D01*
X117033037Y-101131760D01*
X117028817Y-101134346D01*
X116834798Y-101253241D01*
X116834792Y-101253245D01*
X116830584Y-101255824D01*
X116742102Y-101331395D01*
X116673226Y-101390221D01*
X116650031Y-101410031D01*
X116495824Y-101590584D01*
X116493245Y-101594792D01*
X116493241Y-101594798D01*
X116413464Y-101724982D01*
X116371760Y-101793037D01*
X116280895Y-102012406D01*
X116225465Y-102243289D01*
X116206835Y-102480000D01*
X113001501Y-102480000D01*
X112972414Y-102466775D01*
X112661037Y-102368300D01*
X112443492Y-102327390D01*
X112343809Y-102308645D01*
X112343807Y-102308645D01*
X112340086Y-102307945D01*
X112014208Y-102286586D01*
X112010428Y-102286794D01*
X112010427Y-102286794D01*
X111912897Y-102292162D01*
X111688124Y-102304532D01*
X111684397Y-102305193D01*
X111684393Y-102305193D01*
X111527340Y-102333027D01*
X111366557Y-102361522D01*
X111362941Y-102362624D01*
X111362933Y-102362626D01*
X111062596Y-102454162D01*
X111054167Y-102456731D01*
X110755477Y-102588781D01*
X110686044Y-102630089D01*
X110478074Y-102753817D01*
X110478068Y-102753821D01*
X110474814Y-102755757D01*
X110471812Y-102758073D01*
X110219897Y-102952425D01*
X110216244Y-102955243D01*
X110213534Y-102957911D01*
X110005819Y-103162389D01*
X109983513Y-103184347D01*
X109981149Y-103187314D01*
X109981146Y-103187317D01*
X109964220Y-103208558D01*
X109779991Y-103439751D01*
X109608626Y-103717757D01*
X109607037Y-103721204D01*
X109477819Y-104001502D01*
X109471902Y-104014336D01*
X109470741Y-104017940D01*
X109470741Y-104017941D01*
X109462545Y-104043393D01*
X109371797Y-104325192D01*
X109371079Y-104328903D01*
X109371078Y-104328907D01*
X109310482Y-104642105D01*
X109310481Y-104642114D01*
X109309763Y-104645824D01*
X109309496Y-104649600D01*
X109309495Y-104649605D01*
X109288890Y-104940629D01*
X109286698Y-104971585D01*
X109291541Y-105068866D01*
X109300863Y-105256109D01*
X109302936Y-105297759D01*
X109303577Y-105301490D01*
X109303578Y-105301498D01*
X109357458Y-105615060D01*
X109358241Y-105619619D01*
X109359329Y-105623258D01*
X109359330Y-105623261D01*
X109444134Y-105906823D01*
X109451814Y-105932504D01*
X109453327Y-105935975D01*
X109453329Y-105935981D01*
X109523816Y-106097703D01*
X109582297Y-106231881D01*
X109584220Y-106235152D01*
X109584222Y-106235156D01*
X109632635Y-106317508D01*
X109747802Y-106513414D01*
X109750103Y-106516429D01*
X109943631Y-106770012D01*
X109943636Y-106770017D01*
X109945931Y-106773025D01*
X110005091Y-106833754D01*
X110147558Y-106980000D01*
X110173814Y-107006953D01*
X110246635Y-107065607D01*
X110425196Y-107209431D01*
X110425201Y-107209435D01*
X110428149Y-107211809D01*
X110705253Y-107384627D01*
X110829683Y-107442782D01*
X110940047Y-107494363D01*
X110993291Y-107541326D01*
X111012692Y-107609621D01*
X110992091Y-107677563D01*
X110938028Y-107723581D01*
X110886697Y-107734511D01*
X107155310Y-107734511D01*
X107087189Y-107714509D01*
X107066215Y-107697606D01*
X106617204Y-107248595D01*
X106583178Y-107186283D01*
X106588243Y-107115468D01*
X106630790Y-107058632D01*
X106697310Y-107033821D01*
X106706299Y-107033500D01*
X106900400Y-107033500D01*
X106903646Y-107033163D01*
X106903650Y-107033163D01*
X106999308Y-107023238D01*
X106999312Y-107023237D01*
X107006166Y-107022526D01*
X107012702Y-107020345D01*
X107012704Y-107020345D01*
X107166998Y-106968868D01*
X107173946Y-106966550D01*
X107324348Y-106873478D01*
X107449305Y-106748303D01*
X107453146Y-106742072D01*
X107538275Y-106603968D01*
X107538276Y-106603966D01*
X107542115Y-106597738D01*
X107597797Y-106429861D01*
X107598578Y-106422245D01*
X107606129Y-106348543D01*
X107608500Y-106325400D01*
X107608500Y-104724600D01*
X107607619Y-104716106D01*
X107598238Y-104625692D01*
X107598237Y-104625688D01*
X107597526Y-104618834D01*
X107593710Y-104607394D01*
X107543868Y-104458002D01*
X107541550Y-104451054D01*
X107448478Y-104300652D01*
X107323303Y-104175695D01*
X107317072Y-104171854D01*
X107178968Y-104086725D01*
X107178966Y-104086724D01*
X107172738Y-104082885D01*
X107069908Y-104048778D01*
X107011389Y-104029368D01*
X107011387Y-104029368D01*
X107004861Y-104027203D01*
X106998025Y-104026503D01*
X106998022Y-104026502D01*
X106954969Y-104022091D01*
X106900400Y-104016500D01*
X105599600Y-104016500D01*
X105596354Y-104016837D01*
X105596350Y-104016837D01*
X105500692Y-104026762D01*
X105500688Y-104026763D01*
X105493834Y-104027474D01*
X105487298Y-104029655D01*
X105487296Y-104029655D01*
X105384463Y-104063963D01*
X105326054Y-104083450D01*
X105175652Y-104176522D01*
X105050695Y-104301697D01*
X105046855Y-104307927D01*
X105046854Y-104307928D01*
X105039440Y-104319956D01*
X104977170Y-104420977D01*
X104960920Y-104447339D01*
X104908148Y-104494832D01*
X104838076Y-104506256D01*
X104772952Y-104477982D01*
X104762490Y-104468195D01*
X104673060Y-104374449D01*
X104653424Y-104353865D01*
X104468458Y-104216246D01*
X104463707Y-104213830D01*
X104463703Y-104213828D01*
X104341731Y-104151815D01*
X104262949Y-104111760D01*
X104257855Y-104110178D01*
X104257852Y-104110177D01*
X104047871Y-104044976D01*
X104042773Y-104043393D01*
X104023684Y-104040863D01*
X103819511Y-104013802D01*
X103819506Y-104013802D01*
X103814226Y-104013102D01*
X103808897Y-104013302D01*
X103808895Y-104013302D01*
X103699034Y-104017427D01*
X103583842Y-104021751D01*
X103578623Y-104022846D01*
X103556566Y-104027474D01*
X103358209Y-104069093D01*
X103353250Y-104071051D01*
X103353248Y-104071052D01*
X103148744Y-104151815D01*
X103148742Y-104151816D01*
X103143779Y-104153776D01*
X103139220Y-104156543D01*
X103139217Y-104156544D01*
X103040832Y-104216246D01*
X102946683Y-104273377D01*
X102942653Y-104276874D01*
X102816099Y-104386692D01*
X102772555Y-104424477D01*
X102753809Y-104447339D01*
X102629760Y-104598627D01*
X102629756Y-104598633D01*
X102626376Y-104602755D01*
X102623737Y-104607391D01*
X102623735Y-104607394D01*
X102561853Y-104716106D01*
X102512325Y-104803114D01*
X102433663Y-105019825D01*
X102432714Y-105025074D01*
X102432713Y-105025077D01*
X102393377Y-105242608D01*
X102393376Y-105242615D01*
X102392639Y-105246692D01*
X102391500Y-105270844D01*
X102391500Y-105732890D01*
X102395732Y-105782763D01*
X102405489Y-105897749D01*
X102406080Y-105904720D01*
X102407418Y-105909875D01*
X102407419Y-105909881D01*
X102462657Y-106122703D01*
X102463999Y-106127872D01*
X102466191Y-106132738D01*
X102466192Y-106132741D01*
X102509283Y-106228400D01*
X102558688Y-106338075D01*
X102687441Y-106529319D01*
X102691120Y-106533176D01*
X102691122Y-106533178D01*
X102748006Y-106592807D01*
X102846576Y-106696135D01*
X102850854Y-106699318D01*
X102886780Y-106726048D01*
X103031542Y-106833754D01*
X103036293Y-106836170D01*
X103036297Y-106836172D01*
X103174070Y-106906219D01*
X103237051Y-106938240D01*
X103239125Y-106938884D01*
X103279695Y-106965788D01*
X105590812Y-109276905D01*
X105624838Y-109339217D01*
X105619773Y-109410032D01*
X105577226Y-109466868D01*
X105510706Y-109491679D01*
X105501717Y-109492000D01*
X100634000Y-109492000D01*
X100565879Y-109471998D01*
X100519386Y-109418342D01*
X100508000Y-109366000D01*
X100508000Y-96750000D01*
X109586496Y-96750000D01*
X109587186Y-96756565D01*
X109602630Y-96903502D01*
X109606458Y-96939928D01*
X109665473Y-97121556D01*
X109668776Y-97127278D01*
X109668777Y-97127279D01*
X109686803Y-97158500D01*
X109760960Y-97286944D01*
X109765378Y-97291851D01*
X109765379Y-97291852D01*
X109800431Y-97330781D01*
X109888747Y-97428866D01*
X110043248Y-97541118D01*
X110049276Y-97543802D01*
X110049278Y-97543803D01*
X110056706Y-97547110D01*
X110217712Y-97618794D01*
X110311112Y-97638647D01*
X110398056Y-97657128D01*
X110398061Y-97657128D01*
X110404513Y-97658500D01*
X110595487Y-97658500D01*
X110601939Y-97657128D01*
X110601944Y-97657128D01*
X110688888Y-97638647D01*
X110782288Y-97618794D01*
X110943294Y-97547110D01*
X110950722Y-97543803D01*
X110950724Y-97543802D01*
X110956752Y-97541118D01*
X111111253Y-97428866D01*
X111199569Y-97330781D01*
X111234621Y-97291852D01*
X111234622Y-97291851D01*
X111239040Y-97286944D01*
X111313197Y-97158500D01*
X111331223Y-97127279D01*
X111331224Y-97127278D01*
X111334527Y-97121556D01*
X111383588Y-96970563D01*
X111423662Y-96911958D01*
X111489059Y-96884321D01*
X111503421Y-96883500D01*
X115041800Y-96883500D01*
X115109921Y-96903502D01*
X115129147Y-96919843D01*
X115129420Y-96919540D01*
X115134332Y-96923963D01*
X115138747Y-96928866D01*
X115293248Y-97041118D01*
X115299276Y-97043802D01*
X115299278Y-97043803D01*
X115357927Y-97069915D01*
X115467712Y-97118794D01*
X115561112Y-97138647D01*
X115648056Y-97157128D01*
X115648061Y-97157128D01*
X115654513Y-97158500D01*
X115845487Y-97158500D01*
X115851939Y-97157128D01*
X115851944Y-97157128D01*
X115938887Y-97138647D01*
X116032288Y-97118794D01*
X116142073Y-97069915D01*
X116200722Y-97043803D01*
X116200724Y-97043802D01*
X116206752Y-97041118D01*
X116361253Y-96928866D01*
X116397977Y-96888080D01*
X116484621Y-96791852D01*
X116484622Y-96791851D01*
X116489040Y-96786944D01*
X116584527Y-96621556D01*
X116643542Y-96439928D01*
X116647422Y-96403017D01*
X116662814Y-96256565D01*
X116663504Y-96250000D01*
X116656604Y-96184347D01*
X116644232Y-96066635D01*
X116644232Y-96066633D01*
X116643542Y-96060072D01*
X116584527Y-95878444D01*
X116579366Y-95869504D01*
X116527614Y-95779868D01*
X116489040Y-95713056D01*
X116472882Y-95695110D01*
X116365675Y-95576045D01*
X116365674Y-95576044D01*
X116361253Y-95571134D01*
X116233052Y-95477990D01*
X116212094Y-95462763D01*
X116212093Y-95462762D01*
X116206752Y-95458882D01*
X116200724Y-95456198D01*
X116200722Y-95456197D01*
X116038319Y-95383891D01*
X116038318Y-95383891D01*
X116032288Y-95381206D01*
X115936573Y-95360861D01*
X115851944Y-95342872D01*
X115851939Y-95342872D01*
X115845487Y-95341500D01*
X115654513Y-95341500D01*
X115648061Y-95342872D01*
X115648056Y-95342872D01*
X115563427Y-95360861D01*
X115467712Y-95381206D01*
X115461682Y-95383891D01*
X115461681Y-95383891D01*
X115299278Y-95456197D01*
X115299276Y-95456198D01*
X115293248Y-95458882D01*
X115287907Y-95462762D01*
X115287906Y-95462763D01*
X115266948Y-95477990D01*
X115138747Y-95571134D01*
X115134332Y-95576037D01*
X115129420Y-95580460D01*
X115128295Y-95579211D01*
X115074986Y-95612051D01*
X115041800Y-95616500D01*
X111078768Y-95616500D01*
X111067585Y-95615973D01*
X111060092Y-95614298D01*
X111052166Y-95614547D01*
X111052165Y-95614547D01*
X110992002Y-95616438D01*
X110988044Y-95616500D01*
X110960144Y-95616500D01*
X110956154Y-95617004D01*
X110944320Y-95617936D01*
X110900111Y-95619326D01*
X110892497Y-95621538D01*
X110892492Y-95621539D01*
X110880659Y-95624977D01*
X110861296Y-95628988D01*
X110841203Y-95631526D01*
X110833836Y-95634443D01*
X110833831Y-95634444D01*
X110800092Y-95647802D01*
X110788865Y-95651646D01*
X110746407Y-95663982D01*
X110739581Y-95668019D01*
X110728972Y-95674293D01*
X110711224Y-95682988D01*
X110692383Y-95690448D01*
X110685967Y-95695110D01*
X110685966Y-95695110D01*
X110656613Y-95716436D01*
X110646693Y-95722952D01*
X110615465Y-95741420D01*
X110615462Y-95741422D01*
X110608638Y-95745458D01*
X110594317Y-95759779D01*
X110579284Y-95772619D01*
X110562893Y-95784528D01*
X110557840Y-95790636D01*
X110557838Y-95790638D01*
X110553557Y-95795813D01*
X110494725Y-95835553D01*
X110456471Y-95841500D01*
X110404513Y-95841500D01*
X110398061Y-95842872D01*
X110398056Y-95842872D01*
X110311113Y-95861353D01*
X110217712Y-95881206D01*
X110211682Y-95883891D01*
X110211681Y-95883891D01*
X110049278Y-95956197D01*
X110049276Y-95956198D01*
X110043248Y-95958882D01*
X109888747Y-96071134D01*
X109884326Y-96076044D01*
X109884325Y-96076045D01*
X109772915Y-96199779D01*
X109760960Y-96213056D01*
X109711919Y-96297998D01*
X109685257Y-96344178D01*
X109665473Y-96378444D01*
X109606458Y-96560072D01*
X109605768Y-96566633D01*
X109605768Y-96566635D01*
X109591298Y-96704314D01*
X109586496Y-96750000D01*
X100508000Y-96750000D01*
X100508000Y-60634000D01*
X100528002Y-60565879D01*
X100581658Y-60519386D01*
X100634000Y-60508000D01*
X106870459Y-60508000D01*
X106938580Y-60528002D01*
G37*
%TD.AperFunction*%
%TD*%
M02*
