  0
SECTION
  2
HEADER
  9
$ACADVER
  1
AC1015
  9
$ACADMAINTVER
 70
     6
  9
$DWGCODEPAGE
  3
ANSI_1252
  9
$INSBASE
 10
0.0
 20
0.0
 30
0.0
  9
$EXTMIN
 10
0.0
 20
0.0
 30
0.0
  9
$EXTMAX
 10
279.4
 20
215.9
 30
0.0
  9
$LIMMIN
 10
0.0
 20
0.0
  9
$LIMMAX
 10
279.4
 20
215.9
  9
$ORTHOMODE
 70
     0
  9
$REGENMODE
 70
     1
  9
$FILLMODE
 70
     1
  9
$QTEXTMODE
 70
     0
  9
$MIRRTEXT
 70
     1
  9
$LTSCALE
 40
1.0
  9
$ATTMODE
 70
     1
  9
$TEXTSIZE
 40
3.5
  9
$TRACEWID
 40
1.0
  9
$TEXTSTYLE
  7
Standard
  9
$CLAYER
  8
0
  9
$CELTYPE
  6
ByLayer
  9
$CECOLOR
 62
   256
  9
$CELTSCALE
 40
1.0
  9
$DISPSILH
 70
     0
  9
$DIMSCALE
 40
1.0
  9
$DIMASZ
 40
3.302
  9
$DIMEXO
 40
1.0
  9
$DIMDLI
 40
3.75
  9
$DIMRND
 40
0.0
  9
$DIMDLE
 40
0.0
  9
$DIMEXE
 40
1.0
  9
$DIMTP
 40
0.0
  9
$DIMTM
 40
0.0
  9
$DIMTXT
 40
3.5
  9
$DIMCEN
 40
2.5
  9
$DIMTSZ
 40
0.0
  9
$DIMTOL
 70
     0
  9
$DIMLIM
 70
     0
  9
$DIMTIH
 70
     1
  9
$DIMTOH
 70
     1
  9
$DIMSE1
 70
     0
  9
$DIMSE2
 70
     0
  9
$DIMTAD
 70
     1
  9
$DIMZIN
 70
     1
  9
$DIMBLK
  1

  9
$DIMASO
 70
     1
  9
$DIMSHO
 70
     1
  9
$DIMPOST
  1

  9
$DIMAPOST
  1

  9
$DIMALT
 70
     0
  9
$DIMALTD
 70
     3
  9
$DIMALTF
 40
0.0393700787
  9
$DIMLFAC
 40
1.0
  9
$DIMTOFL
 70
     1
  9
$DIMTVP
 40
0.0
  9
$DIMTIX
 70
     0
  9
$DIMSOXD
 70
     0
  9
$DIMSAH
 70
     0
  9
$DIMBLK1
  1

  9
$DIMBLK2
  1

  9
$DIMSTYLE
  2
ISO-25
  9
$DIMCLRD
 70
     0
  9
$DIMCLRE
 70
     0
  9
$DIMCLRT
 70
     0
  9
$DIMTFAC
 40
1.0
  9
$DIMGAP
 40
1.524
  9
$DIMJUST
 70
     0
  9
$DIMSD1
 70
     0
  9
$DIMSD2
 70
     0
  9
$DIMTOLJ
 70
     0
  9
$DIMTZIN
 70
     1
  9
$DIMALTZ
 70
     0
  9
$DIMALTTZ
 70
     0
  9
$DIMUPT
 70
     0
  9
$DIMDEC
 70
     2
  9
$DIMTDEC
 70
     2
  9
$DIMALTU
 70
     2
  9
$DIMALTTD
 70
     3
  9
$DIMTXSTY
  7
Standard
  9
$DIMAUNIT
 70
     0
  9
$DIMADEC
 70
     2
  9
$DIMALTRND
 40
0.0
  9
$DIMAZIN
 70
     0
  9
$DIMDSEP
 70
    44
  9
$DIMATFIT
 70
     3
  9
$DIMFRAC
 70
     0
  9
$DIMLDRBLK
  1

  9
$DIMLUNIT
 70
     2
  9
$DIMLWD
 70
    -2
  9
$DIMLWE
 70
    -2
  9
$DIMTMOVE
 70
     0
  9
$LUNITS
 70
     2
  9
$LUPREC
 70
     2
  9
$SKETCHINC
 40
1.0
  9
$FILLETRAD
 40
10.0
  9
$AUNITS
 70
     0
  9
$AUPREC
 70
     2
  9
$MENU
  1
.
  9
$ELEVATION
 40
0.0
  9
$PELEVATION
 40
0.0
  9
$THICKNESS
 40
0.0
  9
$LIMCHECK
 70
     0
  9
$CHAMFERA
 40
0.0
  9
$CHAMFERB
 40
0.0
  9
$CHAMFERC
 40
0.0
  9
$CHAMFERD
 40
0.0
  9
$SKPOLY
 70
     0
  9
$TDCREATE
 40
2459667.750472882
  9
$TDUCREATE
 40
2459667.917139549
  9
$TDUPDATE
 40
2459667.750475208
  9
$TDUUPDATE
 40
2459667.917141875
  9
$TDINDWG
 40
0.0000000116
  9
$TDUSRTIMER
 40
0.0000000116
  9
$USRTIMER
 70
     1
  9
$ANGBASE
 50
0.0
  9
$ANGDIR
 70
     0
  9
$PDMODE
 70
     0
  9
$PDSIZE
 40
-1.0
  9
$PLINEWID
 40
0.0
  9
$SPLFRAME
 70
     0
  9
$SPLINETYPE
 70
     6
  9
$SPLINESEGS
 70
     8
  9
$HANDSEED
  5
3DE
  9
$SURFTAB1
 70
     6
  9
$SURFTAB2
 70
     6
  9
$SURFTYPE
 70
     6
  9
$SURFU
 70
     6
  9
$SURFV
 70
     6
  9
$UCSBASE
  2

  9
$UCSNAME
  2

  9
$UCSORG
 10
0.0
 20
0.0
 30
0.0
  9
$UCSXDIR
 10
1.0
 20
0.0
 30
0.0
  9
$UCSYDIR
 10
0.0
 20
1.0
 30
0.0
  9
$UCSORTHOREF
  2

  9
$UCSORTHOVIEW
 70
     0
  9
$UCSORGTOP
 10
0.0
 20
0.0
 30
0.0
  9
$UCSORGBOTTOM
 10
0.0
 20
0.0
 30
0.0
  9
$UCSORGLEFT
 10
0.0
 20
0.0
 30
0.0
  9
$UCSORGRIGHT
 10
0.0
 20
0.0
 30
0.0
  9
$UCSORGFRONT
 10
0.0
 20
0.0
 30
0.0
  9
$UCSORGBACK
 10
0.0
 20
0.0
 30
0.0
  9
$PUCSBASE
  2

  9
$PUCSNAME
  2

  9
$PUCSORG
 10
0.0
 20
0.0
 30
0.0
  9
$PUCSXDIR
 10
1.0
 20
0.0
 30
0.0
  9
$PUCSYDIR
 10
0.0
 20
1.0
 30
0.0
  9
$PUCSORTHOREF
  2

  9
$PUCSORTHOVIEW
 70
     0
  9
$PUCSORGTOP
 10
0.0
 20
0.0
 30
0.0
  9
$PUCSORGBOTTOM
 10
0.0
 20
0.0
 30
0.0
  9
$PUCSORGLEFT
 10
0.0
 20
0.0
 30
0.0
  9
$PUCSORGRIGHT
 10
0.0
 20
0.0
 30
0.0
  9
$PUCSORGFRONT
 10
0.0
 20
0.0
 30
0.0
  9
$PUCSORGBACK
 10
0.0
 20
0.0
 30
0.0
  9
$USERI1
 70
     0
  9
$USERI2
 70
     0
  9
$USERI3
 70
     0
  9
$USERI4
 70
     0
  9
$USERI5
 70
     0
  9
$USERR1
 40
0.0
  9
$USERR2
 40
0.0
  9
$USERR3
 40
0.0
  9
$USERR4
 40
0.0
  9
$USERR5
 40
0.0
  9
$WORLDVIEW
 70
     1
  9
$SHADEDGE
 70
     3
  9
$SHADEDIF
 70
    70
  9
$TILEMODE
 70
     1
  9
$MAXACTVP
 70
    64
  9
$PINSBASE
 10
0.0
 20
0.0
 30
0.0
  9
$PLIMCHECK
 70
     0
  9
$PEXTMIN
 10
1.0000000000E+20
 20
1.0000000000E+20
 30
1.0000000000E+20
  9
$PEXTMAX
 10
-1.0000000000E+20
 20
-1.0000000000E+20
 30
-1.0000000000E+20
  9
$PLIMMIN
 10
0.0
 20
0.0
  9
$PLIMMAX
 10
420.0
 20
297.0
  9
$UNITMODE
 70
     0
  9
$VISRETAIN
 70
     1
  9
$PLINEGEN
 70
     0
  9
$PSLTSCALE
 70
     1
  9
$TREEDEPTH
 70
  3020
  9
$CMLSTYLE
  2
Standard
  9
$CMLJUST
 70
     0
  9
$CMLSCALE
 40
20.0
  9
$PROXYGRAPHICS
 70
     1
  9
$MEASUREMENT
 70
     1
  9
$CELWEIGHT
370
    -1
  9
$ENDCAPS
280
     0
  9
$JOINSTYLE
280
     0
  9
$LWDISPLAY
290
     1
  9
$INSUNITS
 70
     4
  9
$HYPERLINKBASE
  1

  9
$STYLESHEET
  1

  9
$XEDIT
290
     1
  9
$CEPSNTYPE
380
     0
  9
$PSTYLEMODE
290
     1
  9
$FINGERPRINTGUID
  2
{c9721165-6b07-4b2e-b375-57af2788d0b6}
  9
$VERSIONGUID
  2
{FAEB1C32-E019-11D5-929B-00C0DF256EC4}
  9
$EXTNAMES
290
     1
  9
$PSVPSCALE
 40
0.0
  9
$OLESTARTUP
290
     0
  0
ENDSEC
  0
SECTION
  2
CLASSES
  0
CLASS
  1
ACDBDICTIONARYWDFLT
  2
AcDbDictionaryWithDefault
  3
ObjectDBX Classes
 90
        0
280
     0
281
     0
  0
CLASS
  1
VISUALSTYLE
  2
AcDbVisualStyle
  3
ObjectDBX Classes
 90
     4095
280
     0
281
     0
  0
CLASS
  1
MATERIAL
  2
AcDbMaterial
  3
ObjectDBX Classes
 90
     1153
280
     0
281
     0
  0
CLASS
  1
SCALE
  2
AcDbScale
  3
ObjectDBX Classes
 90
     1153
280
     0
281
     0
  0
CLASS
  1
TABLESTYLE
  2
AcDbTableStyle
  3
ObjectDBX Classes
 90
     4095
280
     0
281
     0
  0
CLASS
  1
MLEADERSTYLE
  2
AcDbMLeaderStyle
  3
ACDB_MLEADERSTYLE_CLASS
 90
     4095
280
     0
281
     0
  0
CLASS
  1
SUN
  2
AcDbSun
  3
SCENEOE
 90
     1153
280
     0
281
     0
  0
CLASS
  1
ACDBPLACEHOLDER
  2
AcDbPlaceHolder
  3
ObjectDBX Classes
 90
        0
280
     0
281
     0
  0
CLASS
  1
LAYOUT
  2
AcDbLayout
  3
ObjectDBX Classes
 90
        0
280
     0
281
     0
  0
ENDSEC
  0
SECTION
  2
TABLES
  0
TABLE
  2
VPORT
  5
8
330
0
100
AcDbSymbolTable
 70
     1
  0
VPORT
  5
29
330
8
100
AcDbSymbolTableRecord
100
AcDbViewportTableRecord
  2
*Active
 70
     0
 10
0.0
 20
0.0
 11
1.0
 21
1.0
 12
139.7
 22
107.95
 13
0.0
 23
0.0
 14
10.0
 24
10.0
 15
10.0
 25
10.0
 16
0.0
 26
0.0
 36
1.0
 17
0.0
 27
0.0
 37
0.0
 40
215.9
 41
1.2941176471
 42
50.0
 43
0.0
 44
0.0
 50
0.0
 51
0.0
 71
     0
 72
  2000
 73
     1
 74
     3
 75
     0
 76
     0
 77
     0
 78
     0
281
     0
 65
     1
110
0.0
120
0.0
130
0.0
111
1.0
121
0.0
131
0.0
112
0.0
122
1.0
132
0.0
 79
     0
146
0.0
  0
ENDTAB
  0
TABLE
  2
LTYPE
  5
5
330
0
100
AcDbSymbolTable
 70
     6
  0
LTYPE
  5
14
330
5
100
AcDbSymbolTableRecord
100
AcDbLinetypeTableRecord
  2
ByBlock
 70
     0
  3

 72
    65
 73
     0
 40
0.0
  0
LTYPE
  5
15
330
5
100
AcDbSymbolTableRecord
100
AcDbLinetypeTableRecord
  2
ByLayer
 70
     0
  3

 72
    65
 73
     0
 40
0.0
  0
LTYPE
  5
16
330
5
100
AcDbSymbolTableRecord
100
AcDbLinetypeTableRecord
  2
Continuous
 70
     0
  3
Solid line
 72
    65
 73
     0
 40
0.0
  0
LTYPE
  5
6E
330
5
100
AcDbSymbolTableRecord
100
AcDbLinetypeTableRecord
  2
HIDDEN
 70
     0
  3
Hidden __ __ __ __ __ __ __ __ __ __ __ __ __ __
 72
    65
 73
     2
 40
1.905
 49
1.27
 74
     0
 49
-0.635
 74
     0
  0
LTYPE
  5
6F
330
5
100
AcDbSymbolTableRecord
100
AcDbLinetypeTableRecord
  2
PHANTOM
 70
     0
  3
Phantom ______  __  __  ______  __  __  ______
 72
    65
 73
     6
 40
12.7
 49
6.35
 74
     0
 49
-1.27
 74
     0
 49
1.27
 74
     0
 49
-1.27
 74
     0
 49
1.27
 74
     0
 49
-1.27
 74
     0
  0
LTYPE
  5
70
330
5
100
AcDbSymbolTableRecord
100
AcDbLinetypeTableRecord
  2
CENTER
 70
     0
  3
Center ____ _ ____ _ ____ _ ____ _ ____ _ ____
 72
    65
 73
     4
 40
10.16
 49
6.35
 74
     0
 49
-1.27
 74
     0
 49
1.27
 74
     0
 49
-1.27
 74
     0
  0
LTYPE
  5
71
330
5
100
AcDbSymbolTableRecord
100
AcDbLinetypeTableRecord
  2
CENTERX2
 70
     0
  3
Center (2x) ________  __  ________  __  _____
 72
    65
 73
     4
 40
20.32
 49
12.7
 74
     0
 49
-2.54
 74
     0
 49
2.54
 74
     0
 49
-2.54
 74
     0
  0
LTYPE
  5
72
330
5
100
AcDbSymbolTableRecord
100
AcDbLinetypeTableRecord
  2
DOT2
 70
     0
  3
Dot (.5x) ........................................
 72
    65
 73
     2
 40
0.635
 49
0.0
 74
     0
 49
-0.635
 74
     0
  0
ENDTAB
  0
TABLE
  2
LAYER
  5
2
330
0
100
AcDbSymbolTable
 70
     3
  0
LAYER
  5
10
330
2
100
AcDbSymbolTableRecord
100
AcDbLayerTableRecord
  2
0
 70
     0
 62
     7
  6
Continuous
370
    -3
390
F
  0
LAYER
  5
73
330
2
100
AcDbSymbolTableRecord
100
AcDbLayerTableRecord
  2
FORMAT
 70
     0
 62
     7
  6
Continuous
370
    -3
390
F
  0
LAYER
  5
74
330
2
100
AcDbSymbolTableRecord
100
AcDbLayerTableRecord
  2
SLD-0
 70
     0
 62
   179
  6
Continuous
370
    -3
390
F
  0
ENDTAB
  0
TABLE
  2
STYLE
  5
3
330
0
100
AcDbSymbolTable
 70
     2
  0
STYLE
  5
11
330
3
100
AcDbSymbolTableRecord
100
AcDbTextStyleTableRecord
  2
Standard
 70
     0
 40
0.0
 41
1.0
 50
0.0
 71
     0
 42
3.5
  3
txt
  4

  0
STYLE
  5
3DA
330
3
100
AcDbSymbolTableRecord
100
AcDbTextStyleTableRecord
  2
SLDTEXTSTYLE0
 70
     0
 40
0.0
 41
0.7
 50
0.0
 71
     0
 42
3.5
  3
TXT
  4

  0
ENDTAB
  0
TABLE
  2
VIEW
  5
6
330
0
100
AcDbSymbolTable
 70
     0
  0
ENDTAB
  0
TABLE
  2
UCS
  5
7
330
0
100
AcDbSymbolTable
 70
     0
  0
ENDTAB
  0
TABLE
  2
APPID
  5
9
330
0
100
AcDbSymbolTable
 70
     1
  0
APPID
  5
12
330
9
100
AcDbSymbolTableRecord
100
AcDbRegAppTableRecord
  2
ACAD
 70
     0
  0
ENDTAB
  0
TABLE
  2
DIMSTYLE
  5
A
330
0
100
AcDbSymbolTable
 70
     1
100
AcDbDimStyleTable
  0
DIMSTYLE
105
27
330
A
100
AcDbSymbolTableRecord
100
AcDbDimStyleTableRecord
  2
ISO-25
 70
     0
 41
2.5
 42
0.625
 43
3.75
 44
1.25
 73
     0
 74
     0
 77
     1
 78
     8
140
2.5
141
2.5
143
0.0393700787
147
0.625
171
     3
172
     1
178
     0
271
     2
272
     2
274
     3
278
    44
283
     0
284
     8
340
11
  0
ENDTAB
  0
TABLE
  2
BLOCK_RECORD
  5
1
330
0
100
AcDbSymbolTable
 70
     1
  0
BLOCK_RECORD
  5
1F
330
1
100
AcDbSymbolTableRecord
100
AcDbBlockTableRecord
  2
*Model_Space
340
22
  0
BLOCK_RECORD
  5
1B
330
1
100
AcDbSymbolTableRecord
100
AcDbBlockTableRecord
  2
*Paper_Space
340
1E
  0
BLOCK_RECORD
  5
23
330
1
100
AcDbSymbolTableRecord
100
AcDbBlockTableRecord
  2
*Paper_Space0
340
26
  0
ENDTAB
  0
ENDSEC
  0
SECTION
  2
BLOCKS
  0
BLOCK
  5
20
330
1F
100
AcDbEntity
  8
0
100
AcDbBlockBegin
  2
*Model_Space
 70
     0
 10
0.0
 20
0.0
 30
0.0
  3
*Model_Space
  1

  0
ENDBLK
  5
21
330
1F
100
AcDbEntity
  8
0
100
AcDbBlockEnd
  0
BLOCK
  5
1C
330
1B
100
AcDbEntity
 67
     1
  8
0
100
AcDbBlockBegin
  2
*Paper_Space
 70
     0
 10
0.0
 20
0.0
 30
0.0
  3
*Paper_Space
  1

  0
ENDBLK
  5
1D
330
1B
100
AcDbEntity
 67
     1
  8
0
100
AcDbBlockEnd
  0
BLOCK
  5
24
330
23
100
AcDbEntity
  8
0
100
AcDbBlockBegin
  2
*Paper_Space0
 70
     0
 10
0.0
 20
0.0
 30
0.0
  3
*Paper_Space0
  1

  0
ENDBLK
  5
25
330
23
100
AcDbEntity
  8
0
100
AcDbBlockEnd
  0
ENDSEC
  0
SECTION
  2
ENTITIES
  0
CIRCLE
  5
75
330
1F
100
AcDbEntity
  8
0
  6
Continuous
 62
     7
370
    25
100
AcDbCircle
 10
23.2657237323
 20
198.3746510975
 30
0.0
 40
1.049999999999994
  0
CIRCLE
  5
76
330
1F
100
AcDbEntity
  8
0
  6
Continuous
 62
     7
370
    25
100
AcDbCircle
 10
10.2657237323
 20
198.3746510975
 30
0.0
 40
1.049999999999995
  0
CIRCLE
  5
77
330
1F
100
AcDbEntity
  8
0
  6
Continuous
 62
     7
370
    25
100
AcDbCircle
 10
126.2657237323
 20
198.3746510975
 30
0.0
 40
1.049999999999997
  0
ARC
  5
78
330
1F
100
AcDbEntity
  8
0
  6
Continuous
 62
     7
370
    25
100
AcDbCircle
 10
114.7165098958
 20
143.3746510975
 30
0.0
 40
1.500000000000004
100
AcDbArc
 50
166.2319095485
 51
270.0
  0
LINE
  5
79
330
1F
100
AcDbEntity
  8
0
  6
Continuous
 62
     7
370
    25
100
AcDbLine
 10
114.7165098958
 20
141.8746510975
 30
0.0
 11
131.1657237323
 21
141.8746510975
 31
0.0
  0
LINE
  5
7A
330
1F
100
AcDbEntity
  8
0
  6
Continuous
 62
     7
370
    25
100
AcDbLine
 10
131.1657237323
 20
141.8746510975
 30
0.0
 11
131.1657237323
 21
133.8746510975
 31
0.0
  0
ARC
  5
7B
330
1F
100
AcDbEntity
  8
0
  6
Continuous
 62
     7
370
    25
100
AcDbCircle
 10
133.1657237323
 20
133.8746510975
 30
0.0
 40
2.0
100
AcDbArc
 50
180.0
 51
0.0
  0
LINE
  5
7C
330
1F
100
AcDbEntity
  8
0
  6
Continuous
 62
     7
370
    25
100
AcDbLine
 10
135.1657237323
 20
133.8746510975
 30
0.0
 11
135.1657237323
 21
141.8746510975
 31
0.0
  0
LINE
  5
7D
330
1F
100
AcDbEntity
  8
0
  6
Continuous
 62
     7
370
    25
100
AcDbLine
 10
135.1657237323
 20
141.8746510975
 30
0.0
 11
136.716956084
 21
141.8746510975
 31
0.0
  0
ARC
  5
7E
330
1F
100
AcDbEntity
  8
0
  6
Continuous
 62
     7
370
    25
100
AcDbCircle
 10
136.716956084
 20
143.3746510975
 30
0.0
 40
1.500000000000006
100
AcDbArc
 50
270.0
 51
15.514919319
  0
LINE
  5
7F
330
1F
100
AcDbEntity
  8
0
  6
Continuous
 62
     7
370
    25
100
AcDbLine
 10
126.4765179574
 20
185.8708766074
 30
0.0
 11
138.162297335
 21
143.7758850294
 31
0.0
  0
ARC
  5
80
330
1F
100
AcDbEntity
  8
0
  6
Continuous
 62
     7
370
    25
100
AcDbCircle
 10
125.0311767063
 20
185.4696426755
 30
0.0
 40
1.500000000000012
100
AcDbArc
 50
15.514919319
 51
166.2319095485
  0
LINE
  5
81
330
1F
100
AcDbEntity
  8
0
  6
Continuous
 62
     7
370
    25
100
AcDbLine
 10
113.2596094334
 20
143.7316399525
 30
0.0
 11
123.5742762439
 21
185.8266315305
 31
0.0
  0
CIRCLE
  5
82
330
1F
100
AcDbEntity
  8
0
  6
Continuous
 62
     7
370
    25
100
AcDbCircle
 10
139.2657237323
 20
198.3746510975
 30
0.0
 40
1.049999999999955
  0
LINE
  5
83
330
1F
100
AcDbEntity
  8
0
  6
Continuous
 62
     7
370
    25
100
AcDbLine
 10
4.7657237323
 20
201.3746510975
 30
0.0
 11
4.7657237323
 21
125.8746510975
 31
0.0
  0
LINE
  5
84
330
1F
100
AcDbEntity
  8
0
  6
Continuous
 62
     7
370
    25
100
AcDbLine
 10
25.0888988485
 20
201.3746510975
 30
0.0
 11
4.7657237323
 21
201.3746510975
 31
0.0
  0
ARC
  5
85
330
1F
100
AcDbEntity
  8
0
  6
Continuous
 62
     7
370
    25
100
AcDbCircle
 10
25.0888988485
 20
199.8746510975
 30
0.0
 40
1.5
100
AcDbArc
 50
13.7680904515
 51
90.0
  0
LINE
  5
86
330
1F
100
AcDbEntity
  8
0
  6
Continuous
 62
     7
370
    25
100
AcDbLine
 10
40.5651183524
 20
143.0176622424
 30
0.0
 11
26.5457993109
 21
200.2316399525
 31
0.0
  0
ARC
  5
87
330
1F
100
AcDbEntity
  8
0
  6
Continuous
 62
     7
370
    25
100
AcDbCircle
 10
42.0220188148
 20
143.3746510975
 30
0.0
 40
1.5
100
AcDbArc
 50
193.7680904515
 51
270.0
  0
LINE
  5
88
330
1F
100
AcDbEntity
  8
0
  6
Continuous
 62
     7
370
    25
100
AcDbLine
 10
42.0220188148
 20
141.8746510975
 30
0.0
 11
107.5094286498
 21
141.8746510975
 31
0.0
  0
ARC
  5
89
330
1F
100
AcDbEntity
  8
0
  6
Continuous
 62
     7
370
    25
100
AcDbCircle
 10
107.5094286498
 20
143.3746510975
 30
0.0
 40
1.500000000000004
100
AcDbArc
 50
270.0
 51
346.2319095485
  0
LINE
  5
8A
330
1F
100
AcDbEntity
  8
0
  6
Continuous
 62
     7
370
    25
100
AcDbLine
 10
108.9663291122
 20
143.0176622424
 30
0.0
 11
122.9856481538
 21
200.2316399525
 31
0.0
  0
ARC
  5
8B
330
1F
100
AcDbEntity
  8
0
  6
Continuous
 62
     7
370
    25
100
AcDbCircle
 10
124.4425486162
 20
199.8746510975
 30
0.0
 40
1.500000000000025
100
AcDbArc
 50
90.0
 51
166.2319095485
  0
LINE
  5
8C
330
1F
100
AcDbEntity
  8
0
  6
Continuous
 62
     7
370
    25
100
AcDbLine
 10
124.4425486162
 20
201.3746510975
 30
0.0
 11
144.7657237323
 21
201.3746510975
 31
0.0
  0
LINE
  5
8D
330
1F
100
AcDbEntity
  8
0
  6
Continuous
 62
     7
370
    25
100
AcDbLine
 10
144.7657237323
 20
201.3746510975
 30
0.0
 11
144.7657237323
 21
125.8746510975
 31
0.0
  0
LINE
  5
8E
330
1F
100
AcDbEntity
  8
0
  6
Continuous
 62
     7
370
    25
100
AcDbLine
 10
4.7657237323
 20
125.8746510975
 30
0.0
 11
144.7657237323
 21
125.8746510975
 31
0.0
  0
CIRCLE
  5
8F
330
1F
100
AcDbEntity
  8
0
  6
Continuous
 62
     7
370
    25
100
AcDbCircle
 10
21.8657237323
 20
133.8746510975
 30
0.0
 40
1.25
  0
CIRCLE
  5
90
330
1F
100
AcDbEntity
  8
0
  6
Continuous
 62
     7
370
    25
100
AcDbCircle
 10
127.6657237323
 20
133.8746510975
 30
0.0
 40
1.250000000000028
  0
CIRCLE
  5
91
330
1F
100
AcDbEntity
  8
0
  6
Continuous
 62
     7
370
    25
100
AcDbCircle
 10
138.6657237323
 20
133.8746510975
 30
0.0
 40
1.250000000000028
  0
CIRCLE
  5
92
330
1F
100
AcDbEntity
  8
0
  6
Continuous
 62
     7
370
    25
100
AcDbCircle
 10
10.8657237323
 20
133.8746510975
 30
0.0
 40
1.250000000000002
  0
ARC
  5
93
330
1F
100
AcDbEntity
  8
0
  6
Continuous
 62
     7
370
    25
100
AcDbCircle
 10
27.7657237323
 20
134.4759104326
 30
0.0
 40
1.000000000000003
100
AcDbArc
 50
59.7435628365
 51
180.0
  0
LINE
  5
94
330
1F
100
AcDbEntity
  8
0
  6
Continuous
 62
     7
370
    25
100
AcDbLine
 10
26.7657237323
 20
134.4759104326
 30
0.0
 11
26.7657237323
 21
131.3746510975
 31
0.0
  0
ARC
  5
95
330
1F
100
AcDbEntity
  8
0
  6
Continuous
 62
     7
370
    25
100
AcDbCircle
 10
27.7657237323
 20
131.3746510975
 30
0.0
 40
1.0
100
AcDbArc
 50
180.0
 51
270.0
  0
LINE
  5
96
330
1F
100
AcDbEntity
  8
0
  6
Continuous
 62
     7
370
    25
100
AcDbLine
 10
27.7657237323
 20
130.3746510975
 30
0.0
 11
33.0821683068
 21
130.3746510975
 31
0.0
  0
ARC
  5
97
330
1F
100
AcDbEntity
  8
0
  6
Continuous
 62
     7
370
    25
100
AcDbCircle
 10
33.0821683068
 20
131.3746510975
 30
0.0
 40
1.000000000000003
100
AcDbArc
 50
270.0
 51
59.7435628365
  0
LINE
  5
98
330
1F
100
AcDbEntity
  8
0
  6
Continuous
 62
     7
370
    25
100
AcDbLine
 10
33.5860393323
 20
132.2384299984
 30
0.0
 11
28.2695947578
 21
135.3396893334
 31
0.0
  0
ARC
  5
99
330
1F
100
AcDbEntity
  8
0
  6
Continuous
 62
     7
370
    25
100
AcDbCircle
 10
80.4492791579
 20
136.3746510975
 30
0.0
 40
1.0
100
AcDbArc
 50
90.0
 51
239.7435628365
  0
LINE
  5
9A
330
1F
100
AcDbEntity
  8
0
  6
Continuous
 62
     7
370
    25
100
AcDbLine
 10
79.9454081324
 20
135.5108721966
 30
0.0
 11
86.2618527068
 21
131.8262795281
 31
0.0
  0
ARC
  5
9B
330
1F
100
AcDbEntity
  8
0
  6
Continuous
 62
     7
370
    25
100
AcDbCircle
 10
86.7657237323
 20
132.690058429
 30
0.0
 40
1.000000000000032
100
AcDbArc
 50
239.7435628365
 51
300.2564371635
  0
LINE
  5
9C
330
1F
100
AcDbEntity
  8
0
  6
Continuous
 62
     7
370
    25
100
AcDbLine
 10
87.2695947578
 20
131.8262795281
 30
0.0
 11
93.5860393323
 21
135.5108721966
 31
0.0
  0
ARC
  5
9D
330
1F
100
AcDbEntity
  8
0
  6
Continuous
 62
     7
370
    25
100
AcDbCircle
 10
93.0821683068
 20
136.3746510975
 30
0.0
 40
1.0
100
AcDbArc
 50
300.2564371635
 51
90.0
  0
LINE
  5
9E
330
1F
100
AcDbEntity
  8
0
  6
Continuous
 62
     7
370
    25
100
AcDbLine
 10
93.0821683068
 20
137.3746510975
 30
0.0
 11
80.4492791579
 21
137.3746510975
 31
0.0
  0
ARC
  5
9F
330
1F
100
AcDbEntity
  8
0
  6
Continuous
 62
     7
370
    25
100
AcDbCircle
 10
104.4492791579
 20
136.3746510975
 30
0.0
 40
1.0
100
AcDbArc
 50
90.0
 51
239.7435628365
  0
LINE
  5
A0
330
1F
100
AcDbEntity
  8
0
  6
Continuous
 62
     7
370
    25
100
AcDbLine
 10
103.9454081324
 20
135.5108721966
 30
0.0
 11
110.2618527068
 21
131.8262795281
 31
0.0
  0
ARC
  5
A1
330
1F
100
AcDbEntity
  8
0
  6
Continuous
 62
     7
370
    25
100
AcDbCircle
 10
110.7657237323
 20
132.690058429
 30
0.0
 40
1.000000000000032
100
AcDbArc
 50
239.7435628365
 51
300.2564371635
  0
LINE
  5
A2
330
1F
100
AcDbEntity
  8
0
  6
Continuous
 62
     7
370
    25
100
AcDbLine
 10
111.2695947578
 20
131.8262795281
 30
0.0
 11
117.5860393323
 21
135.5108721966
 31
0.0
  0
ARC
  5
A3
330
1F
100
AcDbEntity
  8
0
  6
Continuous
 62
     7
370
    25
100
AcDbCircle
 10
117.0821683068
 20
136.3746510975
 30
0.0
 40
1.0
100
AcDbArc
 50
300.2564371635
 51
90.0
  0
LINE
  5
A4
330
1F
100
AcDbEntity
  8
0
  6
Continuous
 62
     7
370
    25
100
AcDbLine
 10
117.0821683068
 20
137.3746510975
 30
0.0
 11
104.4492791579
 21
137.3746510975
 31
0.0
  0
ARC
  5
A5
330
1F
100
AcDbEntity
  8
0
  6
Continuous
 62
     7
370
    25
100
AcDbCircle
 10
69.0821683068
 20
136.3746510975
 30
0.0
 40
1.0
100
AcDbArc
 50
300.2564371635
 51
90.0
  0
LINE
  5
A6
330
1F
100
AcDbEntity
  8
0
  6
Continuous
 62
     7
370
    25
100
AcDbLine
 10
69.0821683068
 20
137.3746510975
 30
0.0
 11
56.4492791579
 21
137.3746510975
 31
0.0
  0
ARC
  5
A7
330
1F
100
AcDbEntity
  8
0
  6
Continuous
 62
     7
370
    25
100
AcDbCircle
 10
56.4492791579
 20
136.3746510975
 30
0.0
 40
1.0
100
AcDbArc
 50
90.0
 51
239.7435628365
  0
LINE
  5
A8
330
1F
100
AcDbEntity
  8
0
  6
Continuous
 62
     7
370
    25
100
AcDbLine
 10
55.9454081324
 20
135.5108721966
 30
0.0
 11
62.2618527068
 21
131.8262795281
 31
0.0
  0
ARC
  5
A9
330
1F
100
AcDbEntity
  8
0
  6
Continuous
 62
     7
370
    25
100
AcDbCircle
 10
62.7657237323
 20
132.690058429
 30
0.0
 40
1.000000000000028
100
AcDbArc
 50
239.7435628365
 51
300.2564371635
  0
LINE
  5
AA
330
1F
100
AcDbEntity
  8
0
  6
Continuous
 62
     7
370
    25
100
AcDbLine
 10
63.2695947578
 20
131.8262795281
 30
0.0
 11
69.5860393323
 21
135.5108721966
 31
0.0
  0
ARC
  5
AB
330
1F
100
AcDbEntity
  8
0
  6
Continuous
 62
     7
370
    25
100
AcDbCircle
 10
32.4492791579
 20
136.3746510975
 30
0.0
 40
1.0
100
AcDbArc
 50
90.0
 51
239.7435628365
  0
LINE
  5
AC
330
1F
100
AcDbEntity
  8
0
  6
Continuous
 62
     7
370
    25
100
AcDbLine
 10
31.9454081324
 20
135.5108721966
 30
0.0
 11
38.2618527068
 21
131.8262795281
 31
0.0
  0
ARC
  5
AD
330
1F
100
AcDbEntity
  8
0
  6
Continuous
 62
     7
370
    25
100
AcDbCircle
 10
38.7657237323
 20
132.690058429
 30
0.0
 40
1.000000000000032
100
AcDbArc
 50
239.7435628365
 51
300.2564371635
  0
LINE
  5
AE
330
1F
100
AcDbEntity
  8
0
  6
Continuous
 62
     7
370
    25
100
AcDbLine
 10
39.2695947578
 20
131.8262795281
 30
0.0
 11
45.5860393323
 21
135.5108721966
 31
0.0
  0
ARC
  5
AF
330
1F
100
AcDbEntity
  8
0
  6
Continuous
 62
     7
370
    25
100
AcDbCircle
 10
45.0821683068
 20
136.3746510975
 30
0.0
 40
1.0
100
AcDbArc
 50
300.2564371635
 51
90.0
  0
LINE
  5
B0
330
1F
100
AcDbEntity
  8
0
  6
Continuous
 62
     7
370
    25
100
AcDbLine
 10
45.0821683068
 20
137.3746510975
 30
0.0
 11
32.4492791579
 21
137.3746510975
 31
0.0
  0
ARC
  5
B1
330
1F
100
AcDbEntity
  8
0
  6
Continuous
 62
     7
370
    25
100
AcDbCircle
 10
121.7657237323
 20
134.4759104326
 30
0.0
 40
1.0
100
AcDbArc
 50
0.0
 51
120.2564371635
  0
LINE
  5
B2
330
1F
100
AcDbEntity
  8
0
  6
Continuous
 62
     7
370
    25
100
AcDbLine
 10
121.2618527068
 20
135.3396893334
 30
0.0
 11
115.9454081324
 21
132.2384299984
 31
0.0
  0
ARC
  5
B3
330
1F
100
AcDbEntity
  8
0
  6
Continuous
 62
     7
370
    25
100
AcDbCircle
 10
116.4492791579
 20
131.3746510975
 30
0.0
 40
1.000000000000007
100
AcDbArc
 50
120.2564371635
 51
270.0
  0
LINE
  5
B4
330
1F
100
AcDbEntity
  8
0
  6
Continuous
 62
     7
370
    25
100
AcDbLine
 10
116.4492791579
 20
130.3746510975
 30
0.0
 11
121.7657237323
 21
130.3746510975
 31
0.0
  0
ARC
  5
B5
330
1F
100
AcDbEntity
  8
0
  6
Continuous
 62
     7
370
    25
100
AcDbCircle
 10
121.7657237323
 20
131.3746510975
 30
0.0
 40
1.0
100
AcDbArc
 50
270.0
 51
0.0
  0
LINE
  5
B6
330
1F
100
AcDbEntity
  8
0
  6
Continuous
 62
     7
370
    25
100
AcDbLine
 10
122.7657237323
 20
131.3746510975
 30
0.0
 11
122.7657237323
 21
134.4759104326
 31
0.0
  0
ARC
  5
B7
330
1F
100
AcDbEntity
  8
0
  6
Continuous
 62
     7
370
    25
100
AcDbCircle
 10
50.7657237323
 20
135.0592437659
 30
0.0
 40
1.000000000000003
100
AcDbArc
 50
59.7435628365
 51
120.2564371635
  0
LINE
  5
B8
330
1F
100
AcDbEntity
  8
0
  6
Continuous
 62
     7
370
    25
100
AcDbLine
 10
50.2618527068
 20
135.9230226668
 30
0.0
 11
43.9454081324
 21
132.2384299984
 31
0.0
  0
ARC
  5
B9
330
1F
100
AcDbEntity
  8
0
  6
Continuous
 62
     7
370
    25
100
AcDbCircle
 10
44.4492791579
 20
131.3746510975
 30
0.0
 40
1.000000000000003
100
AcDbArc
 50
120.2564371635
 51
270.0
  0
LINE
  5
BA
330
1F
100
AcDbEntity
  8
0
  6
Continuous
 62
     7
370
    25
100
AcDbLine
 10
44.4492791579
 20
130.3746510975
 30
0.0
 11
57.0821683068
 21
130.3746510975
 31
0.0
  0
ARC
  5
BB
330
1F
100
AcDbEntity
  8
0
  6
Continuous
 62
     7
370
    25
100
AcDbCircle
 10
57.0821683068
 20
131.3746510975
 30
0.0
 40
1.000000000000007
100
AcDbArc
 50
270.0
 51
59.7435628365
  0
LINE
  5
BC
330
1F
100
AcDbEntity
  8
0
  6
Continuous
 62
     7
370
    25
100
AcDbLine
 10
57.5860393323
 20
132.2384299984
 30
0.0
 11
51.2695947578
 21
135.9230226668
 31
0.0
  0
ARC
  5
BD
330
1F
100
AcDbEntity
  8
0
  6
Continuous
 62
     7
370
    25
100
AcDbCircle
 10
74.7657237323
 20
135.0592437659
 30
0.0
 40
1.000000000000007
100
AcDbArc
 50
59.7435628365
 51
120.2564371635
  0
LINE
  5
BE
330
1F
100
AcDbEntity
  8
0
  6
Continuous
 62
     7
370
    25
100
AcDbLine
 10
74.2618527068
 20
135.9230226668
 30
0.0
 11
67.9454081324
 21
132.2384299984
 31
0.0
  0
ARC
  5
BF
330
1F
100
AcDbEntity
  8
0
  6
Continuous
 62
     7
370
    25
100
AcDbCircle
 10
68.4492791579
 20
131.3746510975
 30
0.0
 40
1.000000000000007
100
AcDbArc
 50
120.2564371635
 51
270.0
  0
LINE
  5
C0
330
1F
100
AcDbEntity
  8
0
  6
Continuous
 62
     7
370
    25
100
AcDbLine
 10
68.4492791579
 20
130.3746510975
 30
0.0
 11
81.0821683068
 21
130.3746510975
 31
0.0
  0
ARC
  5
C1
330
1F
100
AcDbEntity
  8
0
  6
Continuous
 62
     7
370
    25
100
AcDbCircle
 10
81.0821683068
 20
131.3746510975
 30
0.0
 40
1.000000000000007
100
AcDbArc
 50
270.0
 51
59.7435628365
  0
LINE
  5
C2
330
1F
100
AcDbEntity
  8
0
  6
Continuous
 62
     7
370
    25
100
AcDbLine
 10
81.5860393323
 20
132.2384299984
 30
0.0
 11
75.2695947578
 21
135.9230226668
 31
0.0
  0
ARC
  5
C3
330
1F
100
AcDbEntity
  8
0
  6
Continuous
 62
     7
370
    25
100
AcDbCircle
 10
105.0821683068
 20
131.3746510975
 30
0.0
 40
1.0
100
AcDbArc
 50
270.0
 51
59.7435628365
  0
LINE
  5
C4
330
1F
100
AcDbEntity
  8
0
  6
Continuous
 62
     7
370
    25
100
AcDbLine
 10
105.5860393323
 20
132.2384299984
 30
0.0
 11
98.7657237323
 21
136.2169474317
 31
0.0
  0
LINE
  5
C5
330
1F
100
AcDbEntity
  8
0
  6
Continuous
 62
     7
370
    25
100
AcDbLine
 10
98.7657237323
 20
136.2169474317
 30
0.0
 11
91.9454081324
 21
132.2384299984
 31
0.0
  0
ARC
  5
C6
330
1F
100
AcDbEntity
  8
0
  6
Continuous
 62
     7
370
    25
100
AcDbCircle
 10
92.4492791579
 20
131.3746510975
 30
0.0
 40
1.0
100
AcDbArc
 50
120.2564371635
 51
270.0
  0
LINE
  5
C7
330
1F
100
AcDbEntity
  8
0
  6
Continuous
 62
     7
370
    25
100
AcDbLine
 10
92.4492791579
 20
130.3746510975
 30
0.0
 11
105.0821683068
 21
130.3746510975
 31
0.0
  0
LINE
  5
C8
330
1F
100
AcDbEntity
  8
0
  6
Continuous
 62
     7
370
    25
100
AcDbLine
 10
14.3657237323
 20
141.8746510975
 30
0.0
 11
14.3657237323
 21
133.8746510975
 31
0.0
  0
ARC
  5
C9
330
1F
100
AcDbEntity
  8
0
  6
Continuous
 62
     7
370
    25
100
AcDbCircle
 10
16.3657237323
 20
133.8746510975
 30
0.0
 40
2.000000000000004
100
AcDbArc
 50
180.0
 51
0.0
  0
LINE
  5
CA
330
1F
100
AcDbEntity
  8
0
  6
Continuous
 62
     7
370
    25
100
AcDbLine
 10
18.3657237323
 20
133.8746510975
 30
0.0
 11
18.3657237323
 21
141.8746510975
 31
0.0
  0
LINE
  5
CB
330
1F
100
AcDbEntity
  8
0
  6
Continuous
 62
     7
370
    25
100
AcDbLine
 10
18.3657237323
 20
141.8746510975
 30
0.0
 11
34.8149375688
 21
141.8746510975
 31
0.0
  0
ARC
  5
CC
330
1F
100
AcDbEntity
  8
0
  6
Continuous
 62
     7
370
    25
100
AcDbCircle
 10
34.8149375688
 20
143.3746510975
 30
0.0
 40
1.5
100
AcDbArc
 50
270.0
 51
13.7680904515
  0
LINE
  5
CD
330
1F
100
AcDbEntity
  8
0
  6
Continuous
 62
     7
370
    25
100
AcDbLine
 10
25.9571712207
 20
185.8266315305
 30
0.0
 11
36.2718380312
 21
143.7316399525
 31
0.0
  0
ARC
  5
CE
330
1F
100
AcDbEntity
  8
0
  6
Continuous
 62
     7
370
    25
100
AcDbCircle
 10
24.5002707583
 20
185.4696426755
 30
0.0
 40
1.500000000000002
100
AcDbArc
 50
13.7680904515
 51
164.485080681
  0
LINE
  5
CF
330
1F
100
AcDbEntity
  8
0
  6
Continuous
 62
     7
370
    25
100
AcDbLine
 10
11.3691501296
 20
143.7758850294
 30
0.0
 11
23.0549295073
 21
185.8708766074
 31
0.0
  0
ARC
  5
D0
330
1F
100
AcDbEntity
  8
0
  6
Continuous
 62
     7
370
    25
100
AcDbCircle
 10
12.8144913806
 20
143.3746510975
 30
0.0
 40
1.500000000000003
100
AcDbArc
 50
164.485080681
 51
270.0
  0
LINE
  5
D1
330
1F
100
AcDbEntity
  8
0
  6
Continuous
 62
     7
370
    25
100
AcDbLine
 10
12.8144913806
 20
141.8746510975
 30
0.0
 11
14.3657237323
 21
141.8746510975
 31
0.0
  0
ARC
  5
D2
330
1F
100
AcDbEntity
  8
0
  6
Continuous
 62
     7
370
    25
100
AcDbCircle
 10
10.2657237323
 20
193.8746510975
 30
0.0
 40
1.500000000000002
100
AcDbArc
 50
90.0
 51
180.0
  0
LINE
  5
D3
330
1F
100
AcDbEntity
  8
0
  6
Continuous
 62
     7
370
    25
100
AcDbLine
 10
8.7657237323
 20
193.8746510975
 30
0.0
 11
8.7657237323
 21
160.3626484638
 31
0.0
  0
ARC
  5
D4
330
1F
100
AcDbEntity
  8
0
  6
Continuous
 62
     7
370
    25
100
AcDbCircle
 10
10.2657237323
 20
160.3626484638
 30
0.0
 40
1.500000000000009
100
AcDbArc
 50
180.0
 51
344.485080681
  0
LINE
  5
D5
330
1F
100
AcDbEntity
  8
0
  6
Continuous
 62
     7
370
    25
100
AcDbLine
 10
21.0141638699
 20
193.4734171655
 30
0.0
 11
11.7110649833
 21
159.9614145319
 31
0.0
  0
ARC
  5
D6
330
1F
100
AcDbEntity
  8
0
  6
Continuous
 62
     7
370
    25
100
AcDbCircle
 10
19.5688226189
 20
193.8746510975
 30
0.0
 40
1.5
100
AcDbArc
 50
344.485080681
 51
90.0
  0
LINE
  5
D7
330
1F
100
AcDbEntity
  8
0
  6
Continuous
 62
     7
370
    25
100
AcDbLine
 10
19.5688226189
 20
195.3746510975
 30
0.0
 11
10.2657237323
 21
195.3746510975
 31
0.0
  0
ARC
  5
D8
330
1F
100
AcDbEntity
  8
0
  6
Continuous
 62
     7
370
    25
100
AcDbCircle
 10
139.2657237323
 20
193.8746510975
 30
0.0
 40
1.5
100
AcDbArc
 50
0.0
 51
90.0
  0
LINE
  5
D9
330
1F
100
AcDbEntity
  8
0
  6
Continuous
 62
     7
370
    25
100
AcDbLine
 10
129.9626248457
 20
195.3746510975
 30
0.0
 11
139.2657237323
 21
195.3746510975
 31
0.0
  0
ARC
  5
DA
330
1F
100
AcDbEntity
  8
0
  6
Continuous
 62
     7
370
    25
100
AcDbCircle
 10
129.9626248457
 20
193.8746510975
 30
0.0
 40
1.5
100
AcDbArc
 50
90.0
 51
195.514919319
  0
LINE
  5
DB
330
1F
100
AcDbEntity
  8
0
  6
Continuous
 62
     7
370
    25
100
AcDbLine
 10
137.8203824813
 20
159.9614145319
 30
0.0
 11
128.5172835947
 21
193.4734171655
 31
0.0
  0
ARC
  5
DC
330
1F
100
AcDbEntity
  8
0
  6
Continuous
 62
     7
370
    25
100
AcDbCircle
 10
139.2657237323
 20
160.3626484638
 30
0.0
 40
1.5
100
AcDbArc
 50
195.514919319
 51
0.0
  0
LINE
  5
DD
330
1F
100
AcDbEntity
  8
0
  6
Continuous
 62
     7
370
    25
100
AcDbLine
 10
140.7657237323
 20
193.8746510975
 30
0.0
 11
140.7657237323
 21
160.3626484638
 31
0.0
  0
LINE
  5
DE
330
1F
100
AcDbEntity
  8
SLD-0
  6
Continuous
 62
   179
370
    25
100
AcDbLine
 10
203.7043818047
 20
31.8484899195
 30
0.0
 11
203.7043818047
 21
32.4715162497
 31
0.0
  0
LINE
  5
DF
330
1F
100
AcDbEntity
  8
SLD-0
  6
Continuous
 62
   179
370
    25
100
AcDbLine
 10
202.7043818047
 20
31.8484899195
 30
0.0
 11
202.7043818047
 21
32.4715162497
 31
0.0
  0
LINE
  5
E0
330
1F
100
AcDbEntity
  8
SLD-0
  6
Continuous
 62
   179
370
    25
100
AcDbLine
 10
206.2043818047
 20
32.4715162497
 30
0.0
 11
206.2043818047
 21
31.8484899195
 31
0.0
  0
LINE
  5
E1
330
1F
100
AcDbEntity
  8
SLD-0
  6
Continuous
 62
   179
370
    25
100
AcDbLine
 10
205.2043818047
 20
32.4715162497
 30
0.0
 11
205.2043818047
 21
31.8484899195
 31
0.0
  0
LINE
  5
E2
330
1F
100
AcDbEntity
  8
SLD-0
  6
Continuous
 62
   179
370
    25
100
AcDbLine
 10
256.4156552943
 20
50.4064125917
 30
0.0
 11
258.3225742174
 21
51.2731998872
 31
0.0
  0
LINE
  5
E3
330
1F
100
AcDbEntity
  8
SLD-0
  6
Continuous
 62
   179
370
    25
100
AcDbLine
 10
263.1156780107
 20
50.4064125917
 30
0.0
 11
256.4156552943
 21
50.4064125917
 31
0.0
  0
LINE
  5
E4
330
1F
100
AcDbEntity
  8
SLD-0
  6
Continuous
 62
   179
370
    25
100
AcDbLine
 10
263.6156780107
 20
49.9064125917
 30
0.0
 11
263.6156780107
 21
49.4064125917
 31
0.0
  0
LINE
  5
E5
330
1F
100
AcDbEntity
  8
SLD-0
  6
Continuous
 62
   179
370
    25
100
AcDbLine
 10
263.1156780106
 20
48.9064125918
 30
0.0
 11
253.6156780106
 21
48.9064125918
 31
0.0
  0
LINE
  5
E6
330
1F
100
AcDbEntity
  8
SLD-0
  6
Continuous
 62
   179
370
    25
100
AcDbLine
 10
253.1156780106
 20
50.0844568738
 30
0.0
 11
253.1156780106
 21
49.4064125918
 31
0.0
  0
LINE
  5
E7
330
1F
100
AcDbEntity
  8
SLD-0
  6
Continuous
 62
   179
370
    25
100
AcDbLine
 10
256.9656734985
 20
52.1564225875
 30
0.0
 11
253.4087753581
 21
50.539639576
 31
0.0
  0
LINE
  5
E8
330
1F
100
AcDbEntity
  8
SLD-0
  6
Continuous
 62
   179
370
    25
100
AcDbLine
 10
256.9656734985
 20
52.1564225875
 30
0.0
 11
253.4087773169
 21
53.7731862392
 31
0.0
  0
LINE
  5
E9
330
1F
100
AcDbEntity
  8
SLD-0
  6
Continuous
 62
   179
370
    25
100
AcDbLine
 10
253.1156780106
 20
54.2283698318
 30
0.0
 11
253.1156780106
 21
54.9064125918
 31
0.0
  0
LINE
  5
EA
330
1F
100
AcDbEntity
  8
SLD-0
  6
Continuous
 62
   179
370
    25
100
AcDbLine
 10
263.1156780106
 20
55.4064125918
 30
0.0
 11
253.6156780106
 21
55.4064125918
 31
0.0
  0
LINE
  5
EB
330
1F
100
AcDbEntity
  8
SLD-0
  6
Continuous
 62
   179
370
    25
100
AcDbLine
 10
263.6156780106
 20
54.9064125918
 30
0.0
 11
263.6156780106
 21
54.4064125918
 31
0.0
  0
LINE
  5
EC
330
1F
100
AcDbEntity
  8
SLD-0
  6
Continuous
 62
   179
370
    25
100
AcDbLine
 10
263.1156780106
 20
53.9064125918
 30
0.0
 11
256.4156945779
 21
53.9064125918
 31
0.0
  0
LINE
  5
ED
330
1F
100
AcDbEntity
  8
SLD-0
  6
Continuous
 62
   179
370
    25
100
AcDbLine
 10
258.3225723821
 20
53.0396532638
 30
0.0
 11
256.4156945779
 21
53.9064125918
 31
0.0
  0
LINE
  5
EE
330
1F
100
AcDbEntity
  8
SLD-0
  6
Continuous
 62
   179
370
    25
100
AcDbLine
 10
258.6156715648
 20
52.5844697274
 30
0.0
 11
258.6156715648
 21
51.7283825894
 31
0.0
  0
LINE
  5
EF
330
1F
100
AcDbEntity
  8
SLD-0
  6
Continuous
 62
   179
370
    25
100
AcDbLine
 10
254.1824250607
 20
64.9063635834
 30
0.0
 11
253.6753078976
 21
64.9063635834
 31
0.0
  0
LINE
  5
F0
330
1F
100
AcDbEntity
  8
SLD-0
  6
Continuous
 62
   179
370
    25
100
AcDbLine
 10
263.0561394172
 20
64.9063635834
 30
0.0
 11
262.5490222541
 21
64.9063635834
 31
0.0
  0
LINE
  5
F1
330
1F
100
AcDbEntity
  8
SLD-0
  6
Continuous
 62
   179
370
    25
100
AcDbLine
 10
159.8656780106
 20
42.4064125918
 30
0.0
 11
159.8656780106
 21
45.4064125918
 31
0.0
  0
LINE
  5
F2
330
1F
100
AcDbEntity
  8
SLD-0
  6
Continuous
 62
   179
370
    25
100
AcDbLine
 10
159.8656780106
 20
42.4064125918
 30
0.0
 11
162.1156780106
 21
42.4064125918
 31
0.0
  0
LINE
  5
F3
330
1F
100
AcDbEntity
  8
SLD-0
  6
Continuous
 62
   179
370
    25
100
AcDbLine
 10
162.1156780106
 20
42.4064125918
 30
0.0
 11
162.1156780106
 21
46.9064105302
 31
0.0
  0
LINE
  5
F4
330
1F
100
AcDbEntity
  8
SLD-0
  6
Continuous
 62
   179
370
    25
100
AcDbLine
 10
162.6156780106
 20
47.4064105302
 30
0.0
 11
163.6156780106
 21
47.4064105302
 31
0.0
  0
LINE
  5
F5
330
1F
100
AcDbEntity
  8
SLD-0
  6
Continuous
 62
   179
370
    25
100
AcDbLine
 10
164.1156780106
 20
46.9064105302
 30
0.0
 11
164.1156780106
 21
41.4064125918
 31
0.0
  0
LINE
  5
F6
330
1F
100
AcDbEntity
  8
SLD-0
  6
Continuous
 62
   179
370
    25
100
AcDbLine
 10
154.1156780106
 20
40.9064125918
 30
0.0
 11
163.6156780106
 21
40.9064125918
 31
0.0
  0
LINE
  5
F7
330
1F
100
AcDbEntity
  8
SLD-0
  6
Continuous
 62
   179
370
    25
100
AcDbLine
 10
153.6156780106
 20
41.4064125918
 30
0.0
 11
153.6156780106
 21
46.9064125918
 31
0.0
  0
LINE
  5
F8
330
1F
100
AcDbEntity
  8
SLD-0
  6
Continuous
 62
   179
370
    25
100
AcDbLine
 10
154.1156780106
 20
47.4064125918
 30
0.0
 11
155.1156786386
 21
47.4064125918
 31
0.0
  0
LINE
  5
F9
330
1F
100
AcDbEntity
  8
SLD-0
  6
Continuous
 62
   179
370
    25
100
AcDbLine
 10
155.6156842908
 20
42.4064125918
 30
0.0
 11
155.6156786386
 21
46.9064132198
 31
0.0
  0
LINE
  5
FA
330
1F
100
AcDbEntity
  8
SLD-0
  6
Continuous
 62
   179
370
    25
100
AcDbLine
 10
155.6156842908
 20
42.4064125918
 30
0.0
 11
157.8656780106
 21
42.4064125918
 31
0.0
  0
LINE
  5
FB
330
1F
100
AcDbEntity
  8
SLD-0
  6
Continuous
 62
   179
370
    25
100
AcDbLine
 10
157.8656780106
 20
42.4064125918
 30
0.0
 11
157.8656780106
 21
45.4064125918
 31
0.0
  0
LINE
  5
FC
330
1F
100
AcDbEntity
  8
SLD-0
  6
Continuous
 62
   179
370
    25
100
AcDbLine
 10
158.3656780106
 20
45.9064125918
 30
0.0
 11
159.3656780106
 21
45.9064125918
 31
0.0
  0
LINE
  5
FD
330
1F
100
AcDbEntity
  8
SLD-0
  6
Continuous
 62
   179
370
    25
100
AcDbLine
 10
156.8656780106
 20
74.4064122818
 30
0.0
 11
157.6199158105
 21
74.4064122818
 31
0.0
  0
LINE
  5
FE
330
1F
100
AcDbEntity
  8
SLD-0
  6
Continuous
 62
   179
370
    25
100
AcDbLine
 10
158.1199158105
 20
73.9064122818
 30
0.0
 11
158.1199158105
 21
73.4064122818
 31
0.0
  0
LINE
  5
FF
330
1F
100
AcDbEntity
  8
SLD-0
  6
Continuous
 62
   179
370
    25
100
AcDbLine
 10
156.8656780106
 20
72.9064122818
 30
0.0
 11
157.6199158105
 21
72.9064122818
 31
0.0
  0
LINE
  5
100
330
1F
100
AcDbEntity
  8
SLD-0
  6
Continuous
 62
   179
370
    25
100
AcDbLine
 10
156.8656780106
 20
79.4064122818
 30
0.0
 11
157.6199158105
 21
79.4064122818
 31
0.0
  0
LINE
  5
101
330
1F
100
AcDbEntity
  8
SLD-0
  6
Continuous
 62
   179
370
    25
100
AcDbLine
 10
158.1199158105
 20
78.9064122818
 30
0.0
 11
158.1199158105
 21
78.4064122818
 31
0.0
  0
LINE
  5
102
330
1F
100
AcDbEntity
  8
SLD-0
  6
Continuous
 62
   179
370
    25
100
AcDbLine
 10
156.8656780106
 20
77.9064122818
 30
0.0
 11
157.6199158105
 21
77.9064122818
 31
0.0
  0
LINE
  5
103
330
1F
100
AcDbEntity
  8
SLD-0
  6
Continuous
 62
   179
370
    25
100
AcDbLine
 10
260.3656780106
 20
63.4064129018
 30
0.0
 11
259.6114402107
 21
63.4064129018
 31
0.0
  0
LINE
  5
104
330
1F
100
AcDbEntity
  8
SLD-0
  6
Continuous
 62
   179
370
    25
100
AcDbLine
 10
260.3656780106
 20
56.9064129018
 30
0.0
 11
259.6114402107
 21
56.9064129018
 31
0.0
  0
LINE
  5
105
330
1F
100
AcDbEntity
  8
SLD-0
  6
Continuous
 62
   179
370
    25
100
AcDbLine
 10
259.1114402107
 20
57.4064129018
 30
0.0
 11
259.1114402107
 21
57.9064129018
 31
0.0
  0
LINE
  5
106
330
1F
100
AcDbEntity
  8
SLD-0
  6
Continuous
 62
   179
370
    25
100
AcDbLine
 10
260.3656780106
 20
58.4064129018
 30
0.0
 11
259.6114402107
 21
58.4064129018
 31
0.0
  0
LINE
  5
107
330
1F
100
AcDbEntity
  8
SLD-0
  6
Continuous
 62
   179
370
    25
100
AcDbLine
 10
260.3656780106
 20
61.9064129018
 30
0.0
 11
259.6114402107
 21
61.9064129018
 31
0.0
  0
LINE
  5
108
330
1F
100
AcDbEntity
  8
SLD-0
  6
Continuous
 62
   179
370
    25
100
AcDbLine
 10
259.1114402107
 20
62.4064129018
 30
0.0
 11
259.1114402107
 21
62.9064129018
 31
0.0
  0
LINE
  5
109
330
1F
100
AcDbEntity
  8
SLD-0
  6
Continuous
 62
   179
370
    25
100
AcDbLine
 10
263.1156780106
 20
47.4064125918
 30
0.0
 11
253.6156780106
 21
47.4064125918
 31
0.0
  0
LINE
  5
10A
330
1F
100
AcDbEntity
  8
SLD-0
  6
Continuous
 62
   179
370
    25
100
AcDbLine
 10
263.6156780106
 20
46.9064125918
 30
0.0
 11
263.6156780106
 21
46.4064125918
 31
0.0
  0
LINE
  5
10B
330
1F
100
AcDbEntity
  8
SLD-0
  6
Continuous
 62
   179
370
    25
100
AcDbLine
 10
263.1156780106
 20
45.9064125918
 30
0.0
 11
256.4156819749
 21
45.9064125918
 31
0.0
  0
LINE
  5
10C
330
1F
100
AcDbEntity
  8
SLD-0
  6
Continuous
 62
   179
370
    25
100
AcDbLine
 10
256.4156819749
 20
45.9064125918
 30
0.0
 11
258.3225819916
 21
45.0396398569
 31
0.0
  0
LINE
  5
10D
330
1F
100
AcDbEntity
  8
SLD-0
  6
Continuous
 62
   179
370
    25
100
AcDbLine
 10
258.6156805195
 20
44.5844544157
 30
0.0
 11
258.6156767486
 21
43.7283813813
 31
0.0
  0
LINE
  5
10E
330
1F
100
AcDbEntity
  8
SLD-0
  6
Continuous
 62
   179
370
    25
100
AcDbLine
 10
258.3225793024
 20
43.2732008367
 30
0.0
 11
256.4156571931
 21
42.4064125917
 31
0.0
  0
LINE
  5
10F
330
1F
100
AcDbEntity
  8
SLD-0
  6
Continuous
 62
   179
370
    25
100
AcDbLine
 10
263.1156780106
 20
42.4064125917
 30
0.0
 11
256.4156571931
 21
42.4064125917
 31
0.0
  0
LINE
  5
110
330
1F
100
AcDbEntity
  8
SLD-0
  6
Continuous
 62
   179
370
    25
100
AcDbLine
 10
263.6156780106
 20
41.9064125917
 30
0.0
 11
263.6156780106
 21
41.4064125917
 31
0.0
  0
LINE
  5
111
330
1F
100
AcDbEntity
  8
SLD-0
  6
Continuous
 62
   179
370
    25
100
AcDbLine
 10
263.1156780106
 20
40.9064125918
 30
0.0
 11
253.6156780106
 21
40.9064125918
 31
0.0
  0
LINE
  5
112
330
1F
100
AcDbEntity
  8
SLD-0
  6
Continuous
 62
   179
370
    25
100
AcDbLine
 10
253.1156780106
 20
42.0844559406
 30
0.0
 11
253.1156780106
 21
41.4064125918
 31
0.0
  0
LINE
  5
113
330
1F
100
AcDbEntity
  8
SLD-0
  6
Continuous
 62
   179
370
    25
100
AcDbLine
 10
256.9656867133
 20
44.1564163366
 30
0.0
 11
253.4087765591
 21
42.5396391887
 31
0.0
  0
LINE
  5
114
330
1F
100
AcDbEntity
  8
SLD-0
  6
Continuous
 62
   179
370
    25
100
AcDbLine
 10
256.9656867133
 20
44.1564163366
 30
0.0
 11
253.408777293
 21
45.7731862313
 31
0.0
  0
LINE
  5
115
330
1F
100
AcDbEntity
  8
SLD-0
  6
Continuous
 62
   179
370
    25
100
AcDbLine
 10
253.1156780106
 20
46.228369813
 30
0.0
 11
253.1156780106
 21
46.9064125918
 31
0.0
  0
LINE
  5
116
330
1F
100
AcDbEntity
  8
SLD-0
  6
Continuous
 62
   179
370
    25
100
AcDbLine
 10
224.2786464649
 20
53.9616089035
 30
0.0
 11
230.4408181771
 21
48.8005956417
 31
0.0
  0
LINE
  5
117
330
1F
100
AcDbEntity
  8
SLD-0
  6
Continuous
 62
   179
370
    25
100
AcDbLine
 10
222.1553392577
 20
57.9904131926
 30
0.0
 11
223.9185865704
 21
54.5362810826
 31
0.0
  0
LINE
  5
118
330
1F
100
AcDbEntity
  8
SLD-0
  6
Continuous
 62
   179
370
    25
100
AcDbLine
 10
221.8819998753
 20
59.1270672711
 30
0.0
 11
221.8819998753
 21
60.824506192
 31
0.0
  0
LINE
  5
119
330
1F
100
AcDbEntity
  8
SLD-0
  6
Continuous
 62
   179
370
    25
100
AcDbLine
 10
221.9044405608
 20
61.0351665504
 30
0.0
 11
223.6135520244
 21
68.9662165273
 31
0.0
  0
LINE
  5
11A
330
1F
100
AcDbEntity
  8
SLD-0
  6
Continuous
 62
   179
370
    25
100
AcDbLine
 10
227.6314396201
 20
69.9901134803
 30
0.0
 11
224.5151362887
 21
69.7526658879
 31
0.0
  0
LINE
  5
11B
330
1F
100
AcDbEntity
  8
SLD-0
  6
Continuous
 62
   179
370
    25
100
AcDbLine
 10
233.1760968633
 20
42.6785545894
 30
0.0
 11
232.3534692033
 21
43.456038617
 31
0.0
  0
LINE
  5
11C
330
1F
100
AcDbEntity
  8
SLD-0
  6
Continuous
 62
   179
370
    25
100
AcDbLine
 10
165.5819351391
 20
98.2217575065
 30
0.0
 11
192.079083616
 21
72.5166268535
 31
0.0
  0
LINE
  5
11D
330
1F
100
AcDbEntity
  8
SLD-0
  6
Continuous
 62
   179
370
    25
100
AcDbLine
 10
197.7098079512
 20
80.9865885813
 30
0.0
 11
172.5449186871
 21
105.3992821572
 31
0.0
  0
LINE
  5
11E
330
1F
100
AcDbEntity
  8
SLD-0
  6
Continuous
 62
   179
370
    25
100
AcDbLine
 10
194.3635126097
 20
74.9180384672
 30
0.0
 11
197.8226491253
 21
79.6812195551
 31
0.0
  0
LINE
  5
11F
330
1F
100
AcDbEntity
  8
SLD-0
  6
Continuous
 62
   179
370
    25
100
AcDbLine
 10
235.6181127528
 20
39.6648336996
 30
0.0
 11
231.4516616112
 21
35.7848465938
 31
0.0
  0
LINE
  5
120
330
1F
100
AcDbEntity
  8
SLD-0
  6
Continuous
 62
   179
370
    25
100
AcDbLine
 10
250.2194896462
 20
39.4669961663
 30
0.0
 11
239.4224217953
 21
47.4964835566
 31
0.0
  0
LINE
  5
121
330
1F
100
AcDbEntity
  8
SLD-0
  6
Continuous
 62
   179
370
    25
100
AcDbLine
 10
246.3227464239
 20
33.8267239657
 30
0.0
 11
250.3404963468
 21
37.9682674453
 31
0.0
  0
LINE
  5
122
330
1F
100
AcDbEntity
  8
SLD-0
  6
Continuous
 62
   179
370
    25
100
AcDbLine
 10
252.3893923228
 20
27.9414142468
 30
0.0
 11
246.3227464239
 21
33.8267239657
 31
0.0
  0
LINE
  5
123
330
1F
100
AcDbEntity
  8
SLD-0
  6
Continuous
 62
   179
370
    25
100
AcDbLine
 10
256.3773626528
 20
32.0522605748
 30
0.0
 11
252.3893923228
 21
27.9414142468
 31
0.0
  0
LINE
  5
124
330
1F
100
AcDbEntity
  8
SLD-0
  6
Continuous
 62
   179
370
    25
100
AcDbLine
 10
231.4368643346
 20
34.3352770202
 30
0.0
 11
244.265923611
 21
21.8896870676
 31
0.0
  0
LINE
  5
125
330
1F
100
AcDbEntity
  8
SLD-0
  6
Continuous
 62
   179
370
    25
100
AcDbLine
 10
244.6355969734
 20
105.459524417
 30
0.0
 11
219.5115435473
 21
81.0048071062
 31
0.0
  0
LINE
  5
126
330
1F
100
AcDbEntity
  8
SLD-0
  6
Continuous
 62
   179
370
    25
100
AcDbLine
 10
225.1564157816
 20
72.5442677814
 30
0.0
 11
251.6105665226
 21
98.2936469558
 31
0.0
  0
LINE
  5
127
330
1F
100
AcDbEntity
  8
SLD-0
  6
Continuous
 62
   179
370
    25
100
AcDbLine
 10
219.4008841812
 20
79.6992513129
 30
0.0
 11
222.867976523
 21
74.9418580976
 31
0.0
  0
LINE
  5
128
330
1F
100
AcDbEntity
  8
SLD-0
  6
Continuous
 62
   179
370
    25
100
AcDbLine
 10
173.0542609732
 20
21.8301793533
 30
0.0
 11
185.8625021415
 21
34.2971930038
 31
0.0
  0
LINE
  5
129
330
1F
100
AcDbEntity
  8
SLD-0
  6
Continuous
 62
   179
370
    25
100
AcDbLine
 10
164.9206894152
 20
27.8683214079
 30
0.0
 11
160.9258542381
 21
31.9724969394
 31
0.0
  0
LINE
  5
12A
330
1F
100
AcDbEntity
  8
SLD-0
  6
Continuous
 62
   179
370
    25
100
AcDbLine
 10
170.9774907816
 20
33.7637620325
 30
0.0
 11
164.9206894152
 21
27.8683214079
 31
0.0
  0
LINE
  5
12B
330
1F
100
AcDbEntity
  8
SLD-0
  6
Continuous
 62
   179
370
    25
100
AcDbLine
 10
166.9528247494
 20
37.8985849024
 30
0.0
 11
170.9774907816
 21
33.7637620325
 31
0.0
  0
LINE
  5
12C
330
1F
100
AcDbEntity
  8
SLD-0
  6
Continuous
 62
   179
370
    25
100
AcDbLine
 10
177.8549596397
 20
47.4450349762
 30
0.0
 11
167.0713264707
 21
39.3975137676
 31
0.0
  0
LINE
  5
12D
330
1F
100
AcDbEntity
  8
SLD-0
  6
Continuous
 62
   179
370
    25
100
AcDbLine
 10
185.8452822343
 20
35.7467358224
 30
0.0
 11
181.6723523277
 21
39.6197541609
 31
0.0
  0
LINE
  5
12E
330
1F
100
AcDbEntity
  8
SLD-0
  6
Continuous
 62
   179
370
    25
100
AcDbLine
 10
226.5511277397
 20
25.7254635894
 30
0.0
 11
190.6802282815
 21
25.7254635894
 31
0.0
  0
LINE
  5
12F
330
1F
100
AcDbEntity
  8
SLD-0
  6
Continuous
 62
   179
370
    25
100
AcDbLine
 10
185.1156780106
 20
112.1127530162
 30
0.0
 11
201.1156780106
 21
112.1127530162
 31
0.0
  0
LINE
  5
130
330
1F
100
AcDbEntity
  8
SLD-0
  6
Continuous
 62
   179
370
    25
100
AcDbLine
 10
201.6156780106
 20
111.6127530162
 30
0.0
 11
201.6156780106
 21
106.1127530162
 31
0.0
  0
LINE
  5
131
330
1F
100
AcDbEntity
  8
SLD-0
  6
Continuous
 62
   179
370
    25
100
AcDbLine
 10
185.1156780106
 20
105.6127530162
 30
0.0
 11
201.1156780106
 21
105.6127530162
 31
0.0
  0
LINE
  5
132
330
1F
100
AcDbEntity
  8
SLD-0
  6
Continuous
 62
   179
370
    25
100
AcDbLine
 10
184.6156780106
 20
111.6127530162
 30
0.0
 11
184.6156780106
 21
106.1127530162
 31
0.0
  0
LINE
  5
133
330
1F
100
AcDbEntity
  8
SLD-0
  6
Continuous
 62
   179
370
    25
100
AcDbLine
 10
151.3656780106
 20
143.1127530162
 30
0.0
 11
265.8656780106
 21
143.1127530162
 31
0.0
  0
LINE
  5
134
330
1F
100
AcDbEntity
  8
SLD-0
  6
Continuous
 62
   179
370
    25
100
AcDbLine
 10
148.6156780106
 20
5.8627530162
 30
0.0
 11
148.6156780106
 21
140.3627530162
 31
0.0
  0
LINE
  5
135
330
1F
100
AcDbEntity
  8
SLD-0
  6
Continuous
 62
   179
370
    25
100
AcDbLine
 10
265.8656780106
 20
3.1127530162
 30
0.0
 11
151.3656780106
 21
3.1127530162
 31
0.0
  0
LINE
  5
136
330
1F
100
AcDbEntity
  8
SLD-0
  6
Continuous
 62
   179
370
    25
100
AcDbLine
 10
268.6156780106
 20
140.3627530162
 30
0.0
 11
268.6156780106
 21
5.8627530162
 31
0.0
  0
LINE
  5
137
330
1F
100
AcDbEntity
  8
SLD-0
  6
Continuous
 62
   179
370
    25
100
AcDbLine
 10
215.6156780106
 20
106.1127530162
 30
0.0
 11
215.6156780106
 21
111.6127530162
 31
0.0
  0
LINE
  5
138
330
1F
100
AcDbEntity
  8
SLD-0
  6
Continuous
 62
   179
370
    25
100
AcDbLine
 10
216.1156780106
 20
112.1127530162
 30
0.0
 11
232.1156780106
 21
112.1127530162
 31
0.0
  0
LINE
  5
139
330
1F
100
AcDbEntity
  8
SLD-0
  6
Continuous
 62
   179
370
    25
100
AcDbLine
 10
232.6156780106
 20
106.1127530162
 30
0.0
 11
232.6156780106
 21
111.6127530162
 31
0.0
  0
LINE
  5
13A
330
1F
100
AcDbEntity
  8
SLD-0
  6
Continuous
 62
   179
370
    25
100
AcDbLine
 10
216.1156780106
 20
105.6127530162
 30
0.0
 11
232.1156780106
 21
105.6127530162
 31
0.0
  0
LINE
  5
13B
330
1F
100
AcDbEntity
  8
SLD-0
  6
Continuous
 62
   179
370
    25
100
AcDbLine
 10
201.5156780106
 20
103.3127530162
 30
0.0
 11
216.3156780106
 21
103.3127530162
 31
0.0
  0
LINE
  5
13C
330
1F
100
AcDbEntity
  8
SLD-0
  6
Continuous
 62
   179
370
    25
100
AcDbLine
 10
216.8156780106
 20
102.8127530162
 30
0.0
 11
216.8156780106
 21
100.6127530162
 31
0.0
  0
LINE
  5
13D
330
1F
100
AcDbEntity
  8
SLD-0
  6
Continuous
 62
   179
370
    25
100
AcDbLine
 10
201.5156780106
 20
100.1127530162
 30
0.0
 11
216.3156780106
 21
100.1127530162
 31
0.0
  0
LINE
  5
13E
330
1F
100
AcDbEntity
  8
SLD-0
  6
Continuous
 62
   179
370
    25
100
AcDbLine
 10
201.0156780106
 20
102.8127530162
 30
0.0
 11
201.0156780106
 21
100.6127530162
 31
0.0
  0
LINE
  5
13F
330
1F
100
AcDbEntity
  8
SLD-0
  6
Continuous
 62
   179
370
    25
100
AcDbLine
 10
205.1209439861
 20
94.9153660075
 30
0.0
 11
208.2601933082
 21
94.3483600492
 31
0.0
  0
LINE
  5
140
330
1F
100
AcDbEntity
  8
SLD-0
  6
Continuous
 62
   179
370
    25
100
AcDbLine
 10
212.1104120351
 20
94.9153660075
 30
0.0
 11
208.971162713
 21
94.3483600492
 31
0.0
  0
LINE
  5
141
330
1F
100
AcDbEntity
  8
SLD-0
  6
Continuous
 62
   179
370
    25
100
AcDbLine
 10
218.6120524473
 20
85.2274977289
 30
0.0
 11
214.2505710679
 21
93.8499507981
 31
0.0
  0
LINE
  5
142
330
1F
100
AcDbEntity
  8
SLD-0
  6
Continuous
 62
   179
370
    25
100
AcDbLine
 10
218.8544394388
 20
84.354101617
 30
0.0
 11
218.7955322334
 21
84.6802435242
 31
0.0
  0
LINE
  5
143
330
1F
100
AcDbEntity
  8
SLD-0
  6
Continuous
 62
   179
370
    25
100
AcDbLine
 10
215.2699726801
 20
82.8206808201
 30
0.0
 11
214.5575464618
 21
83.7982410703
 31
0.0
  0
LINE
  5
144
330
1F
100
AcDbEntity
  8
SLD-0
  6
Continuous
 62
   179
370
    25
100
AcDbLine
 10
213.5776080525
 20
85.5878480728
 30
0.0
 11
213.5776080525
 21
89.0784147265
 31
0.0
  0
LINE
  5
145
330
1F
100
AcDbEntity
  8
SLD-0
  6
Continuous
 62
   179
370
    25
100
AcDbLine
 10
213.5776080525
 20
89.0784147265
 30
0.0
 11
212.3639924268
 21
85.7626142775
 31
0.0
  0
LINE
  5
146
330
1F
100
AcDbEntity
  8
SLD-0
  6
Continuous
 62
   179
370
    25
100
AcDbLine
 10
211.1046485272
 20
85.1589983155
 30
0.0
 11
210.2247104896
 21
85.4564841649
 31
0.0
  0
LINE
  5
147
330
1F
100
AcDbEntity
  8
SLD-0
  6
Continuous
 62
   179
370
    25
100
AcDbLine
 10
209.5673993303
 20
86.1932445475
 30
0.0
 11
208.6156780106
 21
90.611722472
 31
0.0
  0
LINE
  5
148
330
1F
100
AcDbEntity
  8
SLD-0
  6
Continuous
 62
   179
370
    25
100
AcDbLine
 10
207.6639566909
 20
86.1932445474
 30
0.0
 11
208.6156780106
 21
90.611722472
 31
0.0
  0
LINE
  5
149
330
1F
100
AcDbEntity
  8
SLD-0
  6
Continuous
 62
   179
370
    25
100
AcDbLine
 10
206.1267074941
 20
85.1589983155
 30
0.0
 11
207.0066455318
 21
85.456484165
 31
0.0
  0
LINE
  5
14A
330
1F
100
AcDbEntity
  8
SLD-0
  6
Continuous
 62
   179
370
    25
100
AcDbLine
 10
203.6537479688
 20
89.0784147265
 30
0.0
 11
204.8673635945
 21
85.7626142775
 31
0.0
  0
LINE
  5
14B
330
1F
100
AcDbEntity
  8
SLD-0
  6
Continuous
 62
   179
370
    25
100
AcDbLine
 10
203.6537479688
 20
85.5878480728
 30
0.0
 11
203.6537479688
 21
89.0784147265
 31
0.0
  0
LINE
  5
14C
330
1F
100
AcDbEntity
  8
SLD-0
  6
Continuous
 62
   179
370
    25
100
AcDbLine
 10
201.9613833411
 20
82.8206808201
 30
0.0
 11
202.6738095594
 21
83.7982410703
 31
0.0
  0
LINE
  5
14D
330
1F
100
AcDbEntity
  8
SLD-0
  6
Continuous
 62
   179
370
    25
100
AcDbLine
 10
198.3769165824
 20
84.3541016169
 30
0.0
 11
198.4358237878
 21
84.6802435242
 31
0.0
  0
LINE
  5
14E
330
1F
100
AcDbEntity
  8
SLD-0
  6
Continuous
 62
   179
370
    25
100
AcDbLine
 10
198.6193035739
 20
85.2274977289
 30
0.0
 11
202.9807849533
 21
93.8499507981
 31
0.0
  0
LINE
  5
14F
330
1F
100
AcDbEntity
  8
SLD-0
  6
Continuous
 62
   179
370
    25
100
AcDbLine
 10
195.186780076
 20
45.9859507127
 30
0.0
 11
202.9503348876
 21
51.3727166437
 31
0.0
  0
LINE
  5
150
330
1F
100
AcDbEntity
  8
SLD-0
  6
Continuous
 62
   179
370
    25
100
AcDbLine
 10
202.9503348876
 20
51.3727166437
 30
0.0
 11
202.7635028523
 21
51.3722873481
 31
0.0
  0
LINE
  5
151
330
1F
100
AcDbEntity
  8
SLD-0
  6
Continuous
 62
   179
370
    25
100
AcDbLine
 10
202.9271048695
 20
51.3857609268
 30
0.0
 11
214.3042511517
 21
51.3857609268
 31
0.0
  0
LINE
  5
152
330
1F
100
AcDbEntity
  8
SLD-0
  6
Continuous
 62
   179
370
    25
100
AcDbLine
 10
214.3042511517
 20
51.3857609268
 30
0.0
 11
222.0891837576
 21
46.010619511
 31
0.0
  0
LINE
  5
153
330
1F
100
AcDbEntity
  8
SLD-0
  6
Continuous
 62
   179
370
    25
100
AcDbLine
 10
222.0135455371
 20
45.9265102781
 30
0.0
 11
212.2788467326
 21
36.2618607952
 31
0.0
  0
LINE
  5
154
330
1F
100
AcDbEntity
  8
SLD-0
  6
Continuous
 62
   179
370
    25
100
AcDbLine
 10
211.5742978443
 20
35.9715162497
 30
0.0
 11
205.7156914319
 21
35.9715162497
 31
0.0
  0
LINE
  5
155
330
1F
100
AcDbEntity
  8
SLD-0
  6
Continuous
 62
   179
370
    25
100
AcDbLine
 10
205.0123295677
 20
36.2606842808
 30
0.0
 11
195.231483887
 21
45.9387434462
 31
0.0
  0
LINE
  5
156
330
1F
100
AcDbEntity
  8
SLD-0
  6
Continuous
 62
   179
370
    25
100
AcDbLine
 10
202.8844682576
 20
65.636371151
 30
0.0
 11
202.9894187032
 21
65.4611922637
 31
0.0
  0
LINE
  5
157
330
1F
100
AcDbEntity
  8
SLD-0
  6
Continuous
 62
   179
370
    25
100
AcDbLine
 10
202.7546903703
 20
64.165121999
 30
0.0
 11
198.4268810757
 21
60.7173068872
 31
0.0
  0
LINE
  5
158
330
1F
100
AcDbEntity
  8
SLD-0
  6
Continuous
 62
   179
370
    25
100
AcDbLine
 10
197.4190664003
 20
60.9111315589
 30
0.0
 11
195.60818866
 21
69.2467492465
 31
0.0
  0
LINE
  5
159
330
1F
100
AcDbEntity
  8
SLD-0
  6
Continuous
 62
   179
370
    25
100
AcDbLine
 10
196.7878484615
 20
73.1749539559
 30
0.0
 11
201.689335872
 21
79.9005616559
 31
0.0
  0
LINE
  5
15A
330
1F
100
AcDbEntity
  8
SLD-0
  6
Continuous
 62
   179
370
    25
100
AcDbLine
 10
203.412908903
 20
79.7141010587
 30
0.0
 11
204.3239859724
 21
77.6420520232
 31
0.0
  0
LINE
  5
15B
330
1F
100
AcDbEntity
  8
SLD-0
  6
Continuous
 62
   179
370
    25
100
AcDbLine
 10
204.3239859724
 20
77.6420520232
 30
0.0
 11
204.3239859724
 21
82.2486128224
 31
0.0
  0
LINE
  5
15C
330
1F
100
AcDbEntity
  8
SLD-0
  6
Continuous
 62
   179
370
    25
100
AcDbLine
 10
205.0037175888
 20
83.1959396734
 30
0.0
 11
206.3761367952
 21
83.6599215401
 31
0.0
  0
LINE
  5
15D
330
1F
100
AcDbEntity
  8
SLD-0
  6
Continuous
 62
   179
370
    25
100
AcDbLine
 10
207.6894649964
 20
82.8302050574
 30
0.0
 11
208.6156780106
 21
75.0095941599
 31
0.0
  0
LINE
  5
15E
330
1F
100
AcDbEntity
  8
SLD-0
  6
Continuous
 62
   179
370
    25
100
AcDbLine
 10
209.5418910248
 20
82.8302050574
 30
0.0
 11
208.6156780106
 21
75.0095941599
 31
0.0
  0
LINE
  5
15F
330
1F
100
AcDbEntity
  8
SLD-0
  6
Continuous
 62
   179
370
    25
100
AcDbLine
 10
212.2276384324
 20
83.1959396733
 30
0.0
 11
210.8552192259
 21
83.6599215402
 31
0.0
  0
LINE
  5
160
330
1F
100
AcDbEntity
  8
SLD-0
  6
Continuous
 62
   179
370
    25
100
AcDbLine
 10
212.9073700488
 20
77.6420520232
 30
0.0
 11
212.9073700488
 21
82.2486128224
 31
0.0
  0
LINE
  5
161
330
1F
100
AcDbEntity
  8
SLD-0
  6
Continuous
 62
   179
370
    25
100
AcDbLine
 10
213.8184471182
 20
79.7141010586
 30
0.0
 11
212.9073700488
 21
77.6420520232
 31
0.0
  0
LINE
  5
162
330
1F
100
AcDbEntity
  8
SLD-0
  6
Continuous
 62
   179
370
    25
100
AcDbLine
 10
220.4435075597
 20
73.1749539559
 30
0.0
 11
215.5420201492
 21
79.900561656
 31
0.0
  0
LINE
  5
163
330
1F
100
AcDbEntity
  8
SLD-0
  6
Continuous
 62
   179
370
    25
100
AcDbLine
 10
221.6275776674
 20
69.2443527144
 30
0.0
 11
219.8383876813
 21
60.9417021856
 31
0.0
  0
LINE
  5
164
330
1F
100
AcDbEntity
  8
SLD-0
  6
Continuous
 62
   179
370
    25
100
AcDbLine
 10
218.842138315
 20
60.7234060675
 30
0.0
 11
214.4877968555
 21
64.1804780993
 31
0.0
  0
LINE
  5
165
330
1F
100
AcDbEntity
  8
SLD-0
  6
Continuous
 62
   179
370
    25
100
AcDbLine
 10
214.3468877636
 20
65.636371151
 30
0.0
 11
214.2517604704
 21
65.4775886581
 31
0.0
  0
LINE
  5
166
330
1F
100
AcDbEntity
  8
SLD-0
  6
Continuous
 62
   179
370
    25
100
AcDbLine
 10
211.051427763
 20
64.2037153238
 30
0.0
 11
211.2292812655
 21
66.4987925755
 31
0.0
  0
LINE
  5
167
330
1F
100
AcDbEntity
  8
SLD-0
  6
Continuous
 62
   179
370
    25
100
AcDbLine
 10
206.1799282583
 20
64.2037153238
 30
0.0
 11
206.0020747557
 21
66.4987925755
 31
0.0
  0
LINE
  5
168
330
1F
100
AcDbEntity
  8
SLD-0
  6
Continuous
 62
   179
370
    25
100
AcDbLine
 10
199.8703225789
 20
57.96212508
 30
0.0
 11
202.6629246391
 21
54.8232205911
 31
0.0
  0
LINE
  5
169
330
1F
100
AcDbEntity
  8
SLD-0
  6
Continuous
 62
   179
370
    25
100
AcDbLine
 10
199.9943371779
 20
59.4089560878
 30
0.0
 11
203.5825078227
 21
62.2675268174
 31
0.0
  0
LINE
  5
16A
330
1F
100
AcDbEntity
  8
SLD-0
  6
Continuous
 62
   179
370
    25
100
AcDbLine
 10
205.0634428434
 20
61.9993180497
 30
0.0
 11
206.5420049742
 21
59.5313640781
 31
0.0
  0
LINE
  5
16B
330
1F
100
AcDbEntity
  8
SLD-0
  6
Continuous
 62
   179
370
    25
100
AcDbLine
 10
212.1781968869
 20
62.0164831863
 30
0.0
 11
210.689351047
 21
59.5313640781
 31
0.0
  0
LINE
  5
16C
330
1F
100
AcDbEntity
  8
SLD-0
  6
Continuous
 62
   179
370
    25
100
AcDbLine
 10
213.6578238555
 20
62.2857322481
 30
0.0
 11
217.2540218967
 21
59.4305781944
 31
0.0
  0
LINE
  5
16D
330
1F
100
AcDbEntity
  8
SLD-0
  6
Continuous
 62
   179
370
    25
100
AcDbLine
 10
217.3793445481
 20
57.9827068924
 30
0.0
 11
214.5684313821
 21
54.8232205911
 31
0.0
  0
LINE
  5
16E
330
1F
100
AcDbEntity
  8
SLD-0
  6
Continuous
 62
   179
370
    25
100
AcDbLine
 10
213.1573292825
 20
53.3857609268
 30
0.0
 11
204.0740267387
 21
53.3857609268
 31
0.0
  0
LINE
  5
16F
330
1F
100
AcDbEntity
  8
SLD-0
  6
Continuous
 62
   179
370
    25
100
AcDbLine
 10
189.5999164011
 20
69.9901134803
 30
0.0
 11
192.720974589
 21
69.7523035903
 31
0.0
  0
LINE
  5
170
330
1F
100
AcDbEntity
  8
SLD-0
  6
Continuous
 62
   179
370
    25
100
AcDbLine
 10
193.6222054134
 20
68.9674877207
 30
0.0
 11
195.3493561459
 21
61.0172722669
 31
0.0
  0
LINE
  5
171
330
1F
100
AcDbEntity
  8
SLD-0
  6
Continuous
 62
   179
370
    25
100
AcDbLine
 10
195.3493561459
 20
59.1270672711
 30
0.0
 11
195.3493561459
 21
61.0172722669
 31
0.0
  0
LINE
  5
172
330
1F
100
AcDbEntity
  8
SLD-0
  6
Continuous
 62
   179
370
    25
100
AcDbLine
 10
195.0760167635
 20
57.9904131926
 30
0.0
 11
193.3005854369
 21
54.5124130788
 31
0.0
  0
LINE
  5
173
330
1F
100
AcDbEntity
  8
SLD-0
  6
Continuous
 62
   179
370
    25
100
AcDbLine
 10
192.6791295459
 20
53.7324770117
 30
0.0
 11
186.7905378441
 21
48.8005956418
 31
0.0
  0
LINE
  5
174
330
1F
100
AcDbEntity
  8
SLD-0
  6
Continuous
 62
   179
370
    25
100
AcDbLine
 10
184.9017276873
 20
43.3889783069
 30
0.0
 11
184.0851440082
 21
42.6146186722
 31
0.0
  0
LINE
  5
175
330
1F
100
AcDbEntity
  8
SLD-0
  6
Continuous
 62
   179
370
    25
100
AcDbLine
 10
223.9966945275
 20
44.693570198
 30
0.0
 11
225.3620181049
 21
43.7508764486
 31
0.0
  0
LINE
  5
176
330
1F
100
AcDbEntity
  8
SLD-0
  6
Continuous
 62
   179
370
    25
100
AcDbLine
 10
225.9444142353
 20
43.1254151134
 30
0.0
 11
225.3620181049
 21
43.7508764486
 31
0.0
  0
LINE
  5
177
330
1F
100
AcDbEntity
  8
SLD-0
  6
Continuous
 62
   179
370
    25
100
AcDbLine
 10
230.9797011916
 20
42.0025044929
 30
0.0
 11
232.0733118235
 21
40.9689083229
 31
0.0
  0
LINE
  5
178
330
1F
100
AcDbEntity
  8
SLD-0
  6
Continuous
 62
   179
370
    25
100
AcDbLine
 10
227.6259778267
 20
35.9715162496
 30
0.0
 11
217.2962942775
 21
35.9715162496
 31
0.0
  0
LINE
  5
179
330
1F
100
AcDbEntity
  8
SLD-0
  6
Continuous
 62
   179
370
    25
100
AcDbLine
 10
216.5906644249
 20
37.680096881
 30
0.0
 11
223.3421390329
 21
44.403455976
 31
0.0
  0
LINE
  5
17A
330
1F
100
AcDbEntity
  8
SLD-0
  6
Continuous
 62
   179
370
    25
100
AcDbLine
 10
191.9101402284
 20
43.7124442677
 30
0.0
 11
193.3322903759
 21
44.6992074386
 31
0.0
  0
LINE
  5
17B
330
1F
100
AcDbEntity
  8
SLD-0
  6
Continuous
 62
   179
370
    25
100
AcDbLine
 10
193.9007190461
 20
44.4182597455
 30
0.0
 11
200.6885274027
 21
37.6812752035
 31
0.0
  0
LINE
  5
17C
330
1F
100
AcDbEntity
  8
SLD-0
  6
Continuous
 62
   179
370
    25
100
AcDbLine
 10
199.9840827794
 20
35.9715162496
 30
0.0
 11
189.6706221924
 21
35.9715162496
 31
0.0
  0
LINE
  5
17D
330
1F
100
AcDbEntity
  8
SLD-0
  6
Continuous
 62
   179
370
    25
100
AcDbLine
 10
185.3635689584
 20
39.6046782682
 30
0.0
 11
188.9903451447
 21
36.2385611771
 31
0.0
  0
LINE
  5
17E
330
1F
100
AcDbEntity
  8
SLD-0
  6
Continuous
 62
   179
370
    25
100
AcDbLine
 10
185.3557483209
 20
41.0632514054
 30
0.0
 11
186.3180643263
 21
41.9758078149
 31
0.0
  0
LINE
  5
17F
330
1F
100
AcDbEntity
  8
SLD-0
  6
Continuous
 62
   179
370
    25
100
AcDbLine
 10
191.2869417859
 20
43.1254151134
 30
0.0
 11
191.8688990967
 21
43.7504051806
 31
0.0
  0
LINE
  5
180
330
1F
100
AcDbEntity
  8
SLD-0
  6
Continuous
 62
   179
370
    25
100
AcDbLine
 10
191.8688990967
 20
43.7504051806
 30
0.0
 11
191.9101402284
 21
43.7124442677
 31
0.0
  0
LINE
  5
181
330
1F
100
AcDbEntity
  8
SLD-0
  6
Continuous
 62
   179
370
    25
100
AcDbLine
 10
188.5964280383
 20
46.7625918912
 30
0.0
 11
188.64615093
 21
46.7168238368
 31
0.0
  0
LINE
  5
182
330
1F
100
AcDbEntity
  8
SLD-0
  6
Continuous
 62
   179
370
    25
100
AcDbLine
 10
160.8156740463
 20
90.4064125917
 30
0.0
 11
158.9087740296
 21
91.2731853266
 31
0.0
  0
LINE
  5
183
330
1F
100
AcDbEntity
  8
SLD-0
  6
Continuous
 62
   179
370
    25
100
AcDbLine
 10
158.6156755017
 20
91.7283707678
 30
0.0
 11
158.6156792726
 21
92.5844438022
 31
0.0
  0
LINE
  5
184
330
1F
100
AcDbEntity
  8
SLD-0
  6
Continuous
 62
   179
370
    25
100
AcDbLine
 10
158.9087767187
 20
93.0396243468
 30
0.0
 11
160.8156988281
 21
93.9064125918
 31
0.0
  0
LINE
  5
185
330
1F
100
AcDbEntity
  8
SLD-0
  6
Continuous
 62
   179
370
    25
100
AcDbLine
 10
154.1156780106
 20
93.9064125918
 30
0.0
 11
160.8156988281
 21
93.9064125918
 31
0.0
  0
LINE
  5
186
330
1F
100
AcDbEntity
  8
SLD-0
  6
Continuous
 62
   179
370
    25
100
AcDbLine
 10
153.6156780106
 20
94.4064125918
 30
0.0
 11
153.6156780106
 21
94.9064125918
 31
0.0
  0
LINE
  5
187
330
1F
100
AcDbEntity
  8
SLD-0
  6
Continuous
 62
   179
370
    25
100
AcDbLine
 10
154.1156780106
 20
95.4064125918
 30
0.0
 11
163.6156780106
 21
95.4064125918
 31
0.0
  0
LINE
  5
188
330
1F
100
AcDbEntity
  8
SLD-0
  6
Continuous
 62
   179
370
    25
100
AcDbLine
 10
164.1156780106
 20
94.228369243
 30
0.0
 11
164.1156780106
 21
94.9064125918
 31
0.0
  0
LINE
  5
189
330
1F
100
AcDbEntity
  8
SLD-0
  6
Continuous
 62
   179
370
    25
100
AcDbLine
 10
160.2656693079
 20
92.156408847
 30
0.0
 11
163.8225794621
 21
93.7731859948
 31
0.0
  0
LINE
  5
18A
330
1F
100
AcDbEntity
  8
SLD-0
  6
Continuous
 62
   179
370
    25
100
AcDbLine
 10
160.2656693079
 20
92.156408847
 30
0.0
 11
163.8225787282
 21
90.5396389523
 31
0.0
  0
LINE
  5
18B
330
1F
100
AcDbEntity
  8
SLD-0
  6
Continuous
 62
   179
370
    25
100
AcDbLine
 10
164.1156780106
 20
90.0844553706
 30
0.0
 11
164.1156780106
 21
89.4064125918
 31
0.0
  0
LINE
  5
18C
330
1F
100
AcDbEntity
  8
SLD-0
  6
Continuous
 62
   179
370
    25
100
AcDbLine
 10
154.1156780106
 20
88.9064125917
 30
0.0
 11
163.6156780106
 21
88.9064125917
 31
0.0
  0
LINE
  5
18D
330
1F
100
AcDbEntity
  8
SLD-0
  6
Continuous
 62
   179
370
    25
100
AcDbLine
 10
153.6156780106
 20
89.4064125917
 30
0.0
 11
153.6156780106
 21
89.9064125917
 31
0.0
  0
LINE
  5
18E
330
1F
100
AcDbEntity
  8
SLD-0
  6
Continuous
 62
   179
370
    25
100
AcDbLine
 10
154.1156780106
 20
90.4064125917
 30
0.0
 11
160.8156740463
 21
90.4064125917
 31
0.0
  0
LINE
  5
18F
330
1F
100
AcDbEntity
  8
SLD-0
  6
Continuous
 62
   179
370
    25
100
AcDbLine
 10
163.0489309605
 20
71.4064616002
 30
0.0
 11
163.5560481236
 21
71.4064616002
 31
0.0
  0
LINE
  5
190
330
1F
100
AcDbEntity
  8
SLD-0
  6
Continuous
 62
   179
370
    25
100
AcDbLine
 10
154.175216604
 20
71.4064616002
 30
0.0
 11
154.6823337671
 21
71.4064616002
 31
0.0
  0
LINE
  5
191
330
1F
100
AcDbEntity
  8
SLD-0
  6
Continuous
 62
   179
370
    25
100
AcDbLine
 10
156.8656780106
 20
56.9064125918
 30
0.0
 11
163.6156740835
 21
56.9064125918
 31
0.0
  0
LINE
  5
192
330
1F
100
AcDbEntity
  8
SLD-0
  6
Continuous
 62
   179
370
    25
100
AcDbLine
 10
156.8656780106
 20
63.4064125918
 30
0.0
 11
163.6156740835
 21
63.4064125918
 31
0.0
  0
LINE
  5
193
330
1F
100
AcDbEntity
  8
SLD-0
  6
Continuous
 62
   179
370
    25
100
AcDbLine
 10
164.1156740835
 20
62.9064125918
 30
0.0
 11
164.1156740835
 21
62.4064125918
 31
0.0
  0
LINE
  5
194
330
1F
100
AcDbEntity
  8
SLD-0
  6
Continuous
 62
   179
370
    25
100
AcDbLine
 10
156.8656780106
 20
61.9064125918
 30
0.0
 11
163.6156740835
 21
61.9064125918
 31
0.0
  0
LINE
  5
195
330
1F
100
AcDbEntity
  8
SLD-0
  6
Continuous
 62
   179
370
    25
100
AcDbLine
 10
156.8656780106
 20
58.4064125918
 30
0.0
 11
163.6156740835
 21
58.4064125918
 31
0.0
  0
LINE
  5
196
330
1F
100
AcDbEntity
  8
SLD-0
  6
Continuous
 62
   179
370
    25
100
AcDbLine
 10
164.1156740835
 20
57.9064125918
 30
0.0
 11
164.1156740835
 21
57.4064125918
 31
0.0
  0
LINE
  5
197
330
1F
100
AcDbEntity
  8
SLD-0
  6
Continuous
 62
   179
370
    25
100
AcDbLine
 10
257.6114402107
 20
57.4064129018
 30
0.0
 11
257.6114402107
 21
57.9064129018
 31
0.0
  0
LINE
  5
198
330
1F
100
AcDbEntity
  8
SLD-0
  6
Continuous
 62
   179
370
    25
100
AcDbLine
 10
257.1114402107
 20
56.9064129018
 30
0.0
 11
256.3572024107
 21
56.9064129018
 31
0.0
  0
LINE
  5
199
330
1F
100
AcDbEntity
  8
SLD-0
  6
Continuous
 62
   179
370
    25
100
AcDbLine
 10
257.1114402107
 20
63.4064129018
 30
0.0
 11
256.3572024107
 21
63.4064129018
 31
0.0
  0
LINE
  5
19A
330
1F
100
AcDbEntity
  8
SLD-0
  6
Continuous
 62
   179
370
    25
100
AcDbLine
 10
257.6114402107
 20
62.4064129018
 30
0.0
 11
257.6114402107
 21
62.9064129018
 31
0.0
  0
LINE
  5
19B
330
1F
100
AcDbEntity
  8
SLD-0
  6
Continuous
 62
   179
370
    25
100
AcDbLine
 10
257.1114402107
 20
61.9064129018
 30
0.0
 11
256.3572024107
 21
61.9064129018
 31
0.0
  0
LINE
  5
19C
330
1F
100
AcDbEntity
  8
SLD-0
  6
Continuous
 62
   179
370
    25
100
AcDbLine
 10
257.1114402107
 20
58.4064129018
 30
0.0
 11
256.3572024107
 21
58.4064129018
 31
0.0
  0
LINE
  5
19D
330
1F
100
AcDbEntity
  8
SLD-0
  6
Continuous
 62
   179
370
    25
100
AcDbLine
 10
255.1156780106
 20
93.9064125918
 30
0.0
 11
255.1156780106
 21
89.4064146534
 31
0.0
  0
LINE
  5
19E
330
1F
100
AcDbEntity
  8
SLD-0
  6
Continuous
 62
   179
370
    25
100
AcDbLine
 10
254.6156780106
 20
88.9064146534
 30
0.0
 11
253.6156780106
 21
88.9064146534
 31
0.0
  0
LINE
  5
19F
330
1F
100
AcDbEntity
  8
SLD-0
  6
Continuous
 62
   179
370
    25
100
AcDbLine
 10
253.1156780106
 20
89.4064146534
 30
0.0
 11
253.1156780106
 21
94.9064125918
 31
0.0
  0
LINE
  5
1A0
330
1F
100
AcDbEntity
  8
SLD-0
  6
Continuous
 62
   179
370
    25
100
AcDbLine
 10
263.1156780106
 20
95.4064125918
 30
0.0
 11
253.6156780106
 21
95.4064125918
 31
0.0
  0
LINE
  5
1A1
330
1F
100
AcDbEntity
  8
SLD-0
  6
Continuous
 62
   179
370
    25
100
AcDbLine
 10
263.6156780106
 20
94.9064125918
 30
0.0
 11
263.6156780106
 21
89.4064125918
 31
0.0
  0
LINE
  5
1A2
330
1F
100
AcDbEntity
  8
SLD-0
  6
Continuous
 62
   179
370
    25
100
AcDbLine
 10
263.1156780106
 20
88.9064125918
 30
0.0
 11
262.1156773826
 21
88.9064125918
 31
0.0
  0
LINE
  5
1A3
330
1F
100
AcDbEntity
  8
SLD-0
  6
Continuous
 62
   179
370
    25
100
AcDbLine
 10
261.6156717304
 20
93.9064125918
 30
0.0
 11
261.6156773826
 21
89.4064119637
 31
0.0
  0
LINE
  5
1A4
330
1F
100
AcDbEntity
  8
SLD-0
  6
Continuous
 62
   179
370
    25
100
AcDbLine
 10
261.6156717304
 20
93.9064125918
 30
0.0
 11
259.3656740835
 21
93.9064125918
 31
0.0
  0
LINE
  5
1A5
330
1F
100
AcDbEntity
  8
SLD-0
  6
Continuous
 62
   179
370
    25
100
AcDbLine
 10
259.3656740835
 20
93.9064125918
 30
0.0
 11
259.3656740835
 21
90.9064125918
 31
0.0
  0
LINE
  5
1A6
330
1F
100
AcDbEntity
  8
SLD-0
  6
Continuous
 62
   179
370
    25
100
AcDbLine
 10
258.8656740835
 20
90.4064125918
 30
0.0
 11
257.8656740835
 21
90.4064125918
 31
0.0
  0
LINE
  5
1A7
330
1F
100
AcDbEntity
  8
SLD-0
  6
Continuous
 62
   179
370
    25
100
AcDbLine
 10
257.3656740835
 20
93.9064125918
 30
0.0
 11
257.3656740835
 21
90.9064125918
 31
0.0
  0
LINE
  5
1A8
330
1F
100
AcDbEntity
  8
SLD-0
  6
Continuous
 62
   179
370
    25
100
AcDbLine
 10
257.3656740835
 20
93.9064125918
 30
0.0
 11
255.1156780106
 21
93.9064125918
 31
0.0
  0
LINE
  5
1A9
330
1F
100
AcDbEntity
  8
SLD-0
  6
Continuous
 62
   179
370
    25
100
AcDbLine
 10
263.1156780106
 20
82.4064125918
 30
0.0
 11
256.4156574329
 21
82.4064125918
 31
0.0
  0
LINE
  5
1AA
330
1F
100
AcDbEntity
  8
SLD-0
  6
Continuous
 62
   179
370
    25
100
AcDbLine
 10
263.6156780106
 20
81.9064125918
 30
0.0
 11
263.6156780106
 21
81.4064125918
 31
0.0
  0
LINE
  5
1AB
330
1F
100
AcDbEntity
  8
SLD-0
  6
Continuous
 62
   179
370
    25
100
AcDbLine
 10
263.1156780106
 20
80.9064125918
 30
0.0
 11
253.6156780106
 21
80.9064125918
 31
0.0
  0
LINE
  5
1AC
330
1F
100
AcDbEntity
  8
SLD-0
  6
Continuous
 62
   179
370
    25
100
AcDbLine
 10
253.1156780106
 20
82.0844568825
 30
0.0
 11
253.1156780106
 21
81.4064125918
 31
0.0
  0
LINE
  5
1AD
330
1F
100
AcDbEntity
  8
SLD-0
  6
Continuous
 62
   179
370
    25
100
AcDbLine
 10
256.9656748035
 20
84.156423296
 30
0.0
 11
253.4087753468
 21
82.5396395795
 31
0.0
  0
LINE
  5
1AE
330
1F
100
AcDbEntity
  8
SLD-0
  6
Continuous
 62
   179
370
    25
100
AcDbLine
 10
256.9656748035
 20
84.156423296
 30
0.0
 11
253.4087774445
 21
85.7731862803
 31
0.0
  0
LINE
  5
1AF
330
1F
100
AcDbEntity
  8
SLD-0
  6
Continuous
 62
   179
370
    25
100
AcDbLine
 10
253.1156780106
 20
86.2283699309
 30
0.0
 11
253.1156780106
 21
86.9064125918
 31
0.0
  0
LINE
  5
1B0
330
1F
100
AcDbEntity
  8
SLD-0
  6
Continuous
 62
   179
370
    25
100
AcDbLine
 10
263.1156780106
 20
87.4064125918
 30
0.0
 11
253.6156780106
 21
87.4064125918
 31
0.0
  0
LINE
  5
1B1
330
1F
100
AcDbEntity
  8
SLD-0
  6
Continuous
 62
   179
370
    25
100
AcDbLine
 10
263.6156780106
 20
86.9064125918
 30
0.0
 11
263.6156780106
 21
86.4064125918
 31
0.0
  0
LINE
  5
1B2
330
1F
100
AcDbEntity
  8
SLD-0
  6
Continuous
 62
   179
370
    25
100
AcDbLine
 10
263.1156780106
 20
85.9064125918
 30
0.0
 11
256.4156946614
 21
85.9064125918
 31
0.0
  0
LINE
  5
1B3
330
1F
100
AcDbEntity
  8
SLD-0
  6
Continuous
 62
   179
370
    25
100
AcDbLine
 10
258.3225731194
 20
85.0396529983
 30
0.0
 11
256.4156946614
 21
85.9064125918
 31
0.0
  0
LINE
  5
1B4
330
1F
100
AcDbEntity
  8
SLD-0
  6
Continuous
 62
   179
370
    25
100
AcDbLine
 10
258.6156723084
 20
84.584470768
 30
0.0
 11
258.6156745496
 21
83.7283837213
 31
0.0
  0
LINE
  5
1B5
330
1F
100
AcDbEntity
  8
SLD-0
  6
Continuous
 62
   179
370
    25
100
AcDbLine
 10
258.3225770911
 20
83.2731996596
 30
0.0
 11
256.4156574329
 21
82.4064125918
 31
0.0
  0
LINE
  5
1B6
330
1F
100
AcDbEntity
  8
SLD-0
  6
Continuous
 62
   179
370
    25
100
AcDbLine
 10
160.815700727
 20
85.9064125918
 30
0.0
 11
158.9087818039
 21
85.0396252963
 31
0.0
  0
LINE
  5
1B7
330
1F
100
AcDbEntity
  8
SLD-0
  6
Continuous
 62
   179
370
    25
100
AcDbLine
 10
154.1156780106
 20
85.9064125918
 30
0.0
 11
160.815700727
 21
85.9064125918
 31
0.0
  0
LINE
  5
1B8
330
1F
100
AcDbEntity
  8
SLD-0
  6
Continuous
 62
   179
370
    25
100
AcDbLine
 10
153.6156780106
 20
86.4064125918
 30
0.0
 11
153.6156780106
 21
86.9064125918
 31
0.0
  0
LINE
  5
1B9
330
1F
100
AcDbEntity
  8
SLD-0
  6
Continuous
 62
   179
370
    25
100
AcDbLine
 10
154.1156780106
 20
87.4064125918
 30
0.0
 11
163.6156780106
 21
87.4064125918
 31
0.0
  0
LINE
  5
1BA
330
1F
100
AcDbEntity
  8
SLD-0
  6
Continuous
 62
   179
370
    25
100
AcDbLine
 10
164.1156780106
 20
86.2283683098
 30
0.0
 11
164.1156780106
 21
86.9064125918
 31
0.0
  0
LINE
  5
1BB
330
1F
100
AcDbEntity
  8
SLD-0
  6
Continuous
 62
   179
370
    25
100
AcDbLine
 10
160.2656825227
 20
84.1564025961
 30
0.0
 11
163.8225806631
 21
85.7731856076
 31
0.0
  0
LINE
  5
1BC
330
1F
100
AcDbEntity
  8
SLD-0
  6
Continuous
 62
   179
370
    25
100
AcDbLine
 10
160.2656825227
 20
84.1564025961
 30
0.0
 11
163.8225787043
 21
82.5396389444
 31
0.0
  0
LINE
  5
1BD
330
1F
100
AcDbEntity
  8
SLD-0
  6
Continuous
 62
   179
370
    25
100
AcDbLine
 10
164.1156780106
 20
82.0844553518
 30
0.0
 11
164.1156780106
 21
81.4064125918
 31
0.0
  0
LINE
  5
1BE
330
1F
100
AcDbEntity
  8
SLD-0
  6
Continuous
 62
   179
370
    25
100
AcDbLine
 10
154.1156780107
 20
80.9064125917
 30
0.0
 11
163.6156780107
 21
80.9064125917
 31
0.0
  0
LINE
  5
1BF
330
1F
100
AcDbEntity
  8
SLD-0
  6
Continuous
 62
   179
370
    25
100
AcDbLine
 10
153.6156780107
 20
81.4064125917
 30
0.0
 11
153.6156780107
 21
81.9064125917
 31
0.0
  0
LINE
  5
1C0
330
1F
100
AcDbEntity
  8
SLD-0
  6
Continuous
 62
   179
370
    25
100
AcDbLine
 10
154.1156780107
 20
82.4064125917
 30
0.0
 11
160.8156614434
 21
82.4064125917
 31
0.0
  0
LINE
  5
1C1
330
1F
100
AcDbEntity
  8
SLD-0
  6
Continuous
 62
   179
370
    25
100
AcDbLine
 10
158.9087836392
 20
83.2731719197
 30
0.0
 11
160.8156614434
 21
82.4064125917
 31
0.0
  0
LINE
  5
1C2
330
1F
100
AcDbEntity
  8
SLD-0
  6
Continuous
 62
   179
370
    25
100
AcDbLine
 10
158.6156844565
 20
83.7283554561
 30
0.0
 11
158.6156844565
 21
84.5844425941
 31
0.0
  0
LINE
  5
1C3
330
1F
100
AcDbEntity
  8
SLD-0
  6
Continuous
 62
   179
370
    25
100
AcDbLine
 10
160.2656812177
 20
52.1564018876
 30
0.0
 11
163.8225806744
 21
53.773185604
 31
0.0
  0
LINE
  5
1C4
330
1F
100
AcDbEntity
  8
SLD-0
  6
Continuous
 62
   179
370
    25
100
AcDbLine
 10
160.2656812177
 20
52.1564018876
 30
0.0
 11
163.8225785767
 21
50.5396389033
 31
0.0
  0
LINE
  5
1C5
330
1F
100
AcDbEntity
  8
SLD-0
  6
Continuous
 62
   179
370
    25
100
AcDbLine
 10
164.1156780106
 20
50.0844552527
 30
0.0
 11
164.1156780106
 21
49.4064125918
 31
0.0
  0
LINE
  5
1C6
330
1F
100
AcDbEntity
  8
SLD-0
  6
Continuous
 62
   179
370
    25
100
AcDbLine
 10
154.1156780106
 20
48.9064125918
 30
0.0
 11
163.6156780106
 21
48.9064125918
 31
0.0
  0
LINE
  5
1C7
330
1F
100
AcDbEntity
  8
SLD-0
  6
Continuous
 62
   179
370
    25
100
AcDbLine
 10
153.6156780106
 20
49.4064125918
 30
0.0
 11
153.6156780106
 21
49.9064125918
 31
0.0
  0
LINE
  5
1C8
330
1F
100
AcDbEntity
  8
SLD-0
  6
Continuous
 62
   179
370
    25
100
AcDbLine
 10
154.1156780106
 20
50.4064125918
 30
0.0
 11
160.8156613598
 21
50.4064125918
 31
0.0
  0
LINE
  5
1C9
330
1F
100
AcDbEntity
  8
SLD-0
  6
Continuous
 62
   179
370
    25
100
AcDbLine
 10
158.9087829018
 20
51.2731721853
 30
0.0
 11
160.8156613598
 21
50.4064125918
 31
0.0
  0
LINE
  5
1CA
330
1F
100
AcDbEntity
  8
SLD-0
  6
Continuous
 62
   179
370
    25
100
AcDbLine
 10
158.6156837127
 20
51.7283544156
 30
0.0
 11
158.6156814715
 21
52.5844414623
 31
0.0
  0
LINE
  5
1CB
330
1F
100
AcDbEntity
  8
SLD-0
  6
Continuous
 62
   179
370
    25
100
AcDbLine
 10
158.9087789301
 20
53.039625524
 30
0.0
 11
160.8156985883
 21
53.9064125918
 31
0.0
  0
LINE
  5
1CC
330
1F
100
AcDbEntity
  8
SLD-0
  6
Continuous
 62
   179
370
    25
100
AcDbLine
 10
154.1156780106
 20
53.9064125918
 30
0.0
 11
160.8156985883
 21
53.9064125918
 31
0.0
  0
LINE
  5
1CD
330
1F
100
AcDbEntity
  8
SLD-0
  6
Continuous
 62
   179
370
    25
100
AcDbLine
 10
153.6156780106
 20
54.4064125918
 30
0.0
 11
153.6156780106
 21
54.9064125918
 31
0.0
  0
LINE
  5
1CE
330
1F
100
AcDbEntity
  8
SLD-0
  6
Continuous
 62
   179
370
    25
100
AcDbLine
 10
154.1156780106
 20
55.4064125918
 30
0.0
 11
163.6156780106
 21
55.4064125918
 31
0.0
  0
LINE
  5
1CF
330
1F
100
AcDbEntity
  8
SLD-0
  6
Continuous
 62
   179
370
    25
100
AcDbLine
 10
164.1156780106
 20
54.2283683011
 30
0.0
 11
164.1156780106
 21
54.9064125918
 31
0.0
  0
LINE
  5
1D0
330
1F
100
AcDbEntity
  8
SLD-0
  6
Continuous
 62
   179
370
    25
100
AcDbLine
 10
160.1199158105
 20
77.9064122818
 30
0.0
 11
160.8741536105
 21
77.9064122818
 31
0.0
  0
LINE
  5
1D1
330
1F
100
AcDbEntity
  8
SLD-0
  6
Continuous
 62
   179
370
    25
100
AcDbLine
 10
159.6199158105
 20
78.9064122818
 30
0.0
 11
159.6199158105
 21
78.4064122818
 31
0.0
  0
LINE
  5
1D2
330
1F
100
AcDbEntity
  8
SLD-0
  6
Continuous
 62
   179
370
    25
100
AcDbLine
 10
160.1199158105
 20
79.4064122818
 30
0.0
 11
160.8741536105
 21
79.4064122818
 31
0.0
  0
LINE
  5
1D3
330
1F
100
AcDbEntity
  8
SLD-0
  6
Continuous
 62
   179
370
    25
100
AcDbLine
 10
160.1199158105
 20
72.9064122818
 30
0.0
 11
160.8741536105
 21
72.9064122818
 31
0.0
  0
LINE
  5
1D4
330
1F
100
AcDbEntity
  8
SLD-0
  6
Continuous
 62
   179
370
    25
100
AcDbLine
 10
159.6199158105
 20
73.9064122818
 30
0.0
 11
159.6199158105
 21
73.4064122818
 31
0.0
  0
LINE
  5
1D5
330
1F
100
AcDbEntity
  8
SLD-0
  6
Continuous
 62
   179
370
    25
100
AcDbLine
 10
160.1199158105
 20
74.4064122818
 30
0.0
 11
160.8741536105
 21
74.4064122818
 31
0.0
  0
LINE
  5
1D6
330
1F
100
AcDbEntity
  8
SLD-0
  6
Continuous
 62
   179
370
    25
100
AcDbLine
 10
260.3656780106
 20
77.9064125918
 30
0.0
 11
253.6156819377
 21
77.9064125918
 31
0.0
  0
LINE
  5
1D7
330
1F
100
AcDbEntity
  8
SLD-0
  6
Continuous
 62
   179
370
    25
100
AcDbLine
 10
253.1156819377
 20
78.4064125918
 30
0.0
 11
253.1156819377
 21
78.9064125918
 31
0.0
  0
LINE
  5
1D8
330
1F
100
AcDbEntity
  8
SLD-0
  6
Continuous
 62
   179
370
    25
100
AcDbLine
 10
260.3656780106
 20
79.4064125918
 30
0.0
 11
253.6156819377
 21
79.4064125918
 31
0.0
  0
LINE
  5
1D9
330
1F
100
AcDbEntity
  8
SLD-0
  6
Continuous
 62
   179
370
    25
100
AcDbLine
 10
260.3656780106
 20
72.9064125918
 30
0.0
 11
253.6156819377
 21
72.9064125918
 31
0.0
  0
LINE
  5
1DA
330
1F
100
AcDbEntity
  8
SLD-0
  6
Continuous
 62
   179
370
    25
100
AcDbLine
 10
253.1156819377
 20
73.4064125918
 30
0.0
 11
253.1156819377
 21
73.9064125918
 31
0.0
  0
LINE
  5
1DB
330
1F
100
AcDbEntity
  8
SLD-0
  6
Continuous
 62
   179
370
    25
100
AcDbLine
 10
260.3656780106
 20
74.4064125918
 30
0.0
 11
253.6156819377
 21
74.4064125918
 31
0.0
  0
LINE
  5
1DC
330
1F
100
AcDbEntity
  8
SLD-0
  6
Continuous
 62
   179
370
    25
100
AcDbLine
 10
203.7043818047
 20
29.2254635894
 30
0.0
 11
203.7043818047
 21
29.8484899195
 31
0.0
  0
LINE
  5
1DD
330
1F
100
AcDbEntity
  8
SLD-0
  6
Continuous
 62
   179
370
    25
100
AcDbLine
 10
205.2043818047
 20
29.8484899195
 30
0.0
 11
205.2043818047
 21
29.2254635894
 31
0.0
  0
LINE
  5
1DE
330
1F
100
AcDbEntity
  8
SLD-0
  6
Continuous
 62
   179
370
    25
100
AcDbLine
 10
206.2043818047
 20
29.8484899195
 30
0.0
 11
206.2043818047
 21
29.2254635894
 31
0.0
  0
LINE
  5
1DF
330
1F
100
AcDbEntity
  8
SLD-0
  6
Continuous
 62
   179
370
    25
100
AcDbLine
 10
202.7043818047
 20
29.2254635894
 30
0.0
 11
202.7043818047
 21
29.8484899195
 31
0.0
  0
LINE
  5
1E0
330
1F
100
AcDbEntity
  8
SLD-0
  6
Continuous
 62
   179
370
    25
100
AcDbLine
 10
213.9363031511
 20
30.3650942625
 30
0.0
 11
213.6306969389
 21
30.0186557809
 31
0.0
  0
LINE
  5
1E1
330
1F
100
AcDbEntity
  8
SLD-0
  6
Continuous
 62
   179
370
    25
100
AcDbLine
 10
213.7105750813
 20
31.3078445462
 30
0.0
 11
213.9508278533
 21
31.0093916564
 31
0.0
  0
ARC
  5
1E2
330
1F
100
AcDbEntity
  8
SLD-0
  6
Continuous
 62
   179
370
    25
100
AcDbCircle
 10
204.4543818047
 20
32.4715162497
 30
0.0
 40
0.75
100
AcDbArc
 50
0.0
 51
180.0
  0
ARC
  5
1E3
330
1F
100
AcDbEntity
  8
SLD-0
  6
Continuous
 62
   179
370
    25
100
AcDbCircle
 10
203.2043818047
 20
31.8484899195
 30
0.0
 40
0.5
100
AcDbArc
 50
180.0
 51
0.0
  0
ARC
  5
1E4
330
1F
100
AcDbEntity
  8
SLD-0
  6
Continuous
 62
   179
370
    25
100
AcDbCircle
 10
204.4543818047
 20
32.4715162497
 30
0.0
 40
1.75
100
AcDbArc
 50
0.0
 51
180.0
  0
ARC
  5
1E5
330
1F
100
AcDbEntity
  8
SLD-0
  6
Continuous
 62
   179
370
    25
100
AcDbCircle
 10
205.7043818047
 20
31.8484899195
 30
0.0
 40
0.5
100
AcDbArc
 50
180.0
 51
0.0
  0
ARC
  5
1E6
330
1F
100
AcDbEntity
  8
SLD-0
  6
Continuous
 62
   179
370
    25
100
AcDbCircle
 10
208.9543818047
 20
32.4715162497
 30
0.0
 40
1.750000000000018
100
AcDbArc
 50
291.9602353513
 51
248.0397646487
  0
ARC
  5
1E7
330
1F
100
AcDbEntity
  8
SLD-0
  6
Continuous
 62
   179
370
    25
100
AcDbCircle
 10
208.9543818047
 20
29.2254635894
 30
0.0
 40
1.749999999990792
100
AcDbArc
 50
111.9602353514
 51
68.0397646486
  0
ARC
  5
1E8
330
1F
100
AcDbEntity
  8
SLD-0
  6
Continuous
 62
   179
370
    25
100
AcDbCircle
 10
263.1156780107
 20
49.9064125917
 30
0.0
 40
0.5
100
AcDbArc
 50
0.0
 51
90.0
  0
ARC
  5
1E9
330
1F
100
AcDbEntity
  8
SLD-0
  6
Continuous
 62
   179
370
    25
100
AcDbCircle
 10
263.1156780107
 20
49.4064125918
 30
0.0
 40
0.5000000000000071
100
AcDbArc
 50
269.9999999935
 51
359.999999994
  0
ARC
  5
1EA
330
1F
100
AcDbEntity
  8
SLD-0
  6
Continuous
 62
   179
370
    25
100
AcDbCircle
 10
253.6156780106
 20
49.4064125918
 30
0.0
 40
0.5
100
AcDbArc
 50
180.0
 51
270.0
  0
ARC
  5
1EB
330
1F
100
AcDbEntity
  8
SLD-0
  6
Continuous
 62
   179
370
    25
100
AcDbCircle
 10
253.6156780106
 20
50.0844568738
 30
0.0
 40
0.5000000000000102
100
AcDbArc
 50
114.4441033604
 51
180.0
  0
ARC
  5
1EC
330
1F
100
AcDbEntity
  8
SLD-0
  6
Continuous
 62
   179
370
    25
100
AcDbCircle
 10
253.6156780106
 20
54.2283698318
 30
0.0
 40
0.5000000000129093
100
AcDbArc
 50
180.0
 51
245.5561432077
  0
ARC
  5
1ED
330
1F
100
AcDbEntity
  8
SLD-0
  6
Continuous
 62
   179
370
    25
100
AcDbCircle
 10
253.6156780106
 20
54.9064125918
 30
0.0
 40
0.5
100
AcDbArc
 50
90.0
 51
180.0
  0
ARC
  5
1EE
330
1F
100
AcDbEntity
  8
SLD-0
  6
Continuous
 62
   179
370
    25
100
AcDbCircle
 10
263.1156780106
 20
54.9064125918
 30
0.0
 40
0.5
100
AcDbArc
 50
0.0
 51
90.0
  0
ARC
  5
1EF
330
1F
100
AcDbEntity
  8
SLD-0
  6
Continuous
 62
   179
370
    25
100
AcDbCircle
 10
263.1156780106
 20
54.4064125918
 30
0.0
 40
0.5
100
AcDbArc
 50
270.0
 51
0.0
  0
ARC
  5
1F0
330
1F
100
AcDbEntity
  8
SLD-0
  6
Continuous
 62
   179
370
    25
100
AcDbCircle
 10
258.1156715648
 20
52.5844697274
 30
0.0
 40
0.5000000000045475
100
AcDbArc
 50
0.0
 51
65.5561276488
  0
ARC
  5
1F1
330
1F
100
AcDbEntity
  8
SLD-0
  6
Continuous
 62
   179
370
    25
100
AcDbCircle
 10
258.1156715649
 20
51.7283825894
 30
0.0
 40
0.499999999951342
100
AcDbArc
 50
294.444103361
 51
0.0
  0
ARC
  5
1F2
330
1F
100
AcDbEntity
  8
SLD-0
  6
Continuous
 62
   179
370
    25
100
AcDbCircle
 10
258.3657236574
 20
66.1563635834
 30
0.0
 40
3.749998488146739
100
AcDbArc
 50
349.8357477241
 51
190.1642522759
  0
ARC
  5
1F3
330
1F
100
AcDbEntity
  8
SLD-0
  6
Continuous
 62
   179
370
    25
100
AcDbCircle
 10
254.1824250607
 20
65.4063635834
 30
0.0
 40
0.4999999999942588
100
AcDbArc
 50
269.9999999992
 51
10.1642522766
  0
ARC
  5
1F4
330
1F
100
AcDbEntity
  8
SLD-0
  6
Continuous
 62
   179
370
    25
100
AcDbCircle
 10
253.6753078976
 20
65.4063635834
 30
0.0
 40
0.5
100
AcDbArc
 50
189.0847202874
 51
270.0
  0
ARC
  5
1F5
330
1F
100
AcDbEntity
  8
SLD-0
  6
Continuous
 62
   179
370
    25
100
AcDbCircle
 10
258.3657236574
 20
66.1563635834
 30
0.0
 40
5.249999999988451
100
AcDbArc
 50
350.9152797126
 51
189.0847202874
  0
ARC
  5
1F6
330
1F
100
AcDbEntity
  8
SLD-0
  6
Continuous
 62
   179
370
    25
100
AcDbCircle
 10
263.0561394172
 20
65.4063635834
 30
0.0
 40
0.5000000000115676
100
AcDbArc
 50
270.0000000003
 51
350.9152797111
  0
ARC
  5
1F7
330
1F
100
AcDbEntity
  8
SLD-0
  6
Continuous
 62
   179
370
    25
100
AcDbCircle
 10
262.5490222541
 20
65.4063635834
 30
0.0
 40
0.4999999999943321
100
AcDbArc
 50
169.8357477241
 51
270.0
  0
ARC
  5
1F8
330
1F
100
AcDbEntity
  8
SLD-0
  6
Continuous
 62
   179
370
    25
100
AcDbCircle
 10
162.6156780106
 20
46.9064105302
 30
0.0
 40
0.5
100
AcDbArc
 50
90.0
 51
180.0
  0
ARC
  5
1F9
330
1F
100
AcDbEntity
  8
SLD-0
  6
Continuous
 62
   179
370
    25
100
AcDbCircle
 10
163.6156780106
 20
46.9064105302
 30
0.0
 40
0.5
100
AcDbArc
 50
0.0
 51
90.0
  0
ARC
  5
1FA
330
1F
100
AcDbEntity
  8
SLD-0
  6
Continuous
 62
   179
370
    25
100
AcDbCircle
 10
163.6156780106
 20
41.4064125918
 30
0.0
 40
0.5
100
AcDbArc
 50
270.0
 51
0.0
  0
ARC
  5
1FB
330
1F
100
AcDbEntity
  8
SLD-0
  6
Continuous
 62
   179
370
    25
100
AcDbCircle
 10
154.1156780106
 20
41.4064125918
 30
0.0
 40
0.5
100
AcDbArc
 50
180.0
 51
270.0
  0
ARC
  5
1FC
330
1F
100
AcDbEntity
  8
SLD-0
  6
Continuous
 62
   179
370
    25
100
AcDbCircle
 10
154.1156780106
 20
46.9064125918
 30
0.0
 40
0.5
100
AcDbArc
 50
90.0
 51
180.0
  0
ARC
  5
1FD
330
1F
100
AcDbEntity
  8
SLD-0
  6
Continuous
 62
   179
370
    25
100
AcDbCircle
 10
155.1156786386
 20
46.9064125918
 30
0.0
 40
0.5
100
AcDbArc
 50
0.0000719657
 51
90.0
  0
ARC
  5
1FE
330
1F
100
AcDbEntity
  8
SLD-0
  6
Continuous
 62
   179
370
    25
100
AcDbCircle
 10
158.3656780106
 20
45.4064125918
 30
0.0
 40
0.5
100
AcDbArc
 50
90.0
 51
180.0
  0
ARC
  5
1FF
330
1F
100
AcDbEntity
  8
SLD-0
  6
Continuous
 62
   179
370
    25
100
AcDbCircle
 10
159.3656780106
 20
45.4064125918
 30
0.0
 40
0.5000000000000071
100
AcDbArc
 50
0.0
 51
90.0
  0
ARC
  5
200
330
1F
100
AcDbEntity
  8
SLD-0
  6
Continuous
 62
   179
370
    25
100
AcDbCircle
 10
156.8656780106
 20
76.1564122818
 30
0.0
 40
1.750000000000014
100
AcDbArc
 50
90.0
 51
270.0
  0
ARC
  5
201
330
1F
100
AcDbEntity
  8
SLD-0
  6
Continuous
 62
   179
370
    25
100
AcDbCircle
 10
157.6199158105
 20
73.9064122818
 30
0.0
 40
0.5
100
AcDbArc
 50
0.0
 51
90.0
  0
ARC
  5
202
330
1F
100
AcDbEntity
  8
SLD-0
  6
Continuous
 62
   179
370
    25
100
AcDbCircle
 10
157.6199158105
 20
73.4064122818
 30
0.0
 40
0.5
100
AcDbArc
 50
270.0
 51
0.0
  0
ARC
  5
203
330
1F
100
AcDbEntity
  8
SLD-0
  6
Continuous
 62
   179
370
    25
100
AcDbCircle
 10
156.8656780106
 20
76.1564122818
 30
0.0
 40
3.250000000000014
100
AcDbArc
 50
90.0
 51
270.0
  0
ARC
  5
204
330
1F
100
AcDbEntity
  8
SLD-0
  6
Continuous
 62
   179
370
    25
100
AcDbCircle
 10
157.6199158105
 20
78.9064122818
 30
0.0
 40
0.5
100
AcDbArc
 50
0.0
 51
90.0
  0
ARC
  5
205
330
1F
100
AcDbEntity
  8
SLD-0
  6
Continuous
 62
   179
370
    25
100
AcDbCircle
 10
157.6199158105
 20
78.4064122818
 30
0.0
 40
0.5
100
AcDbArc
 50
270.0
 51
0.0
  0
ARC
  5
206
330
1F
100
AcDbEntity
  8
SLD-0
  6
Continuous
 62
   179
370
    25
100
AcDbCircle
 10
260.3656780106
 20
60.1564129018
 30
0.0
 40
3.250000000000014
100
AcDbArc
 50
270.0
 51
90.0
  0
ARC
  5
207
330
1F
100
AcDbEntity
  8
SLD-0
  6
Continuous
 62
   179
370
    25
100
AcDbCircle
 10
259.6114402107
 20
57.4064129018
 30
0.0
 40
0.5
100
AcDbArc
 50
180.0
 51
270.0
  0
ARC
  5
208
330
1F
100
AcDbEntity
  8
SLD-0
  6
Continuous
 62
   179
370
    25
100
AcDbCircle
 10
259.6114402107
 20
57.9064129018
 30
0.0
 40
0.5
100
AcDbArc
 50
90.0
 51
180.0
  0
ARC
  5
209
330
1F
100
AcDbEntity
  8
SLD-0
  6
Continuous
 62
   179
370
    25
100
AcDbCircle
 10
260.3656780106
 20
60.1564129018
 30
0.0
 40
1.750000000000014
100
AcDbArc
 50
270.0
 51
90.0
  0
ARC
  5
20A
330
1F
100
AcDbEntity
  8
SLD-0
  6
Continuous
 62
   179
370
    25
100
AcDbCircle
 10
259.6114402107
 20
62.4064129018
 30
0.0
 40
0.5
100
AcDbArc
 50
180.0
 51
270.0
  0
ARC
  5
20B
330
1F
100
AcDbEntity
  8
SLD-0
  6
Continuous
 62
   179
370
    25
100
AcDbCircle
 10
259.6114402107
 20
62.9064129018
 30
0.0
 40
0.5
100
AcDbArc
 50
90.0
 51
180.0
  0
ARC
  5
20C
330
1F
100
AcDbEntity
  8
SLD-0
  6
Continuous
 62
   179
370
    25
100
AcDbCircle
 10
263.1156780106
 20
46.9064125918
 30
0.0
 40
0.5
100
AcDbArc
 50
0.0
 51
90.0
  0
ARC
  5
20D
330
1F
100
AcDbEntity
  8
SLD-0
  6
Continuous
 62
   179
370
    25
100
AcDbCircle
 10
263.1156780106
 20
46.4064125918
 30
0.0
 40
0.5
100
AcDbArc
 50
270.0
 51
0.0
  0
ARC
  5
20E
330
1F
100
AcDbEntity
  8
SLD-0
  6
Continuous
 62
   179
370
    25
100
AcDbCircle
 10
258.1156805195
 20
44.5844566181
 30
0.0
 40
0.4999999999753489
100
AcDbArc
 50
359.9997476218
 51
65.5560452234
  0
ARC
  5
20F
330
1F
100
AcDbEntity
  8
SLD-0
  6
Continuous
 62
   179
370
    25
100
AcDbCircle
 10
258.1156767486
 20
43.7283835837
 30
0.0
 40
0.5000000000024631
100
AcDbArc
 50
294.4440909404
 51
359.9997476236
  0
ARC
  5
210
330
1F
100
AcDbEntity
  8
SLD-0
  6
Continuous
 62
   179
370
    25
100
AcDbCircle
 10
263.1156780106
 20
41.9064125917
 30
0.0
 40
0.5
100
AcDbArc
 50
0.0
 51
90.0
  0
ARC
  5
211
330
1F
100
AcDbEntity
  8
SLD-0
  6
Continuous
 62
   179
370
    25
100
AcDbCircle
 10
263.1156780106
 20
41.4064125918
 30
0.0
 40
0.5
100
AcDbArc
 50
270.000000003
 51
359.9999999976
  0
ARC
  5
212
330
1F
100
AcDbEntity
  8
SLD-0
  6
Continuous
 62
   179
370
    25
100
AcDbCircle
 10
253.6156780106
 20
41.4064125918
 30
0.0
 40
0.5
100
AcDbArc
 50
180.0
 51
270.0
  0
ARC
  5
213
330
1F
100
AcDbEntity
  8
SLD-0
  6
Continuous
 62
   179
370
    25
100
AcDbCircle
 10
253.6156780106
 20
42.0844559406
 30
0.0
 40
0.5
100
AcDbArc
 50
114.4439521785
 51
180.0
  0
ARC
  5
214
330
1F
100
AcDbEntity
  8
SLD-0
  6
Continuous
 62
   179
370
    25
100
AcDbCircle
 10
253.6156780106
 20
46.228369813
 30
0.0
 40
0.4999999999963336
100
AcDbArc
 50
180.0
 51
245.5561401975
  0
ARC
  5
215
330
1F
100
AcDbEntity
  8
SLD-0
  6
Continuous
 62
   179
370
    25
100
AcDbCircle
 10
253.6156780106
 20
46.9064125918
 30
0.0
 40
0.5
100
AcDbArc
 50
90.0
 51
180.0
  0
ARC
  5
216
330
1F
100
AcDbEntity
  8
SLD-0
  6
Continuous
 62
   179
370
    25
100
AcDbCircle
 10
228.6156780106
 20
45.6127530162
 30
0.0
 40
3.650000000000029
100
AcDbArc
 50
342.090430003
 51
56.0976150873
  0
ARC
  5
217
330
1F
100
AcDbEntity
  8
SLD-0
  6
Continuous
 62
   179
370
    25
100
AcDbCircle
 10
232.0460229037
 20
50.7171857873
 30
0.0
 40
2.500000000012061
100
AcDbArc
 50
230.0527634049
 51
236.0976150866
  0
ARC
  5
218
330
1F
100
AcDbEntity
  8
SLD-0
  6
Continuous
 62
   179
370
    25
100
AcDbCircle
 10
222.6734417383
 20
52.0450187581
 30
0.0
 40
2.50000000001267
100
AcDbArc
 50
50.0527634042
 51
52.1149883766
  0
ARC
  5
219
330
1F
100
AcDbEntity
  8
SLD-0
  6
Continuous
 62
   179
370
    25
100
AcDbCircle
 10
224.5156780106
 20
54.4127530162
 30
0.0
 40
0.4999999999965096
100
AcDbArc
 50
199.7373352473
 51
232.114988375
  0
ARC
  5
21A
330
1F
100
AcDbEntity
  8
SLD-0
  6
Continuous
 62
   179
370
    25
100
AcDbCircle
 10
221.6919259528
 20
53.3996270042
 30
0.0
 40
2.500000000010079
100
AcDbArc
 50
19.7373352472
 51
27.0431651118
  0
ARC
  5
21B
330
1F
100
AcDbEntity
  8
SLD-0
  6
Continuous
 62
   179
370
    25
100
AcDbCircle
 10
224.3819998753
 20
59.1270672711
 30
0.0
 40
2.500000000014159
100
AcDbArc
 50
180.0
 51
207.0431651124
  0
ARC
  5
21C
330
1F
100
AcDbEntity
  8
SLD-0
  6
Continuous
 62
   179
370
    25
100
AcDbCircle
 10
222.8819998753
 20
60.824506192
 30
0.0
 40
1.0
100
AcDbArc
 50
167.8389462669
 51
180.0
  0
ARC
  5
21D
330
1F
100
AcDbEntity
  8
SLD-0
  6
Continuous
 62
   179
370
    25
100
AcDbCircle
 10
224.5911113389
 20
68.7555561689
 30
0.0
 40
0.9999999999917296
100
AcDbArc
 50
94.357248426
 51
167.8389462685
  0
ARC
  5
21E
330
1F
100
AcDbEntity
  8
SLD-0
  6
Continuous
 62
   179
370
    25
100
AcDbCircle
 10
227.5554645699
 20
70.9872231993
 30
0.0
 40
0.9999999999942971
100
AcDbArc
 50
274.357248425
 51
289.2957199854
  0
ARC
  5
21F
330
1F
100
AcDbEntity
  8
SLD-0
  6
Continuous
 62
   179
370
    25
100
AcDbCircle
 10
229.98353578
 20
64.052079495
 30
0.0
 40
6.347907729469073
100
AcDbArc
 50
293.0944970105
 51
109.2957199859
  0
ARC
  5
220
330
1F
100
AcDbEntity
  8
SLD-0
  6
Continuous
 62
   179
370
    25
100
AcDbCircle
 10
233.9771637441
 20
54.6866573356
 30
0.0
 40
3.833457431380757
100
AcDbArc
 50
113.0944970107
 51
239.6621300091
  0
ARC
  5
221
330
1F
100
AcDbEntity
  8
SLD-0
  6
Continuous
 62
   179
370
    25
100
AcDbCircle
 10
228.6866447173
 20
45.6467408635
 30
0.0
 40
6.640781509757374
100
AcDbArc
 50
336.5867764025
 51
59.6621300081
  0
ARC
  5
222
330
1F
100
AcDbEntity
  8
SLD-0
  6
Continuous
 62
   179
370
    25
100
AcDbCircle
 10
233.8629808691
 20
43.4053216514
 30
0.0
 40
0.9999999999737695
100
AcDbArc
 50
226.6160457427
 51
336.5867764068
  0
ARC
  5
223
330
1F
100
AcDbEntity
  8
SLD-0
  6
Continuous
 62
   179
370
    25
100
AcDbCircle
 10
233.0403532092
 20
44.182805679
 30
0.0
 40
1.0000000000069
100
AcDbArc
 50
162.0904300018
 51
226.6160457395
  0
ARC
  5
224
330
1F
100
AcDbEntity
  8
SLD-0
  6
Continuous
 62
   179
370
    25
100
AcDbCircle
 10
169.0634269131
 20
101.8105198318
 30
0.0
 40
5.000000000032002
100
AcDbArc
 50
45.8692301918
 51
225.8692301919
  0
ARC
  5
225
330
1F
100
AcDbEntity
  8
SLD-0
  6
Continuous
 62
   179
370
    25
100
AcDbCircle
 10
197.0135095964
 20
80.2688361162
 30
0.0
 40
1.000000000013588
100
AcDbArc
 50
324.0119460593
 51
45.8692301927
  0
ARC
  5
226
330
1F
100
AcDbEntity
  8
SLD-0
  6
Continuous
 62
   179
370
    25
100
AcDbCircle
 10
198.4092102541
 20
71.9799556619
 30
0.0
 40
5.000000000005778
100
AcDbArc
 50
144.0119460584
 51
172.0528494095
  0
ARC
  5
227
330
1F
100
AcDbEntity
  8
SLD-0
  6
Continuous
 62
   179
370
    25
100
AcDbCircle
 10
192.4668341329
 20
72.8095133962
 30
0.0
 40
1.000000000014423
100
AcDbArc
 50
339.2328841742
 51
352.0528494071
  0
ARC
  5
228
330
1F
100
AcDbEntity
  8
SLD-0
  6
Continuous
 62
   179
370
    25
100
AcDbCircle
 10
192.7753819708
 20
73.2343793185
 30
0.0
 40
0.9999999999943301
100
AcDbArc
 50
225.8692301927
 51
308.7910079458
  0
ARC
  5
229
330
1F
100
AcDbEntity
  8
SLD-0
  6
Continuous
 62
   179
370
    25
100
AcDbCircle
 10
228.7356905315
 20
45.6803262793
 30
0.0
 40
9.140781509743963
100
AcDbArc
 50
318.8453354944
 51
5.7371759642
  0
ARC
  5
22A
330
1F
100
AcDbEntity
  8
SLD-0
  6
Continuous
 62
   179
370
    25
100
AcDbCircle
 10
238.8256760309
 20
46.6940531903
 30
0.0
 40
1.00000000003973
100
AcDbArc
 50
53.3628160062
 51
185.7371759683
  0
ARC
  5
22B
330
1F
100
AcDbEntity
  8
SLD-0
  6
Continuous
 62
   179
370
    25
100
AcDbCircle
 10
249.6227438818
 20
38.6645658001
 30
0.0
 40
0.9999999999822913
100
AcDbArc
 50
315.8692301918
 51
53.3628160019
  0
ARC
  5
22C
330
1F
100
AcDbEntity
  8
SLD-0
  6
Continuous
 62
   179
370
    25
100
AcDbCircle
 10
257.0951151178
 20
31.35596222
 30
0.0
 40
0.9999999999777303
100
AcDbArc
 50
31.9045087662
 51
135.8692301887
  0
ARC
  5
22D
330
1F
100
AcDbEntity
  8
SLD-0
  6
Continuous
 62
   179
370
    25
100
AcDbCircle
 10
250.733476157
 20
27.3954961067
 30
0.0
 40
8.493713505363806
100
AcDbArc
 50
220.4076562065
 51
31.9045087663
  0
ARC
  5
22E
330
1F
100
AcDbEntity
  8
SLD-0
  6
Continuous
 62
   179
370
    25
100
AcDbCircle
 10
232.1331626894
 20
35.0530294852
 30
0.0
 40
0.9999999999845631
100
AcDbArc
 50
132.9610542376
 51
225.8692301887
  0
ARC
  5
22F
330
1F
100
AcDbEntity
  8
SLD-0
  6
Continuous
 62
   179
370
    25
100
AcDbCircle
 10
248.123081748
 20
101.8765856864
 30
0.0
 40
5.00000000001503
100
AcDbArc
 50
314.2265277207
 51
134.226527721
  0
ARC
  5
230
330
1F
100
AcDbEntity
  8
SLD-0
  6
Continuous
 62
   179
370
    25
100
AcDbCircle
 10
224.4589188267
 20
73.2608555275
 30
0.0
 40
0.9999999999888736
100
AcDbArc
 50
231.3047499681
 51
314.226527721
  0
ARC
  5
231
330
1F
100
AcDbEntity
  8
SLD-0
  6
Continuous
 62
   179
370
    25
100
AcDbCircle
 10
224.7681763079
 20
72.8365058715
 30
0.0
 40
1.000000000017191
100
AcDbArc
 50
188.0429085029
 51
200.8628737397
  0
ARC
  5
232
330
1F
100
AcDbEntity
  8
SLD-0
  6
Continuous
 62
   179
370
    25
100
AcDbCircle
 10
218.8271949175
 20
71.9970178614
 30
0.0
 40
5.0000000000005
100
AcDbArc
 50
8.0429085039
 51
36.0838118536
  0
ARC
  5
233
330
1F
100
AcDbEntity
  8
SLD-0
  6
Continuous
 62
   179
370
    25
100
AcDbCircle
 10
220.2090405023
 20
80.2882193601
 30
0.0
 40
1.000000000012851
100
AcDbArc
 50
134.2265277251
 51
216.0838118515
  0
ARC
  5
234
330
1F
100
AcDbEntity
  8
SLD-0
  6
Continuous
 62
   179
370
    25
100
AcDbCircle
 10
166.5775156558
 20
27.3251715466
 30
0.0
 40
8.493713505367065
100
AcDbArc
 50
148.1912491462
 51
319.6881017059
  0
ARC
  5
235
330
1F
100
AcDbEntity
  8
SLD-0
  6
Continuous
 62
   179
370
    25
100
AcDbCircle
 10
160.209266492
 20
31.2749999845
 30
0.0
 40
0.9999999999919501
100
AcDbArc
 50
44.2265277207
 51
148.1912491437
  0
ARC
  5
236
330
1F
100
AcDbEntity
  8
SLD-0
  6
Continuous
 62
   179
370
    25
100
AcDbCircle
 10
167.6694124956
 20
38.5960818573
 30
0.0
 40
1.000000000024711
100
AcDbArc
 50
126.7329419063
 51
224.226527717
  0
ARC
  5
237
330
1F
100
AcDbEntity
  8
SLD-0
  6
Continuous
 62
   179
370
    25
100
AcDbCircle
 10
178.4530456644
 20
46.6436030658
 30
0.0
 40
1.000000000017137
100
AcDbArc
 50
354.3585819482
 51
126.7329419011
  0
ARC
  5
238
330
1F
100
AcDbEntity
  8
SLD-0
  6
Continuous
 62
   179
370
    25
100
AcDbCircle
 10
188.5447113039
 20
45.6467408634
 30
0.0
 40
9.140781509790896
100
AcDbArc
 50
174.3585819488
 51
221.2504224182
  0
ARC
  5
239
330
1F
100
AcDbEntity
  8
SLD-0
  6
Continuous
 62
   179
370
    25
100
AcDbCircle
 10
185.1650051866
 20
35.0137807499
 30
0.0
 40
0.9999999999715876
100
AcDbArc
 50
314.226527721
 51
47.1347036753
  0
ARC
  5
23A
330
1F
100
AcDbEntity
  8
SLD-0
  6
Continuous
 62
   179
370
    25
100
AcDbCircle
 10
208.6156780106
 20
62.6260218968
 30
0.0
 40
42.93009273782428
100
AcDbArc
 50
244.6753688796
 51
295.3246311204
  0
ARC
  5
23B
330
1F
100
AcDbEntity
  8
SLD-0
  6
Continuous
 62
   179
370
    25
100
AcDbCircle
 10
190.6802282815
 20
24.7254635893
 30
0.0
 40
1.000000000028896
100
AcDbArc
 50
90.0
 51
244.6753688777
  0
ARC
  5
23C
330
1F
100
AcDbEntity
  8
SLD-0
  6
Continuous
 62
   179
370
    25
100
AcDbCircle
 10
226.5511277397
 20
24.7254635893
 30
0.0
 40
1.000000000028894
100
AcDbArc
 50
295.3246311223
 51
90.0000000014
  0
ARC
  5
23D
330
1F
100
AcDbEntity
  8
SLD-0
  6
Continuous
 62
   179
370
    25
100
AcDbCircle
 10
201.1156780106
 20
111.6127530162
 30
0.0
 40
0.5
100
AcDbArc
 50
0.0
 51
90.0
  0
ARC
  5
23E
330
1F
100
AcDbEntity
  8
SLD-0
  6
Continuous
 62
   179
370
    25
100
AcDbCircle
 10
201.1156780106
 20
106.1127530162
 30
0.0
 40
0.5
100
AcDbArc
 50
270.0
 51
0.0
  0
ARC
  5
23F
330
1F
100
AcDbEntity
  8
SLD-0
  6
Continuous
 62
   179
370
    25
100
AcDbCircle
 10
185.1156780106
 20
106.1127530162
 30
0.0
 40
0.5
100
AcDbArc
 50
180.0
 51
270.0
  0
ARC
  5
240
330
1F
100
AcDbEntity
  8
SLD-0
  6
Continuous
 62
   179
370
    25
100
AcDbCircle
 10
185.1156780106
 20
111.6127530162
 30
0.0
 40
0.5
100
AcDbArc
 50
90.0
 51
180.0
  0
CIRCLE
  5
241
330
1F
100
AcDbEntity
  8
SLD-0
  6
Continuous
 62
   179
370
    25
100
AcDbCircle
 10
221.6156780106
 20
100.6127530162
 30
0.0
 40
1.149999999999991
  0
CIRCLE
  5
242
330
1F
100
AcDbEntity
  8
SLD-0
  6
Continuous
 62
   179
370
    25
100
AcDbCircle
 10
195.6156780106
 20
100.6127530162
 30
0.0
 40
1.150000000000006
  0
CIRCLE
  5
243
330
1F
100
AcDbEntity
  8
SLD-0
  6
Continuous
 62
   179
370
    25
100
AcDbCircle
 10
265.8656780106
 20
140.3627530162
 30
0.0
 40
1.199999999999989
  0
CIRCLE
  5
244
330
1F
100
AcDbEntity
  8
SLD-0
  6
Continuous
 62
   179
370
    25
100
AcDbCircle
 10
265.8656780106
 20
5.8627530162
 30
0.0
 40
1.200000000000017
  0
CIRCLE
  5
245
330
1F
100
AcDbEntity
  8
SLD-0
  6
Continuous
 62
   179
370
    25
100
AcDbCircle
 10
151.3656780106
 20
5.8627530162
 30
0.0
 40
1.200000000000014
  0
CIRCLE
  5
246
330
1F
100
AcDbEntity
  8
SLD-0
  6
Continuous
 62
   179
370
    25
100
AcDbCircle
 10
151.3656780106
 20
140.3627530162
 30
0.0
 40
1.200000000000017
  0
ARC
  5
247
330
1F
100
AcDbEntity
  8
SLD-0
  6
Continuous
 62
   179
370
    25
100
AcDbCircle
 10
151.3656780106
 20
140.3627530162
 30
0.0
 40
2.75
100
AcDbArc
 50
90.0
 51
180.0
  0
ARC
  5
248
330
1F
100
AcDbEntity
  8
SLD-0
  6
Continuous
 62
   179
370
    25
100
AcDbCircle
 10
151.3656780106
 20
5.8627530162
 30
0.0
 40
2.75
100
AcDbArc
 50
180.0
 51
270.0
  0
ARC
  5
249
330
1F
100
AcDbEntity
  8
SLD-0
  6
Continuous
 62
   179
370
    25
100
AcDbCircle
 10
265.8656780106
 20
5.8627530162
 30
0.0
 40
2.75
100
AcDbArc
 50
270.0
 51
0.0
  0
ARC
  5
24A
330
1F
100
AcDbEntity
  8
SLD-0
  6
Continuous
 62
   179
370
    25
100
AcDbCircle
 10
265.8656780106
 20
140.3627530162
 30
0.0
 40
2.750000000000057
100
AcDbArc
 50
0.0
 51
90.0
  0
ARC
  5
24B
330
1F
100
AcDbEntity
  8
SLD-0
  6
Continuous
 62
   179
370
    25
100
AcDbCircle
 10
216.1156780106
 20
111.6127530162
 30
0.0
 40
0.5
100
AcDbArc
 50
90.0
 51
180.0
  0
ARC
  5
24C
330
1F
100
AcDbEntity
  8
SLD-0
  6
Continuous
 62
   179
370
    25
100
AcDbCircle
 10
232.1156780106
 20
111.6127530162
 30
0.0
 40
0.5
100
AcDbArc
 50
0.0
 51
90.0
  0
ARC
  5
24D
330
1F
100
AcDbEntity
  8
SLD-0
  6
Continuous
 62
   179
370
    25
100
AcDbCircle
 10
232.1156780106
 20
106.1127530162
 30
0.0
 40
0.5
100
AcDbArc
 50
270.0
 51
0.0
  0
ARC
  5
24E
330
1F
100
AcDbEntity
  8
SLD-0
  6
Continuous
 62
   179
370
    25
100
AcDbCircle
 10
216.1156780106
 20
106.1127530162
 30
0.0
 40
0.5
100
AcDbArc
 50
180.0
 51
270.0
  0
ARC
  5
24F
330
1F
100
AcDbEntity
  8
SLD-0
  6
Continuous
 62
   179
370
    25
100
AcDbCircle
 10
216.3156780106
 20
102.8127530162
 30
0.0
 40
0.5
100
AcDbArc
 50
0.0
 51
90.0
  0
ARC
  5
250
330
1F
100
AcDbEntity
  8
SLD-0
  6
Continuous
 62
   179
370
    25
100
AcDbCircle
 10
216.3156780106
 20
100.6127530162
 30
0.0
 40
0.5
100
AcDbArc
 50
270.0
 51
0.0
  0
ARC
  5
251
330
1F
100
AcDbEntity
  8
SLD-0
  6
Continuous
 62
   179
370
    25
100
AcDbCircle
 10
201.5156780106
 20
100.6127530162
 30
0.0
 40
0.5
100
AcDbArc
 50
180.0
 51
270.0
  0
ARC
  5
252
330
1F
100
AcDbEntity
  8
SLD-0
  6
Continuous
 62
   179
370
    25
100
AcDbCircle
 10
201.5156780106
 20
102.8127530162
 30
0.0
 40
0.5
100
AcDbArc
 50
90.0
 51
180.0
  0
ARC
  5
253
330
1F
100
AcDbEntity
  8
SLD-0
  6
Continuous
 62
   179
370
    25
100
AcDbCircle
 10
208.6156780106
 20
96.3165141657
 30
0.0
 40
1.999999999992037
100
AcDbArc
 50
259.7617143221
 51
280.2382856776
  0
ARC
  5
254
330
1F
100
AcDbEntity
  8
SLD-0
  6
Continuous
 62
   179
370
    25
100
AcDbCircle
 10
212.4658967375
 20
92.947211891
 30
0.0
 40
1.999999999992051
100
AcDbArc
 50
26.8315806686
 51
100.2382856779
  0
ARC
  5
255
330
1F
100
AcDbEntity
  8
SLD-0
  6
Continuous
 62
   179
370
    25
100
AcDbCircle
 10
216.8273781169
 20
84.3247588218
 30
0.0
 40
1.99999999999761
100
AcDbArc
 50
10.2382856776
 51
26.8315806681
  0
ARC
  5
256
330
1F
100
AcDbEntity
  8
SLD-0
  6
Continuous
 62
   179
370
    25
100
AcDbCircle
 10
216.8862853223
 20
83.9986169146
 30
0.0
 40
1.999999999992035
100
AcDbArc
 50
216.0838118532
 51
10.2382856779
  0
ARC
  5
257
330
1F
100
AcDbEntity
  8
SLD-0
  6
Continuous
 62
   179
370
    25
100
AcDbCircle
 10
213.7493901406
 20
83.2092730232
 30
0.0
 40
0.9999999999891453
100
AcDbArc
 50
36.0838118408
 51
52.4534368316
  0
ARC
  5
258
330
1F
100
AcDbEntity
  8
SLD-0
  6
Continuous
 62
   179
370
    25
100
AcDbCircle
 10
215.5776080525
 20
85.5878480728
 30
0.0
 40
2.000000000016001
100
AcDbArc
 50
180.0
 51
232.4534368468
  0
ARC
  5
259
330
1F
100
AcDbEntity
  8
SLD-0
  6
Continuous
 62
   179
370
    25
100
AcDbCircle
 10
211.4249169107
 20
86.1063251664
 30
0.0
 40
0.9999999999747891
100
AcDbArc
 50
251.3208436431
 51
339.8968765133
  0
ARC
  5
25A
330
1F
100
AcDbEntity
  8
SLD-0
  6
Continuous
 62
   179
370
    25
100
AcDbCircle
 10
210.544978873
 20
86.4038110159
 30
0.0
 40
1.000000000023859
100
AcDbArc
 50
192.1555507997
 51
251.3208436477
  0
ARC
  5
25B
330
1F
100
AcDbEntity
  8
SLD-0
  6
Continuous
 62
   179
370
    25
100
AcDbCircle
 10
206.6863771482
 20
86.4038110159
 30
0.0
 40
0.999999999990556
100
AcDbArc
 50
288.6791563569
 51
347.8444491973
  0
ARC
  5
25C
330
1F
100
AcDbEntity
  8
SLD-0
  6
Continuous
 62
   179
370
    25
100
AcDbCircle
 10
205.8064391105
 20
86.1063251664
 30
0.0
 40
0.9999999999924845
100
AcDbArc
 50
200.1031234889
 51
288.6791563595
  0
ARC
  5
25D
330
1F
100
AcDbEntity
  8
SLD-0
  6
Continuous
 62
   179
370
    25
100
AcDbCircle
 10
201.6537479688
 20
85.5878480728
 30
0.0
 40
2.000000000000002
100
AcDbArc
 50
307.5465631518
 51
0.0
  0
ARC
  5
25E
330
1F
100
AcDbEntity
  8
SLD-0
  6
Continuous
 62
   179
370
    25
100
AcDbCircle
 10
203.4819658805
 20
83.2092730231
 30
0.0
 40
1.000000000015988
100
AcDbArc
 50
127.5465631546
 51
143.9161881468
  0
ARC
  5
25F
330
1F
100
AcDbEntity
  8
SLD-0
  6
Continuous
 62
   179
370
    25
100
AcDbCircle
 10
200.3450706989
 20
83.9986169146
 30
0.0
 40
2.00000000000772
100
AcDbArc
 50
169.7617143224
 51
323.9161881462
  0
ARC
  5
260
330
1F
100
AcDbEntity
  8
SLD-0
  6
Continuous
 62
   179
370
    25
100
AcDbCircle
 10
200.4039779043
 20
84.3247588218
 30
0.0
 40
1.999999999992068
100
AcDbArc
 50
153.1684193314
 51
169.7617143221
  0
ARC
  5
261
330
1F
100
AcDbEntity
  8
SLD-0
  6
Continuous
 62
   179
370
    25
100
AcDbCircle
 10
204.7654592837
 20
92.947211891
 30
0.0
 40
1.999999999989645
100
AcDbArc
 50
79.7617143221
 51
153.1684193319
  0
ARC
  5
262
330
1F
100
AcDbEntity
  8
SLD-0
  6
Continuous
 62
   179
370
    25
100
AcDbCircle
 10
195.9348457512
 20
46.6495754151
 30
0.0
 40
0.9999999999999759
100
AcDbArc
 50
221.5769026234
 51
225.3026469781
  0
ARC
  5
263
330
1F
100
AcDbEntity
  8
SLD-0
  6
Continuous
 62
   179
370
    25
100
AcDbCircle
 10
202.9271048695
 20
50.3857609268
 30
0.0
 40
0.9999999999887237
100
AcDbArc
 50
90.0
 51
99.4160324317
  0
ARC
  5
264
330
1F
100
AcDbEntity
  8
SLD-0
  6
Continuous
 62
   179
370
    25
100
AcDbCircle
 10
221.3089966488
 20
46.6361657325
 30
0.0
 40
1.000000000023976
100
AcDbArc
 50
314.7931109344
 51
321.277710097
  0
ARC
  5
265
330
1F
100
AcDbEntity
  8
SLD-0
  6
Continuous
 62
   179
370
    25
100
AcDbCircle
 10
211.5742978444
 20
36.9715162497
 30
0.0
 40
0.999999999991104
100
AcDbArc
 50
269.999999996
 51
314.7931109322
  0
ARC
  5
266
330
1F
100
AcDbEntity
  8
SLD-0
  6
Continuous
 62
   179
370
    25
100
AcDbCircle
 10
205.7156914319
 20
36.9715162497
 30
0.0
 40
1.000000000000001
100
AcDbArc
 50
225.3026469781
 51
270.0
  0
ARC
  5
267
330
1F
100
AcDbEntity
  8
SLD-0
  6
Continuous
 62
   179
370
    25
100
AcDbCircle
 10
202.1315870264
 20
64.9472615152
 30
0.0
 40
0.9999999999938268
100
AcDbArc
 50
308.5431129478
 51
30.926011477
  0
ARC
  5
268
330
1F
100
AcDbEntity
  8
SLD-0
  6
Continuous
 62
   179
370
    25
100
AcDbCircle
 10
197.8037777317
 20
61.4994464033
 30
0.0
 40
0.9999999999872834
100
AcDbArc
 50
258.1397295138
 51
308.5431129531
  0
ARC
  5
269
330
1F
100
AcDbEntity
  8
SLD-0
  6
Continuous
 62
   179
370
    25
100
AcDbCircle
 10
198.396272275
 20
61.1234254083
 30
0.0
 40
1.000000000028522
100
AcDbArc
 50
192.2568116455
 51
217.0585437092
  0
ARC
  5
26A
330
1F
100
AcDbEntity
  8
SLD-0
  6
Continuous
 62
   179
370
    25
100
AcDbCircle
 10
196.5853945347
 20
69.4590430959
 30
0.0
 40
1.000000000010349
100
AcDbArc
 50
134.8665747251
 51
192.256811645
  0
ARC
  5
26B
330
1F
100
AcDbEntity
  8
SLD-0
  6
Continuous
 62
   179
370
    25
100
AcDbCircle
 10
194.5493405686
 20
71.5046019733
 30
0.0
 40
1.886143945415315
100
AcDbArc
 50
314.8665747243
 51
7.2795553413
  0
ARC
  5
26C
330
1F
100
AcDbEntity
  8
SLD-0
  6
Continuous
 62
   179
370
    25
100
AcDbCircle
 10
198.4041611037
 20
71.9970178615
 30
0.0
 40
1.999999999979925
100
AcDbArc
 50
143.9161881468
 51
187.2795553406
  0
ARC
  5
26D
330
1F
100
AcDbEntity
  8
SLD-0
  6
Continuous
 62
   179
370
    25
100
AcDbCircle
 10
202.4974921931
 20
79.3115936087
 30
0.0
 40
0.9999999999891218
100
AcDbArc
 50
23.7350251522
 51
143.9161881485
  0
ARC
  5
26E
330
1F
100
AcDbEntity
  8
SLD-0
  6
Continuous
 62
   179
370
    25
100
AcDbCircle
 10
205.3239859724
 20
82.2486128224
 30
0.0
 40
1.000000000000004
100
AcDbArc
 50
108.6791563569
 51
180.0
  0
ARC
  5
26F
330
1F
100
AcDbEntity
  8
SLD-0
  6
Continuous
 62
   179
370
    25
100
AcDbCircle
 10
206.6964051788
 20
82.7125946892
 30
0.0
 40
0.9999999999924669
100
AcDbArc
 50
6.7542101146
 51
108.6791563595
  0
ARC
  5
270
330
1F
100
AcDbEntity
  8
SLD-0
  6
Continuous
 62
   179
370
    25
100
AcDbCircle
 10
210.5349508424
 20
82.7125946892
 30
0.0
 40
1.000000000010008
100
AcDbArc
 50
71.3208436431
 51
173.2457898838
  0
ARC
  5
271
330
1F
100
AcDbEntity
  8
SLD-0
  6
Continuous
 62
   179
370
    25
100
AcDbCircle
 10
211.9073700488
 20
82.2486128224
 30
0.0
 40
0.9999999999924682
100
AcDbArc
 50
0.0
 51
71.3208436405
  0
ARC
  5
272
330
1F
100
AcDbEntity
  8
SLD-0
  6
Continuous
 62
   179
370
    25
100
AcDbCircle
 10
214.7338638281
 20
79.3115936087
 30
0.0
 40
0.9999999999973128
100
AcDbArc
 50
36.0838118532
 51
156.2649748497
  0
ARC
  5
273
330
1F
100
AcDbEntity
  8
SLD-0
  6
Continuous
 62
   179
370
    25
100
AcDbCircle
 10
218.8271949175
 20
71.9970178614
 30
0.0
 40
2.000000000007686
100
AcDbArc
 50
352.7204446587
 51
36.0838118538
  0
ARC
  5
274
330
1F
100
AcDbEntity
  8
SLD-0
  6
Continuous
 62
   179
370
    25
100
AcDbCircle
 10
222.6820154525
 20
71.5046019732
 30
0.0
 40
1.886143945373816
100
AcDbArc
 50
172.7204446594
 51
225.2469455982
  0
ARC
  5
275
330
1F
100
AcDbEntity
  8
SLD-0
  6
Continuous
 62
   179
370
    25
100
AcDbCircle
 10
220.6500183529
 20
69.4550130728
 30
0.0
 40
0.9999999999906498
100
AcDbArc
 50
347.8389462669
 51
45.2469455998
  0
ARC
  5
276
330
1F
100
AcDbEntity
  8
SLD-0
  6
Continuous
 62
   179
370
    25
100
AcDbCircle
 10
218.8608283668
 20
61.1523625441
 30
0.0
 40
1.000000000002276
100
AcDbArc
 50
320.8971567115
 51
347.8389462629
  0
ARC
  5
277
330
1F
100
AcDbEntity
  8
SLD-0
  6
Continuous
 62
   179
370
    25
100
AcDbCircle
 10
219.4639336067
 20
61.5065858778
 30
0.0
 40
0.9999999999735576
100
AcDbArc
 50
231.5526449647
 51
279.9570482935
  0
ARC
  5
278
330
1F
100
AcDbEntity
  8
SLD-0
  6
Continuous
 62
   179
370
    25
100
AcDbCircle
 10
215.1095921472
 20
64.9636579096
 30
0.0
 40
1.000000000010463
100
AcDbArc
 50
149.0739885232
 51
231.5526449655
  0
ARC
  5
279
330
1F
100
AcDbEntity
  8
SLD-0
  6
Continuous
 62
   179
370
    25
100
AcDbCircle
 10
212.9073700488
 20
66.4987925755
 30
0.0
 40
1.678088783301291
100
AcDbArc
 50
329.0739885216
 51
180.0
  0
ARC
  5
27A
330
1F
100
AcDbEntity
  8
SLD-0
  6
Continuous
 62
   179
370
    25
100
AcDbCircle
 10
210.0544169257
 20
64.2809771543
 30
0.0
 40
1.000000000036493
100
AcDbArc
 50
253.53809684
 51
355.5688071292
  0
ARC
  5
27B
330
1F
100
AcDbEntity
  8
SLD-0
  6
Continuous
 62
   179
370
    25
100
AcDbCircle
 10
208.6156780106
 20
59.41198984
 30
0.0
 40
4.077106177009609
100
AcDbArc
 50
73.5380968396
 51
106.4619031597
  0
ARC
  5
27C
330
1F
100
AcDbEntity
  8
SLD-0
  6
Continuous
 62
   179
370
    25
100
AcDbCircle
 10
207.1769390955
 20
64.2809771543
 30
0.0
 40
1.000000000000816
100
AcDbArc
 50
184.431192868
 51
286.4619031589
  0
ARC
  5
27D
330
1F
100
AcDbEntity
  8
SLD-0
  6
Continuous
 62
   179
370
    25
100
AcDbCircle
 10
204.3239859724
 20
66.4987925755
 30
0.0
 40
1.678088783303338
100
AcDbArc
 50
0.0
 51
210.9260114784
  0
ARC
  5
27E
330
1F
100
AcDbEntity
  8
SLD-0
  6
Continuous
 62
   179
370
    25
100
AcDbCircle
 10
200.6174405219
 20
58.6268165717
 30
0.0
 40
0.9999999999727325
100
AcDbArc
 50
128.5431129478
 51
221.6586618336
  0
ARC
  5
27F
330
1F
100
AcDbEntity
  8
SLD-0
  6
Continuous
 62
   179
370
    25
100
AcDbCircle
 10
204.2056111666
 20
61.4853873012
 30
0.0
 40
0.9999999999952279
100
AcDbArc
 50
30.9260114768
 51
128.5431129451
  0
ARC
  5
280
330
1F
100
AcDbEntity
  8
SLD-0
  6
Continuous
 62
   179
370
    25
100
AcDbCircle
 10
208.6156780106
 20
59.41198984
 30
0.0
 40
2.077106177014376
100
AcDbArc
 50
3.2946851205
 51
176.7053148801
  0
ARC
  5
281
330
1F
100
AcDbEntity
  8
SLD-0
  6
Continuous
 62
   179
370
    25
100
AcDbCircle
 10
213.0360285638
 20
61.5025524378
 30
0.0
 40
1.000000000036729
100
AcDbArc
 50
51.5526449647
 51
149.073988526
  0
ARC
  5
282
330
1F
100
AcDbEntity
  8
SLD-0
  6
Continuous
 62
   179
370
    25
100
AcDbCircle
 10
216.632226605
 20
58.6473983841
 30
0.0
 40
1.000000000010463
100
AcDbArc
 50
318.3413381683
 51
51.5526449655
  0
ARC
  5
283
330
1F
100
AcDbEntity
  8
SLD-0
  6
Continuous
 62
   179
370
    25
100
AcDbCircle
 10
216.4362262397
 20
53.1614918618
 30
0.0
 40
2.499999999989913
100
AcDbArc
 50
138.3413381682
 51
159.5254578496
  0
ARC
  5
284
330
1F
100
AcDbEntity
  8
SLD-0
  6
Continuous
 62
   179
370
    25
100
AcDbCircle
 10
213.1573292825
 20
54.3857609268
 30
0.0
 40
0.9999999999901776
100
AcDbArc
 50
270.0
 51
339.5254578542
  0
ARC
  5
285
330
1F
100
AcDbEntity
  8
SLD-0
  6
Continuous
 62
   179
370
    25
100
AcDbCircle
 10
204.0740267387
 20
54.3857609268
 30
0.0
 40
1.000000000000039
100
AcDbArc
 50
200.4745421499
 51
270.0
  0
ARC
  5
286
330
1F
100
AcDbEntity
  8
SLD-0
  6
Continuous
 62
   179
370
    25
100
AcDbCircle
 10
200.7951297814
 20
53.1614918619
 30
0.0
 40
2.499999999980077
100
AcDbArc
 50
20.4745421483
 51
41.6586618297
  0
ARC
  5
287
330
1F
100
AcDbEntity
  8
SLD-0
  6
Continuous
 62
   179
370
    25
100
AcDbCircle
 10
192.6449995387
 20
68.7551938713
 30
0.0
 40
0.9999999999980931
100
AcDbArc
 50
12.2568116455
 51
85.6427515693
  0
ARC
  5
288
330
1F
100
AcDbEntity
  8
SLD-0
  6
Continuous
 62
   179
370
    25
100
AcDbCircle
 10
192.8493561459
 20
59.1270672711
 30
0.0
 40
2.500000000000028
100
AcDbArc
 50
332.9568348882
 51
0.0
  0
ARC
  5
289
330
1F
100
AcDbEntity
  8
SLD-0
  6
Continuous
 62
   179
370
    25
100
AcDbCircle
 10
191.0739248193
 20
55.6490671572
 30
0.0
 40
2.499999999991401
100
AcDbArc
 50
309.9472365951
 51
332.9568348897
  0
ARC
  5
28A
330
1F
100
AcDbEntity
  8
SLD-0
  6
Continuous
 62
   179
370
    25
100
AcDbCircle
 10
185.1853331175
 20
50.7171857873
 30
0.0
 40
2.500000000012665
100
AcDbArc
 50
303.9023849127
 51
309.9472365958
  0
ARC
  5
28B
330
1F
100
AcDbEntity
  8
SLD-0
  6
Continuous
 62
   179
370
    25
100
AcDbCircle
 10
188.6156780106
 20
45.6127530162
 30
0.0
 40
3.650000000012088
100
AcDbArc
 50
123.9023849132
 51
198.79506908
  0
ARC
  5
28C
330
1F
100
AcDbEntity
  8
SLD-0
  6
Continuous
 62
   179
370
    25
100
AcDbCircle
 10
184.2136300022
 20
44.1145963715
 30
0.0
 40
1.000000000000959
100
AcDbArc
 50
313.4797121704
 51
18.7950690772
  0
ARC
  5
28D
330
1F
100
AcDbEntity
  8
SLD-0
  6
Continuous
 62
   179
370
    25
100
AcDbCircle
 10
183.397046323
 20
43.3402367369
 30
0.0
 40
1.000000000012874
100
AcDbArc
 50
204.1356259847
 51
313.4797121692
  0
ARC
  5
28E
330
1F
100
AcDbEntity
  8
SLD-0
  6
Continuous
 62
   179
370
    25
100
AcDbCircle
 10
188.5447113039
 20
45.6467408634
 30
0.0
 40
6.640781509791196
100
AcDbArc
 50
120.3378699909
 51
204.1356259817
  0
ARC
  5
28F
330
1F
100
AcDbEntity
  8
SLD-0
  6
Continuous
 62
   179
370
    25
100
AcDbCircle
 10
183.2541922771
 20
54.6866573355
 30
0.0
 40
3.833457431353247
100
AcDbArc
 50
300.3378699926
 51
66.9055029895
  0
ARC
  5
290
330
1F
100
AcDbEntity
  8
SLD-0
  6
Continuous
 62
   179
370
    25
100
AcDbCircle
 10
187.2478202412
 20
64.0520794949
 30
0.0
 40
6.347907729511086
100
AcDbArc
 50
70.7042800146
 51
246.9055029894
  0
ARC
  5
291
330
1F
100
AcDbEntity
  8
SLD-0
  6
Continuous
 62
   179
370
    25
100
AcDbCircle
 10
189.6758914513
 20
70.9872231992
 30
0.0
 40
0.9999999999818403
100
AcDbArc
 50
250.7042800115
 51
265.642751575
  0
CIRCLE
  5
292
330
1F
100
AcDbEntity
  8
SLD-0
  6
Continuous
 62
   179
370
    25
100
AcDbCircle
 10
228.6156780106
 20
45.6127530162
 30
0.0
 40
1.150000000004056
  0
ARC
  5
293
330
1F
100
AcDbEntity
  8
SLD-0
  6
Continuous
 62
   179
370
    25
100
AcDbCircle
 10
228.6156780106
 20
45.6127530162
 30
0.0
 40
3.6499999999956
100
AcDbArc
 50
222.9580291635
 51
291.1416614812
  0
ARC
  5
294
330
1F
100
AcDbEntity
  8
SLD-0
  6
Continuous
 62
   179
370
    25
100
AcDbCircle
 10
230.2928171857
 20
41.2757374309
 30
0.0
 40
0.9999999999887198
100
AcDbArc
 50
46.6160457421
 51
111.1416614836
  0
ARC
  5
295
330
1F
100
AcDbEntity
  8
SLD-0
  6
Continuous
 62
   179
370
    25
100
AcDbCircle
 10
231.3864278176
 20
40.2421412609
 30
0.0
 40
1.000000000028682
100
AcDbArc
 50
315.4908783036
 51
46.6160457435
  0
ARC
  5
296
330
1F
100
AcDbEntity
  8
SLD-0
  6
Continuous
 62
   179
370
    25
100
AcDbCircle
 10
208.6156780106
 20
62.6260218968
 30
0.0
 40
32.93031724077126
100
AcDbArc
 50
306.5388943313
 51
315.4908783036
  0
ARC
  5
297
330
1F
100
AcDbEntity
  8
SLD-0
  6
Continuous
 62
   179
370
    25
100
AcDbCircle
 10
227.6259778267
 20
36.9715162496
 30
0.0
 40
1.000000000017856
100
AcDbArc
 50
270.0000000007
 51
306.5388943331
  0
ARC
  5
298
330
1F
100
AcDbEntity
  8
SLD-0
  6
Continuous
 62
   179
370
    25
100
AcDbCircle
 10
217.2962942775
 20
36.9715162496
 30
0.0
 40
1.000000000000006
100
AcDbArc
 50
134.8804513714
 51
270.0
  0
ARC
  5
299
330
1F
100
AcDbEntity
  8
SLD-0
  6
Continuous
 62
   179
370
    25
100
AcDbCircle
 10
224.0477688855
 20
43.6948753447
 30
0.0
 40
0.9999999999467749
100
AcDbArc
 50
92.9276189232
 51
134.8804513738
  0
ARC
  5
29A
330
1F
100
AcDbEntity
  8
SLD-0
  6
Continuous
 62
   179
370
    25
100
AcDbCircle
 10
193.1962744228
 20
43.7085007915
 30
0.0
 40
0.9999999999769109
100
AcDbArc
 50
45.2153065411
 51
82.1826283725
  0
ARC
  5
29B
330
1F
100
AcDbEntity
  8
SLD-0
  6
Continuous
 62
   179
370
    25
100
AcDbCircle
 10
199.9840827794
 20
36.9715162496
 30
0.0
 40
0.9999999999843956
100
AcDbArc
 50
270.0000000022
 51
45.2153065441
  0
ARC
  5
29C
330
1F
100
AcDbEntity
  8
SLD-0
  6
Continuous
 62
   179
370
    25
100
AcDbCircle
 10
189.6706221924
 20
36.9715162496
 30
0.0
 40
0.9999999999999929
100
AcDbArc
 50
227.1347036761
 51
270.0
  0
ARC
  5
29D
330
1F
100
AcDbEntity
  8
SLD-0
  6
Continuous
 62
   179
370
    25
100
AcDbCircle
 10
186.0438460061
 20
40.3376333408
 30
0.0
 40
1.000000000019369
100
AcDbArc
 50
133.4797121704
 51
227.1347036792
  0
ARC
  5
29E
330
1F
100
AcDbEntity
  8
SLD-0
  6
Continuous
 62
   179
370
    25
100
AcDbCircle
 10
187.0061620115
 20
41.2501897503
 30
0.0
 40
1.000000000012876
100
AcDbArc
 50
69.7490585436
 51
133.4797121727
  0
ARC
  5
29F
330
1F
100
AcDbEntity
  8
SLD-0
  6
Continuous
 62
   179
370
    25
100
AcDbCircle
 10
188.6156780106
 20
45.6127530162
 30
0.0
 40
3.64999999997132
100
AcDbArc
 50
249.7490585441
 51
317.0419708372
  0
ARC
  5
2A0
330
1F
100
AcDbEntity
  8
SLD-0
  6
Continuous
 62
   179
370
    25
100
AcDbCircle
 10
188.6522107734
 20
45.5668398029
 30
0.0
 40
1.149999999999992
100
AcDbArc
 50
39.9707796218
 51
90.3019174415
  0
ARC
  5
2A1
330
1F
100
AcDbEntity
  8
SLD-0
  6
Continuous
 62
   179
370
    25
100
AcDbCircle
 10
188.6156780106
 20
45.6127530162
 30
0.0
 40
1.150000000007748
100
AcDbArc
 50
90.9591249409
 51
37.0471702289
  0
ARC
  5
2A2
330
1F
100
AcDbEntity
  8
SLD-0
  6
Continuous
 62
   179
370
    25
100
AcDbCircle
 10
159.1156755017
 20
91.7283685654
 30
0.0
 40
0.499999999975292
100
AcDbArc
 50
179.9997476218
 51
245.5560452234
  0
ARC
  5
2A3
330
1F
100
AcDbEntity
  8
SLD-0
  6
Continuous
 62
   179
370
    25
100
AcDbCircle
 10
159.1156792726
 20
92.5844415998
 30
0.0
 40
0.5000000000024347
100
AcDbArc
 50
114.4440909404
 51
179.9997476235
  0
ARC
  5
2A4
330
1F
100
AcDbEntity
  8
SLD-0
  6
Continuous
 62
   179
370
    25
100
AcDbCircle
 10
154.1156780106
 20
94.4064125918
 30
0.0
 40
0.5
100
AcDbArc
 50
180.0
 51
270.0
  0
ARC
  5
2A5
330
1F
100
AcDbEntity
  8
SLD-0
  6
Continuous
 62
   179
370
    25
100
AcDbCircle
 10
154.1156780106
 20
94.9064125918
 30
0.0
 40
0.5
100
AcDbArc
 50
90.0
 51
180.0
  0
ARC
  5
2A6
330
1F
100
AcDbEntity
  8
SLD-0
  6
Continuous
 62
   179
370
    25
100
AcDbCircle
 10
163.6156780106
 20
94.9064125918
 30
0.0
 40
0.5
100
AcDbArc
 50
0.0
 51
90.0
  0
ARC
  5
2A7
330
1F
100
AcDbEntity
  8
SLD-0
  6
Continuous
 62
   179
370
    25
100
AcDbCircle
 10
163.6156780106
 20
94.228369243
 30
0.0
 40
0.5
100
AcDbArc
 50
294.4439521785
 51
0.0
  0
ARC
  5
2A8
330
1F
100
AcDbEntity
  8
SLD-0
  6
Continuous
 62
   179
370
    25
100
AcDbCircle
 10
163.6156780106
 20
90.0844553706
 30
0.0
 40
0.4999999999963336
100
AcDbArc
 50
0.0
 51
65.5561401975
  0
ARC
  5
2A9
330
1F
100
AcDbEntity
  8
SLD-0
  6
Continuous
 62
   179
370
    25
100
AcDbCircle
 10
163.6156780106
 20
89.4064125917
 30
0.0
 40
0.5
100
AcDbArc
 50
269.999999997
 51
0.0000000024
  0
ARC
  5
2AA
330
1F
100
AcDbEntity
  8
SLD-0
  6
Continuous
 62
   179
370
    25
100
AcDbCircle
 10
154.1156780106
 20
89.4064125917
 30
0.0
 40
0.5
100
AcDbArc
 50
180.0
 51
270.0
  0
ARC
  5
2AB
330
1F
100
AcDbEntity
  8
SLD-0
  6
Continuous
 62
   179
370
    25
100
AcDbCircle
 10
154.1156780106
 20
89.9064125917
 30
0.0
 40
0.5
100
AcDbArc
 50
90.0
 51
180.0
  0
ARC
  5
2AC
330
1F
100
AcDbEntity
  8
SLD-0
  6
Continuous
 62
   179
370
    25
100
AcDbCircle
 10
158.8656323638
 20
70.1564616002
 30
0.0
 40
3.749998488146739
100
AcDbArc
 50
169.8357477241
 51
10.1642522759
  0
ARC
  5
2AD
330
1F
100
AcDbEntity
  8
SLD-0
  6
Continuous
 62
   179
370
    25
100
AcDbCircle
 10
163.0489309605
 20
70.9064616002
 30
0.0
 40
0.4999999999943016
100
AcDbArc
 50
90.0
 51
190.1642522759
  0
ARC
  5
2AE
330
1F
100
AcDbEntity
  8
SLD-0
  6
Continuous
 62
   179
370
    25
100
AcDbCircle
 10
163.5560481236
 20
70.9064616002
 30
0.0
 40
0.5
100
AcDbArc
 50
9.0847202882
 51
90.0000000011
  0
ARC
  5
2AF
330
1F
100
AcDbEntity
  8
SLD-0
  6
Continuous
 62
   179
370
    25
100
AcDbCircle
 10
158.8656323638
 20
70.1564616002
 30
0.0
 40
5.249999999991436
100
AcDbArc
 50
170.9152797128
 51
9.0847202874
  0
ARC
  5
2B0
330
1F
100
AcDbEntity
  8
SLD-0
  6
Continuous
 62
   179
370
    25
100
AcDbCircle
 10
154.175216604
 20
70.9064616001
 30
0.0
 40
0.5000000000115804
100
AcDbArc
 50
90.0
 51
170.9152797129
  0
ARC
  5
2B1
330
1F
100
AcDbEntity
  8
SLD-0
  6
Continuous
 62
   179
370
    25
100
AcDbCircle
 10
154.6823337671
 20
70.9064616002
 30
0.0
 40
0.4999999999943041
100
AcDbArc
 50
349.8357477241
 51
90.0
  0
ARC
  5
2B2
330
1F
100
AcDbEntity
  8
SLD-0
  6
Continuous
 62
   179
370
    25
100
AcDbCircle
 10
156.8656780106
 20
60.1564125918
 30
0.0
 40
3.250000000000021
100
AcDbArc
 50
90.0
 51
270.0
  0
ARC
  5
2B3
330
1F
100
AcDbEntity
  8
SLD-0
  6
Continuous
 62
   179
370
    25
100
AcDbCircle
 10
163.6156740835
 20
62.9064125918
 30
0.0
 40
0.5
100
AcDbArc
 50
0.0
 51
90.0
  0
ARC
  5
2B4
330
1F
100
AcDbEntity
  8
SLD-0
  6
Continuous
 62
   179
370
    25
100
AcDbCircle
 10
163.6156740835
 20
62.4064125918
 30
0.0
 40
0.5
100
AcDbArc
 50
270.0
 51
0.0
  0
ARC
  5
2B5
330
1F
100
AcDbEntity
  8
SLD-0
  6
Continuous
 62
   179
370
    25
100
AcDbCircle
 10
156.8656780106
 20
60.1564125918
 30
0.0
 40
1.750000000000014
100
AcDbArc
 50
90.0
 51
270.0
  0
ARC
  5
2B6
330
1F
100
AcDbEntity
  8
SLD-0
  6
Continuous
 62
   179
370
    25
100
AcDbCircle
 10
163.6156740835
 20
57.9064125918
 30
0.0
 40
0.5
100
AcDbArc
 50
0.0
 51
90.0
  0
ARC
  5
2B7
330
1F
100
AcDbEntity
  8
SLD-0
  6
Continuous
 62
   179
370
    25
100
AcDbCircle
 10
163.6156740835
 20
57.4064125918
 30
0.0
 40
0.5
100
AcDbArc
 50
270.0
 51
0.0
  0
ARC
  5
2B8
330
1F
100
AcDbEntity
  8
SLD-0
  6
Continuous
 62
   179
370
    25
100
AcDbCircle
 10
257.1114402107
 20
57.4064129018
 30
0.0
 40
0.5
100
AcDbArc
 50
270.0
 51
0.0
  0
ARC
  5
2B9
330
1F
100
AcDbEntity
  8
SLD-0
  6
Continuous
 62
   179
370
    25
100
AcDbCircle
 10
256.3572024107
 20
60.1564129018
 30
0.0
 40
3.25
100
AcDbArc
 50
90.0
 51
270.0
  0
ARC
  5
2BA
330
1F
100
AcDbEntity
  8
SLD-0
  6
Continuous
 62
   179
370
    25
100
AcDbCircle
 10
257.1114402107
 20
62.9064129018
 30
0.0
 40
0.5
100
AcDbArc
 50
0.0
 51
90.0
  0
ARC
  5
2BB
330
1F
100
AcDbEntity
  8
SLD-0
  6
Continuous
 62
   179
370
    25
100
AcDbCircle
 10
257.1114402107
 20
62.4064129018
 30
0.0
 40
0.5
100
AcDbArc
 50
270.0
 51
0.0
  0
ARC
  5
2BC
330
1F
100
AcDbEntity
  8
SLD-0
  6
Continuous
 62
   179
370
    25
100
AcDbCircle
 10
256.3572024107
 20
60.1564129018
 30
0.0
 40
1.750000000000007
100
AcDbArc
 50
90.0
 51
270.0
  0
ARC
  5
2BD
330
1F
100
AcDbEntity
  8
SLD-0
  6
Continuous
 62
   179
370
    25
100
AcDbCircle
 10
257.1114402107
 20
57.9064129018
 30
0.0
 40
0.5
100
AcDbArc
 50
0.0
 51
90.0
  0
ARC
  5
2BE
330
1F
100
AcDbEntity
  8
SLD-0
  6
Continuous
 62
   179
370
    25
100
AcDbCircle
 10
254.6156780106
 20
89.4064146534
 30
0.0
 40
0.5
100
AcDbArc
 50
270.0
 51
0.0
  0
ARC
  5
2BF
330
1F
100
AcDbEntity
  8
SLD-0
  6
Continuous
 62
   179
370
    25
100
AcDbCircle
 10
253.6156780106
 20
89.4064146534
 30
0.0
 40
0.5
100
AcDbArc
 50
180.0
 51
270.0
  0
ARC
  5
2C0
330
1F
100
AcDbEntity
  8
SLD-0
  6
Continuous
 62
   179
370
    25
100
AcDbCircle
 10
253.6156780106
 20
94.9064125918
 30
0.0
 40
0.5
100
AcDbArc
 50
90.0
 51
180.0
  0
ARC
  5
2C1
330
1F
100
AcDbEntity
  8
SLD-0
  6
Continuous
 62
   179
370
    25
100
AcDbCircle
 10
263.1156780106
 20
94.9064125918
 30
0.0
 40
0.5000000000000142
100
AcDbArc
 50
0.0
 51
90.0
  0
ARC
  5
2C2
330
1F
100
AcDbEntity
  8
SLD-0
  6
Continuous
 62
   179
370
    25
100
AcDbCircle
 10
263.1156780106
 20
89.4064125918
 30
0.0
 40
0.5
100
AcDbArc
 50
270.0
 51
360.0
  0
ARC
  5
2C3
330
1F
100
AcDbEntity
  8
SLD-0
  6
Continuous
 62
   179
370
    25
100
AcDbCircle
 10
262.1156773826
 20
89.4064125918
 30
0.0
 40
0.5
100
AcDbArc
 50
180.0000719657
 51
270.0
  0
ARC
  5
2C4
330
1F
100
AcDbEntity
  8
SLD-0
  6
Continuous
 62
   179
370
    25
100
AcDbCircle
 10
258.8656740835
 20
90.9064125918
 30
0.0
 40
0.5
100
AcDbArc
 50
270.0
 51
0.0
  0
ARC
  5
2C5
330
1F
100
AcDbEntity
  8
SLD-0
  6
Continuous
 62
   179
370
    25
100
AcDbCircle
 10
257.8656740835
 20
90.9064125918
 30
0.0
 40
0.5
100
AcDbArc
 50
180.0
 51
270.0
  0
ARC
  5
2C6
330
1F
100
AcDbEntity
  8
SLD-0
  6
Continuous
 62
   179
370
    25
100
AcDbCircle
 10
263.1156780106
 20
81.9064125918
 30
0.0
 40
0.5
100
AcDbArc
 50
360.0
 51
90.0
  0
ARC
  5
2C7
330
1F
100
AcDbEntity
  8
SLD-0
  6
Continuous
 62
   179
370
    25
100
AcDbCircle
 10
263.1156780106
 20
81.4064125918
 30
0.0
 40
0.5
100
AcDbArc
 50
270.0000000067
 51
0.000000006
  0
ARC
  5
2C8
330
1F
100
AcDbEntity
  8
SLD-0
  6
Continuous
 62
   179
370
    25
100
AcDbCircle
 10
253.6156780106
 20
81.4064125918
 30
0.0
 40
0.5
100
AcDbArc
 50
180.0
 51
270.0
  0
ARC
  5
2C9
330
1F
100
AcDbEntity
  8
SLD-0
  6
Continuous
 62
   179
370
    25
100
AcDbCircle
 10
253.6156780106
 20
82.0844568825
 30
0.0
 40
0.4999999999999555
100
AcDbArc
 50
114.4441047829
 51
180.0
  0
ARC
  5
2CA
330
1F
100
AcDbEntity
  8
SLD-0
  6
Continuous
 62
   179
370
    25
100
AcDbCircle
 10
253.6156780106
 20
86.2283699309
 30
0.0
 40
0.5000000000130456
100
AcDbArc
 50
180.0
 51
245.5561592692
  0
ARC
  5
2CB
330
1F
100
AcDbEntity
  8
SLD-0
  6
Continuous
 62
   179
370
    25
100
AcDbCircle
 10
253.6156780106
 20
86.9064125918
 30
0.0
 40
0.5
100
AcDbArc
 50
90.0
 51
180.0
  0
ARC
  5
2CC
330
1F
100
AcDbEntity
  8
SLD-0
  6
Continuous
 62
   179
370
    25
100
AcDbCircle
 10
263.1156780106
 20
86.9064125918
 30
0.0
 40
0.5
100
AcDbArc
 50
360.0
 51
90.0
  0
ARC
  5
2CD
330
1F
100
AcDbEntity
  8
SLD-0
  6
Continuous
 62
   179
370
    25
100
AcDbCircle
 10
263.1156780106
 20
86.4064125918
 30
0.0
 40
0.5
100
AcDbArc
 50
270.0
 51
360.0
  0
ARC
  5
2CE
330
1F
100
AcDbEntity
  8
SLD-0
  6
Continuous
 62
   179
370
    25
100
AcDbCircle
 10
258.1156723084
 20
84.584469459
 30
0.0
 40
0.5000000000210971
100
AcDbArc
 50
0.0001500025
 51
65.5561284435
  0
ARC
  5
2CF
330
1F
100
AcDbEntity
  8
SLD-0
  6
Continuous
 62
   179
370
    25
100
AcDbCircle
 10
258.1156745497
 20
83.7283824123
 30
0.0
 40
0.4999999999508428
100
AcDbArc
 50
294.4440893717
 51
0.0001500004
  0
ARC
  5
2D0
330
1F
100
AcDbEntity
  8
SLD-0
  6
Continuous
 62
   179
370
    25
100
AcDbCircle
 10
154.1156780106
 20
86.4064125918
 30
0.0
 40
0.5
100
AcDbArc
 50
180.0
 51
270.0
  0
ARC
  5
2D1
330
1F
100
AcDbEntity
  8
SLD-0
  6
Continuous
 62
   179
370
    25
100
AcDbCircle
 10
154.1156780106
 20
86.9064125918
 30
0.0
 40
0.5
100
AcDbArc
 50
90.0
 51
180.0
  0
ARC
  5
2D2
330
1F
100
AcDbEntity
  8
SLD-0
  6
Continuous
 62
   179
370
    25
100
AcDbCircle
 10
163.6156780106
 20
86.9064125918
 30
0.0
 40
0.5
100
AcDbArc
 50
0.0
 51
90.0
  0
ARC
  5
2D3
330
1F
100
AcDbEntity
  8
SLD-0
  6
Continuous
 62
   179
370
    25
100
AcDbCircle
 10
163.6156780106
 20
86.2283683098
 30
0.0
 40
0.5000000000000114
100
AcDbArc
 50
294.4441033604
 51
0.0
  0
ARC
  5
2D4
330
1F
100
AcDbEntity
  8
SLD-0
  6
Continuous
 62
   179
370
    25
100
AcDbCircle
 10
163.6156780106
 20
82.0844553518
 30
0.0
 40
0.5000000000129035
100
AcDbArc
 50
0.0
 51
65.5561432077
  0
ARC
  5
2D5
330
1F
100
AcDbEntity
  8
SLD-0
  6
Continuous
 62
   179
370
    25
100
AcDbCircle
 10
163.6156780106
 20
81.4064125917
 30
0.0
 40
0.5
100
AcDbArc
 50
270.0000000065
 51
0.000000006
  0
ARC
  5
2D6
330
1F
100
AcDbEntity
  8
SLD-0
  6
Continuous
 62
   179
370
    25
100
AcDbCircle
 10
154.1156780107
 20
81.4064125917
 30
0.0
 40
0.5
100
AcDbArc
 50
180.0
 51
270.0
  0
ARC
  5
2D7
330
1F
100
AcDbEntity
  8
SLD-0
  6
Continuous
 62
   179
370
    25
100
AcDbCircle
 10
154.1156780107
 20
81.9064125917
 30
0.0
 40
0.5
100
AcDbArc
 50
90.0
 51
180.0
  0
ARC
  5
2D8
330
1F
100
AcDbEntity
  8
SLD-0
  6
Continuous
 62
   179
370
    25
100
AcDbCircle
 10
159.1156844565
 20
83.7283554561
 30
0.0
 40
0.5000000000045475
100
AcDbArc
 50
180.0
 51
245.5561276488
  0
ARC
  5
2D9
330
1F
100
AcDbEntity
  8
SLD-0
  6
Continuous
 62
   179
370
    25
100
AcDbCircle
 10
159.1156844564
 20
84.5844425941
 30
0.0
 40
0.4999999999513136
100
AcDbArc
 50
114.444103361
 51
180.0
  0
ARC
  5
2DA
330
1F
100
AcDbEntity
  8
SLD-0
  6
Continuous
 62
   179
370
    25
100
AcDbCircle
 10
163.6156780106
 20
50.0844552527
 30
0.0
 40
0.5000000000130456
100
AcDbArc
 50
0.0
 51
65.5561592692
  0
ARC
  5
2DB
330
1F
100
AcDbEntity
  8
SLD-0
  6
Continuous
 62
   179
370
    25
100
AcDbCircle
 10
163.6156780106
 20
49.4064125918
 30
0.0
 40
0.5000000000000284
100
AcDbArc
 50
269.9999999955
 51
359.9999999954
  0
ARC
  5
2DC
330
1F
100
AcDbEntity
  8
SLD-0
  6
Continuous
 62
   179
370
    25
100
AcDbCircle
 10
154.1156780106
 20
49.4064125918
 30
0.0
 40
0.5
100
AcDbArc
 50
180.0
 51
270.0
  0
ARC
  5
2DD
330
1F
100
AcDbEntity
  8
SLD-0
  6
Continuous
 62
   179
370
    25
100
AcDbCircle
 10
154.1156780106
 20
49.9064125918
 30
0.0
 40
0.5
100
AcDbArc
 50
90.0
 51
180.0
  0
ARC
  5
2DE
330
1F
100
AcDbEntity
  8
SLD-0
  6
Continuous
 62
   179
370
    25
100
AcDbCircle
 10
159.1156837128
 20
51.7283557246
 30
0.0
 40
0.50000000002107
100
AcDbArc
 50
180.0001500025
 51
245.5561284435
  0
ARC
  5
2DF
330
1F
100
AcDbEntity
  8
SLD-0
  6
Continuous
 62
   179
370
    25
100
AcDbCircle
 10
159.1156814715
 20
52.5844427713
 30
0.0
 40
0.4999999999508611
100
AcDbArc
 50
114.4440893717
 51
180.0001500004
  0
ARC
  5
2E0
330
1F
100
AcDbEntity
  8
SLD-0
  6
Continuous
 62
   179
370
    25
100
AcDbCircle
 10
154.1156780106
 20
54.4064125918
 30
0.0
 40
0.5000000000000071
100
AcDbArc
 50
180.0
 51
270.0
  0
ARC
  5
2E1
330
1F
100
AcDbEntity
  8
SLD-0
  6
Continuous
 62
   179
370
    25
100
AcDbCircle
 10
154.1156780106
 20
54.9064125918
 30
0.0
 40
0.5
100
AcDbArc
 50
90.0
 51
180.0
  0
ARC
  5
2E2
330
1F
100
AcDbEntity
  8
SLD-0
  6
Continuous
 62
   179
370
    25
100
AcDbCircle
 10
163.6156780106
 20
54.9064125918
 30
0.0
 40
0.5
100
AcDbArc
 50
0.0
 51
90.0
  0
ARC
  5
2E3
330
1F
100
AcDbEntity
  8
SLD-0
  6
Continuous
 62
   179
370
    25
100
AcDbCircle
 10
163.6156780106
 20
54.2283683011
 30
0.0
 40
0.500000000013407
100
AcDbArc
 50
294.4441047769
 51
0.0
  0
ARC
  5
2E4
330
1F
100
AcDbEntity
  8
SLD-0
  6
Continuous
 62
   179
370
    25
100
AcDbCircle
 10
160.8741536105
 20
76.1564122818
 30
0.0
 40
1.75
100
AcDbArc
 50
270.0
 51
90.0
  0
ARC
  5
2E5
330
1F
100
AcDbEntity
  8
SLD-0
  6
Continuous
 62
   179
370
    25
100
AcDbCircle
 10
160.1199158105
 20
78.4064122818
 30
0.0
 40
0.5
100
AcDbArc
 50
180.0
 51
270.0
  0
ARC
  5
2E6
330
1F
100
AcDbEntity
  8
SLD-0
  6
Continuous
 62
   179
370
    25
100
AcDbCircle
 10
160.1199158105
 20
78.9064122818
 30
0.0
 40
0.5000000000000142
100
AcDbArc
 50
90.0
 51
180.0
  0
ARC
  5
2E7
330
1F
100
AcDbEntity
  8
SLD-0
  6
Continuous
 62
   179
370
    25
100
AcDbCircle
 10
160.8741536105
 20
76.1564122818
 30
0.0
 40
3.250000000000014
100
AcDbArc
 50
270.0
 51
90.0
  0
ARC
  5
2E8
330
1F
100
AcDbEntity
  8
SLD-0
  6
Continuous
 62
   179
370
    25
100
AcDbCircle
 10
160.1199158105
 20
73.4064122818
 30
0.0
 40
0.5
100
AcDbArc
 50
180.0
 51
270.0
  0
ARC
  5
2E9
330
1F
100
AcDbEntity
  8
SLD-0
  6
Continuous
 62
   179
370
    25
100
AcDbCircle
 10
160.1199158105
 20
73.9064122818
 30
0.0
 40
0.5
100
AcDbArc
 50
90.0
 51
180.0
  0
ARC
  5
2EA
330
1F
100
AcDbEntity
  8
SLD-0
  6
Continuous
 62
   179
370
    25
100
AcDbCircle
 10
260.3656780106
 20
76.1564125918
 30
0.0
 40
1.75
100
AcDbArc
 50
270.0
 51
90.0
  0
ARC
  5
2EB
330
1F
100
AcDbEntity
  8
SLD-0
  6
Continuous
 62
   179
370
    25
100
AcDbCircle
 10
253.6156819377
 20
78.4064125918
 30
0.0
 40
0.5
100
AcDbArc
 50
180.0
 51
270.0
  0
ARC
  5
2EC
330
1F
100
AcDbEntity
  8
SLD-0
  6
Continuous
 62
   179
370
    25
100
AcDbCircle
 10
253.6156819377
 20
78.9064125918
 30
0.0
 40
0.5
100
AcDbArc
 50
90.0
 51
180.0
  0
ARC
  5
2ED
330
1F
100
AcDbEntity
  8
SLD-0
  6
Continuous
 62
   179
370
    25
100
AcDbCircle
 10
260.3656780106
 20
76.1564125918
 30
0.0
 40
3.250000000000014
100
AcDbArc
 50
270.0
 51
90.0
  0
ARC
  5
2EE
330
1F
100
AcDbEntity
  8
SLD-0
  6
Continuous
 62
   179
370
    25
100
AcDbCircle
 10
253.6156819377
 20
73.4064125918
 30
0.0
 40
0.5
100
AcDbArc
 50
180.0
 51
270.0
  0
ARC
  5
2EF
330
1F
100
AcDbEntity
  8
SLD-0
  6
Continuous
 62
   179
370
    25
100
AcDbCircle
 10
253.6156819377
 20
73.9064125918
 30
0.0
 40
0.5000000000000142
100
AcDbArc
 50
90.0
 51
180.0
  0
ARC
  5
2F0
330
1F
100
AcDbEntity
  8
SLD-0
  6
Continuous
 62
   179
370
    25
100
AcDbCircle
 10
203.2043818047
 20
29.8484899195
 30
0.0
 40
0.5
100
AcDbArc
 50
0.0
 51
180.0
  0
ARC
  5
2F1
330
1F
100
AcDbEntity
  8
SLD-0
  6
Continuous
 62
   179
370
    25
100
AcDbCircle
 10
204.4543818047
 20
29.2254635894
 30
0.0
 40
0.75
100
AcDbArc
 50
180.0
 51
0.0
  0
ARC
  5
2F2
330
1F
100
AcDbEntity
  8
SLD-0
  6
Continuous
 62
   179
370
    25
100
AcDbCircle
 10
205.7043818047
 20
29.8484899195
 30
0.0
 40
0.5
100
AcDbArc
 50
0.0
 51
180.0
  0
ARC
  5
2F3
330
1F
100
AcDbEntity
  8
SLD-0
  6
Continuous
 62
   179
370
    25
100
AcDbCircle
 10
204.4543818047
 20
29.2254635894
 30
0.0
 40
1.75
100
AcDbArc
 50
180.0
 51
0.0
  0
ARC
  5
2F4
330
1F
100
AcDbEntity
  8
SLD-0
  6
Continuous
 62
   179
370
    25
100
AcDbCircle
 10
213.2557378495
 20
30.3494210772
 30
0.0
 40
0.5000000000131415
100
AcDbArc
 50
281.9585083942
 51
318.5832907802
  0
ARC
  5
2F5
330
1F
100
AcDbEntity
  8
SLD-0
  6
Continuous
 62
   179
370
    25
100
AcDbCircle
 10
213.5043818047
 20
29.1754635893
 30
0.0
 40
0.6999999999695827
100
AcDbArc
 50
101.9585083977
 51
335.3756816478
  0
ARC
  5
2F6
330
1F
100
AcDbEntity
  8
SLD-0
  6
Continuous
 62
   179
370
    25
100
AcDbCircle
 10
214.5952530162
 20
28.6754635893
 30
0.0
 40
0.5000000000373375
100
AcDbArc
 50
335.3756816487
 51
155.3756816487
  0
ARC
  5
2F7
330
1F
100
AcDbEntity
  8
SLD-0
  6
Continuous
 62
   179
370
    25
100
AcDbCircle
 10
213.5043818047
 20
29.1754635893
 30
0.0
 40
1.700000000044248
100
AcDbArc
 50
117.6645052398
 51
335.3756816483
  0
ARC
  5
2F8
330
1F
100
AcDbEntity
  8
SLD-0
  6
Continuous
 62
   179
370
    25
100
AcDbCircle
 10
213.5803022414
 20
32.3455958129
 30
0.0
 40
1.875920436700997
100
AcDbArc
 50
21.308725063
 51
242.5338892651
  0
ARC
  5
2F9
330
1F
100
AcDbEntity
  8
SLD-0
  6
Continuous
 62
   179
370
    25
100
AcDbCircle
 10
214.8621591164
 20
32.845595813
 30
0.0
 40
0.5000000000177771
100
AcDbArc
 50
201.308725063
 51
21.3087250614
  0
ARC
  5
2FA
330
1F
100
AcDbEntity
  8
SLD-0
  6
Continuous
 62
   179
370
    25
100
AcDbCircle
 10
213.5803022414
 20
32.3455958129
 30
0.0
 40
0.8759204366654548
100
AcDbArc
 50
21.3087250639
 51
259.1411035253
  0
ARC
  5
2FB
330
1F
100
AcDbEntity
  8
SLD-0
  6
Continuous
 62
   179
370
    25
100
AcDbCircle
 10
213.3210912898
 20
30.9943124487
 30
0.0
 40
0.4999999999965137
100
AcDbArc
 50
38.8338547712
 51
79.1411035257
  0
ARC
  5
2FC
330
1F
100
AcDbEntity
  8
SLD-0
  6
Continuous
 62
   179
370
    25
100
AcDbCircle
 10
213.5613440618
 20
30.6958595589
 30
0.0
 40
0.4999999999775961
100
AcDbArc
 50
318.5832907727
 51
38.8338547703
  0
LINE
  5
2FD
330
1F
100
AcDbEntity
  8
SLD-0
  6
Continuous
 62
   179
370
    25
100
AcDbLine
 10
35.7985833504
 20
20.5066415334
 30
0.0
 11
13.7981371622
 21
20.5066415334
 31
0.0
  0
LINE
  5
2FE
330
1F
100
AcDbEntity
  8
SLD-0
  6
Continuous
 62
   179
370
    25
100
AcDbLine
 10
12.3527959112
 20
22.4078754653
 30
0.0
 11
24.0385752889
 21
64.5028670434
 31
0.0
  0
LINE
  5
2FF
330
1F
100
AcDbEntity
  8
SLD-0
  6
Continuous
 62
   179
370
    25
100
AcDbLine
 10
26.9408170023
 20
64.4586219664
 30
0.0
 11
37.2554838128
 21
22.3636303884
 31
0.0
  0
LINE
  5
300
330
1F
100
AcDbEntity
  8
SLD-0
  6
Continuous
 62
   179
370
    25
100
AcDbLine
 10
20.5524684005
 20
74.0066415334
 30
0.0
 11
11.2493695139
 21
74.0066415334
 31
0.0
  0
LINE
  5
301
330
1F
100
AcDbEntity
  8
SLD-0
  6
Continuous
 62
   179
370
    25
100
AcDbLine
 10
21.9978096515
 20
72.1054076015
 30
0.0
 11
12.6947107649
 21
38.5934049678
 31
0.0
  0
LINE
  5
302
330
1F
100
AcDbEntity
  8
SLD-0
  6
Continuous
 62
   179
370
    25
100
AcDbLine
 10
9.7493695139
 20
72.5066415334
 30
0.0
 11
9.7493695139
 21
38.9946388997
 31
0.0
  0
LINE
  5
303
330
1F
100
AcDbEntity
  8
SLD-0
  6
Continuous
 62
   179
370
    25
100
AcDbLine
 10
43.0624541568
 20
10.8943960648
 30
0.0
 11
50.2890523494
 21
14.6415210536
 31
0.0
  0
LINE
  5
304
330
1F
100
AcDbEntity
  8
SLD-0
  6
Continuous
 62
   179
370
    25
100
AcDbLine
 10
51.2096866784
 20
14.6415210536
 30
0.0
 11
58.436284871
 21
10.8943960648
 31
0.0
  0
LINE
  5
305
330
1F
100
AcDbEntity
  8
SLD-0
  6
Continuous
 62
   179
370
    25
100
AcDbLine
 10
43.5227713213
 20
9.0066415334
 30
0.0
 11
57.9759677065
 21
9.0066415334
 31
0.0
  0
LINE
  5
306
330
1F
100
AcDbEntity
  8
SLD-0
  6
Continuous
 62
   179
370
    25
100
AcDbLine
 10
64.7096866784
 20
10.3717620132
 30
0.0
 11
71.936284871
 21
14.118887002
 31
0.0
  0
LINE
  5
307
330
1F
100
AcDbEntity
  8
SLD-0
  6
Continuous
 62
   179
370
    25
100
AcDbLine
 10
56.5624541568
 20
14.118887002
 30
0.0
 11
63.7890523495
 21
10.3717620131
 31
0.0
  0
LINE
  5
308
330
1F
100
AcDbEntity
  8
SLD-0
  6
Continuous
 62
   179
370
    25
100
AcDbLine
 10
57.0227713213
 20
16.0066415334
 30
0.0
 11
71.4759677065
 21
16.0066415334
 31
0.0
  0
LINE
  5
309
330
1F
100
AcDbEntity
  8
SLD-0
  6
Continuous
 62
   179
370
    25
100
AcDbLine
 10
16.0624541568
 20
10.8943960648
 30
0.0
 11
23.2890523494
 21
14.6415210536
 31
0.0
  0
LINE
  5
30A
330
1F
100
AcDbEntity
  8
SLD-0
  6
Continuous
 62
   179
370
    25
100
AcDbLine
 10
24.2096866784
 20
14.6415210536
 30
0.0
 11
31.436284871
 21
10.8943960648
 31
0.0
  0
LINE
  5
30B
330
1F
100
AcDbEntity
  8
SLD-0
  6
Continuous
 62
   179
370
    25
100
AcDbLine
 10
16.5227713213
 20
9.0066415334
 30
0.0
 11
30.9759677065
 21
9.0066415334
 31
0.0
  0
LINE
  5
30C
330
1F
100
AcDbEntity
  8
SLD-0
  6
Continuous
 62
   179
370
    25
100
AcDbLine
 10
37.7096866784
 20
10.3717620132
 30
0.0
 11
44.936284871
 21
14.118887002
 31
0.0
  0
LINE
  5
30D
330
1F
100
AcDbEntity
  8
SLD-0
  6
Continuous
 62
   179
370
    25
100
AcDbLine
 10
29.5624541568
 20
14.118887002
 30
0.0
 11
36.7890523495
 21
10.3717620131
 31
0.0
  0
LINE
  5
30E
330
1F
100
AcDbEntity
  8
SLD-0
  6
Continuous
 62
   179
370
    25
100
AcDbLine
 10
30.0227713213
 20
16.0066415334
 30
0.0
 11
44.4759677065
 21
16.0066415334
 31
0.0
  0
LINE
  5
30F
330
1F
100
AcDbEntity
  8
SLD-0
  6
Continuous
 62
   179
370
    25
100
AcDbLine
 10
97.0624541568
 20
10.8943960648
 30
0.0
 11
104.2890523494
 21
14.6415210536
 31
0.0
  0
LINE
  5
310
330
1F
100
AcDbEntity
  8
SLD-0
  6
Continuous
 62
   179
370
    25
100
AcDbLine
 10
105.2096866784
 20
14.6415210536
 30
0.0
 11
112.436284871
 21
10.8943960648
 31
0.0
  0
LINE
  5
311
330
1F
100
AcDbEntity
  8
SLD-0
  6
Continuous
 62
   179
370
    25
100
AcDbLine
 10
97.5227713213
 20
9.0066415334
 30
0.0
 11
111.9759677065
 21
9.0066415334
 31
0.0
  0
LINE
  5
312
330
1F
100
AcDbEntity
  8
SLD-0
  6
Continuous
 62
   179
370
    25
100
AcDbLine
 10
111.0227713213
 20
16.0066415334
 30
0.0
 11
117.2493695139
 21
16.0066415334
 31
0.0
  0
LINE
  5
313
330
1F
100
AcDbEntity
  8
SLD-0
  6
Continuous
 62
   179
370
    25
100
AcDbLine
 10
118.2493695139
 20
15.0066415334
 30
0.0
 11
118.2493695139
 21
11.7780350631
 31
0.0
  0
LINE
  5
314
330
1F
100
AcDbEntity
  8
SLD-0
  6
Continuous
 62
   179
370
    25
100
AcDbLine
 10
110.5624541568
 20
14.118887002
 30
0.0
 11
116.7890523495
 21
10.8902805316
 31
0.0
  0
LINE
  5
315
330
1F
100
AcDbEntity
  8
SLD-0
  6
Continuous
 62
   179
370
    25
100
AcDbLine
 10
70.0624541568
 20
10.8943960648
 30
0.0
 11
77.2890523494
 21
14.6415210536
 31
0.0
  0
LINE
  5
316
330
1F
100
AcDbEntity
  8
SLD-0
  6
Continuous
 62
   179
370
    25
100
AcDbLine
 10
78.2096866784
 20
14.6415210536
 30
0.0
 11
85.436284871
 21
10.8943960648
 31
0.0
  0
LINE
  5
317
330
1F
100
AcDbEntity
  8
SLD-0
  6
Continuous
 62
   179
370
    25
100
AcDbLine
 10
70.5227713213
 20
9.0066415334
 30
0.0
 11
84.9759677065
 21
9.0066415334
 31
0.0
  0
LINE
  5
318
330
1F
100
AcDbEntity
  8
SLD-0
  6
Continuous
 62
   179
370
    25
100
AcDbLine
 10
91.7096866784
 20
10.3717620132
 30
0.0
 11
98.936284871
 21
14.118887002
 31
0.0
  0
LINE
  5
319
330
1F
100
AcDbEntity
  8
SLD-0
  6
Continuous
 62
   179
370
    25
100
AcDbLine
 10
83.5624541568
 20
14.118887002
 30
0.0
 11
90.7890523495
 21
10.3717620131
 31
0.0
  0
LINE
  5
31A
330
1F
100
AcDbEntity
  8
SLD-0
  6
Continuous
 62
   179
370
    25
100
AcDbLine
 10
84.0227713213
 20
16.0066415334
 30
0.0
 11
98.4759677065
 21
16.0066415334
 31
0.0
  0
LINE
  5
31B
330
1F
100
AcDbEntity
  8
SLD-0
  6
Continuous
 62
   179
370
    25
100
AcDbLine
 10
11.7096866784
 20
10.8902805317
 30
0.0
 11
17.936284871
 21
14.118887002
 31
0.0
  0
LINE
  5
31C
330
1F
100
AcDbEntity
  8
SLD-0
  6
Continuous
 62
   179
370
    25
100
AcDbLine
 10
10.2493695139
 20
15.0066415334
 30
0.0
 11
10.2493695139
 21
11.7780350631
 31
0.0
  0
LINE
  5
31D
330
1F
100
AcDbEntity
  8
SLD-0
  6
Continuous
 62
   179
370
    25
100
AcDbLine
 10
11.2493695139
 20
16.0066415334
 30
0.0
 11
17.4759677065
 21
16.0066415334
 31
0.0
  0
LINE
  5
31E
330
1F
100
AcDbEntity
  8
SLD-0
  6
Continuous
 62
   179
370
    25
100
AcDbLine
 10
5.7493695139
 20
80.0066415334
 30
0.0
 11
5.7493695139
 21
4.5066415334
 31
0.0
  0
LINE
  5
31F
330
1F
100
AcDbEntity
  8
SLD-0
  6
Continuous
 62
   179
370
    25
100
AcDbLine
 10
5.7493695139
 20
4.5066415334
 30
0.0
 11
122.7493695139
 21
4.5066415334
 31
0.0
  0
LINE
  5
320
330
1F
100
AcDbEntity
  8
SLD-0
  6
Continuous
 62
   179
370
    25
100
AcDbLine
 10
122.7493695139
 20
4.5066415334
 30
0.0
 11
122.7493695139
 21
20.5066415334
 31
0.0
  0
LINE
  5
321
330
1F
100
AcDbEntity
  8
SLD-0
  6
Continuous
 62
   179
370
    25
100
AcDbLine
 10
122.7493695139
 20
20.5066415334
 30
0.0
 11
43.0056645964
 21
20.5066415334
 31
0.0
  0
LINE
  5
322
330
1F
100
AcDbEntity
  8
SLD-0
  6
Continuous
 62
   179
370
    25
100
AcDbLine
 10
41.548764134
 20
21.6496526783
 30
0.0
 11
27.5294450925
 21
78.8636303884
 31
0.0
  0
LINE
  5
323
330
1F
100
AcDbEntity
  8
SLD-0
  6
Continuous
 62
   179
370
    25
100
AcDbLine
 10
26.0725446301
 20
80.0066415334
 30
0.0
 11
5.7493695139
 21
80.0066415334
 31
0.0
  0
ARC
  5
324
330
1F
100
AcDbEntity
  8
SLD-0
  6
Continuous
 62
   179
370
    25
100
AcDbCircle
 10
13.7981371622
 20
22.0066415334
 30
0.0
 40
1.499999999999989
100
AcDbArc
 50
164.485080681
 51
270.0
  0
ARC
  5
325
330
1F
100
AcDbEntity
  8
SLD-0
  6
Continuous
 62
   179
370
    25
100
AcDbCircle
 10
25.4839165399
 20
64.1016331114
 30
0.0
 40
1.500000000010157
100
AcDbArc
 50
13.7680904515
 51
164.4850806777
  0
ARC
  5
326
330
1F
100
AcDbEntity
  8
SLD-0
  6
Continuous
 62
   179
370
    25
100
AcDbCircle
 10
35.7985833504
 20
22.0066415334
 30
0.0
 40
1.499999999999989
100
AcDbArc
 50
270.0
 51
13.7680904505
  0
ARC
  5
327
330
1F
100
AcDbEntity
  8
SLD-0
  6
Continuous
 62
   179
370
    25
100
AcDbCircle
 10
20.5524684005
 20
72.5066415334
 30
0.0
 40
1.500000000000017
100
AcDbArc
 50
344.485080681
 51
90.0
  0
ARC
  5
328
330
1F
100
AcDbEntity
  8
SLD-0
  6
Continuous
 62
   179
370
    25
100
AcDbCircle
 10
11.2493695139
 20
38.9946388997
 30
0.0
 40
1.499999999999973
100
AcDbArc
 50
180.0
 51
344.4850806814
  0
ARC
  5
329
330
1F
100
AcDbEntity
  8
SLD-0
  6
Continuous
 62
   179
370
    25
100
AcDbCircle
 10
11.2493695139
 20
72.5066415334
 30
0.0
 40
1.499999999999986
100
AcDbArc
 50
90.0
 51
180.0
  0
ARC
  5
32A
330
1F
100
AcDbEntity
  8
SLD-0
  6
Continuous
 62
   179
370
    25
100
AcDbCircle
 10
50.7493695139
 20
13.7537665222
 30
0.0
 40
0.9999999999999988
100
AcDbArc
 50
62.5924245622
 51
117.4075754414
  0
ARC
  5
32B
330
1F
100
AcDbEntity
  8
SLD-0
  6
Continuous
 62
   179
370
    25
100
AcDbCircle
 10
57.9759677065
 20
10.0066415334
 30
0.0
 40
1.000000000000002
100
AcDbArc
 50
270.0
 51
62.5924245586
  0
ARC
  5
32C
330
1F
100
AcDbEntity
  8
SLD-0
  6
Continuous
 62
   179
370
    25
100
AcDbCircle
 10
43.5227713213
 20
10.0066415334
 30
0.0
 40
1.000000000000002
100
AcDbArc
 50
117.4075754414
 51
270.0
  0
ARC
  5
32D
330
1F
100
AcDbEntity
  8
SLD-0
  6
Continuous
 62
   179
370
    25
100
AcDbCircle
 10
64.2493695139
 20
11.2595165446
 30
0.0
 40
1.000000000000011
100
AcDbArc
 50
242.5924245622
 51
297.4075754414
  0
ARC
  5
32E
330
1F
100
AcDbEntity
  8
SLD-0
  6
Continuous
 62
   179
370
    25
100
AcDbCircle
 10
57.0227713213
 20
15.0066415334
 30
0.0
 40
1.000000000000002
100
AcDbArc
 50
90.0
 51
242.5924245586
  0
ARC
  5
32F
330
1F
100
AcDbEntity
  8
SLD-0
  6
Continuous
 62
   179
370
    25
100
AcDbCircle
 10
71.4759677065
 20
15.0066415334
 30
0.0
 40
1.000000000000002
100
AcDbArc
 50
297.4075754414
 51
90.0
  0
ARC
  5
330
330
1F
100
AcDbEntity
  8
SLD-0
  6
Continuous
 62
   179
370
    25
100
AcDbCircle
 10
23.7493695139
 20
13.7537665222
 30
0.0
 40
0.9999999999999923
100
AcDbArc
 50
62.5924245622
 51
117.4075754414
  0
ARC
  5
331
330
1F
100
AcDbEntity
  8
SLD-0
  6
Continuous
 62
   179
370
    25
100
AcDbCircle
 10
30.9759677065
 20
10.0066415334
 30
0.0
 40
1.000000000000002
100
AcDbArc
 50
270.0
 51
62.5924245586
  0
ARC
  5
332
330
1F
100
AcDbEntity
  8
SLD-0
  6
Continuous
 62
   179
370
    25
100
AcDbCircle
 10
16.5227713213
 20
10.0066415334
 30
0.0
 40
1.000000000000002
100
AcDbArc
 50
117.4075754414
 51
270.0
  0
ARC
  5
333
330
1F
100
AcDbEntity
  8
SLD-0
  6
Continuous
 62
   179
370
    25
100
AcDbCircle
 10
37.2493695139
 20
11.2595165446
 30
0.0
 40
1.000000000000005
100
AcDbArc
 50
242.5924245622
 51
297.4075754414
  0
ARC
  5
334
330
1F
100
AcDbEntity
  8
SLD-0
  6
Continuous
 62
   179
370
    25
100
AcDbCircle
 10
30.0227713213
 20
15.0066415334
 30
0.0
 40
1.000000000000002
100
AcDbArc
 50
90.0
 51
242.5924245586
  0
ARC
  5
335
330
1F
100
AcDbEntity
  8
SLD-0
  6
Continuous
 62
   179
370
    25
100
AcDbCircle
 10
44.4759677065
 20
15.0066415334
 30
0.0
 40
1.000000000000002
100
AcDbArc
 50
297.4075754414
 51
90.0
  0
ARC
  5
336
330
1F
100
AcDbEntity
  8
SLD-0
  6
Continuous
 62
   179
370
    25
100
AcDbCircle
 10
104.7493695139
 20
13.7537665222
 30
0.0
 40
1.000000000000008
100
AcDbArc
 50
62.5924245622
 51
117.4075754414
  0
ARC
  5
337
330
1F
100
AcDbEntity
  8
SLD-0
  6
Continuous
 62
   179
370
    25
100
AcDbCircle
 10
111.9759677065
 20
10.0066415334
 30
0.0
 40
1.000000000000002
100
AcDbArc
 50
270.0
 51
62.5924245586
  0
ARC
  5
338
330
1F
100
AcDbEntity
  8
SLD-0
  6
Continuous
 62
   179
370
    25
100
AcDbCircle
 10
97.5227713213
 20
10.0066415334
 30
0.0
 40
1.000000000000002
100
AcDbArc
 50
117.4075754414
 51
270.0
  0
ARC
  5
339
330
1F
100
AcDbEntity
  8
SLD-0
  6
Continuous
 62
   179
370
    25
100
AcDbCircle
 10
117.2493695139
 20
15.0066415334
 30
0.0
 40
1.000000000000002
100
AcDbArc
 50
0.0
 51
90.0
  0
ARC
  5
33A
330
1F
100
AcDbEntity
  8
SLD-0
  6
Continuous
 62
   179
370
    25
100
AcDbCircle
 10
117.2493695139
 20
11.7780350631
 30
0.0
 40
1.000000000000021
100
AcDbArc
 50
242.5924245622
 51
0.0
  0
ARC
  5
33B
330
1F
100
AcDbEntity
  8
SLD-0
  6
Continuous
 62
   179
370
    25
100
AcDbCircle
 10
111.0227713213
 20
15.0066415334
 30
0.0
 40
1.000000000000002
100
AcDbArc
 50
90.0
 51
242.5924245586
  0
ARC
  5
33C
330
1F
100
AcDbEntity
  8
SLD-0
  6
Continuous
 62
   179
370
    25
100
AcDbCircle
 10
77.7493695139
 20
13.7537665222
 30
0.0
 40
1.000000000000008
100
AcDbArc
 50
62.5924245622
 51
117.4075754414
  0
ARC
  5
33D
330
1F
100
AcDbEntity
  8
SLD-0
  6
Continuous
 62
   179
370
    25
100
AcDbCircle
 10
84.9759677065
 20
10.0066415334
 30
0.0
 40
1.000000000000002
100
AcDbArc
 50
270.0
 51
62.5924245586
  0
ARC
  5
33E
330
1F
100
AcDbEntity
  8
SLD-0
  6
Continuous
 62
   179
370
    25
100
AcDbCircle
 10
70.5227713213
 20
10.0066415334
 30
0.0
 40
1.000000000000002
100
AcDbArc
 50
117.4075754414
 51
270.0
  0
ARC
  5
33F
330
1F
100
AcDbEntity
  8
SLD-0
  6
Continuous
 62
   179
370
    25
100
AcDbCircle
 10
91.2493695139
 20
11.2595165446
 30
0.0
 40
1.000000000000027
100
AcDbArc
 50
242.5924245622
 51
297.4075754414
  0
ARC
  5
340
330
1F
100
AcDbEntity
  8
SLD-0
  6
Continuous
 62
   179
370
    25
100
AcDbCircle
 10
84.0227713213
 20
15.0066415334
 30
0.0
 40
1.000000000000002
100
AcDbArc
 50
90.0
 51
242.5924245586
  0
ARC
  5
341
330
1F
100
AcDbEntity
  8
SLD-0
  6
Continuous
 62
   179
370
    25
100
AcDbCircle
 10
98.4759677065
 20
15.0066415334
 30
0.0
 40
1.000000000000002
100
AcDbArc
 50
297.4075754414
 51
90.0
  0
ARC
  5
342
330
1F
100
AcDbEntity
  8
SLD-0
  6
Continuous
 62
   179
370
    25
100
AcDbCircle
 10
11.2493695139
 20
11.7780350631
 30
0.0
 40
1.0
100
AcDbArc
 50
180.0
 51
297.4075754414
  0
ARC
  5
343
330
1F
100
AcDbEntity
  8
SLD-0
  6
Continuous
 62
   179
370
    25
100
AcDbCircle
 10
11.2493695139
 20
15.0066415334
 30
0.0
 40
1.000000000000002
100
AcDbArc
 50
90.0
 51
180.0
  0
ARC
  5
344
330
1F
100
AcDbEntity
  8
SLD-0
  6
Continuous
 62
   179
370
    25
100
AcDbCircle
 10
17.4759677065
 20
15.0066415334
 30
0.0
 40
1.000000000000002
100
AcDbArc
 50
297.4075754414
 51
90.0
  0
ARC
  5
345
330
1F
100
AcDbEntity
  8
SLD-0
  6
Continuous
 62
   179
370
    25
100
AcDbCircle
 10
43.0056645964
 20
22.0066415334
 30
0.0
 40
1.500000000000005
100
AcDbArc
 50
193.7680904515
 51
270.0
  0
ARC
  5
346
330
1F
100
AcDbEntity
  8
SLD-0
  6
Continuous
 62
   179
370
    25
100
AcDbCircle
 10
26.0725446301
 20
78.5066415334
 30
0.0
 40
1.5
100
AcDbArc
 50
13.7680904505
 51
90.0
  0
CIRCLE
  5
347
330
1F
100
AcDbEntity
  8
SLD-0
  6
Continuous
 62
   179
370
    25
100
AcDbCircle
 10
11.2493695139
 20
77.0066415334
 30
0.0
 40
1.049999999999995
  0
CIRCLE
  5
348
330
1F
100
AcDbEntity
  8
SLD-0
  6
Continuous
 62
   179
370
    25
100
AcDbCircle
 10
24.2493695139
 20
77.0066415334
 30
0.0
 40
1.049999999999994
  0
LINE
  5
349
330
1F
100
AcDbEntity
  8
SLD-0
  6
Continuous
 62
   179
370
    25
100
AcDbLine
 10
113.8473857148
 20
84.9961124994
 30
0.0
 11
135.847831903
 21
84.9961124994
 31
0.0
  0
LINE
  5
34A
330
1F
100
AcDbEntity
  8
SLD-0
  6
Continuous
 62
   179
370
    25
100
AcDbLine
 10
137.293173154
 20
83.0948785675
 30
0.0
 11
125.6073937763
 21
40.9998869894
 31
0.0
  0
LINE
  5
34B
330
1F
100
AcDbEntity
  8
SLD-0
  6
Continuous
 62
   179
370
    25
100
AcDbLine
 10
122.7051520629
 20
41.0441320664
 30
0.0
 11
112.3904852524
 21
83.1391236444
 31
0.0
  0
LINE
  5
34C
330
1F
100
AcDbEntity
  8
SLD-0
  6
Continuous
 62
   179
370
    25
100
AcDbLine
 10
129.0935006647
 20
31.4961124994
 30
0.0
 11
138.3965995513
 21
31.4961124994
 31
0.0
  0
LINE
  5
34D
330
1F
100
AcDbEntity
  8
SLD-0
  6
Continuous
 62
   179
370
    25
100
AcDbLine
 10
127.6481594137
 20
33.3973464314
 30
0.0
 11
136.9512583003
 21
66.909349065
 31
0.0
  0
LINE
  5
34E
330
1F
100
AcDbEntity
  8
SLD-0
  6
Continuous
 62
   179
370
    25
100
AcDbLine
 10
139.8965995513
 20
32.9961124994
 30
0.0
 11
139.8965995513
 21
66.5081151331
 31
0.0
  0
LINE
  5
34F
330
1F
100
AcDbEntity
  8
SLD-0
  6
Continuous
 62
   179
370
    25
100
AcDbLine
 10
106.5835149084
 20
94.608357968
 30
0.0
 11
99.3569167158
 21
90.8612329792
 31
0.0
  0
LINE
  5
350
330
1F
100
AcDbEntity
  8
SLD-0
  6
Continuous
 62
   179
370
    25
100
AcDbLine
 10
98.4362823868
 20
90.8612329792
 30
0.0
 11
91.2096841942
 21
94.6083579681
 31
0.0
  0
LINE
  5
351
330
1F
100
AcDbEntity
  8
SLD-0
  6
Continuous
 62
   179
370
    25
100
AcDbLine
 10
106.1231977439
 20
96.4961124994
 30
0.0
 11
91.6700013587
 21
96.4961124994
 31
0.0
  0
LINE
  5
352
330
1F
100
AcDbEntity
  8
SLD-0
  6
Continuous
 62
   179
370
    25
100
AcDbLine
 10
84.9362823868
 20
95.1309920197
 30
0.0
 11
77.7096841942
 21
91.3838670309
 31
0.0
  0
LINE
  5
353
330
1F
100
AcDbEntity
  8
SLD-0
  6
Continuous
 62
   179
370
    25
100
AcDbLine
 10
93.0835149084
 20
91.3838670308
 30
0.0
 11
85.8569167157
 21
95.1309920197
 31
0.0
  0
LINE
  5
354
330
1F
100
AcDbEntity
  8
SLD-0
  6
Continuous
 62
   179
370
    25
100
AcDbLine
 10
92.6231977439
 20
89.4961124994
 30
0.0
 11
78.1700013587
 21
89.4961124994
 31
0.0
  0
LINE
  5
355
330
1F
100
AcDbEntity
  8
SLD-0
  6
Continuous
 62
   179
370
    25
100
AcDbLine
 10
133.5835149084
 20
94.608357968
 30
0.0
 11
126.3569167158
 21
90.8612329792
 31
0.0
  0
LINE
  5
356
330
1F
100
AcDbEntity
  8
SLD-0
  6
Continuous
 62
   179
370
    25
100
AcDbLine
 10
125.4362823868
 20
90.8612329792
 30
0.0
 11
118.2096841942
 21
94.6083579681
 31
0.0
  0
LINE
  5
357
330
1F
100
AcDbEntity
  8
SLD-0
  6
Continuous
 62
   179
370
    25
100
AcDbLine
 10
133.1231977439
 20
96.4961124994
 30
0.0
 11
118.6700013587
 21
96.4961124994
 31
0.0
  0
LINE
  5
358
330
1F
100
AcDbEntity
  8
SLD-0
  6
Continuous
 62
   179
370
    25
100
AcDbLine
 10
111.9362823868
 20
95.1309920197
 30
0.0
 11
104.7096841942
 21
91.3838670309
 31
0.0
  0
LINE
  5
359
330
1F
100
AcDbEntity
  8
SLD-0
  6
Continuous
 62
   179
370
    25
100
AcDbLine
 10
120.0835149084
 20
91.3838670308
 30
0.0
 11
112.8569167157
 21
95.1309920197
 31
0.0
  0
LINE
  5
35A
330
1F
100
AcDbEntity
  8
SLD-0
  6
Continuous
 62
   179
370
    25
100
AcDbLine
 10
119.6231977439
 20
89.4961124994
 30
0.0
 11
105.1700013587
 21
89.4961124994
 31
0.0
  0
LINE
  5
35B
330
1F
100
AcDbEntity
  8
SLD-0
  6
Continuous
 62
   179
370
    25
100
AcDbLine
 10
52.5835149084
 20
94.608357968
 30
0.0
 11
45.3569167158
 21
90.8612329792
 31
0.0
  0
LINE
  5
35C
330
1F
100
AcDbEntity
  8
SLD-0
  6
Continuous
 62
   179
370
    25
100
AcDbLine
 10
44.4362823868
 20
90.8612329792
 30
0.0
 11
37.2096841942
 21
94.6083579681
 31
0.0
  0
LINE
  5
35D
330
1F
100
AcDbEntity
  8
SLD-0
  6
Continuous
 62
   179
370
    25
100
AcDbLine
 10
52.1231977439
 20
96.4961124994
 30
0.0
 11
37.6700013587
 21
96.4961124994
 31
0.0
  0
LINE
  5
35E
330
1F
100
AcDbEntity
  8
SLD-0
  6
Continuous
 62
   179
370
    25
100
AcDbLine
 10
38.6231977439
 20
89.4961124994
 30
0.0
 11
32.3965995513
 21
89.4961124994
 31
0.0
  0
LINE
  5
35F
330
1F
100
AcDbEntity
  8
SLD-0
  6
Continuous
 62
   179
370
    25
100
AcDbLine
 10
31.3965995513
 20
90.4961124994
 30
0.0
 11
31.3965995513
 21
93.7247189697
 31
0.0
  0
LINE
  5
360
330
1F
100
AcDbEntity
  8
SLD-0
  6
Continuous
 62
   179
370
    25
100
AcDbLine
 10
39.0835149084
 20
91.3838670308
 30
0.0
 11
32.8569167157
 21
94.6124735012
 31
0.0
  0
LINE
  5
361
330
1F
100
AcDbEntity
  8
SLD-0
  6
Continuous
 62
   179
370
    25
100
AcDbLine
 10
79.5835149084
 20
94.608357968
 30
0.0
 11
72.3569167158
 21
90.8612329792
 31
0.0
  0
LINE
  5
362
330
1F
100
AcDbEntity
  8
SLD-0
  6
Continuous
 62
   179
370
    25
100
AcDbLine
 10
71.4362823868
 20
90.8612329792
 30
0.0
 11
64.2096841942
 21
94.6083579681
 31
0.0
  0
LINE
  5
363
330
1F
100
AcDbEntity
  8
SLD-0
  6
Continuous
 62
   179
370
    25
100
AcDbLine
 10
79.1231977439
 20
96.4961124994
 30
0.0
 11
64.6700013587
 21
96.4961124994
 31
0.0
  0
LINE
  5
364
330
1F
100
AcDbEntity
  8
SLD-0
  6
Continuous
 62
   179
370
    25
100
AcDbLine
 10
57.9362823868
 20
95.1309920197
 30
0.0
 11
50.7096841942
 21
91.3838670309
 31
0.0
  0
LINE
  5
365
330
1F
100
AcDbEntity
  8
SLD-0
  6
Continuous
 62
   179
370
    25
100
AcDbLine
 10
66.0835149084
 20
91.3838670308
 30
0.0
 11
58.8569167157
 21
95.1309920197
 31
0.0
  0
LINE
  5
366
330
1F
100
AcDbEntity
  8
SLD-0
  6
Continuous
 62
   179
370
    25
100
AcDbLine
 10
65.6231977439
 20
89.4961124994
 30
0.0
 11
51.1700013587
 21
89.4961124994
 31
0.0
  0
LINE
  5
367
330
1F
100
AcDbEntity
  8
SLD-0
  6
Continuous
 62
   179
370
    25
100
AcDbLine
 10
137.9362823868
 20
94.6124735012
 30
0.0
 11
131.7096841942
 21
91.3838670309
 31
0.0
  0
LINE
  5
368
330
1F
100
AcDbEntity
  8
SLD-0
  6
Continuous
 62
   179
370
    25
100
AcDbLine
 10
139.3965995513
 20
90.4961124994
 30
0.0
 11
139.3965995513
 21
93.7247189697
 31
0.0
  0
LINE
  5
369
330
1F
100
AcDbEntity
  8
SLD-0
  6
Continuous
 62
   179
370
    25
100
AcDbLine
 10
138.3965995513
 20
89.4961124994
 30
0.0
 11
132.1700013587
 21
89.4961124994
 31
0.0
  0
LINE
  5
36A
330
1F
100
AcDbEntity
  8
SLD-0
  6
Continuous
 62
   179
370
    25
100
AcDbLine
 10
143.8965995513
 20
25.4961124994
 30
0.0
 11
143.8965995513
 21
100.9961124994
 31
0.0
  0
LINE
  5
36B
330
1F
100
AcDbEntity
  8
SLD-0
  6
Continuous
 62
   179
370
    25
100
AcDbLine
 10
143.8965995513
 20
100.9961124994
 30
0.0
 11
26.8965995513
 21
100.9961124994
 31
0.0
  0
LINE
  5
36C
330
1F
100
AcDbEntity
  8
SLD-0
  6
Continuous
 62
   179
370
    25
100
AcDbLine
 10
26.8965995513
 20
100.9961124994
 30
0.0
 11
26.8965995513
 21
84.9961124994
 31
0.0
  0
LINE
  5
36D
330
1F
100
AcDbEntity
  8
SLD-0
  6
Continuous
 62
   179
370
    25
100
AcDbLine
 10
26.8965995513
 20
84.9961124994
 30
0.0
 11
106.6403044688
 21
84.9961124994
 31
0.0
  0
LINE
  5
36E
330
1F
100
AcDbEntity
  8
SLD-0
  6
Continuous
 62
   179
370
    25
100
AcDbLine
 10
108.0972049312
 20
83.8531013545
 30
0.0
 11
122.1165239727
 21
26.6391236444
 31
0.0
  0
LINE
  5
36F
330
1F
100
AcDbEntity
  8
SLD-0
  6
Continuous
 62
   179
370
    25
100
AcDbLine
 10
123.5734244351
 20
25.4961124994
 30
0.0
 11
143.8965995513
 21
25.4961124994
 31
0.0
  0
ARC
  5
370
330
1F
100
AcDbEntity
  8
SLD-0
  6
Continuous
 62
   179
370
    25
100
AcDbCircle
 10
135.847831903
 20
83.4961124994
 30
0.0
 40
1.50000000000001
100
AcDbArc
 50
344.485080681
 51
90.0
  0
ARC
  5
371
330
1F
100
AcDbEntity
  8
SLD-0
  6
Continuous
 62
   179
370
    25
100
AcDbCircle
 10
124.1620525253
 20
41.4011209214
 30
0.0
 40
1.500000000005081
100
AcDbArc
 50
193.7680904515
 51
344.4850806777
  0
ARC
  5
372
330
1F
100
AcDbEntity
  8
SLD-0
  6
Continuous
 62
   179
370
    25
100
AcDbCircle
 10
113.8473857148
 20
83.4961124995
 30
0.0
 40
1.499999999989261
100
AcDbArc
 50
90.0000000003
 51
193.768090451
  0
ARC
  5
373
330
1F
100
AcDbEntity
  8
SLD-0
  6
Continuous
 62
   179
370
    25
100
AcDbCircle
 10
129.0935006647
 20
32.9961124994
 30
0.0
 40
1.500000000000321
100
AcDbArc
 50
164.4850806809
 51
270.0
  0
ARC
  5
374
330
1F
100
AcDbEntity
  8
SLD-0
  6
Continuous
 62
   179
370
    25
100
AcDbCircle
 10
138.3965995513
 20
66.5081151331
 30
0.0
 40
1.499999999991701
100
AcDbArc
 50
0.0
 51
164.4850806814
  0
ARC
  5
375
330
1F
100
AcDbEntity
  8
SLD-0
  6
Continuous
 62
   179
370
    25
100
AcDbCircle
 10
138.3965995513
 20
32.9961124994
 30
0.0
 40
1.499999999999996
100
AcDbArc
 50
270.0
 51
0.0
  0
ARC
  5
376
330
1F
100
AcDbEntity
  8
SLD-0
  6
Continuous
 62
   179
370
    25
100
AcDbCircle
 10
98.8965995513
 20
91.7489875107
 30
0.0
 40
0.9999999999886328
100
AcDbArc
 50
242.5924245622
 51
297.4075754414
  0
ARC
  5
377
330
1F
100
AcDbEntity
  8
SLD-0
  6
Continuous
 62
   179
370
    25
100
AcDbCircle
 10
91.6700013587
 20
95.4961124995
 30
0.0
 40
0.9999999999886455
100
AcDbArc
 50
90.0000000028
 51
242.5924245561
  0
ARC
  5
378
330
1F
100
AcDbEntity
  8
SLD-0
  6
Continuous
 62
   179
370
    25
100
AcDbCircle
 10
106.1231977439
 20
95.4961124995
 30
0.0
 40
0.9999999999886519
100
AcDbArc
 50
297.4075754414
 51
90.0
  0
ARC
  5
379
330
1F
100
AcDbEntity
  8
SLD-0
  6
Continuous
 62
   179
370
    25
100
AcDbCircle
 10
85.3965995513
 20
94.2432374883
 30
0.0
 40
0.9999999999886645
100
AcDbArc
 50
62.5924245622
 51
117.4075754414
  0
ARC
  5
37A
330
1F
100
AcDbEntity
  8
SLD-0
  6
Continuous
 62
   179
370
    25
100
AcDbCircle
 10
92.6231977439
 20
90.4961124994
 30
0.0
 40
0.9999999999886597
100
AcDbArc
 50
270.0
 51
62.5924245586
  0
ARC
  5
37B
330
1F
100
AcDbEntity
  8
SLD-0
  6
Continuous
 62
   179
370
    25
100
AcDbCircle
 10
78.1700013587
 20
90.4961124994
 30
0.0
 40
0.9999999999886455
100
AcDbArc
 50
117.4075754389
 51
270.0000000016
  0
ARC
  5
37C
330
1F
100
AcDbEntity
  8
SLD-0
  6
Continuous
 62
   179
370
    25
100
AcDbCircle
 10
125.8965995513
 20
91.7489875107
 30
0.0
 40
0.9999999999886501
100
AcDbArc
 50
242.5924245622
 51
297.4075754414
  0
ARC
  5
37D
330
1F
100
AcDbEntity
  8
SLD-0
  6
Continuous
 62
   179
370
    25
100
AcDbCircle
 10
118.6700013587
 20
95.4961124995
 30
0.0
 40
0.9999999999886482
100
AcDbArc
 50
90.0000000028
 51
242.5924245561
  0
ARC
  5
37E
330
1F
100
AcDbEntity
  8
SLD-0
  6
Continuous
 62
   179
370
    25
100
AcDbCircle
 10
133.1231977439
 20
95.4961124995
 30
0.0
 40
0.9999999999886455
100
AcDbArc
 50
297.4075754414
 51
90.0
  0
ARC
  5
37F
330
1F
100
AcDbEntity
  8
SLD-0
  6
Continuous
 62
   179
370
    25
100
AcDbCircle
 10
112.3965995513
 20
94.2432374883
 30
0.0
 40
0.9999999999886459
100
AcDbArc
 50
62.5924245622
 51
117.4075754414
  0
ARC
  5
380
330
1F
100
AcDbEntity
  8
SLD-0
  6
Continuous
 62
   179
370
    25
100
AcDbCircle
 10
119.6231977439
 20
90.4961124994
 30
0.0
 40
0.9999999999886455
100
AcDbArc
 50
270.0
 51
62.5924245586
  0
ARC
  5
381
330
1F
100
AcDbEntity
  8
SLD-0
  6
Continuous
 62
   179
370
    25
100
AcDbCircle
 10
105.1700013587
 20
90.4961124994
 30
0.0
 40
0.9999999999886496
100
AcDbArc
 50
117.4075754389
 51
270.0000000016
  0
ARC
  5
382
330
1F
100
AcDbEntity
  8
SLD-0
  6
Continuous
 62
   179
370
    25
100
AcDbCircle
 10
44.8965995513
 20
91.7489875107
 30
0.0
 40
0.9999999999886486
100
AcDbArc
 50
242.5924245622
 51
297.4075754414
  0
ARC
  5
383
330
1F
100
AcDbEntity
  8
SLD-0
  6
Continuous
 62
   179
370
    25
100
AcDbCircle
 10
37.6700013587
 20
95.4961124995
 30
0.0
 40
0.9999999999886514
100
AcDbArc
 50
90.0000000028
 51
242.5924245561
  0
ARC
  5
384
330
1F
100
AcDbEntity
  8
SLD-0
  6
Continuous
 62
   179
370
    25
100
AcDbCircle
 10
52.1231977439
 20
95.4961124995
 30
0.0
 40
0.9999999999886597
100
AcDbArc
 50
297.4075754414
 51
90.0
  0
ARC
  5
385
330
1F
100
AcDbEntity
  8
SLD-0
  6
Continuous
 62
   179
370
    25
100
AcDbCircle
 10
32.3965995513
 20
90.4961124994
 30
0.0
 40
1.0
100
AcDbArc
 50
180.0000000001
 51
269.9999999997
  0
ARC
  5
386
330
1F
100
AcDbEntity
  8
SLD-0
  6
Continuous
 62
   179
370
    25
100
AcDbCircle
 10
32.3965995513
 20
93.7247189697
 30
0.0
 40
1.000000000000011
100
AcDbArc
 50
62.5924245622
 51
180.0
  0
ARC
  5
387
330
1F
100
AcDbEntity
  8
SLD-0
  6
Continuous
 62
   179
370
    25
100
AcDbCircle
 10
38.6231977439
 20
90.4961124994
 30
0.0
 40
0.9999999999886455
100
AcDbArc
 50
270.0
 51
62.5924245586
  0
ARC
  5
388
330
1F
100
AcDbEntity
  8
SLD-0
  6
Continuous
 62
   179
370
    25
100
AcDbCircle
 10
71.8965995513
 20
91.7489875107
 30
0.0
 40
0.9999999999886374
100
AcDbArc
 50
242.5924245622
 51
297.4075754414
  0
ARC
  5
389
330
1F
100
AcDbEntity
  8
SLD-0
  6
Continuous
 62
   179
370
    25
100
AcDbCircle
 10
64.6700013587
 20
95.4961124995
 30
0.0
 40
0.9999999999886455
100
AcDbArc
 50
90.0000000028
 51
242.5924245561
  0
ARC
  5
38A
330
1F
100
AcDbEntity
  8
SLD-0
  6
Continuous
 62
   179
370
    25
100
AcDbCircle
 10
79.1231977439
 20
95.4961124995
 30
0.0
 40
0.9999999999886455
100
AcDbArc
 50
297.4075754414
 51
90.0
  0
ARC
  5
38B
330
1F
100
AcDbEntity
  8
SLD-0
  6
Continuous
 62
   179
370
    25
100
AcDbCircle
 10
58.3965995513
 20
94.2432374883
 30
0.0
 40
0.9999999999886519
100
AcDbArc
 50
62.5924245622
 51
117.4075754414
  0
ARC
  5
38C
330
1F
100
AcDbEntity
  8
SLD-0
  6
Continuous
 62
   179
370
    25
100
AcDbCircle
 10
65.6231977439
 20
90.4961124994
 30
0.0
 40
0.9999999999886519
100
AcDbArc
 50
270.0
 51
62.5924245586
  0
ARC
  5
38D
330
1F
100
AcDbEntity
  8
SLD-0
  6
Continuous
 62
   179
370
    25
100
AcDbCircle
 10
51.1700013587
 20
90.4961124994
 30
0.0
 40
0.9999999999886459
100
AcDbArc
 50
117.4075754389
 51
270.0000000016
  0
ARC
  5
38E
330
1F
100
AcDbEntity
  8
SLD-0
  6
Continuous
 62
   179
370
    25
100
AcDbCircle
 10
138.3965995513
 20
93.7247189697
 30
0.0
 40
0.9999999999886597
100
AcDbArc
 50
0.0
 51
117.4075754414
  0
ARC
  5
38F
330
1F
100
AcDbEntity
  8
SLD-0
  6
Continuous
 62
   179
370
    25
100
AcDbCircle
 10
138.3965995513
 20
90.4961124994
 30
0.0
 40
1.0
100
AcDbArc
 50
270.0
 51
0.0
  0
ARC
  5
390
330
1F
100
AcDbEntity
  8
SLD-0
  6
Continuous
 62
   179
370
    25
100
AcDbCircle
 10
132.1700013587
 20
90.4961124994
 30
0.0
 40
0.9999999999886455
100
AcDbArc
 50
117.40757544
 51
270.0000000006
  0
ARC
  5
391
330
1F
100
AcDbEntity
  8
SLD-0
  6
Continuous
 62
   179
370
    25
100
AcDbCircle
 10
106.6403044688
 20
83.4961124994
 30
0.0
 40
1.5
100
AcDbArc
 50
13.7680904515
 51
90.0
  0
ARC
  5
392
330
1F
100
AcDbEntity
  8
SLD-0
  6
Continuous
 62
   179
370
    25
100
AcDbCircle
 10
123.5734244351
 20
26.9961124994
 30
0.0
 40
1.499999999989256
100
AcDbArc
 50
193.7680904506
 51
270.0
  0
CIRCLE
  5
393
330
1F
100
AcDbEntity
  8
SLD-0
  6
Continuous
 62
   179
370
    25
100
AcDbCircle
 10
138.3965995513
 20
28.4961124994
 30
0.0
 40
1.050000000000011
  0
CIRCLE
  5
394
330
1F
100
AcDbEntity
  8
SLD-0
  6
Continuous
 62
   179
370
    25
100
AcDbCircle
 10
125.3965995513
 20
28.4961124994
 30
0.0
 40
1.049999999999997
  0
LINE
  5
395
330
1F
100
AcDbEntity
  8
SLD-0
  6
Continuous
 62
   179
370
    25
100
AcDbLine
 10
92.0061988236
 20
110.5064028967
 30
0.0
 11
104.6390879724
 21
110.5064028967
 31
0.0
  0
LINE
  5
396
330
1F
100
AcDbEntity
  8
SLD-0
  6
Continuous
 62
   179
370
    25
100
AcDbLine
 10
98.322643398
 20
116.3486992309
 30
0.0
 11
91.502327798
 21
112.3701817976
 31
0.0
  0
LINE
  5
397
330
1F
100
AcDbEntity
  8
SLD-0
  6
Continuous
 62
   179
370
    25
100
AcDbLine
 10
105.142958998
 20
112.3701817976
 30
0.0
 11
98.322643398
 21
116.3486992309
 31
0.0
  0
LINE
  5
398
330
1F
100
AcDbEntity
  8
SLD-0
  6
Continuous
 62
   179
370
    25
100
AcDbLine
 10
81.142958998
 20
112.3701817976
 30
0.0
 11
74.8265144235
 21
116.054774466
 31
0.0
  0
LINE
  5
399
330
1F
100
AcDbEntity
  8
SLD-0
  6
Continuous
 62
   179
370
    25
100
AcDbLine
 10
68.0061988236
 20
110.5064028967
 30
0.0
 11
80.6390879724
 21
110.5064028967
 31
0.0
  0
LINE
  5
39A
330
1F
100
AcDbEntity
  8
SLD-0
  6
Continuous
 62
   179
370
    25
100
AcDbLine
 10
73.8187723725
 20
116.054774466
 30
0.0
 11
67.502327798
 21
112.3701817976
 31
0.0
  0
LINE
  5
39B
330
1F
100
AcDbEntity
  8
SLD-0
  6
Continuous
 62
   179
370
    25
100
AcDbLine
 10
57.142958998
 20
112.3701817976
 30
0.0
 11
50.8265144235
 21
116.054774466
 31
0.0
  0
LINE
  5
39C
330
1F
100
AcDbEntity
  8
SLD-0
  6
Continuous
 62
   179
370
    25
100
AcDbLine
 10
44.0061988236
 20
110.5064028967
 30
0.0
 11
56.6390879724
 21
110.5064028967
 31
0.0
  0
LINE
  5
39D
330
1F
100
AcDbEntity
  8
SLD-0
  6
Continuous
 62
   179
370
    25
100
AcDbLine
 10
49.8187723725
 20
116.054774466
 30
0.0
 11
43.502327798
 21
112.3701817976
 31
0.0
  0
LINE
  5
39E
330
1F
100
AcDbEntity
  8
SLD-0
  6
Continuous
 62
   179
370
    25
100
AcDbLine
 10
122.322643398
 20
111.5064028967
 30
0.0
 11
122.322643398
 21
114.6076622318
 31
0.0
  0
LINE
  5
39F
330
1F
100
AcDbEntity
  8
SLD-0
  6
Continuous
 62
   179
370
    25
100
AcDbLine
 10
116.0061988236
 20
110.5064028967
 30
0.0
 11
121.322643398
 21
110.5064028967
 31
0.0
  0
LINE
  5
3A0
330
1F
100
AcDbEntity
  8
SLD-0
  6
Continuous
 62
   179
370
    25
100
AcDbLine
 10
120.8187723725
 20
115.4714411327
 30
0.0
 11
115.502327798
 21
112.3701817976
 31
0.0
  0
LINE
  5
3A1
330
1F
100
AcDbEntity
  8
SLD-0
  6
Continuous
 62
   179
370
    25
100
AcDbLine
 10
44.6390879724
 20
117.5064028967
 30
0.0
 11
32.0061988236
 21
117.5064028967
 31
0.0
  0
LINE
  5
3A2
330
1F
100
AcDbEntity
  8
SLD-0
  6
Continuous
 62
   179
370
    25
100
AcDbLine
 10
38.8265144235
 20
111.9580313274
 30
0.0
 11
45.1429589979
 21
115.6426239958
 31
0.0
  0
LINE
  5
3A3
330
1F
100
AcDbEntity
  8
SLD-0
  6
Continuous
 62
   179
370
    25
100
AcDbLine
 10
31.502327798
 20
115.6426239958
 30
0.0
 11
37.8187723724
 21
111.9580313274
 31
0.0
  0
LINE
  5
3A4
330
1F
100
AcDbEntity
  8
SLD-0
  6
Continuous
 62
   179
370
    25
100
AcDbLine
 10
62.8265144235
 20
111.9580313274
 30
0.0
 11
69.142958998
 21
115.6426239958
 31
0.0
  0
LINE
  5
3A5
330
1F
100
AcDbEntity
  8
SLD-0
  6
Continuous
 62
   179
370
    25
100
AcDbLine
 10
55.502327798
 20
115.6426239958
 30
0.0
 11
61.8187723724
 21
111.9580313274
 31
0.0
  0
LINE
  5
3A6
330
1F
100
AcDbEntity
  8
SLD-0
  6
Continuous
 62
   179
370
    25
100
AcDbLine
 10
68.6390879724
 20
117.5064028967
 30
0.0
 11
56.0061988236
 21
117.5064028967
 31
0.0
  0
LINE
  5
3A7
330
1F
100
AcDbEntity
  8
SLD-0
  6
Continuous
 62
   179
370
    25
100
AcDbLine
 10
116.6390879724
 20
117.5064028967
 30
0.0
 11
104.0061988236
 21
117.5064028967
 31
0.0
  0
LINE
  5
3A8
330
1F
100
AcDbEntity
  8
SLD-0
  6
Continuous
 62
   179
370
    25
100
AcDbLine
 10
110.8265144235
 20
111.9580313274
 30
0.0
 11
117.1429589979
 21
115.6426239958
 31
0.0
  0
LINE
  5
3A9
330
1F
100
AcDbEntity
  8
SLD-0
  6
Continuous
 62
   179
370
    25
100
AcDbLine
 10
103.502327798
 20
115.6426239958
 30
0.0
 11
109.8187723724
 21
111.9580313274
 31
0.0
  0
LINE
  5
3AA
330
1F
100
AcDbEntity
  8
SLD-0
  6
Continuous
 62
   179
370
    25
100
AcDbLine
 10
92.6390879724
 20
117.5064028967
 30
0.0
 11
80.0061988236
 21
117.5064028967
 31
0.0
  0
LINE
  5
3AB
330
1F
100
AcDbEntity
  8
SLD-0
  6
Continuous
 62
   179
370
    25
100
AcDbLine
 10
86.8265144235
 20
111.9580313274
 30
0.0
 11
93.1429589979
 21
115.6426239958
 31
0.0
  0
LINE
  5
3AC
330
1F
100
AcDbEntity
  8
SLD-0
  6
Continuous
 62
   179
370
    25
100
AcDbLine
 10
79.502327798
 20
115.6426239958
 30
0.0
 11
85.8187723724
 21
111.9580313274
 31
0.0
  0
LINE
  5
3AD
330
1F
100
AcDbEntity
  8
SLD-0
  6
Continuous
 62
   179
370
    25
100
AcDbLine
 10
33.142958998
 20
112.3701817976
 30
0.0
 11
27.8265144235
 21
115.4714411327
 31
0.0
  0
LINE
  5
3AE
330
1F
100
AcDbEntity
  8
SLD-0
  6
Continuous
 62
   179
370
    25
100
AcDbLine
 10
27.322643398
 20
110.5064028967
 30
0.0
 11
32.6390879724
 21
110.5064028967
 31
0.0
  0
LINE
  5
3AF
330
1F
100
AcDbEntity
  8
SLD-0
  6
Continuous
 62
   179
370
    25
100
AcDbLine
 10
26.322643398
 20
114.6076622318
 30
0.0
 11
26.322643398
 21
111.5064028967
 31
0.0
  0
LINE
  5
3B0
330
1F
100
AcDbEntity
  8
SLD-0
  6
Continuous
 62
   179
370
    25
100
AcDbLine
 10
144.322643398
 20
122.0064028967
 30
0.0
 11
144.322643398
 21
106.0064028967
 31
0.0
  0
LINE
  5
3B1
330
1F
100
AcDbEntity
  8
SLD-0
  6
Continuous
 62
   179
370
    25
100
AcDbLine
 10
134.722643398
 20
122.0064028967
 30
0.0
 11
144.322643398
 21
122.0064028967
 31
0.0
  0
LINE
  5
3B2
330
1F
100
AcDbEntity
  8
SLD-0
  6
Continuous
 62
   179
370
    25
100
AcDbLine
 10
134.722643398
 20
114.0064028967
 30
0.0
 11
134.722643398
 21
122.0064028967
 31
0.0
  0
LINE
  5
3B3
330
1F
100
AcDbEntity
  8
SLD-0
  6
Continuous
 62
   179
370
    25
100
AcDbLine
 10
130.722643398
 20
122.0064028967
 30
0.0
 11
130.722643398
 21
114.0064028967
 31
0.0
  0
LINE
  5
3B4
330
1F
100
AcDbEntity
  8
SLD-0
  6
Continuous
 62
   179
370
    25
100
AcDbLine
 10
17.922643398
 20
122.0064028967
 30
0.0
 11
130.722643398
 21
122.0064028967
 31
0.0
  0
LINE
  5
3B5
330
1F
100
AcDbEntity
  8
SLD-0
  6
Continuous
 62
   179
370
    25
100
AcDbLine
 10
17.922643398
 20
114.0064028967
 30
0.0
 11
17.922643398
 21
122.0064028967
 31
0.0
  0
LINE
  5
3B6
330
1F
100
AcDbEntity
  8
SLD-0
  6
Continuous
 62
   179
370
    25
100
AcDbLine
 10
13.922643398
 20
122.0064028967
 30
0.0
 11
13.922643398
 21
114.0064028967
 31
0.0
  0
LINE
  5
3B7
330
1F
100
AcDbEntity
  8
SLD-0
  6
Continuous
 62
   179
370
    25
100
AcDbLine
 10
4.322643398
 20
122.0064028967
 30
0.0
 11
13.922643398
 21
122.0064028967
 31
0.0
  0
LINE
  5
3B8
330
1F
100
AcDbEntity
  8
SLD-0
  6
Continuous
 62
   179
370
    25
100
AcDbLine
 10
4.322643398
 20
122.0064028967
 30
0.0
 11
4.322643398
 21
106.0064028967
 31
0.0
  0
LINE
  5
3B9
330
1F
100
AcDbEntity
  8
SLD-0
  6
Continuous
 62
   179
370
    25
100
AcDbLine
 10
4.322643398
 20
106.0064028967
 30
0.0
 11
144.322643398
 21
106.0064028967
 31
0.0
  0
ARC
  5
3BA
330
1F
100
AcDbEntity
  8
SLD-0
  6
Continuous
 62
   179
370
    25
100
AcDbCircle
 10
92.0061988236
 20
111.5064028967
 30
0.0
 40
1.000000000000006
100
AcDbArc
 50
120.2564371635
 51
270.0
  0
ARC
  5
3BB
330
1F
100
AcDbEntity
  8
SLD-0
  6
Continuous
 62
   179
370
    25
100
AcDbCircle
 10
104.6390879724
 20
111.5064028967
 30
0.0
 40
1.000000000039615
100
AcDbArc
 50
270.0
 51
59.7435628328
  0
ARC
  5
3BC
330
1F
100
AcDbEntity
  8
SLD-0
  6
Continuous
 62
   179
370
    25
100
AcDbCircle
 10
80.6390879724
 20
111.5064028967
 30
0.0
 40
1.000000000039608
100
AcDbArc
 50
270.0
 51
59.7435628328
  0
ARC
  5
3BD
330
1F
100
AcDbEntity
  8
SLD-0
  6
Continuous
 62
   179
370
    25
100
AcDbCircle
 10
68.0061988236
 20
111.5064028967
 30
0.0
 40
1.0
100
AcDbArc
 50
120.2564371635
 51
270.0
  0
ARC
  5
3BE
330
1F
100
AcDbEntity
  8
SLD-0
  6
Continuous
 62
   179
370
    25
100
AcDbCircle
 10
74.322643398
 20
115.1909955651
 30
0.0
 40
0.9999999999892203
100
AcDbArc
 50
59.7435628377
 51
120.2564371623
  0
ARC
  5
3BF
330
1F
100
AcDbEntity
  8
SLD-0
  6
Continuous
 62
   179
370
    25
100
AcDbCircle
 10
56.6390879724
 20
111.5064028967
 30
0.0
 40
1.000000000039597
100
AcDbArc
 50
270.0
 51
59.7435628328
  0
ARC
  5
3C0
330
1F
100
AcDbEntity
  8
SLD-0
  6
Continuous
 62
   179
370
    25
100
AcDbCircle
 10
44.0061988236
 20
111.5064028967
 30
0.0
 40
1.000000000000002
100
AcDbArc
 50
120.2564371635
 51
270.0
  0
ARC
  5
3C1
330
1F
100
AcDbEntity
  8
SLD-0
  6
Continuous
 62
   179
370
    25
100
AcDbCircle
 10
50.322643398
 20
115.1909955651
 30
0.0
 40
0.9999999999892167
100
AcDbArc
 50
59.7435628377
 51
120.2564371623
  0
ARC
  5
3C2
330
1F
100
AcDbEntity
  8
SLD-0
  6
Continuous
 62
   179
370
    25
100
AcDbCircle
 10
121.322643398
 20
111.5064028967
 30
0.0
 40
1.000000000000014
100
AcDbArc
 50
270.0
 51
0.0
  0
ARC
  5
3C3
330
1F
100
AcDbEntity
  8
SLD-0
  6
Continuous
 62
   179
370
    25
100
AcDbCircle
 10
116.0061988236
 20
111.5064028967
 30
0.0
 40
1.0
100
AcDbArc
 50
120.2564371635
 51
270.0
  0
ARC
  5
3C4
330
1F
100
AcDbEntity
  8
SLD-0
  6
Continuous
 62
   179
370
    25
100
AcDbCircle
 10
121.322643398
 20
114.6076622318
 30
0.0
 40
1.0
100
AcDbArc
 50
0.0
 51
120.2564371623
  0
ARC
  5
3C5
330
1F
100
AcDbEntity
  8
SLD-0
  6
Continuous
 62
   179
370
    25
100
AcDbCircle
 10
44.6390879724
 20
116.5064028967
 30
0.0
 40
1.0
100
AcDbArc
 50
300.2564371635
 51
90.0
  0
ARC
  5
3C6
330
1F
100
AcDbEntity
  8
SLD-0
  6
Continuous
 62
   179
370
    25
100
AcDbCircle
 10
38.322643398
 20
112.8218102283
 30
0.0
 40
0.9999999999999952
100
AcDbArc
 50
239.7435628365
 51
300.2564371623
  0
ARC
  5
3C7
330
1F
100
AcDbEntity
  8
SLD-0
  6
Continuous
 62
   179
370
    25
100
AcDbCircle
 10
32.0061988236
 20
116.5064028967
 30
0.0
 40
1.00000000003961
100
AcDbArc
 50
90.0
 51
239.7435628328
  0
ARC
  5
3C8
330
1F
100
AcDbEntity
  8
SLD-0
  6
Continuous
 62
   179
370
    25
100
AcDbCircle
 10
62.322643398
 20
112.8218102283
 30
0.0
 40
1.00000000000001
100
AcDbArc
 50
239.7435628365
 51
300.2564371623
  0
ARC
  5
3C9
330
1F
100
AcDbEntity
  8
SLD-0
  6
Continuous
 62
   179
370
    25
100
AcDbCircle
 10
56.0061988236
 20
116.5064028967
 30
0.0
 40
1.000000000039597
100
AcDbArc
 50
90.0
 51
239.7435628328
  0
ARC
  5
3CA
330
1F
100
AcDbEntity
  8
SLD-0
  6
Continuous
 62
   179
370
    25
100
AcDbCircle
 10
68.6390879724
 20
116.5064028967
 30
0.0
 40
1.000000000039608
100
AcDbArc
 50
300.2564371672
 51
90.0
  0
ARC
  5
3CB
330
1F
100
AcDbEntity
  8
SLD-0
  6
Continuous
 62
   179
370
    25
100
AcDbCircle
 10
116.6390879724
 20
116.5064028967
 30
0.0
 40
1.000000000000006
100
AcDbArc
 50
300.2564371635
 51
90.0
  0
ARC
  5
3CC
330
1F
100
AcDbEntity
  8
SLD-0
  6
Continuous
 62
   179
370
    25
100
AcDbCircle
 10
110.322643398
 20
112.8218102283
 30
0.0
 40
0.9999999999999988
100
AcDbArc
 50
239.7435628365
 51
300.2564371623
  0
ARC
  5
3CD
330
1F
100
AcDbEntity
  8
SLD-0
  6
Continuous
 62
   179
370
    25
100
AcDbCircle
 10
104.0061988236
 20
116.5064028967
 30
0.0
 40
1.000000000039615
100
AcDbArc
 50
90.0
 51
239.7435628328
  0
ARC
  5
3CE
330
1F
100
AcDbEntity
  8
SLD-0
  6
Continuous
 62
   179
370
    25
100
AcDbCircle
 10
92.6390879724
 20
116.5064028967
 30
0.0
 40
1.000000000000006
100
AcDbArc
 50
300.2564371635
 51
90.0
  0
ARC
  5
3CF
330
1F
100
AcDbEntity
  8
SLD-0
  6
Continuous
 62
   179
370
    25
100
AcDbCircle
 10
86.322643398
 20
112.8218102283
 30
0.0
 40
1.000000000000006
100
AcDbArc
 50
239.7435628365
 51
300.2564371623
  0
ARC
  5
3D0
330
1F
100
AcDbEntity
  8
SLD-0
  6
Continuous
 62
   179
370
    25
100
AcDbCircle
 10
80.0061988236
 20
116.5064028967
 30
0.0
 40
1.000000000039608
100
AcDbArc
 50
90.0
 51
239.7435628328
  0
ARC
  5
3D1
330
1F
100
AcDbEntity
  8
SLD-0
  6
Continuous
 62
   179
370
    25
100
AcDbCircle
 10
32.6390879724
 20
111.5064028967
 30
0.0
 40
1.000000000039612
100
AcDbArc
 50
270.0
 51
59.7435628328
  0
ARC
  5
3D2
330
1F
100
AcDbEntity
  8
SLD-0
  6
Continuous
 62
   179
370
    25
100
AcDbCircle
 10
27.322643398
 20
111.5064028967
 30
0.0
 40
1.0
100
AcDbArc
 50
180.0
 51
270.0
  0
ARC
  5
3D3
330
1F
100
AcDbEntity
  8
SLD-0
  6
Continuous
 62
   179
370
    25
100
AcDbCircle
 10
27.322643398
 20
114.6076622318
 30
0.0
 40
1.0
100
AcDbArc
 50
59.7435628377
 51
180.0
  0
CIRCLE
  5
3D4
330
1F
100
AcDbEntity
  8
SLD-0
  6
Continuous
 62
   179
370
    25
100
AcDbCircle
 10
10.422643398
 20
114.0064028967
 30
0.0
 40
1.25
  0
CIRCLE
  5
3D5
330
1F
100
AcDbEntity
  8
SLD-0
  6
Continuous
 62
   179
370
    25
100
AcDbCircle
 10
138.222643398
 20
114.0064028967
 30
0.0
 40
1.25
  0
CIRCLE
  5
3D6
330
1F
100
AcDbEntity
  8
SLD-0
  6
Continuous
 62
   179
370
    25
100
AcDbCircle
 10
127.222643398
 20
114.0064028967
 30
0.0
 40
1.25
  0
CIRCLE
  5
3D7
330
1F
100
AcDbEntity
  8
SLD-0
  6
Continuous
 62
   179
370
    25
100
AcDbCircle
 10
21.422643398
 20
114.0064028967
 30
0.0
 40
1.250000000000004
  0
ARC
  5
3D8
330
1F
100
AcDbEntity
  8
SLD-0
  6
Continuous
 62
   179
370
    25
100
AcDbCircle
 10
132.722643398
 20
114.0064028967
 30
0.0
 40
2.0
100
AcDbArc
 50
180.0
 51
0.0
  0
ARC
  5
3D9
330
1F
100
AcDbEntity
  8
SLD-0
  6
Continuous
 62
   179
370
    25
100
AcDbCircle
 10
15.922643398
 20
114.0064028967
 30
0.0
 40
2.0
100
AcDbArc
 50
180.0
 51
0.0
  0
MTEXT
  5
3DB
330
1F
100
AcDbEntity
  8
0
  6
Continuous
 62
     7
100
AcDbMText
 10
0.0
 20
10.4173632428
 30
0.0
 40
3.73507
 41
0.0
 71
     1
 72
     1
  1
SOLIDWORKS Educational Product.
  7
SLDTEXTSTYLE0
 73
     1
 44
1.0
  0
MTEXT
  5
3DC
330
1F
100
AcDbEntity
  8
0
  6
Continuous
 62
     7
100
AcDbMText
 10
0.0
 20
4.8147582428
 30
0.0
 40
3.73507
 41
0.0
 71
     1
 72
     1
  1
For Instructional Use Only.
  7
SLDTEXTSTYLE0
 73
     1
 44
1.0
  0
ENDSEC
  0
SECTION
  2
OBJECTS
  0
DICTIONARY
  5
C
330
0
100
AcDbDictionary
281
     1
  3
ACAD_GROUP
350
D
  3
ACAD_LAYOUT
350
1A
  3
ACAD_MLINESTYLE
350
17
  3
ACAD_PLOTSETTINGS
350
19
  3
ACAD_PLOTSTYLENAME
350
E
  3
ACAD_SCALELIST
350
47
  3
DWGPROPS
350
3DD
  0
DICTIONARY
  5
D
102
{ACAD_REACTORS
330
C
102
}
330
C
100
AcDbDictionary
281
     1
  0
DICTIONARY
  5
1A
102
{ACAD_REACTORS
330
C
102
}
330
C
100
AcDbDictionary
281
     1
  3
Layout1
350
1E
  3
Layout2
350
26
  3
Model
350
22
  0
DICTIONARY
  5
17
102
{ACAD_REACTORS
330
C
102
}
330
C
100
AcDbDictionary
281
     1
  3
Standard
350
18
  0
DICTIONARY
  5
19
102
{ACAD_REACTORS
330
C
102
}
330
C
100
AcDbDictionary
281
     1
  0
ACDBDICTIONARYWDFLT
  5
E
102
{ACAD_REACTORS
330
C
102
}
330
C
100
AcDbDictionary
281
     1
  3
Normal
350
F
100
AcDbDictionaryWithDefault
340
F
  0
DICTIONARY
  5
47
102
{ACAD_REACTORS
330
C
102
}
330
C
100
AcDbDictionary
281
     1
  3
A0
350
48
  3
A1
350
49
  3
A2
350
4A
  3
A3
350
4B
  3
A4
350
4C
  3
A5
350
4D
  3
A6
350
4E
  3
A7
350
4F
  3
A8
350
50
  3
A9
350
51
  3
B0
350
52
  3
B1
350
53
  3
B2
350
54
  3
B3
350
55
  3
B4
350
56
  3
B5
350
57
  3
B6
350
58
  3
B7
350
59
  3
B8
350
5A
  3
B9
350
5B
  3
C0
350
5C
  3
C1
350
5D
  3
C2
350
5E
  3
C3
350
5F
  3
C4
350
60
  3
C5
350
61
  3
C6
350
62
  3
C7
350
63
  3
C8
350
64
  3
C9
350
65
  3
D0
350
66
  3
D1
350
67
  3
D2
350
68
  0
XRECORD
  5
3DD
102
{ACAD_REACTORS
330
C
102
}
330
C
100
AcDbXrecord
280
     1
  1
DWGPROPS COOKIE
  2

  3

  4

  6

  7

  8
katka
  9

300
=
301
=
302
=
303
=
304
=
305
=
306
=
307
=
308
=
309
=
 40
0.0
 41
2459667.917139549
 42
2459667.917141875
  1

 90
        0
  0
LAYOUT
  5
1E
102
{ACAD_REACTORS
330
1A
102
}
330
1A
100
AcDbPlotSettings
  1

  2
none_device
  4

  6

 40
0.0
 41
0.0
 42
0.0
 43
0.0
 44
0.0
 45
0.0
 46
0.0
 47
0.0
 48
0.0
 49
0.0
140
0.0
141
0.0
142
1.0
143
1.0
 70
   688
 72
     1
 73
     0
 74
     5
  7

 75
    16
147
1.0
148
0.0
149
0.0
100
AcDbLayout
  1
Layout1
 70
     1
 71
     1
 10
0.0
 20
0.0
 11
420.0
 21
297.0
 12
0.0
 22
0.0
 32
0.0
 14
1.0000000000E+20
 24
1.0000000000E+20
 34
1.0000000000E+20
 15
-1.0000000000E+20
 25
-1.0000000000E+20
 35
-1.0000000000E+20
146
0.0
 13
0.0
 23
0.0
 33
0.0
 16
1.0
 26
0.0
 36
0.0
 17
0.0
 27
1.0
 37
0.0
 76
     0
330
1B
  0
LAYOUT
  5
26
102
{ACAD_REACTORS
330
1A
102
}
330
1A
100
AcDbPlotSettings
  1

  2
none_device
  4

  6

 40
0.0
 41
0.0
 42
0.0
 43
0.0
 44
0.0
 45
0.0
 46
0.0
 47
0.0
 48
0.0
 49
0.0
140
0.0
141
0.0
142
1.0
143
1.0
 70
   688
 72
     1
 73
     0
 74
     5
  7

 75
    16
147
1.0
148
0.0
149
0.0
100
AcDbLayout
  1
Layout2
 70
     1
 71
     2
 10
0.0
 20
0.0
 11
0.0
 21
0.0
 12
0.0
 22
0.0
 32
0.0
 14
0.0
 24
0.0
 34
0.0
 15
0.0
 25
0.0
 35
0.0
146
0.0
 13
0.0
 23
0.0
 33
0.0
 16
1.0
 26
0.0
 36
0.0
 17
0.0
 27
1.0
 37
0.0
 76
     0
330
23
  0
LAYOUT
  5
22
102
{ACAD_REACTORS
330
1A
102
}
330
1A
100
AcDbPlotSettings
  1

  2
none_device
  4
Letter_(8.50_x_11.00_Inches)
  6

 40
6.35
 41
6.35
 42
6.35000508
 43
6.35000508
 44
215.9
 45
279.4
 46
0.0
 47
0.0
 48
0.0
 49
0.0
140
0.0
141
0.0
142
1.0
143
1.0
 70
  1712
 72
     1
 73
     0
 74
     0
  7

 75
     0
147
1.0
148
0.0
149
0.0
100
AcDbLayout
  1
Model
 70
     1
 71
     0
 10
0.0
 20
0.0
 11
279.4
 21
215.9
 12
0.0
 22
0.0
 32
0.0
 14
0.0
 24
0.0
 34
0.0
 15
279.4
 25
215.9
 35
0.0
146
0.0
 13
0.0
 23
0.0
 33
0.0
 16
1.0
 26
0.0
 36
0.0
 17
0.0
 27
1.0
 37
0.0
 76
     0
330
1F
331
29
  0
MLINESTYLE
  5
18
102
{ACAD_REACTORS
330
17
102
}
330
17
100
AcDbMlineStyle
  2
Standard
 70
     0
  3

 62
   256
 51
90.0
 52
90.0
 71
     2
 49
0.5
 62
   256
  6
BYLAYER
 49
-0.5
 62
   256
  6
BYLAYER
  0
ACDBPLACEHOLDER
  5
F
102
{ACAD_REACTORS
330
E
102
}
330
E
  0
SCALE
  5
48
102
{ACAD_REACTORS
330
47
102
}
330
47
100
AcDbScale
 70
     0
300
1:1
140
1.0
141
1.0
290
     1
  0
SCALE
  5
49
102
{ACAD_REACTORS
330
47
102
}
330
47
100
AcDbScale
 70
     0
300
1:2
140
1.0
141
2.0
290
     0
  0
SCALE
  5
4A
102
{ACAD_REACTORS
330
47
102
}
330
47
100
AcDbScale
 70
     0
300
1:4
140
1.0
141
4.0
290
     0
  0
SCALE
  5
4B
102
{ACAD_REACTORS
330
47
102
}
330
47
100
AcDbScale
 70
     0
300
1:5
140
1.0
141
5.0
290
     0
  0
SCALE
  5
4C
102
{ACAD_REACTORS
330
47
102
}
330
47
100
AcDbScale
 70
     0
300
1:8
140
1.0
141
8.0
290
     0
  0
SCALE
  5
4D
102
{ACAD_REACTORS
330
47
102
}
330
47
100
AcDbScale
 70
     0
300
1:10
140
1.0
141
10.0
290
     0
  0
SCALE
  5
4E
102
{ACAD_REACTORS
330
47
102
}
330
47
100
AcDbScale
 70
     0
300
1:16
140
1.0
141
16.0
290
     0
  0
SCALE
  5
4F
102
{ACAD_REACTORS
330
47
102
}
330
47
100
AcDbScale
 70
     0
300
1:20
140
1.0
141
20.0
290
     0
  0
SCALE
  5
50
102
{ACAD_REACTORS
330
47
102
}
330
47
100
AcDbScale
 70
     0
300
1:30
140
1.0
141
30.0
290
     0
  0
SCALE
  5
51
102
{ACAD_REACTORS
330
47
102
}
330
47
100
AcDbScale
 70
     0
300
1:40
140
1.0
141
40.0
290
     0
  0
SCALE
  5
52
102
{ACAD_REACTORS
330
47
102
}
330
47
100
AcDbScale
 70
     0
300
1:50
140
1.0
141
50.0
290
     0
  0
SCALE
  5
53
102
{ACAD_REACTORS
330
47
102
}
330
47
100
AcDbScale
 70
     0
300
1:100
140
1.0
141
100.0
290
     0
  0
SCALE
  5
54
102
{ACAD_REACTORS
330
47
102
}
330
47
100
AcDbScale
 70
     0
300
2:1
140
2.0
141
1.0
290
     0
  0
SCALE
  5
55
102
{ACAD_REACTORS
330
47
102
}
330
47
100
AcDbScale
 70
     0
300
4:1
140
4.0
141
1.0
290
     0
  0
SCALE
  5
56
102
{ACAD_REACTORS
330
47
102
}
330
47
100
AcDbScale
 70
     0
300
8:1
140
8.0
141
1.0
290
     0
  0
SCALE
  5
57
102
{ACAD_REACTORS
330
47
102
}
330
47
100
AcDbScale
 70
     0
300
10:1
140
10.0
141
1.0
290
     0
  0
SCALE
  5
58
102
{ACAD_REACTORS
330
47
102
}
330
47
100
AcDbScale
 70
     0
300
100:1
140
100.0
141
1.0
290
     0
  0
SCALE
  5
59
102
{ACAD_REACTORS
330
47
102
}
330
47
100
AcDbScale
 70
     0
300
1/128" = 1'-0"
140
0.0078125
141
12.0
290
     0
  0
SCALE
  5
5A
102
{ACAD_REACTORS
330
47
102
}
330
47
100
AcDbScale
 70
     0
300
1/64" = 1'-0"
140
0.015625
141
12.0
290
     0
  0
SCALE
  5
5B
102
{ACAD_REACTORS
330
47
102
}
330
47
100
AcDbScale
 70
     0
300
1/32" = 1'-0"
140
0.03125
141
12.0
290
     0
  0
SCALE
  5
5C
102
{ACAD_REACTORS
330
47
102
}
330
47
100
AcDbScale
 70
     0
300
1/16" = 1'-0"
140
0.0625
141
12.0
290
     0
  0
SCALE
  5
5D
102
{ACAD_REACTORS
330
47
102
}
330
47
100
AcDbScale
 70
     0
300
3/32" = 1'-0"
140
0.09375
141
12.0
290
     0
  0
SCALE
  5
5E
102
{ACAD_REACTORS
330
47
102
}
330
47
100
AcDbScale
 70
     0
300
1/8" = 1'-0"
140
0.125
141
12.0
290
     0
  0
SCALE
  5
5F
102
{ACAD_REACTORS
330
47
102
}
330
47
100
AcDbScale
 70
     0
300
3/16" = 1'-0"
140
0.1875
141
12.0
290
     0
  0
SCALE
  5
60
102
{ACAD_REACTORS
330
47
102
}
330
47
100
AcDbScale
 70
     0
300
1/4" = 1'-0"
140
0.25
141
12.0
290
     0
  0
SCALE
  5
61
102
{ACAD_REACTORS
330
47
102
}
330
47
100
AcDbScale
 70
     0
300
3/8" = 1'-0"
140
0.375
141
12.0
290
     0
  0
SCALE
  5
62
102
{ACAD_REACTORS
330
47
102
}
330
47
100
AcDbScale
 70
     0
300
1/2" = 1'-0"
140
0.5
141
12.0
290
     0
  0
SCALE
  5
63
102
{ACAD_REACTORS
330
47
102
}
330
47
100
AcDbScale
 70
     0
300
3/4" = 1'-0"
140
0.75
141
12.0
290
     0
  0
SCALE
  5
64
102
{ACAD_REACTORS
330
47
102
}
330
47
100
AcDbScale
 70
     0
300
1" = 1'-0"
140
1.0
141
12.0
290
     0
  0
SCALE
  5
65
102
{ACAD_REACTORS
330
47
102
}
330
47
100
AcDbScale
 70
     0
300
1-1/2" = 1'-0"
140
1.5
141
12.0
290
     0
  0
SCALE
  5
66
102
{ACAD_REACTORS
330
47
102
}
330
47
100
AcDbScale
 70
     0
300
3" = 1'-0"
140
3.0
141
12.0
290
     0
  0
SCALE
  5
67
102
{ACAD_REACTORS
330
47
102
}
330
47
100
AcDbScale
 70
     0
300
6" = 1'-0"
140
6.0
141
12.0
290
     0
  0
SCALE
  5
68
102
{ACAD_REACTORS
330
47
102
}
330
47
100
AcDbScale
 70
     0
300
1'-0" = 1'-0"
140
12.0
141
12.0
290
     0
  0
ENDSEC
  0
EOF
